M48
INCH
T01C.042
T02C.036
T03C.012
;LEADER: 12 
;HEADER: 
;CODE  : ASCII 
;FILE  : BBB_CAPE_PCB_AN-1-4.drl for  ... layers TOP and BOTTOM
;T01 Holesize 1. = 42.000000 Tolerance = +0.000000/-0.000000 PLATED MILS Quantity = 112
;T02 Holesize 2. = 36.000000 Tolerance = +0.000000/-0.000000 PLATED MILS Quantity = 10
;T03 Holesize 3. = 12.000000 Tolerance = +0.000000/-0.000000 PLATED MILS Quantity = 61
%
G90
T01
X061770Y166690
X061770Y167690
X067760Y170630
X067760Y169630
X071800Y175800
X071800Y176800
X069620Y174640
X070620Y174640
X069630Y175670
X070630Y175670
X069630Y176700
X070630Y176700
X069640Y177740
X070640Y177740
X069630Y173620
X070630Y173620
X073880Y175800
X073880Y176800
X074910Y175800
X074910Y176800
X072840Y175800
X072840Y176800
X075920Y175800
X075920Y176800
X061640Y179050
X061640Y180050
X062640Y179050
X062640Y180050
X063640Y179050
X063640Y180050
X064640Y179050
X064640Y180050
X065640Y179050
X065640Y180050
X066640Y179050
X066640Y180050
X067640Y179050
X067640Y180050
X068640Y179050
X068640Y180050
X069640Y179050
X069640Y180050
X070640Y179050
X070640Y180050
X071640Y179050
X071640Y180050
X072640Y179050
X072640Y180050
X073640Y179050
X073640Y180050
X074640Y179050
X074640Y180050
X075640Y179050
X075640Y180050
X076640Y179050
X076640Y180050
X077640Y179050
X077640Y180050
X078640Y179050
X078640Y180050
X079640Y179050
X079640Y180050
X080640Y179050
X080640Y180050
X081640Y179050
X081640Y180050
X082640Y179050
X082640Y180050
X061630Y160060
X061630Y161060
X062630Y160060
X062630Y161060
X063630Y160060
X063630Y161060
X064630Y160060
X064630Y161060
X065630Y160060
X065630Y161060
X066630Y160060
X066630Y161060
X067630Y160060
X067630Y161060
X068630Y160060
X068630Y161060
X069630Y160060
X069630Y161060
X070630Y160060
X070630Y161060
X071630Y160060
X071630Y161060
X072630Y160060
X072630Y161060
X073630Y160060
X073630Y161060
X074630Y160060
X074630Y161060
X075630Y160060
X075630Y161060
X076630Y160060
X076630Y161060
X077630Y160060
X077630Y161060
X078630Y160060
X078630Y161060
X079630Y160060
X079630Y161060
X080630Y160060
X080630Y161060
X081630Y160060
X081630Y161060
X082630Y160060
X082630Y161060
T02
X077840Y173710
R04X001000
X081840Y176710
R04X-001000
T03
X068940Y168280
X075680Y172040
X067930Y164060
X068110Y165610
X082580Y162890
X071490Y166670
X084240Y166280
X074450Y170580
X077810Y174610
X070220Y171710
X078940Y168730
X061650Y170200
X061660Y171390
X063300Y171410
X064770Y171380
X061830Y173070
X084640Y159720
X084640Y161070
X084640Y162280
X071950Y167930
X073020Y163070
X061830Y174400
X079040Y165960
X084760Y176180
X077640Y162800
X064140Y173030
X064140Y174350
X064850Y163690
X076140Y165540
X073960Y163780
X079290Y175260
X081180Y175260
X081510Y169850
X082310Y168920
X084500Y167450
X083380Y167440
X075040Y164710
X075250Y168430
X074180Y168420
X082330Y167370
X073610Y173210
X076400Y162800
X066410Y163690
X073640Y170520
X063940Y162490
X064820Y162510
X065660Y162530
X066570Y162530
X067470Y162540
X068390Y162570
X072960Y169000
X079330Y170450
X078350Y171700
X076770Y166940
X080220Y172750
X080020Y170460
X077219Y168900
X077220Y178110
X077210Y164790
X072390Y166400
X075930Y166250
M30
