M48
INCH
T01C.042
T02C.036
T03C.012
;LEADER: 12 
;HEADER: 
;CODE  : ASCII 
;FILE  : BBB_cape_tape_out-1-4.drl for  ... layers TOP and BOTTOM
;T01 Holesize 1. = 42.000000 Tolerance = +0.000000/-0.000000 PLATED MILS Quantity = 112
;T02 Holesize 2. = 36.000000 Tolerance = +0.000000/-0.000000 PLATED MILS Quantity = 10
;T03 Holesize 3. = 12.000000 Tolerance = +0.000000/-0.000000 PLATED MILS Quantity = 61
%
G90
T01
X0617700Y1666900
X0617700Y1676900
X0677600Y1706300
X0677600Y1696300
X0718000Y1758000
X0718000Y1768000
X0696200Y1746400
X0706200Y1746400
X0696300Y1756700
X0706300Y1756700
X0696300Y1767000
X0706300Y1767000
X0696400Y1777400
X0706400Y1777400
X0696300Y1736200
X0706300Y1736200
X0738800Y1758000
X0738800Y1768000
X0749100Y1758000
X0749100Y1768000
X0728400Y1758000
X0728400Y1768000
X0759200Y1758000
X0759200Y1768000
X0616400Y1790500
X0616400Y1800500
X0626400Y1790500
X0626400Y1800500
X0636400Y1790500
X0636400Y1800500
X0646400Y1790500
X0646400Y1800500
X0656400Y1790500
X0656400Y1800500
X0666400Y1790500
X0666400Y1800500
X0676400Y1790500
X0676400Y1800500
X0686400Y1790500
X0686400Y1800500
X0696400Y1790500
X0696400Y1800500
X0706400Y1790500
X0706400Y1800500
X0716400Y1790500
X0716400Y1800500
X0726400Y1790500
X0726400Y1800500
X0736400Y1790500
X0736400Y1800500
X0746400Y1790500
X0746400Y1800500
X0756400Y1790500
X0756400Y1800500
X0766400Y1790500
X0766400Y1800500
X0776400Y1790500
X0776400Y1800500
X0786400Y1790500
X0786400Y1800500
X0796400Y1790500
X0796400Y1800500
X0806400Y1790500
X0806400Y1800500
X0816400Y1790500
X0816400Y1800500
X0826400Y1790500
X0826400Y1800500
X0616300Y1600600
X0616300Y1610600
X0626300Y1600600
X0626300Y1610600
X0636300Y1600600
X0636300Y1610600
X0646300Y1600600
X0646300Y1610600
X0656300Y1600600
X0656300Y1610600
X0666300Y1600600
X0666300Y1610600
X0676300Y1600600
X0676300Y1610600
X0686300Y1600600
X0686300Y1610600
X0696300Y1600600
X0696300Y1610600
X0706300Y1600600
X0706300Y1610600
X0716300Y1600600
X0716300Y1610600
X0726300Y1600600
X0726300Y1610600
X0736300Y1600600
X0736300Y1610600
X0746300Y1600600
X0746300Y1610600
X0756300Y1600600
X0756300Y1610600
X0766300Y1600600
X0766300Y1610600
X0776300Y1600600
X0776300Y1610600
X0786300Y1600600
X0786300Y1610600
X0796300Y1600600
X0796300Y1610600
X0806300Y1600600
X0806300Y1610600
X0816300Y1600600
X0816300Y1610600
X0826300Y1600600
X0826300Y1610600
T02
X0778400Y1737100
R04X0010000
X0818400Y1767100
R04X-0010000
T03
X0689400Y1682800
X0756800Y1720400
X0679300Y1640600
X0681100Y1656100
X0825800Y1628900
X0714900Y1666700
X0842400Y1662800
X0744500Y1705800
X0778100Y1746100
X0702200Y1717100
X0789400Y1687300
X0616500Y1702000
X0616600Y1713900
X0633000Y1714100
X0647700Y1713800
X0618300Y1730700
X0846400Y1597200
X0846400Y1610700
X0846400Y1622800
X0719500Y1679300
X0730200Y1630700
X0618300Y1744000
X0790400Y1659600
X0847600Y1761800
X0776400Y1628000
X0641400Y1730300
X0641400Y1743500
X0648500Y1636900
X0761400Y1655400
X0739600Y1637800
X0792900Y1752600
X0811800Y1752600
X0815100Y1698500
X0823100Y1689200
X0845000Y1674500
X0833800Y1674400
X0750400Y1647100
X0752500Y1684300
X0741800Y1684200
X0823300Y1673700
X0736100Y1732100
X0764000Y1628000
X0664100Y1636900
X0736400Y1705200
X0639400Y1624900
X0648200Y1625100
X0656600Y1625300
X0665700Y1625300
X0674700Y1625400
X0683900Y1625700
X0729600Y1690000
X0793300Y1704500
X0783500Y1717000
X0767700Y1669400
X0802200Y1727500
X0800200Y1704600
X0772186Y1689000
X0772200Y1781100
X0772100Y1647900
X0723900Y1664000
X0759300Y1662500
M30
