M48
INCH,LZ
T01C.03
T02C.025
T03C.015
T04C.01
;LEADER: 12 
;HEADER: 
;CODE  : ASCII 
;FILE  : ETDS_PCB_V1_5-1-4.drl for  ... layers TOP and BOTTOM
;DESIGN: ETDS_PCB_V1_5.brd
;T01 Holesize 1. = 30.000000 Tolerance = +0.000000/-0.000000 PLATED MILS Quantity = 2
;T02 Holesize 2. = 25.000000 Tolerance = +0.000000/-0.000000 PLATED MILS Quantity = 25
;T03 Holesize 3. = 15.000000 Tolerance = +0.000000/-0.000000 PLATED MILS Quantity = 2
;T04 Holesize 4. = 10.000000 Tolerance = +0.000000/-0.000000 PLATED MILS Quantity = 69
%
G90
T01
X07998Y1658
X0791926Y1658
T02
X07524Y16986
X07574Y16986
X07524Y16936
X07574Y16936
X07524Y16886
X07574Y16886
X07524Y16836
X07574Y16836
X07524Y16786
X07574Y16786
X08314Y16986
X08364Y16986
X08314Y16936
X08364Y16936
X08314Y16886
X08364Y16886
X08314Y16836
X08364Y16836
X08314Y16786
X08364Y16786
X0782339Y1686039
R04X-0005
T03
X07829Y16748
X0787Y1671077
T04
X08217Y1682586
X08233Y17029
X0820354Y1702854
X08035Y17089
X08195Y17055
X0783306Y1691039
X0803937Y1704237
X0818Y17072
X07676Y16818
X07714Y1691039
X08225Y16945
X08166Y16975
X08255Y16969
X08382Y1707199
X0800215Y1685215
X08132Y16574
X0824708Y1659754
X0754708Y1663754
X0759708Y1663754
X0789Y1665
X07924Y16652
X0754708Y1667754
X0759708Y1667754
X0774708Y1667754
X08252Y16686
X0754708Y1671754
X0759708Y1671754
X0774708Y1671754
X0829708Y1671754
X0754708Y1675754
X0759708Y1675754
X0824708Y1675754
X0829708Y1675754
X0754708Y1703754
X0769708Y1703754
X0789708Y1703754
R02X0005
X0809708Y1703754
X0754708Y1707754
X0769708Y1707754
X0799708Y1707754
X07822Y16946
X08076Y17114
X08116Y1697
X07756Y16912
X08192Y16974
X0793932Y16852
X08003Y16781
X0825Y1705
X0783Y17104
X08186Y16914
X08366Y17036
X08338Y17014
X07784Y16636
X07616Y16586
X07524Y16584
X07732Y16566
X07682Y16582
X07676Y16775
X07679Y16926
X0798032Y1664432
X08302Y17016
X08303Y1705
X08217Y16753
X08056Y16688
X0805906Y1702394
X07928Y17091
X08303Y17113
M30
