M48
INCH,LZ
T01C.01772
T02C.01
;LEADER: 12 
;HEADER: 
;CODE  : ASCII 
;FILE  : ETDS_PCB_V1_3-1-4.drl for  ... layers TOP and BOTTOM
;DESIGN: ETDS_PCB_V1_3.brd
;T01 Holesize 1. = 17.720000 Tolerance = +0.000000/-0.000000 PLATED MILS Quantity = 25
;T02 Holesize 2. = 10.000000 Tolerance = +0.000000/-0.000000 PLATED MILS Quantity = 166
%
G90
T01
X07524Y16986
X07574Y16986
X07524Y16936
X07574Y16936
X07524Y16886
X07574Y16886
X07524Y16836
X07574Y16836
X07524Y16786
X07574Y16786
X08314Y16986
X08364Y16986
X08314Y16936
X08364Y16936
X08314Y16886
X08364Y16886
X08314Y16836
X08364Y16836
X08314Y16786
X08364Y16786
X0761661Y1676061
R04X0005
T02
X08217Y1682586
X08233Y17029
X0820354Y1702854
X08035Y17089
X08195Y17055
X0783306Y1690906
X0803937Y1704237
X0818Y17072
X07639Y1685
X07802Y16901
X08225Y16945
X08166Y16975
X08255Y16969
X08382Y1707199
X08Y1685
X0750851Y165585
R11X0003
X0792851Y165585
R03X0003
X0813851Y165585
X0816851Y165585
X0825851Y165585
X0750851Y165885
R08X0003
X0780851Y165885
X0783851Y165885
X0792851Y165885
X0825851Y165885
X0750851Y166185
R08X0003
X0825851Y166185
X0750851Y166485
R08X0003
X0786851Y166485
X0789851Y166485
X0750851Y166785
R03X0003
X0774851Y166785
X0783851Y166785
X0750851Y167085
R03X0003
X0780851Y167085
R02X0003
X0828851Y167085
R03X0003
X0750851Y167385
R04X0003
X0825851Y167385
R04X0003
X0798851Y167685
X08057Y16776
X0825851Y167685
X0828851Y167685
X0759851Y167985
X0828851Y167985
X0759851Y168285
X0768851Y168285
X0828851Y168285
X0750851Y168585
R02X0003
X0792851Y168585
X0795851Y168585
X0801851Y168585
R02X0003
X0837851Y168585
X0825851Y169185
X0828851Y169185
X0750851Y170085
X0753851Y170085
X0768851Y170085
R02X0021
X0813851Y170085
X0816851Y170085
X0750851Y170385
R02X0003
X0768851Y170385
X0789851Y170385
X0792851Y170385
X0810851Y170385
X0750851Y170685
R02X0003
X0765851Y170685
R03X0003
X0792851Y170685
X0798851Y170685
X0750851Y170985
R02X0003
X0762851Y170985
R04X0003
X0783851Y170985
X0789851Y170985
X0837851Y170985
X08349Y17052
X08337Y17017
X08185Y16914
X08115Y16966
X08288Y1699
X07613Y16934
X08243Y17058
X08192Y16974
X07694Y1689805
X07638Y1681
X08002Y16585
X08217Y16753
X08056Y16688
X0805906Y1702394
X07928Y17091
X0830654Y1705054
X08307Y17019
M30
