M48
INCH,LZ
T01C.013
;LEADER: 12 
;HEADER: 
;CODE  : ASCII 
;FILE  : ETDS_CHIP_AN-1-4.drl for  ... layers TOP and BOTTOM
;T01 Holesize 1. = 13.000000 Tolerance = +0.000000/-0.000000 PLATED MILS Quantity = 52
%
G90
T01
X07683Y16697
X08067Y16831
X07665Y1691521
X0787Y16993
X0796Y1700901
X07833Y16875
X08225Y16891
X08195Y16891
X079915Y169045
X07806Y16895
X08076Y169275
X07649Y169349
X07649Y17012
X0798Y17014
X07939Y16874
X08056Y1690907
X084185Y165792
X081185Y167065
X08339Y167955
X083075Y17028
X07875Y1667
X082685Y169485
X08Y1685
X083275Y16713
X08322Y16612
X080155Y17024
X0752151Y166865
X0752151Y166455
X0752151Y166
X07568Y166435
X07566Y165825
X076195Y1658151
X07674Y1658151
X07722Y1658151
X077635Y1658151
X07522Y169715
X075235Y170065
X07558Y1702349
X078175Y167315
X07819Y167805
X08252Y166115
X081135Y166705
X079865Y1658151
X07945Y16795
X076575Y168715
X083385Y17028
X077235Y1701302
X08163Y16966
X08214Y17027
X075725Y16726
X08269Y16749
X07608Y1701366
M30
