M48
INCH,LZ
T01C.013
;LEADER: 12 
;HEADER: 
;CODE  : ASCII 
;FILE  : ETDS_PCB_AN_V1_2-1-4.drl for  ... layers TOP and BOTTOM
;DESIGN: ETDS_PCB_AN_V1_2.brd
;T01 Holesize 1. = 13.000000 Tolerance = +0.000000/-0.000000 PLATED MILS Quantity = 44
%
G90
T01
X07837Y17018
X07822Y1674973
X0818068Y1683032
X0783268Y1686968
X08303Y1683
X08295Y16923
X08301Y16864
X0822174Y1692874
X0781Y1688937
X083271Y1706848
X08262Y16903
X07881Y16994
X08296Y16716
X08241Y17058
X0764468Y1700932
X08168Y1657
X0753Y17096
X0753Y17054
X0753Y1701
X08Y1685
X08356Y17071
X08084Y17087
X07953Y16601
X08292Y16574
X07519Y16646
X07574Y16928
X0809Y1657
X07871Y17096
X07976Y17086
X08238Y17029
X0767027Y1709627
X08302Y1677
X0793Y16574
X08107Y16694
X0789813Y1711187
X07719Y16968
X078625Y167285
X08363Y16943
X0766934Y1694166
X07574Y16728
X08356Y17029
X08394Y17029
X0832679Y1698721
X0805906Y169715
M30
