G04 ================== begin FILE IDENTIFICATION RECORD ==================*
G04 Layout Name:  BBB_CAPE_PCB_AN_V_1_1.brd*
G04 Film Name:    SILKSCREEN_TOP*
G04 File Format:  Gerber RS274X*
G04 File Origin:  Cadence Allegro 16.6-2015-S056*
G04 Origin Date:  Tue May 17 18:43:49 2016*
G04 *
G04 Layer:  REF DES/SILKSCREEN_TOP*
G04 Layer:  PACKAGE GEOMETRY/SILKSCREEN_TOP*
G04 Layer:  BOARD GEOMETRY/SILKSCREEN_TOP*
G04 *
G04 Offset:    (0.00 0.00)*
G04 Mirror:    No*
G04 Mode:      Positive*
G04 Rotation:  0*
G04 FullContactRelief:  No*
G04 UndefLineWidth:     5.00*
G04 ================== end FILE IDENTIFICATION RECORD ====================*
%FSLAX25Y25*MOIN*%
%IR0*IPPOS*OFA0.00000B0.00000*MIA0B0*SFA1.00000B1.00000*%
%ADD10C,.005*%
%ADD11C,.006*%
G75*
%LPD*%
G75*
G36*
G01X680462Y1635900D02*
G03I-3662J0D01*
G37*
G36*
G01X690640Y1757900D02*
G03I-1140J0D01*
G37*
G36*
G01X677892Y1761000D02*
G03I-1992J0D01*
G37*
G36*
G01X702800Y1683400D02*
Y1685400D01*
X700600D01*
Y1683400D01*
X702800D01*
G37*
G36*
G01X711700Y1684000D02*
X713700D01*
Y1686200D01*
X711700D01*
Y1684000D01*
G37*
G36*
G01X700900Y1697100D02*
Y1695100D01*
X703100D01*
Y1697100D01*
X700900D01*
G37*
G36*
G01Y1704800D02*
Y1702800D01*
X703100D01*
Y1704800D01*
X700900D01*
G37*
G36*
G01X703500Y1711000D02*
Y1713000D01*
X701300D01*
Y1711000D01*
X703500D01*
G37*
G36*
G01X703100Y1699100D02*
Y1701100D01*
X700900D01*
Y1699100D01*
X703100D01*
G37*
G36*
G01X700700Y1691500D02*
Y1689500D01*
X702900D01*
Y1691500D01*
X700700D01*
G37*
G36*
G01X703500Y1714900D02*
Y1716900D01*
X701300D01*
Y1714900D01*
X703500D01*
G37*
G36*
G01X701300Y1720700D02*
Y1718700D01*
X703500D01*
Y1720700D01*
X701300D01*
G37*
G36*
G01X712800Y1761700D02*
Y1763700D01*
X710600D01*
Y1761700D01*
X712800D01*
G37*
G36*
G01Y1767200D02*
Y1769200D01*
X710600D01*
Y1767200D01*
X712800D01*
G37*
G36*
G01X735010Y1648800D02*
X736510D01*
Y1649800D01*
X735010D01*
Y1648800D01*
G37*
G36*
G01X731700Y1685900D02*
X729700D01*
Y1683700D01*
X731700D01*
Y1685900D01*
G37*
G36*
G01X722210Y1680800D02*
X723710D01*
Y1679800D01*
X722210D01*
Y1680800D01*
G37*
G36*
G01X773793Y1648000D02*
G03I-2193J0D01*
G37*
G36*
G01X787651Y1648170D02*
G03I-1113J0D01*
G37*
G36*
G01X793244Y1672243D02*
G03I-880J0D01*
G37*
G36*
G01X782006Y1709400D02*
G03I-806J0D01*
G37*
G36*
G01X806000Y1679800D02*
X808000D01*
Y1682000D01*
X806000D01*
Y1679800D01*
G37*
G36*
G01X827600Y1682100D02*
Y1692800D01*
X815000D01*
Y1682100D01*
X827600D01*
G37*
G36*
G01X814100Y1701900D02*
X816100D01*
Y1704100D01*
X814100D01*
Y1701900D01*
G37*
G36*
G01X806900Y1719900D02*
X808900D01*
Y1722100D01*
X806900D01*
Y1719900D01*
G37*
G36*
G01X802600D02*
X804600D01*
Y1722100D01*
X802600D01*
Y1719900D01*
G37*
G36*
G01X798000D02*
X800000D01*
Y1722100D01*
X798000D01*
Y1719900D01*
G37*
G36*
G01X819400Y1674900D02*
Y1672900D01*
X821600D01*
Y1674900D01*
X819400D01*
G37*
G36*
G01X818900Y1681200D02*
Y1679200D01*
X821100D01*
Y1681200D01*
X818900D01*
G37*
G36*
G01X823700Y1693200D02*
Y1695200D01*
X821500D01*
Y1693200D01*
X823700D01*
G37*
G36*
G01X820800Y1710700D02*
X822800D01*
Y1712900D01*
X820800D01*
Y1710700D01*
G37*
G36*
G01X825147Y1708500D02*
G03I-447J0D01*
G37*
G54D10*
G01X612700Y1661900D02*
X622700D01*
Y1681900D01*
X612700D01*
Y1661900D01*
G01X682000Y1621400D02*
Y1631400D01*
X662000D01*
X632000D01*
Y1621400D01*
X662000D01*
X682000D01*
G01X615308Y1656687D02*
X615183Y1656527D01*
X615100Y1656340D01*
Y1656127D01*
X615225Y1655887D01*
X615433Y1655700D01*
X615683Y1655567D01*
X616100Y1655460D01*
X616475Y1655433D01*
X616850Y1655487D01*
X617100Y1655567D01*
X617350Y1655727D01*
X617517Y1655913D01*
X617600Y1656100D01*
Y1656287D01*
X617517Y1656473D01*
X617392Y1656633D01*
X617225Y1656767D01*
G01X617100Y1657713D02*
X617392Y1657873D01*
X617558Y1658087D01*
X617600Y1658327D01*
X617558Y1658540D01*
X617350Y1658753D01*
X617100Y1658887D01*
X616850Y1658913D01*
X616558Y1658860D01*
X616350Y1658673D01*
X616267Y1658487D01*
Y1658247D01*
G01Y1658487D02*
X616142Y1658647D01*
X615933Y1658780D01*
X615683Y1658833D01*
X615433Y1658780D01*
X615225Y1658647D01*
X615100Y1658407D01*
X615142Y1658167D01*
X615308Y1657927D01*
G01X653993Y1634400D02*
Y1637983D01*
X653740Y1638733D01*
X653233Y1639233D01*
X652600Y1639400D01*
X651967Y1639233D01*
X651460Y1638733D01*
X651207Y1637983D01*
Y1634400D01*
G01X647500Y1639400D02*
Y1634400D01*
X648260Y1635400D01*
G01Y1639400D02*
X646740D01*
G01X643793Y1638400D02*
X643413Y1638983D01*
X642907Y1639317D01*
X642337Y1639400D01*
X641830Y1639317D01*
X641323Y1638900D01*
X641007Y1638400D01*
X640943Y1637900D01*
X641070Y1637317D01*
X641513Y1636900D01*
X641957Y1636733D01*
X642527D01*
G01X641957D02*
X641577Y1636483D01*
X641260Y1636067D01*
X641133Y1635567D01*
X641260Y1635067D01*
X641577Y1634650D01*
X642147Y1634400D01*
X642717Y1634483D01*
X643287Y1634817D01*
G01X669287Y1616400D02*
Y1618192D01*
X669180Y1618567D01*
X668967Y1618817D01*
X668700Y1618900D01*
X668433Y1618817D01*
X668220Y1618567D01*
X668113Y1618192D01*
Y1616400D01*
G01X666500Y1618900D02*
Y1616400D01*
X666820Y1616900D01*
G01Y1618900D02*
X666180D01*
G01X664353D02*
X664300Y1618358D01*
X664220Y1617900D01*
X664113Y1617483D01*
X663980Y1617025D01*
X663767Y1616400D01*
X664833D01*
G01X667087Y1729800D02*
Y1731592D01*
X666980Y1731967D01*
X666767Y1732217D01*
X666500Y1732300D01*
X666233Y1732217D01*
X666020Y1731967D01*
X665913Y1731592D01*
Y1729800D01*
G01X664807Y1731258D02*
X664620Y1730967D01*
X664460Y1730800D01*
X664247Y1730717D01*
X664060Y1730800D01*
X663927Y1730967D01*
X663820Y1731217D01*
X663793Y1731508D01*
X663820Y1731758D01*
X663927Y1732008D01*
X664087Y1732217D01*
X664273Y1732300D01*
X664487Y1732217D01*
X664673Y1731967D01*
X664780Y1731592D01*
X664807Y1731175D01*
X664753Y1730633D01*
X664673Y1730342D01*
X664540Y1730050D01*
X664353Y1729842D01*
X664167Y1729800D01*
X663980Y1729883D01*
X663847Y1730092D01*
G01X673629Y1736663D02*
Y1768159D01*
X640165D01*
Y1736663D01*
X673629D01*
G01X679992Y1713913D02*
X680117Y1714073D01*
X680200Y1714260D01*
Y1714473D01*
X680075Y1714713D01*
X679867Y1714900D01*
X679617Y1715033D01*
X679200Y1715140D01*
X678825Y1715167D01*
X678450Y1715113D01*
X678200Y1715033D01*
X677950Y1714873D01*
X677783Y1714687D01*
X677700Y1714500D01*
Y1714313D01*
X677783Y1714127D01*
X677908Y1713967D01*
X678075Y1713833D01*
G01X677700Y1712300D02*
X680200D01*
X679700Y1712620D01*
G01X677700D02*
Y1711980D01*
G01X682600Y1711300D02*
X672600D01*
Y1691300D01*
X682600D01*
Y1711300D01*
G01X680500Y1734100D02*
Y1724100D01*
X700500D01*
Y1734100D01*
X680500D01*
G01X700500Y1734300D02*
Y1744300D01*
X680500D01*
Y1734300D01*
X700500D01*
G01X695600Y1761600D02*
X690800D01*
Y1766300D01*
X695700D01*
Y1769900D01*
X703800D01*
Y1757900D01*
X695600D01*
Y1761600D01*
G01X683100Y1764313D02*
X680600D01*
Y1764847D01*
X680725Y1765060D01*
X680892Y1765220D01*
X681142Y1765353D01*
X681433Y1765460D01*
X681850Y1765487D01*
X682267Y1765460D01*
X682558Y1765353D01*
X682808Y1765220D01*
X682975Y1765060D01*
X683100Y1764847D01*
Y1764313D01*
G01Y1767100D02*
X680600D01*
X681100Y1766780D01*
G01X683100D02*
Y1767420D01*
G01X683900Y1756000D02*
X688100D01*
Y1772300D01*
X683900D01*
Y1756000D01*
G01X709333Y1685600D02*
Y1683100D01*
X708667D01*
X708453Y1683225D01*
X708320Y1683392D01*
X708267Y1683725D01*
X708320Y1684058D01*
X708480Y1684267D01*
X708667Y1684392D01*
X709333D01*
G01X708667D02*
X708267Y1685600D01*
G01X707187Y1685100D02*
X707027Y1685392D01*
X706813Y1685558D01*
X706573Y1685600D01*
X706360Y1685558D01*
X706147Y1685350D01*
X706013Y1685100D01*
X705987Y1684850D01*
X706040Y1684558D01*
X706227Y1684350D01*
X706413Y1684267D01*
X706653D01*
G01X706413D02*
X706253Y1684142D01*
X706120Y1683933D01*
X706067Y1683683D01*
X706120Y1683433D01*
X706253Y1683225D01*
X706493Y1683100D01*
X706733Y1683142D01*
X706973Y1683308D01*
G01X717400Y1682867D02*
X714900D01*
Y1683533D01*
X715025Y1683747D01*
X715192Y1683880D01*
X715525Y1683933D01*
X715858Y1683880D01*
X716067Y1683720D01*
X716192Y1683533D01*
Y1682867D01*
G01Y1683533D02*
X717400Y1683933D01*
G01X716358Y1685093D02*
X716067Y1685280D01*
X715900Y1685440D01*
X715817Y1685653D01*
X715900Y1685840D01*
X716067Y1685973D01*
X716317Y1686080D01*
X716608Y1686107D01*
X716858Y1686080D01*
X717108Y1685973D01*
X717317Y1685813D01*
X717400Y1685627D01*
X717317Y1685413D01*
X717067Y1685227D01*
X716692Y1685120D01*
X716275Y1685093D01*
X715733Y1685147D01*
X715442Y1685227D01*
X715150Y1685360D01*
X714942Y1685547D01*
X714900Y1685733D01*
X714983Y1685920D01*
X715192Y1686053D01*
G01X717400Y1687800D02*
X714900D01*
X715400Y1687480D01*
G01X717400D02*
Y1688120D01*
G01X707387Y1691592D02*
X707227Y1691717D01*
X707040Y1691800D01*
X706827D01*
X706587Y1691675D01*
X706400Y1691467D01*
X706267Y1691217D01*
X706160Y1690800D01*
X706133Y1690425D01*
X706187Y1690050D01*
X706267Y1689800D01*
X706427Y1689550D01*
X706613Y1689383D01*
X706800Y1689300D01*
X706987D01*
X707173Y1689383D01*
X707333Y1689508D01*
X707467Y1689675D01*
G01X709320Y1689300D02*
Y1691800D01*
X708333Y1690008D01*
X709667D01*
G01X708067Y1694800D02*
Y1697300D01*
X708733D01*
X708947Y1697175D01*
X709080Y1697008D01*
X709133Y1696675D01*
X709080Y1696342D01*
X708920Y1696133D01*
X708733Y1696008D01*
X708067D01*
G01X708733D02*
X709133Y1694800D01*
G01X711120D02*
Y1697300D01*
X710133Y1695508D01*
X711467D01*
G01X707067Y1702000D02*
Y1704500D01*
X707733D01*
X707947Y1704375D01*
X708080Y1704208D01*
X708133Y1703875D01*
X708080Y1703542D01*
X707920Y1703333D01*
X707733Y1703208D01*
X707067D01*
G01X707733D02*
X708133Y1702000D01*
G01X710333D02*
X709267D01*
Y1704500D01*
X710333D01*
G01X709907Y1703292D02*
X709267D01*
G01X711387Y1702000D02*
Y1704500D01*
X712613Y1702000D01*
Y1704500D01*
G01X714200D02*
Y1702000D01*
G01X713587Y1704500D02*
X714813D01*
G01X710933Y1716300D02*
Y1713800D01*
X710267D01*
X710053Y1713925D01*
X709920Y1714092D01*
X709867Y1714425D01*
X709920Y1714758D01*
X710080Y1714967D01*
X710267Y1715092D01*
X710933D01*
G01X710267D02*
X709867Y1716300D01*
G01X708707Y1714217D02*
X708547Y1713967D01*
X708360Y1713842D01*
X708147Y1713800D01*
X707880Y1713883D01*
X707693Y1714092D01*
X707640Y1714342D01*
X707667Y1714592D01*
X707773Y1714800D01*
X708307Y1715217D01*
X708547Y1715508D01*
X708707Y1715925D01*
X708760Y1716300D01*
X707640D01*
G01X715133Y1712800D02*
Y1710300D01*
X714467D01*
X714253Y1710425D01*
X714120Y1710592D01*
X714067Y1710925D01*
X714120Y1711258D01*
X714280Y1711467D01*
X714467Y1711592D01*
X715133D01*
G01X714467D02*
X714067Y1712800D01*
G01X711867D02*
X712933D01*
Y1710300D01*
X711867D01*
G01X712293Y1711508D02*
X712933D01*
G01X710813Y1712800D02*
Y1710300D01*
X709587Y1712800D01*
Y1710300D01*
G01X707787Y1711467D02*
X707680Y1711342D01*
X707600Y1711133D01*
X707547Y1710842D01*
X707600Y1710592D01*
X707707Y1710425D01*
X707893Y1710300D01*
X708613D01*
Y1712800D01*
X707733D01*
X707547Y1712633D01*
X707440Y1712383D01*
X707387Y1712092D01*
X707440Y1711800D01*
X707600Y1711550D01*
X707787Y1711467D01*
X708613D01*
G01X710013Y1698008D02*
X710173Y1697883D01*
X710360Y1697800D01*
X710573D01*
X710813Y1697925D01*
X711000Y1698133D01*
X711133Y1698383D01*
X711240Y1698800D01*
X711267Y1699175D01*
X711213Y1699550D01*
X711133Y1699800D01*
X710973Y1700050D01*
X710787Y1700217D01*
X710600Y1700300D01*
X710413D01*
X710227Y1700217D01*
X710067Y1700092D01*
X709933Y1699925D01*
G01X708907Y1698217D02*
X708747Y1697967D01*
X708560Y1697842D01*
X708347Y1697800D01*
X708080Y1697883D01*
X707893Y1698092D01*
X707840Y1698342D01*
X707867Y1698592D01*
X707973Y1698800D01*
X708507Y1699217D01*
X708747Y1699508D01*
X708907Y1699925D01*
X708960Y1700300D01*
X707840D01*
G01X701967Y1729200D02*
Y1731700D01*
X702633D01*
X702847Y1731575D01*
X702980Y1731408D01*
X703033Y1731075D01*
X702980Y1730742D01*
X702820Y1730533D01*
X702633Y1730408D01*
X701967D01*
G01X702633D02*
X703033Y1729200D01*
G01X704113Y1729575D02*
X704273Y1729367D01*
X704460Y1729242D01*
X704700Y1729200D01*
X704940Y1729283D01*
X705127Y1729450D01*
X705260Y1729742D01*
X705287Y1730075D01*
X705233Y1730408D01*
X705100Y1730617D01*
X704913Y1730783D01*
X704727Y1730825D01*
X704540Y1730783D01*
X704300Y1730617D01*
X704380Y1731700D01*
X705100D01*
G01X706900Y1729200D02*
X707087Y1729242D01*
X707300Y1729367D01*
X707433Y1729575D01*
X707487Y1729867D01*
X707433Y1730158D01*
X707273Y1730408D01*
X707033Y1730533D01*
X706767D01*
X706607Y1730617D01*
X706473Y1730825D01*
X706420Y1731117D01*
X706500Y1731408D01*
X706687Y1731617D01*
X706900Y1731700D01*
X707113Y1731617D01*
X707300Y1731408D01*
X707380Y1731117D01*
X707327Y1730825D01*
X707193Y1730617D01*
X707033Y1730533D01*
X706767D01*
X706527Y1730408D01*
X706367Y1730158D01*
X706313Y1729867D01*
X706367Y1729575D01*
X706500Y1729367D01*
X706713Y1729242D01*
X706900Y1729200D01*
G01X707833Y1740400D02*
Y1737900D01*
X707167D01*
X706953Y1738025D01*
X706820Y1738192D01*
X706767Y1738525D01*
X706820Y1738858D01*
X706980Y1739067D01*
X707167Y1739192D01*
X707833D01*
G01X707167D02*
X706767Y1740400D01*
G01X705687Y1740025D02*
X705527Y1740233D01*
X705340Y1740358D01*
X705100Y1740400D01*
X704860Y1740317D01*
X704673Y1740150D01*
X704540Y1739858D01*
X704513Y1739525D01*
X704567Y1739192D01*
X704700Y1738983D01*
X704887Y1738817D01*
X705073Y1738775D01*
X705260Y1738817D01*
X705500Y1738983D01*
X705420Y1737900D01*
X704700D01*
G01X703353Y1740108D02*
X703167Y1740317D01*
X702953Y1740400D01*
X702740Y1740317D01*
X702553Y1740067D01*
X702420Y1739692D01*
X702367Y1739317D01*
Y1738858D01*
X702420Y1738483D01*
X702553Y1738150D01*
X702713Y1737983D01*
X702900Y1737900D01*
X703113Y1737983D01*
X703273Y1738150D01*
X703380Y1738400D01*
X703433Y1738733D01*
X703380Y1739025D01*
X703247Y1739317D01*
X703087Y1739483D01*
X702900Y1739525D01*
X702687Y1739442D01*
X702527Y1739233D01*
X702367Y1738858D01*
G01X706867Y1717700D02*
Y1720200D01*
X707533D01*
X707747Y1720075D01*
X707880Y1719908D01*
X707933Y1719575D01*
X707880Y1719242D01*
X707720Y1719033D01*
X707533Y1718908D01*
X706867D01*
G01X707533D02*
X707933Y1717700D01*
G01X709013Y1718075D02*
X709173Y1717867D01*
X709360Y1717742D01*
X709600Y1717700D01*
X709840Y1717783D01*
X710027Y1717950D01*
X710160Y1718242D01*
X710187Y1718575D01*
X710133Y1718908D01*
X710000Y1719117D01*
X709813Y1719283D01*
X709627Y1719325D01*
X709440Y1719283D01*
X709200Y1719117D01*
X709280Y1720200D01*
X710000D01*
G01X711747Y1717700D02*
X711800Y1718242D01*
X711880Y1718700D01*
X711987Y1719117D01*
X712120Y1719575D01*
X712333Y1720200D01*
X711267D01*
G01X707700Y1757000D02*
X707658Y1756787D01*
X707492Y1756600D01*
X707242Y1756440D01*
X706950Y1756333D01*
X706617Y1756280D01*
X706283D01*
X705950Y1756333D01*
X705658Y1756440D01*
X705408Y1756600D01*
X705242Y1756787D01*
X705200Y1757000D01*
X705242Y1757213D01*
X705408Y1757400D01*
X705658Y1757560D01*
X705950Y1757667D01*
X706283Y1757720D01*
X706617D01*
X706950Y1757667D01*
X707242Y1757560D01*
X707492Y1757400D01*
X707658Y1757213D01*
X707700Y1757000D01*
G01X707033Y1757213D02*
X707700Y1757533D01*
G01X705617Y1758693D02*
X705367Y1758853D01*
X705242Y1759040D01*
X705200Y1759253D01*
X705283Y1759520D01*
X705492Y1759707D01*
X705742Y1759760D01*
X705992Y1759733D01*
X706200Y1759627D01*
X706617Y1759093D01*
X706908Y1758853D01*
X707325Y1758693D01*
X707700Y1758640D01*
Y1759760D01*
G01X723900Y1636107D02*
X727483D01*
X728233Y1636360D01*
X728733Y1636867D01*
X728900Y1637500D01*
X728733Y1638133D01*
X728233Y1638640D01*
X727483Y1638893D01*
X723900D01*
G01X728900Y1642600D02*
X723900D01*
X724900Y1641840D01*
G01X728900D02*
Y1643360D01*
G01Y1647700D02*
X723900D01*
X724900Y1646940D01*
G01X728900D02*
Y1648460D01*
G01X735992Y1686813D02*
X736117Y1686973D01*
X736200Y1687160D01*
Y1687373D01*
X736075Y1687613D01*
X735867Y1687800D01*
X735617Y1687933D01*
X735200Y1688040D01*
X734825Y1688067D01*
X734450Y1688013D01*
X734200Y1687933D01*
X733950Y1687773D01*
X733783Y1687587D01*
X733700Y1687400D01*
Y1687213D01*
X733783Y1687027D01*
X733908Y1686867D01*
X734075Y1686733D01*
G01X733700Y1684880D02*
X736200D01*
X734408Y1685867D01*
Y1684533D01*
G01X734075Y1683587D02*
X733867Y1683427D01*
X733742Y1683240D01*
X733700Y1683000D01*
X733783Y1682760D01*
X733950Y1682573D01*
X734242Y1682440D01*
X734575Y1682413D01*
X734908Y1682467D01*
X735117Y1682600D01*
X735283Y1682787D01*
X735325Y1682973D01*
X735283Y1683160D01*
X735117Y1683400D01*
X736200Y1683320D01*
Y1682600D01*
G01X721913Y1761708D02*
X722073Y1761583D01*
X722260Y1761500D01*
X722473D01*
X722713Y1761625D01*
X722900Y1761833D01*
X723033Y1762083D01*
X723140Y1762500D01*
X723167Y1762875D01*
X723113Y1763250D01*
X723033Y1763500D01*
X722873Y1763750D01*
X722687Y1763917D01*
X722500Y1764000D01*
X722313D01*
X722127Y1763917D01*
X721967Y1763792D01*
X721833Y1763625D01*
G01X719980Y1764000D02*
Y1761500D01*
X720967Y1763292D01*
X719633D01*
G01X718607Y1761917D02*
X718447Y1761667D01*
X718260Y1761542D01*
X718047Y1761500D01*
X717780Y1761583D01*
X717593Y1761792D01*
X717540Y1762042D01*
X717567Y1762292D01*
X717673Y1762500D01*
X718207Y1762917D01*
X718447Y1763208D01*
X718607Y1763625D01*
X718660Y1764000D01*
X717540D01*
G01X721713Y1767008D02*
X721873Y1766883D01*
X722060Y1766800D01*
X722273D01*
X722513Y1766925D01*
X722700Y1767133D01*
X722833Y1767383D01*
X722940Y1767800D01*
X722967Y1768175D01*
X722913Y1768550D01*
X722833Y1768800D01*
X722673Y1769050D01*
X722487Y1769217D01*
X722300Y1769300D01*
X722113D01*
X721927Y1769217D01*
X721767Y1769092D01*
X721633Y1768925D01*
G01X719780Y1769300D02*
Y1766800D01*
X720767Y1768592D01*
X719433D01*
G01X717900Y1769300D02*
Y1766800D01*
X718220Y1767300D01*
G01Y1769300D02*
X717580D01*
G01X757000Y1655340D02*
X754500D01*
G01Y1656460D02*
X757000D01*
G01X755750D02*
Y1655340D01*
G01X757000Y1658100D02*
X754500D01*
X755000Y1657780D01*
G01X757000D02*
Y1658420D01*
G01Y1660620D02*
X754500D01*
X756292Y1659633D01*
Y1660967D01*
G01X759500Y1642600D02*
X769500D01*
Y1662600D01*
Y1692600D01*
Y1752600D01*
X759500D01*
Y1692600D01*
Y1662600D01*
Y1642600D01*
G01X791818Y1646931D02*
X783157D01*
Y1622915D01*
Y1618978D01*
X796149D01*
Y1646931D01*
X791818D01*
G01X791440Y1661800D02*
Y1664300D01*
G01X792560D02*
Y1661800D01*
G01Y1663050D02*
X791440D01*
G01X793747Y1662092D02*
X793933Y1661883D01*
X794147Y1661800D01*
X794360Y1661883D01*
X794547Y1662133D01*
X794680Y1662508D01*
X794733Y1662883D01*
Y1663342D01*
X794680Y1663717D01*
X794547Y1664050D01*
X794387Y1664217D01*
X794200Y1664300D01*
X793987Y1664217D01*
X793827Y1664050D01*
X793720Y1663800D01*
X793667Y1663467D01*
X793720Y1663175D01*
X793853Y1662883D01*
X794013Y1662717D01*
X794200Y1662675D01*
X794413Y1662758D01*
X794573Y1662967D01*
X794733Y1663342D01*
G01X789608Y1671062D02*
Y1666338D01*
X813230D01*
X815198D01*
Y1671062D01*
X813230D01*
X789608D01*
G01X771707Y1704400D02*
Y1700817D01*
X771960Y1700067D01*
X772467Y1699567D01*
X773100Y1699400D01*
X773733Y1699567D01*
X774240Y1700067D01*
X774493Y1700817D01*
Y1704400D01*
G01X778073Y1699400D02*
X778200Y1700483D01*
X778390Y1701400D01*
X778643Y1702233D01*
X778960Y1703150D01*
X779467Y1704400D01*
X776933D01*
G01X787450Y1691850D02*
X806750D01*
Y1711150D01*
X787450D01*
Y1691850D01*
G01X795232Y1632963D02*
X794982Y1632830D01*
X794815Y1632670D01*
X794732Y1632483D01*
X794815Y1632270D01*
X794982Y1632110D01*
X795232Y1631950D01*
X795565Y1631897D01*
X797232D01*
G01X795232Y1630817D02*
X794940Y1630657D01*
X794774Y1630443D01*
X794732Y1630203D01*
X794774Y1629990D01*
X794982Y1629777D01*
X795232Y1629643D01*
X795482Y1629617D01*
X795774Y1629670D01*
X795982Y1629857D01*
X796065Y1630043D01*
Y1630283D01*
G01Y1630043D02*
X796190Y1629883D01*
X796399Y1629750D01*
X796649Y1629697D01*
X796899Y1629750D01*
X797107Y1629883D01*
X797232Y1630123D01*
X797190Y1630363D01*
X797024Y1630603D01*
G01X804800Y1678567D02*
X802300D01*
Y1679233D01*
X802425Y1679447D01*
X802592Y1679580D01*
X802925Y1679633D01*
X803258Y1679580D01*
X803467Y1679420D01*
X803592Y1679233D01*
Y1678567D01*
G01Y1679233D02*
X804800Y1679633D01*
G01X803758Y1680793D02*
X803467Y1680980D01*
X803300Y1681140D01*
X803217Y1681353D01*
X803300Y1681540D01*
X803467Y1681673D01*
X803717Y1681780D01*
X804008Y1681807D01*
X804258Y1681780D01*
X804508Y1681673D01*
X804717Y1681513D01*
X804800Y1681327D01*
X804717Y1681113D01*
X804467Y1680927D01*
X804092Y1680820D01*
X803675Y1680793D01*
X803133Y1680847D01*
X802842Y1680927D01*
X802550Y1681060D01*
X802342Y1681247D01*
X802300Y1681433D01*
X802383Y1681620D01*
X802592Y1681753D01*
G01X802300Y1683500D02*
X802383Y1683287D01*
X802592Y1683127D01*
X802842Y1683020D01*
X803175Y1682940D01*
X803550Y1682913D01*
X803925Y1682940D01*
X804258Y1683020D01*
X804508Y1683127D01*
X804717Y1683287D01*
X804800Y1683500D01*
X804717Y1683713D01*
X804508Y1683873D01*
X804258Y1683980D01*
X803925Y1684060D01*
X803550Y1684087D01*
X803175Y1684060D01*
X802842Y1683980D01*
X802592Y1683873D01*
X802383Y1683713D01*
X802300Y1683500D01*
G01X813800Y1707567D02*
X816300D01*
Y1708633D01*
G01Y1710300D02*
X813800D01*
X814300Y1709980D01*
G01X816300D02*
Y1710620D01*
G01X817600Y1708000D02*
Y1698200D01*
X826000D01*
Y1708000D01*
X817600D01*
G01X809200Y1726967D02*
X806700D01*
Y1727633D01*
X806825Y1727847D01*
X806992Y1727980D01*
X807325Y1728033D01*
X807658Y1727980D01*
X807867Y1727820D01*
X807992Y1727633D01*
Y1726967D01*
G01Y1727633D02*
X809200Y1728033D01*
G01X808825Y1729113D02*
X809033Y1729273D01*
X809158Y1729460D01*
X809200Y1729700D01*
X809117Y1729940D01*
X808950Y1730127D01*
X808658Y1730260D01*
X808325Y1730287D01*
X807992Y1730233D01*
X807783Y1730100D01*
X807617Y1729913D01*
X807575Y1729727D01*
X807617Y1729540D01*
X807783Y1729300D01*
X806700Y1729380D01*
Y1730100D01*
G01X802308Y1727087D02*
X802183Y1726927D01*
X802100Y1726740D01*
Y1726527D01*
X802225Y1726287D01*
X802433Y1726100D01*
X802683Y1725967D01*
X803100Y1725860D01*
X803475Y1725833D01*
X803850Y1725887D01*
X804100Y1725967D01*
X804350Y1726127D01*
X804517Y1726313D01*
X804600Y1726500D01*
Y1726687D01*
X804517Y1726873D01*
X804392Y1727033D01*
X804225Y1727167D01*
G01X804600Y1728700D02*
X802100D01*
X802600Y1728380D01*
G01X804600D02*
Y1729020D01*
G01X802517Y1730393D02*
X802267Y1730553D01*
X802142Y1730740D01*
X802100Y1730953D01*
X802183Y1731220D01*
X802392Y1731407D01*
X802642Y1731460D01*
X802892Y1731433D01*
X803100Y1731327D01*
X803517Y1730793D01*
X803808Y1730553D01*
X804225Y1730393D01*
X804600Y1730340D01*
Y1731460D01*
G01X797408Y1727087D02*
X797283Y1726927D01*
X797200Y1726740D01*
Y1726527D01*
X797325Y1726287D01*
X797533Y1726100D01*
X797783Y1725967D01*
X798200Y1725860D01*
X798575Y1725833D01*
X798950Y1725887D01*
X799200Y1725967D01*
X799450Y1726127D01*
X799617Y1726313D01*
X799700Y1726500D01*
Y1726687D01*
X799617Y1726873D01*
X799492Y1727033D01*
X799325Y1727167D01*
G01X798658Y1728193D02*
X798367Y1728380D01*
X798200Y1728540D01*
X798117Y1728753D01*
X798200Y1728940D01*
X798367Y1729073D01*
X798617Y1729180D01*
X798908Y1729207D01*
X799158Y1729180D01*
X799408Y1729073D01*
X799617Y1728913D01*
X799700Y1728727D01*
X799617Y1728513D01*
X799367Y1728327D01*
X798992Y1728220D01*
X798575Y1728193D01*
X798033Y1728247D01*
X797742Y1728327D01*
X797450Y1728460D01*
X797242Y1728647D01*
X797200Y1728833D01*
X797283Y1729020D01*
X797492Y1729153D01*
G01X828687Y1674692D02*
X828527Y1674817D01*
X828340Y1674900D01*
X828127D01*
X827887Y1674775D01*
X827700Y1674567D01*
X827567Y1674317D01*
X827460Y1673900D01*
X827433Y1673525D01*
X827487Y1673150D01*
X827567Y1672900D01*
X827727Y1672650D01*
X827913Y1672483D01*
X828100Y1672400D01*
X828287D01*
X828473Y1672483D01*
X828633Y1672608D01*
X828767Y1672775D01*
G01X830300Y1672400D02*
Y1674900D01*
X829980Y1674400D01*
G01Y1672400D02*
X830620D01*
G01X832500D02*
Y1674900D01*
X832180Y1674400D01*
G01Y1672400D02*
X832820D01*
G01X828487Y1680592D02*
X828327Y1680717D01*
X828140Y1680800D01*
X827927D01*
X827687Y1680675D01*
X827500Y1680467D01*
X827367Y1680217D01*
X827260Y1679800D01*
X827233Y1679425D01*
X827287Y1679050D01*
X827367Y1678800D01*
X827527Y1678550D01*
X827713Y1678383D01*
X827900Y1678300D01*
X828087D01*
X828273Y1678383D01*
X828433Y1678508D01*
X828567Y1678675D01*
G01X830100Y1678300D02*
Y1680800D01*
X829780Y1680300D01*
G01Y1678300D02*
X830420D01*
G01X832620D02*
Y1680800D01*
X831633Y1679008D01*
X832967D01*
G01X831500Y1689200D02*
Y1688075D01*
X832033Y1686700D01*
G01X830967D02*
X831500Y1688075D01*
G01X829300Y1689200D02*
Y1686700D01*
X829620Y1687200D01*
G01Y1689200D02*
X828980D01*
G01X846800Y1698613D02*
X844300D01*
Y1699147D01*
X844425Y1699360D01*
X844592Y1699520D01*
X844842Y1699653D01*
X845133Y1699760D01*
X845550Y1699787D01*
X845967Y1699760D01*
X846258Y1699653D01*
X846508Y1699520D01*
X846675Y1699360D01*
X846800Y1699147D01*
Y1698613D01*
G01X845675Y1701000D02*
Y1701853D01*
X845383Y1701773D01*
X845217Y1701640D01*
X845133Y1701453D01*
X845175Y1701267D01*
X845300Y1701107D01*
X845592Y1701000D01*
X845842Y1700947D01*
X846092D01*
X846342Y1701000D01*
X846592Y1701133D01*
X846758Y1701293D01*
X846800Y1701480D01*
X846717Y1701667D01*
X846467Y1701853D01*
G01X846508Y1703200D02*
X846675Y1703333D01*
X846800Y1703520D01*
Y1703680D01*
X846717Y1703840D01*
X846592Y1703947D01*
X846425Y1704000D01*
X846175Y1703973D01*
X846050Y1703867D01*
X845800Y1703387D01*
X845508Y1703280D01*
X845300Y1703333D01*
X845175Y1703440D01*
X845133Y1703600D01*
X845175Y1703760D01*
X845300Y1703920D01*
G01X845133Y1705800D02*
X846800D01*
G01X844467D02*
X844425Y1705747D01*
X844342D01*
X844300Y1705800D01*
X844342Y1705853D01*
X844425D01*
X844467Y1705800D01*
G01X847425Y1707627D02*
X847592Y1707813D01*
X847633Y1708027D01*
X847592Y1708213D01*
X847383Y1708373D01*
X847092Y1708480D01*
X845133D01*
G01X845467D02*
X845300Y1708373D01*
X845175Y1708213D01*
X845133Y1708027D01*
X845217Y1707813D01*
X845383Y1707680D01*
X845675Y1707573D01*
X845967Y1707520D01*
X846217Y1707547D01*
X846508Y1707653D01*
X846717Y1707813D01*
X846800Y1708027D01*
X846758Y1708187D01*
X846592Y1708373D01*
X846425Y1708480D01*
G01X846800Y1709747D02*
X845133D01*
G01X845550D02*
X845342Y1709853D01*
X845175Y1710013D01*
X845133Y1710227D01*
X845175Y1710413D01*
X845342Y1710573D01*
X845633Y1710653D01*
X846800D01*
G01X846883Y1712400D02*
X846842Y1712347D01*
X846758D01*
X846717Y1712400D01*
X846758Y1712453D01*
X846842D01*
X846883Y1712400D01*
G01X845758D02*
X845717Y1712347D01*
X845633D01*
X845592Y1712400D01*
X845633Y1712453D01*
X845717D01*
X845758Y1712400D01*
G01X846800Y1713907D02*
X844300D01*
X846383Y1714600D01*
X844300Y1715293D01*
X846800D01*
G01Y1716187D02*
X844300D01*
X846800Y1717413D01*
X844300D01*
G01X846467Y1718440D02*
X846675Y1718653D01*
X846800Y1718893D01*
Y1719107D01*
X846675Y1719320D01*
X846467Y1719480D01*
X846175Y1719560D01*
X845883Y1719507D01*
X845633Y1719373D01*
X845467Y1719133D01*
X845383Y1718813D01*
X845217Y1718627D01*
X844925Y1718547D01*
X844633Y1718600D01*
X844425Y1718733D01*
X844300Y1718920D01*
Y1719107D01*
X844383Y1719293D01*
X844592Y1719453D01*
G01X835467Y1699013D02*
X835342Y1699120D01*
X835133Y1699200D01*
X834842Y1699253D01*
X834592Y1699200D01*
X834425Y1699093D01*
X834300Y1698907D01*
Y1698187D01*
X836800D01*
Y1699067D01*
X836633Y1699253D01*
X836383Y1699360D01*
X836092Y1699413D01*
X835800Y1699360D01*
X835550Y1699200D01*
X835467Y1699013D01*
Y1698187D01*
G01Y1701213D02*
X835342Y1701320D01*
X835133Y1701400D01*
X834842Y1701453D01*
X834592Y1701400D01*
X834425Y1701293D01*
X834300Y1701107D01*
Y1700387D01*
X836800D01*
Y1701267D01*
X836633Y1701453D01*
X836383Y1701560D01*
X836092Y1701613D01*
X835800Y1701560D01*
X835550Y1701400D01*
X835467Y1701213D01*
Y1700387D01*
G01Y1703413D02*
X835342Y1703520D01*
X835133Y1703600D01*
X834842Y1703653D01*
X834592Y1703600D01*
X834425Y1703493D01*
X834300Y1703307D01*
Y1702587D01*
X836800D01*
Y1703467D01*
X836633Y1703653D01*
X836383Y1703760D01*
X836092Y1703813D01*
X835800Y1703760D01*
X835550Y1703600D01*
X835467Y1703413D01*
Y1702587D01*
G01X837633Y1704600D02*
Y1706200D01*
G01X834508Y1708187D02*
X834383Y1708027D01*
X834300Y1707840D01*
Y1707627D01*
X834425Y1707387D01*
X834633Y1707200D01*
X834883Y1707067D01*
X835300Y1706960D01*
X835675Y1706933D01*
X836050Y1706987D01*
X836300Y1707067D01*
X836550Y1707227D01*
X836717Y1707413D01*
X836800Y1707600D01*
Y1707787D01*
X836717Y1707973D01*
X836592Y1708133D01*
X836425Y1708267D01*
G01X836800Y1709133D02*
X834300Y1709800D01*
X836800Y1710467D01*
G01X835925Y1710227D02*
Y1709373D01*
G01X836800Y1711467D02*
X834300D01*
Y1712107D01*
X834425Y1712320D01*
X834717Y1712480D01*
X835050Y1712533D01*
X835383Y1712480D01*
X835633Y1712347D01*
X835758Y1712107D01*
Y1711467D01*
G01X836800Y1714733D02*
Y1713667D01*
X834300D01*
Y1714733D01*
G01X835508Y1714307D02*
Y1713667D01*
G01X834300Y1717933D02*
X836800Y1718600D01*
X834300Y1719267D01*
G01X836800Y1723000D02*
X834300D01*
X834800Y1722680D01*
G01X836800D02*
Y1723320D01*
G01X836883Y1725200D02*
X836842Y1725147D01*
X836758D01*
X836717Y1725200D01*
X836758Y1725253D01*
X836842D01*
X836883Y1725200D01*
G01X836800Y1727400D02*
X834300D01*
X834800Y1727080D01*
G01X836800D02*
Y1727720D01*
G01X841700Y1698467D02*
X839200D01*
Y1699107D01*
X839325Y1699320D01*
X839617Y1699480D01*
X839950Y1699533D01*
X840283Y1699480D01*
X840533Y1699347D01*
X840658Y1699107D01*
Y1698467D01*
G01X841700Y1700827D02*
X840033D01*
G01X840367D02*
X840200Y1700960D01*
X840075Y1701093D01*
X840033Y1701280D01*
X840075Y1701413D01*
X840200Y1701573D01*
G01X841700Y1703400D02*
X841658Y1703240D01*
X841492Y1703080D01*
X841200Y1702973D01*
X840867Y1702920D01*
X840533Y1702973D01*
X840242Y1703080D01*
X840075Y1703240D01*
X840033Y1703400D01*
X840075Y1703560D01*
X840242Y1703720D01*
X840533Y1703827D01*
X840867Y1703853D01*
X841200Y1703827D01*
X841492Y1703720D01*
X841658Y1703560D01*
X841700Y1703400D01*
G01X842325Y1705173D02*
X842492Y1705360D01*
X842533Y1705520D01*
X842450Y1705733D01*
X842242Y1705893D01*
X841867Y1705973D01*
X840033D01*
G01X839367D02*
X839325Y1705920D01*
X839242D01*
X839200Y1705973D01*
X839242Y1706027D01*
X839325D01*
X839367Y1705973D01*
G01X840575Y1707400D02*
Y1708253D01*
X840283Y1708173D01*
X840117Y1708040D01*
X840033Y1707853D01*
X840075Y1707667D01*
X840200Y1707507D01*
X840492Y1707400D01*
X840742Y1707347D01*
X840992D01*
X841242Y1707400D01*
X841492Y1707533D01*
X841658Y1707693D01*
X841700Y1707880D01*
X841617Y1708067D01*
X841367Y1708253D01*
G01X840242Y1710427D02*
X840075Y1710240D01*
X840033Y1710080D01*
X840117Y1709867D01*
X840283Y1709707D01*
X840575Y1709600D01*
X840867Y1709573D01*
X841158Y1709600D01*
X841408Y1709707D01*
X841617Y1709867D01*
X841700Y1710080D01*
X841617Y1710267D01*
X841450Y1710427D01*
G01X839200Y1712200D02*
X841700D01*
G01X840033Y1711827D02*
Y1712573D01*
G01X841783Y1714400D02*
X841742Y1714347D01*
X841658D01*
X841617Y1714400D01*
X841658Y1714453D01*
X841742D01*
X841783Y1714400D01*
G01X840658D02*
X840617Y1714347D01*
X840533D01*
X840492Y1714400D01*
X840533Y1714453D01*
X840617D01*
X840658Y1714400D01*
G01X839200Y1716600D02*
X841700D01*
G01X839200Y1715987D02*
Y1717213D01*
G01X841700Y1718213D02*
X839200D01*
Y1718747D01*
X839325Y1718960D01*
X839492Y1719120D01*
X839742Y1719253D01*
X840033Y1719360D01*
X840450Y1719387D01*
X840867Y1719360D01*
X841158Y1719253D01*
X841408Y1719120D01*
X841575Y1718960D01*
X841700Y1718747D01*
Y1718213D01*
G01X841367Y1720440D02*
X841575Y1720653D01*
X841700Y1720893D01*
Y1721107D01*
X841575Y1721320D01*
X841367Y1721480D01*
X841075Y1721560D01*
X840783Y1721507D01*
X840533Y1721373D01*
X840367Y1721133D01*
X840283Y1720813D01*
X840117Y1720627D01*
X839825Y1720547D01*
X839533Y1720600D01*
X839325Y1720733D01*
X839200Y1720920D01*
Y1721107D01*
X839283Y1721293D01*
X839492Y1721453D01*
G01X842158Y1723147D02*
X841617Y1723253D01*
G01X840450Y1727760D02*
Y1728293D01*
X841200D01*
X841450Y1728133D01*
X841617Y1727947D01*
X841700Y1727680D01*
X841617Y1727413D01*
X841450Y1727227D01*
X841200Y1727067D01*
X840908Y1726960D01*
X840575Y1726907D01*
X840283D01*
X840033Y1726960D01*
X839742Y1727067D01*
X839492Y1727227D01*
X839325Y1727387D01*
X839200Y1727600D01*
Y1727787D01*
X839283Y1728000D01*
X839450Y1728160D01*
G01X839200Y1729800D02*
X841700D01*
G01X839200Y1729187D02*
Y1730413D01*
G01X840867Y1731653D02*
Y1732347D01*
G01X840367Y1734413D02*
X840242Y1734520D01*
X840033Y1734600D01*
X839742Y1734653D01*
X839492Y1734600D01*
X839325Y1734493D01*
X839200Y1734307D01*
Y1733587D01*
X841700D01*
Y1734467D01*
X841533Y1734653D01*
X841283Y1734760D01*
X840992Y1734813D01*
X840700Y1734760D01*
X840450Y1734600D01*
X840367Y1734413D01*
Y1733587D01*
G01X840033Y1736400D02*
X841700D01*
G01X839367D02*
X839325Y1736347D01*
X839242D01*
X839200Y1736400D01*
X839242Y1736453D01*
X839325D01*
X839367Y1736400D01*
G01X841700Y1738600D02*
X841658Y1738440D01*
X841492Y1738280D01*
X841200Y1738173D01*
X840867Y1738120D01*
X840533Y1738173D01*
X840242Y1738280D01*
X840075Y1738440D01*
X840033Y1738600D01*
X840075Y1738760D01*
X840242Y1738920D01*
X840533Y1739027D01*
X840867Y1739053D01*
X841200Y1739027D01*
X841492Y1738920D01*
X841658Y1738760D01*
X841700Y1738600D01*
G01Y1740347D02*
X840033D01*
G01X840450D02*
X840242Y1740453D01*
X840075Y1740613D01*
X840033Y1740827D01*
X840075Y1741013D01*
X840242Y1741173D01*
X840533Y1741253D01*
X841700D01*
G01X840033Y1743000D02*
X841700D01*
G01X839367D02*
X839325Y1742947D01*
X839242D01*
X839200Y1743000D01*
X839242Y1743053D01*
X839325D01*
X839367Y1743000D01*
G01X840242Y1745627D02*
X840075Y1745440D01*
X840033Y1745280D01*
X840117Y1745067D01*
X840283Y1744907D01*
X840575Y1744800D01*
X840867Y1744773D01*
X841158Y1744800D01*
X841408Y1744907D01*
X841617Y1745067D01*
X841700Y1745280D01*
X841617Y1745467D01*
X841450Y1745627D01*
G01X841408Y1747000D02*
X841575Y1747133D01*
X841700Y1747320D01*
Y1747480D01*
X841617Y1747640D01*
X841492Y1747747D01*
X841325Y1747800D01*
X841075Y1747773D01*
X840950Y1747667D01*
X840700Y1747187D01*
X840408Y1747080D01*
X840200Y1747133D01*
X840075Y1747240D01*
X840033Y1747400D01*
X840075Y1747560D01*
X840200Y1747720D01*
G01X839200Y1751267D02*
X841700D01*
Y1752333D01*
G01Y1754480D02*
X840033D01*
G01X840325D02*
X840158Y1754373D01*
X840075Y1754213D01*
X840033Y1754027D01*
X840117Y1753840D01*
X840283Y1753680D01*
X840533Y1753573D01*
X840867Y1753520D01*
X841200Y1753573D01*
X841450Y1753680D01*
X841617Y1753840D01*
X841700Y1754027D01*
X841658Y1754213D01*
X841533Y1754373D01*
X841367Y1754480D01*
G01X841700Y1755720D02*
X839200D01*
G01X840450D02*
X840200Y1755853D01*
X840075Y1756013D01*
X840033Y1756173D01*
X840117Y1756413D01*
X840283Y1756573D01*
X840575Y1756680D01*
X840908D01*
X841242Y1756627D01*
X841492Y1756520D01*
X841658Y1756333D01*
X841700Y1756173D01*
X841658Y1756013D01*
X841533Y1755853D01*
X841325Y1755720D01*
G01X831413Y1693808D02*
X831573Y1693683D01*
X831760Y1693600D01*
X831973D01*
X832213Y1693725D01*
X832400Y1693933D01*
X832533Y1694183D01*
X832640Y1694600D01*
X832667Y1694975D01*
X832613Y1695350D01*
X832533Y1695600D01*
X832373Y1695850D01*
X832187Y1696017D01*
X832000Y1696100D01*
X831813D01*
X831627Y1696017D01*
X831467Y1695892D01*
X831333Y1695725D01*
G01X829800Y1696100D02*
Y1693600D01*
X830120Y1694100D01*
G01Y1696100D02*
X829480D01*
G01X828187Y1695600D02*
X828027Y1695892D01*
X827813Y1696058D01*
X827573Y1696100D01*
X827360Y1696058D01*
X827147Y1695850D01*
X827013Y1695600D01*
X826987Y1695350D01*
X827040Y1695058D01*
X827227Y1694850D01*
X827413Y1694767D01*
X827653D01*
G01X827413D02*
X827253Y1694642D01*
X827120Y1694433D01*
X827067Y1694183D01*
X827120Y1693933D01*
X827253Y1693725D01*
X827493Y1693600D01*
X827733Y1693642D01*
X827973Y1693808D01*
G01X826413Y1705500D02*
Y1703708D01*
X826520Y1703333D01*
X826733Y1703083D01*
X827000Y1703000D01*
X827267Y1703083D01*
X827480Y1703333D01*
X827587Y1703708D01*
Y1705500D01*
G01X829200Y1703000D02*
Y1705500D01*
X828880Y1705000D01*
G01Y1703000D02*
X829520D01*
G01X830813Y1703375D02*
X830973Y1703167D01*
X831160Y1703042D01*
X831400Y1703000D01*
X831640Y1703083D01*
X831827Y1703250D01*
X831960Y1703542D01*
X831987Y1703875D01*
X831933Y1704208D01*
X831800Y1704417D01*
X831613Y1704583D01*
X831427Y1704625D01*
X831240Y1704583D01*
X831000Y1704417D01*
X831080Y1705500D01*
X831800D01*
G01X854400Y1694900D02*
X831700D01*
Y1753000D01*
X854400D01*
Y1694900D01*
G01X820208Y1717287D02*
X820083Y1717127D01*
X820000Y1716940D01*
Y1716727D01*
X820125Y1716487D01*
X820333Y1716300D01*
X820583Y1716167D01*
X821000Y1716060D01*
X821375Y1716033D01*
X821750Y1716087D01*
X822000Y1716167D01*
X822250Y1716327D01*
X822417Y1716513D01*
X822500Y1716700D01*
Y1716887D01*
X822417Y1717073D01*
X822292Y1717233D01*
X822125Y1717367D01*
G01X822500Y1719220D02*
X820000D01*
X821792Y1718233D01*
Y1719567D01*
G01X821458Y1720593D02*
X821167Y1720780D01*
X821000Y1720940D01*
X820917Y1721153D01*
X821000Y1721340D01*
X821167Y1721473D01*
X821417Y1721580D01*
X821708Y1721607D01*
X821958Y1721580D01*
X822208Y1721473D01*
X822417Y1721313D01*
X822500Y1721127D01*
X822417Y1720913D01*
X822167Y1720727D01*
X821792Y1720620D01*
X821375Y1720593D01*
X820833Y1720647D01*
X820542Y1720727D01*
X820250Y1720860D01*
X820042Y1721047D01*
X820000Y1721233D01*
X820083Y1721420D01*
X820292Y1721553D01*
G01X829300Y1724240D02*
X826800D01*
G01Y1725360D02*
X829300D01*
G01X828050D02*
Y1724240D01*
G01X829300Y1727000D02*
X826800D01*
X827300Y1726680D01*
G01X829300D02*
Y1727320D01*
G01X828800Y1728613D02*
X829092Y1728773D01*
X829258Y1728987D01*
X829300Y1729227D01*
X829258Y1729440D01*
X829050Y1729653D01*
X828800Y1729787D01*
X828550Y1729813D01*
X828258Y1729760D01*
X828050Y1729573D01*
X827967Y1729387D01*
Y1729147D01*
G01Y1729387D02*
X827842Y1729547D01*
X827633Y1729680D01*
X827383Y1729733D01*
X827133Y1729680D01*
X826925Y1729547D01*
X826800Y1729307D01*
X826842Y1729067D01*
X827008Y1728827D01*
G01X851400Y1699007D02*
X848900D01*
X850983Y1699700D01*
X848900Y1700393D01*
X851400D01*
G01Y1702380D02*
X849733D01*
G01X850025D02*
X849858Y1702273D01*
X849775Y1702113D01*
X849733Y1701927D01*
X849817Y1701740D01*
X849983Y1701580D01*
X850233Y1701473D01*
X850567Y1701420D01*
X850900Y1701473D01*
X851150Y1701580D01*
X851317Y1701740D01*
X851400Y1701927D01*
X851358Y1702113D01*
X851233Y1702273D01*
X851067Y1702380D01*
G01X852150Y1703540D02*
X852233Y1703700D01*
X852150Y1703913D01*
X851983Y1704047D01*
X851775Y1704153D01*
X851108Y1704313D01*
X849733Y1704660D01*
G01Y1703807D02*
X851108Y1704313D01*
G01X851400Y1708500D02*
X848900D01*
X849400Y1708180D01*
G01X851400D02*
Y1708820D01*
G01X850358Y1710193D02*
X850067Y1710380D01*
X849900Y1710540D01*
X849817Y1710753D01*
X849900Y1710940D01*
X850067Y1711073D01*
X850317Y1711180D01*
X850608Y1711207D01*
X850858Y1711180D01*
X851108Y1711073D01*
X851317Y1710913D01*
X851400Y1710727D01*
X851317Y1710513D01*
X851067Y1710327D01*
X850692Y1710220D01*
X850275Y1710193D01*
X849733Y1710247D01*
X849442Y1710327D01*
X849150Y1710460D01*
X848942Y1710647D01*
X848900Y1710833D01*
X848983Y1711020D01*
X849192Y1711153D01*
G01X848900Y1712900D02*
X851400D01*
G01X849733Y1712527D02*
Y1713273D01*
G01X851400Y1714647D02*
X848900D01*
G01X850108D02*
X849900Y1714780D01*
X849775Y1714913D01*
X849733Y1715127D01*
X849775Y1715287D01*
X849942Y1715473D01*
X850192Y1715553D01*
X851400D01*
G01X851858Y1717247D02*
X851317Y1717353D01*
G01X849317Y1721193D02*
X849067Y1721353D01*
X848942Y1721540D01*
X848900Y1721753D01*
X848983Y1722020D01*
X849192Y1722207D01*
X849442Y1722260D01*
X849692Y1722233D01*
X849900Y1722127D01*
X850317Y1721593D01*
X850608Y1721353D01*
X851025Y1721193D01*
X851400Y1721140D01*
Y1722260D01*
G01X848900Y1723900D02*
X848983Y1723687D01*
X849192Y1723527D01*
X849442Y1723420D01*
X849775Y1723340D01*
X850150Y1723313D01*
X850525Y1723340D01*
X850858Y1723420D01*
X851108Y1723527D01*
X851317Y1723687D01*
X851400Y1723900D01*
X851317Y1724113D01*
X851108Y1724273D01*
X850858Y1724380D01*
X850525Y1724460D01*
X850150Y1724487D01*
X849775Y1724460D01*
X849442Y1724380D01*
X849192Y1724273D01*
X848983Y1724113D01*
X848900Y1723900D01*
G01X851400Y1726100D02*
X848900D01*
X849400Y1725780D01*
G01X851400D02*
Y1726420D01*
G01X850358Y1727793D02*
X850067Y1727980D01*
X849900Y1728140D01*
X849817Y1728353D01*
X849900Y1728540D01*
X850067Y1728673D01*
X850317Y1728780D01*
X850608Y1728807D01*
X850858Y1728780D01*
X851108Y1728673D01*
X851317Y1728513D01*
X851400Y1728327D01*
X851317Y1728113D01*
X851067Y1727927D01*
X850692Y1727820D01*
X850275Y1727793D01*
X849733Y1727847D01*
X849442Y1727927D01*
X849150Y1728060D01*
X848942Y1728247D01*
X848900Y1728433D01*
X848983Y1728620D01*
X849192Y1728753D01*
G54D11*
G01X631950Y1687000D02*
Y1690300D01*
G01X636950Y1687000D02*
Y1690300D01*
G01X634850Y1687000D02*
Y1690300D01*
G01X639850Y1687000D02*
Y1690300D01*
G01X641950Y1687000D02*
Y1690300D01*
G01X646950Y1687000D02*
Y1690300D01*
G01X651950Y1687000D02*
Y1690300D01*
G01X656950Y1687000D02*
Y1690300D01*
G01X661950Y1687000D02*
Y1690300D01*
G01X644850Y1687000D02*
Y1690300D01*
G01X649850Y1687000D02*
Y1690300D01*
G01X654850Y1687000D02*
Y1690300D01*
G01X659850Y1687000D02*
Y1690300D01*
G01X664850Y1687000D02*
Y1690300D01*
G01X711250Y1671960D02*
Y1657640D01*
G01Y1663600D02*
G03X711271Y1666000I0J1200D01*
G01X742350Y1657640D02*
Y1671960D01*
M02*
