G04 ================== begin FILE IDENTIFICATION RECORD ==================*
G04 Layout Name:  BBB_CAPE_PCB_AN_V_1_1.brd*
G04 Film Name:    SOLDERMASK_TOP*
G04 File Format:  Gerber RS274X*
G04 File Origin:  Cadence Allegro 16.6-2015-S056*
G04 Origin Date:  Tue May 17 20:29:37 2016*
G04 *
G04 Layer:  VIA CLASS/SOLDERMASK_TOP*
G04 Layer:  PIN/SOLDERMASK_TOP*
G04 Layer:  PACKAGE GEOMETRY/SOLDERMASK_TOP*
G04 Layer:  BOARD GEOMETRY/SOLDERMASK_TOP*
G04 *
G04 Offset:    (0.00 0.00)*
G04 Mirror:    No*
G04 Mode:      Positive*
G04 Rotation:  0*
G04 FullContactRelief:  No*
G04 UndefLineWidth:     5.00*
G04 ================== end FILE IDENTIFICATION RECORD ====================*
%FSLAX25Y25*MOIN*%
%IR0*IPPOS*OFA0.00000B0.00000*MIA0B0*SFA1.00000B1.00000*%
%ADD10C,.08*%
%ADD22C,.045*%
%ADD15C,.074*%
%ADD11R,.41X.406*%
%ADD19R,.024X.024*%
%ADD18R,.024X.024*%
%ADD27R,.021X.037*%
%ADD17R,.02X.066*%
%ADD23R,.015X.055*%
%ADD16R,.035X.035*%
%ADD25R,.055X.015*%
%ADD20R,.045X.036*%
%ADD26R,.045X.045*%
%ADD21R,.198X.128*%
%ADD12R,.029X.093*%
%ADD14C,.16535*%
%ADD24R,.178X.178*%
%ADD13C,.14567*%
%LPD*%
G75*
G54D10*
X616300Y1610600D03*
Y1600600D03*
X617700Y1666900D03*
Y1676900D03*
X616400Y1790500D03*
Y1800500D03*
X636300Y1610600D03*
X626300D03*
X636300Y1600600D03*
X626300D03*
X637000Y1626400D03*
X636400Y1790500D03*
X626400D03*
X636400Y1800500D03*
X626400D03*
X666300Y1610600D03*
X656300D03*
X646300D03*
X666300Y1600600D03*
X656300D03*
X646300D03*
X647000Y1626400D03*
X657000D03*
X667000D03*
X666400Y1790500D03*
X656400D03*
X646400D03*
X666400Y1800500D03*
X656400D03*
X646400D03*
X686300Y1610600D03*
X676300D03*
X686300Y1600600D03*
X676300D03*
X677000Y1626400D03*
X677600Y1696300D03*
Y1706300D03*
X685500Y1729100D03*
Y1739300D03*
X686400Y1790500D03*
X676400D03*
X686400Y1800500D03*
X676400D03*
X716300Y1610600D03*
X706300D03*
X696300D03*
X716300Y1600600D03*
X706300D03*
X696300D03*
X695500Y1729100D03*
Y1739300D03*
X716400Y1790500D03*
X706400D03*
X696400D03*
X716400Y1800500D03*
X706400D03*
X696400D03*
X746300Y1610600D03*
X736300D03*
X726300D03*
X746300Y1600600D03*
X736300D03*
X726300D03*
X746400Y1790500D03*
X736400D03*
X726400D03*
X746400Y1800500D03*
X736400D03*
X726400D03*
X766300Y1610600D03*
X756300D03*
X766300Y1600600D03*
X756300D03*
X764500Y1667600D03*
Y1657600D03*
Y1647600D03*
Y1687600D03*
Y1677600D03*
Y1717600D03*
Y1707600D03*
Y1697600D03*
Y1737600D03*
Y1727600D03*
Y1747600D03*
X766400Y1790500D03*
X756400D03*
X766400Y1800500D03*
X756400D03*
X796300Y1610600D03*
X786300D03*
X776300D03*
X796300Y1600600D03*
X786300D03*
X776300D03*
X796400Y1790500D03*
X786400D03*
X776400D03*
X796400Y1800500D03*
X786400D03*
X776400D03*
X816300Y1610600D03*
X806300D03*
X816300Y1600600D03*
X806300D03*
X816400Y1790500D03*
X806400D03*
X816400Y1800500D03*
X806400D03*
X826300Y1610600D03*
Y1600600D03*
X826400Y1790500D03*
Y1800500D03*
G54D20*
X693264Y1764020D03*
X701138Y1760280D03*
Y1767760D03*
G54D11*
X648400Y1664700D03*
G54D12*
X633400Y1696350D03*
X638400D03*
X643400D03*
X648400D03*
X653400D03*
X658400D03*
X663400D03*
G54D21*
X726800Y1664800D03*
G54D13*
X644889Y1759104D03*
G54D22*
X791700Y1622600D03*
X786700D03*
X791700Y1627600D03*
X786700D03*
X791700Y1632600D03*
X786700D03*
X791700Y1637600D03*
X786700D03*
X791700Y1642600D03*
X786700D03*
X792561Y1668661D03*
X812561D03*
X807561D03*
X802561D03*
X797561D03*
G54D14*
X656700Y1740600D03*
X668511Y1759104D03*
G54D23*
X793163Y1689350D03*
X791194D03*
X789226D03*
Y1713650D03*
X791194D03*
X793163D03*
X804974Y1689350D03*
X803006D03*
X801037D03*
X799068D03*
X797100D03*
X795132D03*
Y1713650D03*
X797100D03*
X799068D03*
X801037D03*
X803006D03*
X804974D03*
G54D24*
X797100Y1701500D03*
G54D15*
X686000Y1748900D03*
Y1778900D03*
X696000Y1748900D03*
X706000D03*
X716000D03*
Y1778900D03*
X706000D03*
X696000D03*
X726000Y1748900D03*
Y1778900D03*
G54D25*
X784950Y1693626D03*
Y1695594D03*
Y1697563D03*
Y1699532D03*
Y1701500D03*
Y1703468D03*
Y1705437D03*
Y1707406D03*
Y1709374D03*
X809250D03*
Y1707406D03*
Y1705437D03*
Y1703468D03*
Y1701500D03*
Y1699532D03*
Y1697563D03*
Y1695594D03*
Y1693626D03*
G54D16*
X686000Y1758200D03*
Y1770200D03*
G54D26*
X817900Y1689900D03*
Y1684700D03*
X824700D03*
Y1689900D03*
G54D17*
X715284Y1653700D03*
X712725D03*
Y1675900D03*
X715284D03*
X740875Y1653700D03*
X738316D03*
X735757D03*
X733198D03*
X730639D03*
X728080D03*
X725520D03*
X722961D03*
X720402D03*
X717843D03*
Y1675900D03*
X720402D03*
X722961D03*
X725520D03*
X728080D03*
X730639D03*
X733198D03*
X735757D03*
X738316D03*
X740875D03*
G54D27*
X819300Y1700400D03*
Y1705600D03*
X824500Y1700400D03*
X821900D03*
Y1705600D03*
X824500D03*
G54D18*
X699600Y1684400D03*
X703800D03*
X704100Y1696100D03*
X699900D03*
X704100Y1703800D03*
X699900D03*
X700300Y1712000D03*
X704500D03*
X699900Y1700100D03*
X704100D03*
X703900Y1690500D03*
X699700D03*
X700300Y1715900D03*
X704500D03*
Y1719700D03*
X700300D03*
X709600Y1762700D03*
X713800D03*
X709600Y1768200D03*
X713800D03*
X818400Y1673900D03*
X817900Y1680200D03*
X822600Y1673900D03*
X822100Y1680200D03*
X820500Y1694200D03*
X824700D03*
G54D19*
X712700Y1687200D03*
Y1683000D03*
X730700Y1682700D03*
Y1686900D03*
X807000Y1683000D03*
Y1678800D03*
X815100Y1705100D03*
Y1700900D03*
X807900Y1723100D03*
Y1718900D03*
X803600Y1723100D03*
Y1718900D03*
X799000Y1723100D03*
Y1718900D03*
X821800Y1713900D03*
Y1709700D03*
M02*
