G04 ================== begin FILE IDENTIFICATION RECORD ==================*
G04 Layout Name:  BBB_CAPE_PCB_AN_V_1_1.brd*
G04 Film Name:    TOP*
G04 File Format:  Gerber RS274X*
G04 File Origin:  Cadence Allegro 16.6-2015-S056*
G04 Origin Date:  Tue May 17 18:43:49 2016*
G04 *
G04 Layer:  VIA CLASS/TOP*
G04 Layer:  PIN/TOP*
G04 Layer:  ETCH/TOP*
G04 *
G04 Offset:    (0.00 0.00)*
G04 Mirror:    No*
G04 Mode:      Positive*
G04 Rotation:  0*
G04 FullContactRelief:  No*
G04 UndefLineWidth:     5.00*
G04 ================== end FILE IDENTIFICATION RECORD ====================*
%FSLAX25Y25*MOIN*%
%IR0*IPPOS*OFA0.00000B0.00000*MIA0B0*SFA1.00000B1.00000*%
%ADD24C,.04*%
%ADD11C,.015*%
%ADD17C,.054*%
%ADD10C,.065*%
%ADD15R,.05906X.1378*%
%ADD16R,.05906X.15748*%
%ADD14R,.15748X.05906*%
%ADD31R,.02X.02*%
%ADD25R,.01X.05*%
%ADD18R,.03X.03*%
%ADD26R,.05X.01*%
%ADD27R,.04X.04*%
%ADD12R,.41X.406*%
%ADD29R,.016X.032*%
%ADD22R,.04X.0315*%
%ADD28R,.07X.07*%
%ADD30R,.035X.035*%
%ADD19R,.014X.058*%
%ADD21R,.019X.019*%
%ADD20R,.019X.019*%
%ADD23R,.198X.128*%
%ADD13R,.029X.093*%
%ADD32C,.01*%
%ADD33C,.02*%
%ADD34C,.03*%
%ADD35C,.035*%
%ADD36C,.005*%
%ADD37C,.006*%
%ADD38C,.008*%
%ADD40C,.02504*%
%ADD45C,.06404*%
%ADD39C,.07504*%
%ADD42R,.0691X.14784*%
%ADD41R,.16752X.06908*%
%ADD44R,.05004X.04152*%
%ADD46R,.08004X.08004*%
%ADD43R,.02904X.02904*%
G75*
%LPD*%
G75*
G36*
G01X611301Y1592401D02*
Y1808699D01*
X831000D01*
Y1707202D01*
X825802D01*
Y1707702D01*
X822802D01*
Y1708248D01*
X823252D01*
Y1711152D01*
X820348D01*
Y1708248D01*
X820998D01*
Y1707702D01*
X817998D01*
Y1706602D01*
X815185D01*
X815135Y1706552D01*
X813648D01*
Y1705065D01*
X813053Y1704470D01*
X812252D01*
Y1710376D01*
X810102D01*
Y1715753D01*
X808752Y1717103D01*
Y1717448D01*
X809352D01*
Y1720352D01*
X806448D01*
Y1717448D01*
X807048D01*
Y1716397D01*
X808398Y1715047D01*
Y1710376D01*
X806248D01*
Y1692624D01*
X808499D01*
G03X810001I751J1002D01*
G01X812648D01*
Y1685547D01*
X814347Y1683848D01*
X815398D01*
Y1682198D01*
X817048D01*
Y1681652D01*
X816448D01*
Y1678748D01*
X819352D01*
Y1681652D01*
X818752D01*
Y1682198D01*
X820402D01*
Y1692748D01*
X821952D01*
Y1695652D01*
X819048D01*
Y1692402D01*
X815398D01*
Y1685552D01*
X815053D01*
X814352Y1686253D01*
Y1695397D01*
X813719Y1696029D01*
G02X814002Y1696712I283J283D01*
G01X823134D01*
X823848Y1695997D01*
Y1695652D01*
X823248D01*
Y1692402D01*
X822198D01*
Y1682198D01*
X827202D01*
Y1692402D01*
X826152D01*
Y1695652D01*
X825552D01*
Y1696703D01*
X824639Y1697615D01*
G02X824922Y1698298I283J283D01*
G01X825802D01*
Y1702477D01*
X826798Y1703473D01*
Y1703627D01*
X826768Y1703657D01*
G02X826909Y1703998I141J141D01*
G01X831000D01*
Y1592401D01*
X809242D01*
G02X808959Y1593084I0J400D01*
G01X812202Y1596327D01*
Y1598713D01*
G02X812958Y1598895I400J0D01*
G03Y1602305I3342J1705D01*
G02X812202Y1602487I-356J182D01*
G01Y1608713D01*
G02X812958Y1608895I400J0D01*
G03Y1612305I3342J1705D01*
G02X812202Y1612487I-356J182D01*
G01Y1618871D01*
G03X810413Y1620095I-541J1129D01*
G01X810407Y1620021D01*
X810398Y1620012D01*
Y1612487D01*
G02X809642Y1612305I-400J0D01*
G03X802958I-3342J-1705D01*
G02X802202Y1612487I-356J182D01*
G01Y1614327D01*
X807821Y1619946D01*
X807895Y1619952D01*
G03X806552Y1621295I-95J1248D01*
G01X806546Y1621221D01*
X800398Y1615073D01*
Y1612487D01*
G02X799642Y1612305I-400J0D01*
G03Y1608895I-3342J-1705D01*
G02X800398Y1608713I356J-182D01*
G01Y1602487D01*
G02X799642Y1602305I-400J0D01*
G03X797006Y1596915I-3342J-1705D01*
G02X797365Y1596239I76J-393D01*
G01X797227Y1596102D01*
X672073D01*
X669515Y1598660D01*
X669587Y1598792D01*
G03X668108Y1597313I-3287J1808D01*
G01X668240Y1597385D01*
X670541Y1595084D01*
G02X670258Y1594402I-283J-282D01*
G01X663773D01*
X659515Y1598660D01*
X659587Y1598792D01*
G03X658108Y1597313I-3287J1808D01*
G01X658240Y1597385D01*
X662541Y1593084D01*
G02X662258Y1592401I-283J-283D01*
G01X611301D01*
G37*
G36*
G01X836000Y1752300D02*
Y1750300D01*
X851500D01*
Y1743600D01*
X841100D01*
Y1731800D01*
X851500D01*
Y1725100D01*
X841100D01*
Y1713300D01*
X851500D01*
Y1706600D01*
X832200D01*
Y1704600D01*
X851500D01*
Y1699100D01*
X832200D01*
Y1695600D01*
X853500D01*
Y1715300D01*
X843100D01*
Y1723100D01*
X853500D01*
Y1733800D01*
X843100D01*
Y1741700D01*
X853500D01*
Y1752300D01*
X836000D01*
G37*
%LPC*%
G75*
G36*
G01X689660Y1772586D02*
X688002Y1770927D01*
Y1768198D01*
X683998D01*
Y1772202D01*
X686727D01*
X687858Y1773332D01*
Y1775768D01*
X687535Y1776090D01*
G02X688875Y1777491I-1535J2810D01*
G01X688812Y1777363D01*
X689660Y1776514D01*
Y1772586D01*
G37*
G36*
G01X713906Y1761248D02*
X712750Y1760093D01*
Y1753707D01*
X714653Y1751805D01*
G02X713042Y1750126I1347J-2905D01*
G01X713093Y1750249D01*
X710548Y1752795D01*
Y1761248D01*
X708148D01*
Y1764152D01*
X711052D01*
Y1762475D01*
G03X711734Y1762192I400J0D01*
G01X712348Y1762806D01*
Y1764152D01*
X712698D01*
Y1766748D01*
X712348D01*
Y1769652D01*
X715252D01*
Y1766748D01*
X714902D01*
Y1764152D01*
X715252D01*
Y1761248D01*
X713906D01*
G37*
G36*
G01X689860Y1751203D02*
X688905Y1750247D01*
G02X687226Y1751858I-2905J-1347D01*
G01X687349Y1751807D01*
X687658Y1752115D01*
Y1754985D01*
X686444Y1756198D01*
X683998D01*
Y1760202D01*
X685148D01*
Y1761253D01*
X688767Y1764872D01*
X690762D01*
Y1766096D01*
X695766D01*
Y1761944D01*
X690762D01*
Y1763168D01*
X689473D01*
X686852Y1760547D01*
Y1760202D01*
X688002D01*
Y1757756D01*
X689860Y1755897D01*
Y1751203D01*
G37*
G36*
G01X625708Y1711438D02*
G03Y1711162I145J-138D01*
G02X623892I-908J-862D01*
G03Y1711438I-145J138D01*
G02X625708I908J862D01*
G37*
G36*
G01X789545Y1621330D02*
G03X788855I-345J-204D01*
G02X785430Y1624755I-2155J1270D01*
G03Y1625445I-204J345D01*
G02X784366Y1626698I1269J2156D01*
G01X726027D01*
X719779Y1632946D01*
X719705Y1632952D01*
G02X721048Y1634295I95J1248D01*
G01X721054Y1634221D01*
X726773Y1628502D01*
X784366D01*
G02X785430Y1629755I2333J-903D01*
G03Y1630445I-204J345D01*
G02X784366Y1631698I1269J2156D01*
G01X728027D01*
X726779Y1632946D01*
X726705Y1632952D01*
G02X728048Y1634295I95J1248D01*
G01X728054Y1634221D01*
X728773Y1633502D01*
X733425D01*
G03X733806Y1634022I0J400D01*
G02X735816Y1635350I1194J378D01*
G01X735872Y1635302D01*
X736184D01*
G03X736503Y1635943I0J400D01*
G02X738369Y1637602I997J758D01*
G01X780427D01*
X784410Y1641585D01*
X784363Y1641706D01*
G02X788855Y1643870I2337J893D01*
G03X789545I345J204D01*
G02X792970Y1640445I2155J-1270D01*
G03Y1639755I204J-345D01*
G02Y1635445I-1270J-2155D01*
G03Y1634755I204J-345D01*
G02Y1630445I-1270J-2155D01*
G03Y1629755I204J-345D01*
G02Y1625445I-1270J-2155D01*
G03Y1624755I204J-345D01*
G02X789545Y1621330I-1270J-2155D01*
G37*
G36*
G01X709515Y1602540D02*
X709587Y1602408D01*
G02X708108Y1603887I-3287J-1808D01*
G01X708240Y1603815D01*
X710398Y1605973D01*
Y1608713D01*
G03X709642Y1608895I-400J0D01*
G02X705254Y1614203I-3342J1705D01*
G01X705398Y1614245D01*
Y1632773D01*
X707146Y1634521D01*
X707152Y1634595D01*
G02X708495Y1633252I1248J-95D01*
G01X708421Y1633246D01*
X707202Y1632027D01*
Y1614245D01*
X707346Y1614203D01*
G02X709642Y1612305I-1046J-3603D01*
G03X710398Y1612487I356J182D01*
G01Y1629373D01*
X715346Y1634321D01*
X715352Y1634395D01*
G02X716695Y1633052I1248J-95D01*
G01X716621Y1633046D01*
X712202Y1628627D01*
Y1612487D01*
G03X712958Y1612305I400J0D01*
G02Y1608895I3342J-1705D01*
G03X712202Y1608713I-356J-182D01*
G01Y1605227D01*
X709515Y1602540D01*
G37*
G36*
G01X630002Y1601212D02*
G02X626912Y1604302I-3702J-612D01*
G01X627013Y1604285D01*
X627346Y1604618D01*
Y1606582D01*
X627013Y1606915D01*
X626912Y1606898D01*
G02X622598Y1611212I-612J3702D01*
G01X622615Y1611313D01*
X622298Y1611630D01*
Y1669330D01*
X618413Y1673215D01*
X618312Y1673198D01*
G02X615598Y1680008I-612J3702D01*
G01Y1681520D01*
X631448Y1697370D01*
Y1701502D01*
X635352D01*
Y1697131D01*
X635365Y1697096D01*
G02Y1695604I-1965J-746D01*
G01X635352Y1695569D01*
Y1692473D01*
X635766Y1692059D01*
G03X636448Y1692342I282J283D01*
G01Y1701502D01*
X640352D01*
Y1691198D01*
X639302D01*
Y1690873D01*
X642073Y1688102D01*
X646208D01*
G03X646491Y1688784I0J400D01*
G01X644077Y1691198D01*
X641448D01*
Y1701502D01*
X645352D01*
Y1692473D01*
X645766Y1692059D01*
G03X646448Y1692342I282J283D01*
G01Y1701502D01*
X650352D01*
Y1691198D01*
X647592D01*
G03X647309Y1690516I0J-400D01*
G01X648523Y1689302D01*
X655008D01*
G03X655291Y1689984I0J400D01*
G01X654077Y1691198D01*
X651448D01*
Y1701502D01*
X655352D01*
Y1692473D01*
X655766Y1692059D01*
G03X656448Y1692342I282J283D01*
G01Y1701502D01*
X660352D01*
Y1692473D01*
X661123Y1691702D01*
X661448D01*
Y1695569D01*
X661435Y1695604D01*
G02X661298Y1696350I1965J746D01*
G01Y1707270D01*
X666410Y1712381D01*
Y1750728D01*
X665056D01*
Y1767480D01*
X671966D01*
Y1750728D01*
X670612D01*
Y1713430D01*
X673442D01*
X676887Y1709985D01*
X676988Y1710002D01*
G02X679408Y1709587I611J-3702D01*
G01X679540Y1709515D01*
X693627Y1723602D01*
X701473D01*
X702716Y1722359D01*
G03X703398Y1722642I282J283D01*
G01Y1725544D01*
X700944Y1727998D01*
X699087D01*
G02X692121Y1730731I-3586J1103D01*
G01X692183Y1730859D01*
X691250Y1731792D01*
Y1736608D01*
X692185Y1737543D01*
G02X697257Y1742615I3315J1757D01*
G01X700036Y1745394D01*
Y1758204D01*
X698636D01*
Y1762356D01*
X703640D01*
Y1758204D01*
X702240D01*
Y1744482D01*
X698817Y1741059D01*
X698879Y1740931D01*
G02X693869Y1735921I-3379J-1631D01*
G01X693741Y1735983D01*
X693454Y1735696D01*
Y1732704D01*
X693741Y1732417D01*
X693869Y1732479D01*
G02X699087Y1730202I1631J-3379D01*
G01X701856D01*
X705602Y1726456D01*
Y1721152D01*
X705952D01*
Y1718248D01*
X703202D01*
Y1717352D01*
X705952D01*
Y1716006D01*
X707752Y1714205D01*
Y1705895D01*
X705552Y1703694D01*
Y1702348D01*
X702648D01*
Y1705252D01*
X703994D01*
X705550Y1706807D01*
Y1710548D01*
X703048D01*
Y1713452D01*
X704425D01*
G03X704708Y1714134I0J400D01*
G01X704394Y1714448D01*
X703048D01*
Y1714998D01*
X701752D01*
Y1714448D01*
X700123D01*
X699809Y1714134D01*
G03X700092Y1713452I283J-282D01*
G01X701752D01*
Y1710548D01*
X701202D01*
Y1705577D01*
X701123Y1705498D01*
X701225Y1705252D01*
X701352D01*
Y1702348D01*
X698448D01*
Y1702898D01*
X696473D01*
X695259Y1701684D01*
G03X695542Y1701002I283J-282D01*
G01X698448D01*
Y1701552D01*
X701352D01*
Y1698648D01*
X698448D01*
Y1699198D01*
X695473D01*
X693959Y1697684D01*
G03X694242Y1697002I283J-282D01*
G01X698448D01*
Y1697552D01*
X701351D01*
Y1695923D01*
X701966Y1695309D01*
G03X702648Y1695592I282J283D01*
G01Y1697552D01*
X705552D01*
Y1694648D01*
X703592D01*
G03X703309Y1693966I0J-400D01*
G01X704802Y1692473D01*
Y1691952D01*
X705351D01*
Y1690323D01*
X706952Y1688722D01*
Y1686278D01*
X705252Y1684577D01*
Y1684207D01*
G03X705593Y1684066I200J0D01*
G01X707498Y1685971D01*
Y1703973D01*
X721727Y1718202D01*
X734527D01*
X737298Y1720973D01*
Y1735473D01*
X746527Y1744702D01*
X760327D01*
X761285Y1745660D01*
X761213Y1745792D01*
G02X768103Y1748646I3287J1809D01*
G01X768145Y1748502D01*
X769173D01*
X794064Y1723610D01*
Y1716652D01*
X798148D01*
Y1717448D01*
X797548D01*
Y1720352D01*
X800452D01*
Y1720071D01*
G03X801092Y1719752I400J0D01*
G01X802148D01*
Y1720352D01*
X805052D01*
Y1717448D01*
X801888D01*
Y1716652D01*
X805976D01*
Y1714401D01*
G02Y1712899I-1002J-751D01*
G01Y1710648D01*
X788224D01*
Y1713377D01*
X766895Y1734706D01*
X766756Y1734602D01*
G02X762628Y1740852I-2255J2999D01*
G03X762429Y1741598I-200J346D01*
G01X753771D01*
X743202Y1731029D01*
Y1696227D01*
X734100Y1687125D01*
Y1679302D01*
X742077D01*
Y1672498D01*
X718200D01*
X718086Y1672384D01*
G03X718369Y1671702I283J-282D01*
G01X737202D01*
Y1660542D01*
G03X737884Y1660259I400J0D01*
G01X747998Y1670373D01*
Y1683573D01*
X757927Y1693502D01*
X762613D01*
G03X762795Y1694258I0J400D01*
G02X766205I1705J3342D01*
G03X766387Y1693502I182J-356D01*
G01X767227D01*
X775659Y1701934D01*
G03X775376Y1702616I-283J282D01*
G01X768279D01*
X766482Y1704414D01*
G02X767763Y1705748I-1982J3186D01*
G01X767688Y1705616D01*
X768985Y1704320D01*
X775611D01*
G03X775894Y1705002I0J400D01*
G01X766484Y1714412D01*
X766352Y1714337D01*
G02X767763Y1715748I-1852J3263D01*
G01X767688Y1715616D01*
X777016Y1706288D01*
X781948D01*
Y1708947D01*
X766482Y1724414D01*
G02X767763Y1725748I-1982J3186D01*
G01X767688Y1725616D01*
X782929Y1710376D01*
X787952D01*
Y1692624D01*
X783223D01*
X781054Y1690455D01*
X781048Y1690381D01*
G02X778854Y1689656I-1248J95D01*
G03X778152Y1689394I-302J-262D01*
G01Y1679018D01*
G02X776807Y1676949I-851J-918D01*
G03X776250Y1676562I-157J-368D01*
G02X774098Y1677369I-1250J-62D01*
G01Y1694673D01*
X777890Y1698464D01*
X781948D01*
Y1700598D01*
X776873D01*
X767973Y1691698D01*
X766387D01*
G03X766205Y1690942I0J-400D01*
G02X762795I-1705J-3342D01*
G03X762613Y1691698I-182J356D01*
G01X758673D01*
X749802Y1682827D01*
Y1669627D01*
X739218Y1659043D01*
Y1657102D01*
X742077D01*
Y1650298D01*
X736658D01*
Y1648116D01*
X739273Y1645502D01*
X741127D01*
X759227Y1663602D01*
X762429D01*
G03X762628Y1664348I-1J400D01*
G02X766372I1872J3252D01*
G03X766571Y1663602I200J-346D01*
G01X773628D01*
X792262Y1682235D01*
Y1684121D01*
G03X791579Y1684404I-400J0D01*
G01X786993Y1679818D01*
X785007D01*
X783979Y1680846D01*
X783905Y1680852D01*
G02X785248Y1682195I95J1248D01*
G01X785254Y1682121D01*
X785753Y1681622D01*
X786247D01*
X790292Y1685667D01*
Y1686348D01*
X788224D01*
Y1688599D01*
G02Y1690101I1002J751D01*
G01Y1692352D01*
X805976D01*
Y1686348D01*
X801888D01*
Y1671550D01*
G03X802326Y1671152I400J0D01*
G02X804716Y1669931I234J-2491D01*
G03X805406I345J204D01*
G02X808502Y1670979I2155J-1270D01*
G01X808625Y1670929D01*
X808974Y1671278D01*
Y1675622D01*
X807247Y1677348D01*
X805548D01*
Y1680252D01*
X808452D01*
Y1678553D01*
X810676Y1676328D01*
Y1671155D01*
G03X811281Y1670811I400J0D01*
G02X814895Y1669562I1280J-2150D01*
G01X815388D01*
X817498Y1671673D01*
Y1672448D01*
X816948D01*
Y1675352D01*
X819852D01*
Y1672448D01*
X819302D01*
Y1670927D01*
X816134Y1667760D01*
X814895D01*
G02X810406Y1667391I-2334J901D01*
G03X809716I-345J-204D01*
G02X805406I-2155J1270D01*
G03X804716I-345J-204D01*
G02X800406I-2155J1270D01*
G03X799716I-345J-204D01*
G02X795406I-2155J1270D01*
G03X794716I-345J-204D01*
G02Y1669931I-2155J1270D01*
G03X795406I345J204D01*
G02X797781Y1671153I2155J-1270D01*
G03X798216Y1671552I35J398D01*
G01Y1686348D01*
X796034D01*
Y1678159D01*
X769473Y1651598D01*
X766571D01*
G03X766372Y1650852I1J-400D01*
G02X762628I-1872J-3252D01*
G03X762429Y1651598I-200J346D01*
G01X759773D01*
X749673Y1641498D01*
X740169D01*
G02X739395Y1641152I-868J903D01*
G01X739321Y1641146D01*
X734573Y1636398D01*
X706073D01*
X692102Y1622427D01*
Y1605127D01*
X689515Y1602540D01*
X689587Y1602408D01*
G02X688108Y1603887I-3287J-1808D01*
G01X688240Y1603815D01*
X690298Y1605873D01*
Y1608529D01*
G03X689552Y1608728I-400J-1D01*
G02X683048I-3252J1872D01*
G03X682302Y1608529I-346J-200D01*
G01Y1605327D01*
X679515Y1602540D01*
X679587Y1602408D01*
G02X678108Y1603887I-3287J-1808D01*
G01X678240Y1603815D01*
X680498Y1606073D01*
Y1623636D01*
G03X679800Y1623903I-400J0D01*
G02X680751Y1626483I-2800J2497D01*
G03X681434Y1626209I400J9D01*
G01X695296Y1640071D01*
X695302Y1640145D01*
G02X696645Y1638802I1248J-95D01*
G01X696571Y1638796D01*
X682302Y1624527D01*
Y1612671D01*
G03X683048Y1612472I400J1D01*
G02X685254Y1614203I3251J-1872D01*
G01X685398Y1614245D01*
Y1626073D01*
X704275Y1644950D01*
X698198Y1651027D01*
Y1676671D01*
X703793Y1682266D01*
G03X703510Y1682948I-283J282D01*
G01X702348D01*
Y1684908D01*
G03X701666Y1685191I-400J0D01*
G01X701052Y1684577D01*
Y1682948D01*
X698148D01*
Y1685852D01*
X699777D01*
X700950Y1687024D01*
Y1687976D01*
X699877Y1689048D01*
X698248D01*
Y1689598D01*
X689973D01*
X685473Y1685098D01*
X669402D01*
Y1643898D01*
X627398D01*
Y1685502D01*
X638808D01*
G03X639091Y1686184I0J400D01*
G01X634077Y1691198D01*
X631220D01*
X620245Y1680223D01*
G03X620255Y1679647I283J-283D01*
G02X621402Y1676288I-2555J-2748D01*
G01X621385Y1676187D01*
X626502Y1671070D01*
Y1614351D01*
X626681Y1614333D01*
G02X630002Y1609988I-381J-3733D01*
G01X629985Y1609887D01*
X631550Y1608322D01*
Y1602878D01*
X629985Y1601313D01*
X630002Y1601212D01*
G37*
G54D40*
X620400Y1710727D03*
G54D45*
X696000Y1748900D03*
X706000D03*
X716000Y1778900D03*
X706000D03*
X696000D03*
X726000Y1748900D03*
Y1778900D03*
G54D39*
X616300Y1610600D03*
Y1600600D03*
X617700Y1666900D03*
X626400Y1800500D03*
Y1790500D03*
X616400Y1800500D03*
Y1790500D03*
X646300Y1610600D03*
Y1600600D03*
X636300Y1610600D03*
Y1600600D03*
X656300Y1610600D03*
X637000Y1626400D03*
X647000D03*
X657000D03*
X656400Y1790500D03*
X646400Y1800500D03*
Y1790500D03*
X636400Y1800500D03*
Y1790500D03*
X656400Y1800500D03*
X676300Y1610600D03*
X666300D03*
X667000Y1626400D03*
X685500Y1729100D03*
Y1739300D03*
X686400Y1800500D03*
Y1790500D03*
X676400Y1800500D03*
Y1790500D03*
X666400Y1800500D03*
Y1790500D03*
X716300Y1600600D03*
X696300Y1610600D03*
Y1600600D03*
X716400Y1800500D03*
Y1790500D03*
X706400Y1800500D03*
Y1790500D03*
X696400Y1800500D03*
Y1790500D03*
X746300Y1610600D03*
Y1600600D03*
X736300Y1610600D03*
Y1600600D03*
X726300Y1610600D03*
Y1600600D03*
X746400Y1800500D03*
Y1790500D03*
X736400Y1800500D03*
Y1790500D03*
X726400Y1800500D03*
Y1790500D03*
X776300Y1610600D03*
Y1600600D03*
X766300Y1610600D03*
Y1600600D03*
X756300Y1610600D03*
Y1600600D03*
X764500Y1677600D03*
X776400Y1800500D03*
Y1790500D03*
X766400Y1800500D03*
Y1790500D03*
X756400Y1800500D03*
Y1790500D03*
X786300Y1610600D03*
Y1600600D03*
X806400Y1800500D03*
Y1790500D03*
X796400Y1800500D03*
Y1790500D03*
X786400Y1800500D03*
Y1790500D03*
X826300Y1610600D03*
Y1600600D03*
X826400Y1800500D03*
Y1790500D03*
X816400Y1800500D03*
Y1790500D03*
G54D42*
X644889Y1759104D03*
G54D41*
X656700Y1740600D03*
G54D44*
X701138Y1767760D03*
G54D46*
X797100Y1701500D03*
G54D43*
X704100Y1700100D03*
X709600Y1768200D03*
X807000Y1683000D03*
X803600Y1723100D03*
X807900D03*
X799000D03*
X822600Y1673900D03*
X822100Y1680200D03*
X821800Y1713900D03*
%LPD*%
G75*
G36*
G01X689552Y1612472D02*
G03X687346Y1614203I-3251J-1872D01*
G01X687202Y1614245D01*
Y1625327D01*
X705550Y1643675D01*
X709041Y1640184D01*
G02X708758Y1639502I-283J-282D01*
G01X707773D01*
X706654Y1640621D01*
X706648Y1640695D01*
G03X705305Y1639352I-1248J-95D01*
G01X705379Y1639346D01*
X705841Y1638884D01*
G02X705558Y1638202I-283J-282D01*
G01X705327D01*
X690298Y1623173D01*
Y1612671D01*
G02X689552Y1612472I-400J1D01*
G37*
G36*
G01X673915Y1707013D02*
X673898Y1706912D01*
G03X680887Y1708108I3702J-612D01*
G01X680815Y1708240D01*
X694373Y1721798D01*
X700727D01*
X701032Y1721493D01*
G02X700891Y1721152I-141J-141D01*
G01X698848D01*
Y1718248D01*
X701398D01*
Y1717352D01*
X698848D01*
Y1715723D01*
X690898Y1707773D01*
Y1703373D01*
X679227Y1691702D01*
X665352D01*
Y1695569D01*
X665365Y1695604D01*
G03X665502Y1696350I-1965J746D01*
G01Y1705530D01*
X669198Y1709226D01*
X671702D01*
X673915Y1707013D01*
G37*
G36*
G01X692702Y1702627D02*
Y1707027D01*
X698166Y1712491D01*
G02X698848Y1712208I282J-283D01*
G01Y1710548D01*
X699398D01*
Y1706323D01*
X698998Y1705923D01*
Y1705252D01*
X698448D01*
Y1704702D01*
X695727D01*
X681527Y1690502D01*
X681059D01*
G02X680918Y1690843I0J200D01*
G01X692702Y1702627D01*
G37*
G36*
G01X713773Y1644802D02*
X707202Y1651373D01*
Y1663198D01*
X708616Y1664612D01*
G02X709298Y1664329I282J-283D01*
G01Y1650979D01*
X714793Y1645484D01*
G02X714510Y1644802I-283J-282D01*
G01X713773D01*
G37*
G36*
G01X710673Y1641102D02*
X700002Y1651773D01*
Y1675925D01*
X709016Y1684939D01*
G02X709698Y1684656I282J-283D01*
G01Y1682873D01*
X703598Y1676773D01*
Y1649727D01*
X707146Y1646179D01*
X707152Y1646105D01*
G03X708305Y1644952I1248J95D01*
G01X708379Y1644946D01*
X711541Y1641784D01*
G02X711258Y1641102I-283J-282D01*
G01X710673D01*
G37*
G36*
G01X711182Y1651645D02*
X711102Y1651725D01*
Y1665400D01*
X715716Y1670014D01*
G02X716398Y1669731I282J-283D01*
G01Y1657898D01*
X737414D01*
Y1657102D01*
X711523D01*
Y1651787D01*
G02X711182Y1651645I-200J0D01*
G37*
G36*
G01X705402Y1664913D02*
Y1676027D01*
X711019Y1681644D01*
X711248Y1681548D01*
X711598D01*
Y1679302D01*
X711523D01*
Y1672498D01*
X712986D01*
G02X713269Y1671815I0J-400D01*
G01X706084Y1664630D01*
G02X705402Y1664913I-282J283D01*
G37*
G36*
G01X713826Y1679302D02*
Y1680256D01*
X713802Y1680281D01*
Y1681548D01*
X714152D01*
Y1684452D01*
X711502D01*
Y1685748D01*
X714152D01*
Y1688652D01*
X711502D01*
Y1698027D01*
X726721Y1713246D01*
X726795Y1713252D01*
G03X725452Y1714595I-95J1248D01*
G01X725446Y1714521D01*
X709984Y1699059D01*
G02X709302Y1699342I-282J283D01*
G01Y1703227D01*
X722473Y1716398D01*
X735273D01*
X739102Y1720227D01*
Y1734727D01*
X747273Y1742898D01*
X751556D01*
G02X751839Y1742216I0J-400D01*
G01X741398Y1731775D01*
Y1696973D01*
X732493Y1688068D01*
G02X732152Y1688209I-141J141D01*
G01Y1688352D01*
X729248D01*
Y1685448D01*
X732296D01*
Y1684152D01*
X729248D01*
Y1681248D01*
X729538D01*
Y1679302D01*
X713826D01*
G37*
G36*
G01X738320Y1635302D02*
X738207Y1635667D01*
G03X738369Y1635798I-704J1036D01*
G01X781173D01*
X783528Y1638153D01*
G02X784209Y1637833I283J-283D01*
G03X784363Y1636706I2491J-234D01*
G01X784410Y1636585D01*
X783127Y1635302D01*
X738320D01*
G37*
G36*
G01X734856Y1647370D02*
X737625Y1644600D01*
X732527Y1639502D01*
X732142D01*
G02X731859Y1640184I0J400D01*
G01X734100Y1642425D01*
Y1650298D01*
X734856D01*
Y1647370D01*
G37*
G36*
G01X721304Y1648958D02*
Y1650298D01*
X727178D01*
Y1648269D01*
G03X728982I902J-869D01*
G01Y1650298D01*
X729738D01*
Y1644513D01*
X728126Y1642902D01*
X724640D01*
G02X724267Y1643446I0J400D01*
G03X724146Y1644589I-1167J454D01*
G02X724313Y1644898I167J109D01*
G01X724528D01*
X724584Y1644850D01*
G03X724531Y1646702I816J950D01*
G01X722740D01*
G02X722367Y1647246I0J400D01*
G03X721462Y1648924I-1167J454D01*
G01X721304Y1648958D01*
G37*
G36*
G01X742159Y1643984D02*
X759973Y1661798D01*
X774374D01*
X793548Y1680972D01*
G02X794230Y1680689I282J-283D01*
G01Y1678905D01*
X768727Y1653402D01*
X759027D01*
X748927Y1643302D01*
X742442D01*
G02X742159Y1643984I0J400D01*
G37*
G36*
G01X787883Y1716268D02*
X767972Y1736179D01*
G03X766372Y1740852I-3472J1422D01*
G02X766571Y1741598I200J346D01*
G01X770227D01*
X790292Y1721533D01*
Y1716652D01*
X788224D01*
Y1716410D01*
G02X787883Y1716268I-200J0D01*
G37*
G36*
G01X762259Y1744084D02*
X762560Y1744385D01*
X762692Y1744313D01*
G03X768103Y1746554I1808J3287D01*
G01X768145Y1746698D01*
X768427D01*
X792262Y1722864D01*
Y1722596D01*
G02X791920Y1722455I-200J0D01*
G01X770973Y1743402D01*
X762542D01*
G02X762259Y1744084I0J400D01*
G37*
G36*
G01X775902Y1678920D02*
Y1693927D01*
X778636Y1696662D01*
X780598D01*
G02X780881Y1695979I0J-400D01*
G01X776448Y1691547D01*
Y1679018D01*
G03X776267Y1678807I854J-916D01*
G01X775902Y1678920D01*
G37*
%LPC*%
G75*
G54D39*
X677600Y1696300D03*
X764500Y1657600D03*
%LPD*%
G75*
G54D10*
X616300Y1610600D03*
Y1600600D03*
X617700Y1666900D03*
Y1676900D03*
X616400Y1790500D03*
Y1800500D03*
X636300Y1610600D03*
X626300D03*
X636300Y1600600D03*
X626300D03*
X637000Y1626400D03*
X636400Y1790500D03*
X626400D03*
X636400Y1800500D03*
X626400D03*
X666300Y1610600D03*
X656300D03*
X646300D03*
X666300Y1600600D03*
X656300D03*
X646300D03*
X647000Y1626400D03*
X657000D03*
X667000D03*
X666400Y1790500D03*
X656400D03*
X646400D03*
X666400Y1800500D03*
X656400D03*
X646400D03*
X686300Y1610600D03*
X676300D03*
X686300Y1600600D03*
X676300D03*
X677000Y1626400D03*
X677600Y1696300D03*
Y1706300D03*
X685500Y1729100D03*
Y1739300D03*
X686400Y1790500D03*
X676400D03*
X686400Y1800500D03*
X676400D03*
X716300Y1610600D03*
X706300D03*
X696300D03*
X716300Y1600600D03*
X706300D03*
X696300D03*
X695500Y1729100D03*
Y1739300D03*
X716400Y1790500D03*
X706400D03*
X696400D03*
X716400Y1800500D03*
X706400D03*
X696400D03*
X746300Y1610600D03*
X736300D03*
X726300D03*
X746300Y1600600D03*
X736300D03*
X726300D03*
X746400Y1790500D03*
X736400D03*
X726400D03*
X746400Y1800500D03*
X736400D03*
X726400D03*
X766300Y1610600D03*
X756300D03*
X766300Y1600600D03*
X756300D03*
X764500Y1667600D03*
Y1657600D03*
Y1647600D03*
Y1687600D03*
Y1677600D03*
Y1717600D03*
Y1707600D03*
Y1697600D03*
Y1737600D03*
Y1727600D03*
Y1747600D03*
X766400Y1790500D03*
X756400D03*
X766400Y1800500D03*
X756400D03*
X796300Y1610600D03*
X786300D03*
X776300D03*
X796300Y1600600D03*
X786300D03*
X776300D03*
X796400Y1790500D03*
X786400D03*
X776400D03*
X796400Y1800500D03*
X786400D03*
X776400D03*
X816300Y1610600D03*
X806300D03*
X816300Y1600600D03*
X806300D03*
X816400Y1790500D03*
X806400D03*
X816400Y1800500D03*
X806400D03*
X826300Y1610600D03*
Y1600600D03*
X826400Y1790500D03*
Y1800500D03*
G54D20*
X699600Y1684400D03*
X703800D03*
X704100Y1696100D03*
X699900D03*
X704100Y1703800D03*
X699900D03*
X700300Y1712000D03*
X704500D03*
X699900Y1700100D03*
X704100D03*
X703900Y1690500D03*
X699700D03*
X700300Y1715900D03*
X704500D03*
Y1719700D03*
X700300D03*
X709600Y1762700D03*
X713800D03*
X709600Y1768200D03*
X713800D03*
X818400Y1673900D03*
X817900Y1680200D03*
X822600Y1673900D03*
X822100Y1680200D03*
X820500Y1694200D03*
X824700D03*
G54D11*
X612710Y1636008D03*
Y1626008D03*
Y1616008D03*
Y1656008D03*
Y1646008D03*
Y1686008D03*
Y1676008D03*
Y1666008D03*
Y1706008D03*
Y1696008D03*
Y1736008D03*
Y1726008D03*
Y1716008D03*
Y1766008D03*
Y1756008D03*
Y1746008D03*
Y1776008D03*
X632710Y1636008D03*
X639800Y1618400D03*
X631800Y1618000D03*
X635931Y1661523D03*
X630931D03*
X635931Y1656523D03*
X630931D03*
X635931Y1651523D03*
X630931D03*
X635931Y1646523D03*
X630931D03*
X635931Y1676523D03*
X630931D03*
X635931Y1671523D03*
X630931D03*
X635931Y1666523D03*
X630931D03*
X622710Y1676008D03*
Y1696008D03*
X624800Y1710300D03*
X620400Y1710727D03*
X624800Y1712300D03*
X632710Y1736008D03*
X622710D03*
X632710Y1726008D03*
X622710D03*
X632710Y1766008D03*
Y1756008D03*
X622710D03*
X632710Y1746008D03*
X622710D03*
X632710Y1776008D03*
X664000Y1620300D03*
X662710Y1636008D03*
X652710D03*
X642710D03*
X660600Y1617600D03*
X665874Y1661947D03*
Y1656947D03*
Y1651947D03*
Y1646947D03*
X660931Y1661523D03*
X655931D03*
X650931D03*
X645931D03*
X640931D03*
X660931Y1656523D03*
X655931D03*
X650931D03*
X645931D03*
X640931D03*
X660931Y1651523D03*
X655931D03*
X650931D03*
X645931D03*
X640931D03*
X660931Y1646523D03*
X655931D03*
X650931D03*
X645931D03*
X640931D03*
X665874Y1671947D03*
Y1666947D03*
X660931Y1676523D03*
X655931D03*
X650931D03*
X645931D03*
X640931D03*
X660931Y1671523D03*
X655931D03*
X650931D03*
X645931D03*
X640931D03*
X660931Y1666523D03*
X655931D03*
X650931D03*
X645931D03*
X640931D03*
X648400Y1664700D03*
X652710Y1706008D03*
Y1736008D03*
X642710D03*
X662710Y1726008D03*
X652710D03*
X642710D03*
X662710Y1716008D03*
X652710D03*
X662710Y1766008D03*
Y1756008D03*
X652710Y1746008D03*
X642710D03*
X662710Y1776008D03*
X683800Y1620300D03*
X682710Y1636008D03*
X672710D03*
Y1656008D03*
X682710Y1646008D03*
Y1676008D03*
X672710D03*
X682710Y1666008D03*
X672710D03*
X682710Y1706008D03*
X670300Y1704900D03*
X670100Y1696500D03*
X672710Y1726008D03*
X682710Y1716008D03*
X672710D03*
X682710Y1766008D03*
X675700Y1765500D03*
X682710Y1756008D03*
X676100Y1755900D03*
X690500Y1744600D03*
X681700D03*
X682900Y1774200D03*
X672710Y1776008D03*
X686000Y1770200D03*
X716600Y1634300D03*
X708400Y1634500D03*
X699800Y1635500D03*
X702710Y1616008D03*
X705400Y1640600D03*
X696550Y1640050D03*
X708400Y1646200D03*
X712600Y1660400D03*
X708100Y1658200D03*
X702710Y1656008D03*
X692710D03*
Y1646008D03*
X708300Y1674100D03*
X692710Y1686008D03*
X702710Y1676008D03*
X692710D03*
X702710Y1666008D03*
X692710D03*
X712600Y1687200D03*
Y1683100D03*
X696700Y1707300D03*
X702710Y1706008D03*
X712710Y1696008D03*
X702710D03*
X712710Y1736008D03*
X702710D03*
X712710Y1726008D03*
Y1716008D03*
X692710D03*
X702710Y1766008D03*
X692710Y1756008D03*
X710000Y1743400D03*
X712300Y1772900D03*
X702100Y1773400D03*
X692500Y1773500D03*
X722800Y1634600D03*
X729500Y1634500D03*
X722710Y1626008D03*
X719800Y1634200D03*
X726800D03*
X735000Y1634400D03*
X737500Y1636700D03*
X739300Y1642400D03*
X728080Y1647400D03*
X738316Y1653616D03*
X735500Y1644800D03*
X724400Y1648600D03*
X722961Y1653739D03*
X717900Y1648200D03*
X721200Y1647700D03*
X723100Y1643900D03*
X725400Y1645800D03*
X733200Y1676100D03*
X742710Y1686008D03*
X722710D03*
X738316Y1675984D03*
X730600Y1682800D03*
X726700Y1714500D03*
X732710Y1706008D03*
X722710D03*
X732710Y1696008D03*
X722710D03*
X742710Y1736008D03*
X732710D03*
X722710D03*
X732710Y1726008D03*
X722710D03*
X742710Y1766008D03*
X732710D03*
X722710D03*
X742710Y1746008D03*
X732710D03*
X721500Y1743100D03*
X742710Y1776008D03*
X732710D03*
X721400Y1772000D03*
X761700Y1619800D03*
X755800Y1655000D03*
X752710Y1736008D03*
X762710Y1766008D03*
X752710D03*
Y1746008D03*
X762710Y1776008D03*
X752710D03*
X783100Y1636500D03*
X792710Y1616008D03*
X780600Y1618900D03*
X772500Y1619900D03*
X792710Y1656008D03*
X782710D03*
X792710Y1646008D03*
X782710D03*
Y1686008D03*
Y1676008D03*
X792710Y1666008D03*
X789226Y1689350D03*
X775000Y1676500D03*
X784000Y1682100D03*
X777300Y1678100D03*
X777400Y1693700D03*
X792710Y1706008D03*
Y1696008D03*
X784906Y1707406D03*
X779800Y1690476D03*
X769300Y1740000D03*
X792710Y1736008D03*
X782710Y1716008D03*
X769000Y1744500D03*
X792710Y1766008D03*
X782710D03*
X792710Y1756008D03*
X782710D03*
X772710D03*
X792710Y1746008D03*
X782710D03*
X792710Y1776008D03*
X782710D03*
X772710D03*
X802710Y1636008D03*
Y1626008D03*
X807800Y1621200D03*
X811661Y1620000D03*
X812710Y1656008D03*
X802710D03*
X812710Y1646008D03*
X802710D03*
X806900Y1683000D03*
X812710Y1676008D03*
X802710D03*
Y1706008D03*
Y1696008D03*
X809250Y1693626D03*
Y1707406D03*
X804974Y1713650D03*
X809232Y1699532D03*
X799000Y1718900D03*
X812710Y1736008D03*
X802710D03*
X812710Y1726008D03*
X802710D03*
X812710Y1716008D03*
Y1766008D03*
X802710D03*
X812710Y1756008D03*
X802710D03*
X812710Y1746008D03*
X802710D03*
X812710Y1776008D03*
X802710D03*
X822710Y1636008D03*
Y1626008D03*
X822200Y1620300D03*
X822710Y1656008D03*
Y1646008D03*
Y1676008D03*
Y1666008D03*
X824500Y1700400D03*
X821900D03*
X822710Y1736008D03*
Y1726008D03*
Y1716008D03*
Y1766008D03*
Y1756008D03*
Y1746008D03*
Y1776008D03*
G54D21*
X712700Y1687200D03*
Y1683000D03*
X730700Y1682700D03*
Y1686900D03*
X807000Y1683000D03*
Y1678800D03*
X815100Y1705100D03*
Y1700900D03*
X807900Y1723100D03*
Y1718900D03*
X803600Y1723100D03*
Y1718900D03*
X799000Y1723100D03*
Y1718900D03*
X821800Y1713900D03*
Y1709700D03*
G54D30*
X833950Y1697350D03*
G54D12*
X648400Y1664700D03*
G54D13*
X633400Y1696350D03*
X638400D03*
X643400D03*
X648400D03*
X653400D03*
X658400D03*
X663400D03*
G54D22*
X693264Y1764020D03*
X701138Y1760280D03*
Y1767760D03*
G54D31*
X833200Y1705600D03*
G54D32*
G01X686000Y1748900D02*
X688759Y1751659D01*
Y1755441D01*
X686000Y1758200D01*
G01X712700Y1683000D02*
Y1679825D01*
X712725Y1679800D01*
Y1675900D01*
G01X704500Y1715900D02*
X706651Y1713749D01*
Y1706351D01*
X704100Y1703800D01*
G01X695500Y1739300D02*
X692352Y1736152D01*
Y1732248D01*
X695500Y1729100D01*
G01X701138Y1760280D02*
Y1744938D01*
X695500Y1739300D01*
G01Y1729100D02*
X701400D01*
X704500Y1726000D01*
Y1719700D01*
G01X713800Y1762700D02*
Y1768200D01*
G01Y1762700D02*
X711649Y1760549D01*
Y1753251D01*
X716000Y1748900D01*
G01X730639Y1675900D02*
Y1680689D01*
X730700Y1680750D01*
Y1682700D01*
G54D23*
X726800Y1664800D03*
G54D14*
X656700Y1740600D03*
G54D33*
G01X833200Y1705600D02*
X824500D01*
G54D15*
X644889Y1759104D03*
G54D24*
X791700Y1622600D03*
X786700D03*
X791700Y1627600D03*
X786700D03*
X791700Y1632600D03*
X786700D03*
X791700Y1637600D03*
X786700D03*
X791700Y1642600D03*
X786700D03*
X792561Y1668661D03*
X812561D03*
X807561D03*
X802561D03*
X797561D03*
G54D34*
G01X626300Y1610600D02*
X629448Y1607452D01*
Y1603748D01*
X626300Y1600600D01*
G01X617700Y1676900D02*
X624400Y1670200D01*
Y1612500D01*
X626300Y1610600D01*
G01X633400Y1696350D02*
X617700Y1680650D01*
Y1676900D01*
G01X663400Y1696350D02*
Y1706400D01*
X668328Y1711328D01*
G01D02*
X672572D01*
X677600Y1706300D01*
G01X668328Y1711328D02*
X668511Y1711511D01*
Y1759104D01*
G54D25*
X793163Y1689350D03*
X791194D03*
X789226D03*
Y1713650D03*
X791194D03*
X793163D03*
X804974Y1689350D03*
X803006D03*
X801037D03*
X799068D03*
X797100D03*
X795132D03*
Y1713650D03*
X797100D03*
X799068D03*
X801037D03*
X803006D03*
X804974D03*
G54D16*
X668511Y1759104D03*
G54D35*
G01X833950Y1697350D02*
X829575D01*
G54D26*
X784950Y1693626D03*
Y1695594D03*
Y1697563D03*
Y1699532D03*
Y1701500D03*
Y1703468D03*
Y1705437D03*
Y1707406D03*
Y1709374D03*
X809250D03*
Y1707406D03*
Y1705437D03*
Y1703468D03*
Y1701500D03*
Y1699532D03*
Y1697563D03*
Y1695594D03*
Y1693626D03*
G54D17*
X686000Y1748900D03*
Y1778900D03*
X696000Y1748900D03*
X706000D03*
X716000D03*
Y1778900D03*
X706000D03*
X696000D03*
X726000Y1748900D03*
Y1778900D03*
G54D36*
G01X693264Y1764020D02*
X689120D01*
X686000Y1760900D01*
Y1758200D01*
G01X784950Y1703468D02*
X768632D01*
X764500Y1707600D01*
G01Y1717600D02*
X776663Y1705437D01*
X784950D01*
G01Y1709374D02*
X782726D01*
X764500Y1727600D01*
G01X777300Y1678100D02*
Y1691194D01*
X781700Y1695594D01*
X784950D01*
G01X817900Y1680200D02*
Y1684700D01*
G01D02*
X814700D01*
X813500Y1685900D01*
Y1695044D01*
X812950Y1695594D01*
X809250D01*
G01X799068Y1689350D02*
Y1670168D01*
X797561Y1668661D01*
G01X807000Y1678800D02*
X809825Y1675975D01*
Y1670925D01*
X807561Y1668661D01*
G01X801037Y1689350D02*
Y1670185D01*
X802561Y1668661D01*
G01X809250Y1709374D02*
Y1715400D01*
X807900Y1716750D01*
Y1718900D01*
G01X799068Y1713650D02*
Y1717132D01*
X799000Y1717200D01*
Y1718900D01*
G01X809250Y1697563D02*
X823487D01*
X824700Y1696350D01*
Y1694200D01*
G01X801037Y1713650D02*
Y1718487D01*
X801450Y1718900D01*
X803600D01*
G01X824700Y1689900D02*
Y1694200D01*
G54D27*
X817900Y1689900D03*
Y1684700D03*
X824700D03*
Y1689900D03*
G54D18*
X686000Y1758200D03*
Y1770200D03*
G54D37*
G01X613748Y1666900D02*
X617700D01*
G01Y1662948D02*
Y1666900D01*
G01D02*
Y1670852D01*
G01Y1666900D02*
X621652D01*
G01X627198Y1664700D02*
X648400D01*
G01X699700Y1690500D02*
X689600D01*
X685100Y1686000D01*
X640550D01*
X633400Y1693150D01*
Y1696350D01*
G01X699900Y1696100D02*
X693200D01*
X684300Y1687200D01*
X641700D01*
X638400Y1690500D01*
Y1696350D01*
G01X656300Y1600600D02*
X663400Y1593500D01*
X808100D01*
X811300Y1596700D01*
Y1619639D01*
X811661Y1620000D01*
G01X648400Y1643698D02*
Y1664700D01*
G01D02*
X669602D01*
G01X643400Y1696350D02*
Y1693150D01*
X648150Y1688400D01*
X683400D01*
X695100Y1700100D01*
X699900D01*
G01X648400Y1690998D02*
Y1696350D01*
G01D02*
Y1701702D01*
G01X646248Y1696350D02*
X648400D01*
G01D02*
X650552D01*
G01X653400D02*
Y1693150D01*
X656950Y1689600D01*
X681900D01*
X696100Y1703800D01*
X699900D01*
G01X658400Y1696350D02*
Y1693150D01*
X660750Y1690800D01*
X679600D01*
X691800Y1703000D01*
Y1707400D01*
X700300Y1715900D01*
G01X656700Y1736945D02*
Y1740600D01*
G01X644889Y1751512D02*
Y1759104D01*
G01D02*
Y1766696D01*
G01X641234Y1759104D02*
X644889D01*
G01D02*
X648544D01*
G01X656700Y1740600D02*
Y1744255D01*
G01X648124Y1740600D02*
X656700D01*
G01D02*
X665276D01*
G01X696550Y1640050D02*
X681400Y1624900D01*
Y1605700D01*
X676300Y1600600D01*
G01X739300Y1642400D02*
X734200Y1637300D01*
X705700D01*
X691200Y1622800D01*
Y1605500D01*
X686300Y1600600D01*
G01X705400Y1644800D02*
X686300Y1625700D01*
Y1610600D01*
G01X666300Y1600600D02*
X671700Y1595200D01*
X797600D01*
X801300Y1598900D01*
Y1614700D01*
X807800Y1621200D01*
G01X704500Y1715900D02*
X702350D01*
X702300Y1715950D01*
Y1721500D01*
X701100Y1722700D01*
X694000D01*
X677600Y1706300D01*
G01Y1692348D02*
Y1696300D01*
G01D02*
Y1700252D01*
G01X673648Y1696300D02*
X677600D01*
G01D02*
X681552D01*
G01X686000Y1770200D02*
X688759Y1772959D01*
Y1776141D01*
X686000Y1778900D01*
G01X716600Y1634300D02*
X711300Y1629000D01*
Y1605600D01*
X706300Y1600600D01*
G01X708400Y1634500D02*
X706300Y1632400D01*
Y1610600D01*
G01X705400Y1640600D02*
X707400Y1638600D01*
X732900D01*
X738900Y1644600D01*
G01X764500Y1747600D02*
X760700Y1743800D01*
X746900D01*
X738200Y1735100D01*
Y1720600D01*
X734900Y1717300D01*
X722100D01*
X708400Y1703600D01*
Y1685598D01*
X699100Y1676298D01*
Y1651400D01*
X705400Y1645100D01*
Y1644800D01*
G01X733198Y1653700D02*
Y1642798D01*
X730600Y1640200D01*
X710300D01*
X705700Y1644800D01*
X705400D01*
G01X708400Y1646200D02*
X704500Y1650100D01*
Y1676400D01*
X710600Y1682500D01*
Y1698400D01*
X726700Y1714500D01*
G01X730639Y1653700D02*
Y1644140D01*
X728499Y1642000D01*
X712600D01*
X708400Y1646200D01*
G01X712725Y1653700D02*
Y1660275D01*
G01D02*
X712600Y1660400D01*
G01X715284Y1675900D02*
Y1672555D01*
X706300Y1663571D01*
Y1651000D01*
X713400Y1643900D01*
X723100D01*
G01X717843Y1675900D02*
Y1673416D01*
X710200Y1665773D01*
Y1651352D01*
X715752Y1645800D01*
X725400D01*
G01X716198Y1664800D02*
X726800D01*
G01X703800Y1684400D02*
X706051Y1686651D01*
Y1688349D01*
X703900Y1690500D01*
G01X699700D02*
X701851Y1688349D01*
Y1686651D01*
X699600Y1684400D01*
G01X704500Y1710348D02*
Y1712000D01*
G01D02*
Y1713652D01*
G01X702848Y1712000D02*
X704500D01*
G01X704100Y1694448D02*
Y1696100D01*
G01D02*
Y1697752D01*
G01X702448Y1696100D02*
X704100D01*
G01D02*
X705752D01*
G01X704100Y1698448D02*
Y1700100D01*
G01D02*
Y1701752D01*
G01X702448Y1700100D02*
X704100D01*
G01D02*
X705752D01*
G01X700300Y1712000D02*
Y1705950D01*
X699900Y1705550D01*
Y1703800D01*
G01X703900Y1690500D02*
Y1692100D01*
X699900Y1696100D01*
G01X700300Y1718048D02*
Y1719700D01*
G01D02*
Y1721352D01*
G01X698648Y1719700D02*
X700300D01*
G01X709600Y1761048D02*
Y1762700D01*
G01D02*
Y1764352D01*
G01X707948Y1762700D02*
X709600D01*
G01D02*
X711252D01*
G01X701138Y1765483D02*
Y1767760D01*
G01X709600Y1766548D02*
Y1768200D01*
G01D02*
Y1769852D01*
G01X707948Y1768200D02*
X709600D01*
G01D02*
X711252D01*
G01X701138Y1767760D02*
Y1770037D01*
G01X698436Y1767760D02*
X701138D01*
G01D02*
X703840D01*
G01X786700Y1627600D02*
X726400D01*
X719800Y1634200D01*
G01X726800D02*
X728400Y1632600D01*
X786700D01*
G01X735000Y1634400D02*
X783500D01*
X786700Y1637600D01*
G01X737500Y1636700D02*
X780800D01*
X786700Y1642600D01*
G01X738900Y1644600D02*
X741500D01*
X759600Y1662700D01*
X774001D01*
X793163Y1681862D01*
Y1689350D01*
G01X738900Y1644600D02*
X735757Y1647743D01*
Y1653700D01*
G01X739300Y1642400D02*
X749300D01*
X759400Y1652500D01*
X769100D01*
X795132Y1678532D01*
Y1689350D01*
G01X728080Y1653700D02*
Y1647400D01*
G01X784950Y1701500D02*
X776500D01*
X767600Y1692600D01*
X758300D01*
X748900Y1683200D01*
Y1670000D01*
X738316Y1659416D01*
Y1653700D01*
G01D02*
Y1653616D01*
G01X726800Y1657698D02*
Y1664800D01*
G01X722961Y1653700D02*
Y1653739D01*
G01X717900Y1648200D02*
X717843Y1648257D01*
Y1653700D01*
G01X720402D02*
Y1648498D01*
X721200Y1647700D01*
G01X791194Y1713650D02*
Y1721906D01*
X770600Y1742500D01*
X753398D01*
X742300Y1731402D01*
Y1696600D01*
X733198Y1687498D01*
Y1675900D01*
G01X730700Y1685248D02*
Y1686900D01*
G01D02*
Y1688552D01*
G01X729048Y1686900D02*
X730700D01*
G01X726800Y1664800D02*
Y1671902D01*
G01Y1664800D02*
X737402D01*
G01X735757Y1672298D02*
Y1675900D01*
G01D02*
Y1679502D01*
G01X728080Y1672298D02*
Y1675900D01*
G01D02*
Y1679502D01*
G01X725520Y1672298D02*
Y1675900D01*
G01D02*
Y1679502D01*
G01X722961Y1672298D02*
Y1675900D01*
G01D02*
Y1679502D01*
G01X720402Y1672298D02*
Y1675900D01*
G01D02*
Y1679502D01*
G01X738316Y1675900D02*
Y1675984D01*
G01X764500Y1643648D02*
Y1647600D01*
G01X760548D02*
X764500D01*
G01D02*
X768452D01*
G01X789226Y1713650D02*
X765276Y1737600D01*
X764500D01*
G01X793163Y1713650D02*
Y1723237D01*
X768800Y1747600D01*
X764500D01*
G01X791700Y1619898D02*
Y1622600D01*
G01D02*
X794402D01*
G01X792561Y1665959D02*
Y1668661D01*
G01D02*
Y1671363D01*
G01X789859Y1668661D02*
X792561D01*
G01X775000Y1676500D02*
Y1694300D01*
X778263Y1697563D01*
X784950D01*
G01X784000Y1682100D02*
X785380Y1680720D01*
X786620D01*
X791194Y1685294D01*
Y1689350D01*
G01X792898Y1701500D02*
X797100D01*
G01X784950Y1707406D02*
X784906D01*
G01X784950Y1693626D02*
X782950D01*
X779800Y1690476D01*
G01X818400Y1673900D02*
Y1671300D01*
X815761Y1668661D01*
X812561D01*
G01X817900Y1689900D02*
Y1692602D01*
G01X815198Y1689900D02*
X817900D01*
G01D02*
X820602D01*
G01X818848Y1694200D02*
X820500D01*
G01X797100Y1697298D02*
Y1701500D01*
G01D02*
Y1705702D01*
G01Y1701500D02*
X801302D01*
G01X809250Y1707406D02*
Y1705437D01*
G01X804974Y1713650D02*
X803006D01*
G01X809250Y1699532D02*
X809232D01*
G01X799000Y1721448D02*
Y1723100D01*
G01D02*
Y1724752D01*
G01X797348Y1723100D02*
X799000D01*
G01D02*
X800652D01*
G01X807900Y1721448D02*
Y1723100D01*
G01D02*
Y1724752D01*
G01X806248Y1723100D02*
X807900D01*
G01D02*
X809552D01*
G01X803600Y1721448D02*
Y1723100D01*
G01D02*
Y1724752D01*
G01X801948Y1723100D02*
X803600D01*
G01D02*
X805252D01*
G01X826300Y1596648D02*
Y1600600D01*
G01D02*
Y1604552D01*
G01X822348Y1600600D02*
X826300D01*
G01D02*
X830252D01*
G01X826300Y1606648D02*
Y1610600D01*
G01D02*
Y1614552D01*
G01X822348Y1610600D02*
X826300D01*
G01D02*
X830252D01*
G01X824700Y1681998D02*
Y1684700D01*
G01X821998D02*
X824700D01*
G01D02*
X827402D01*
G01X822100Y1678548D02*
Y1680200D01*
G01D02*
Y1681852D01*
G01X820448Y1680200D02*
X822100D01*
G01D02*
X823752D01*
G01X822600Y1672248D02*
Y1673900D01*
G01D02*
Y1675552D01*
G01X820948Y1673900D02*
X822600D01*
G01D02*
X824252D01*
G01X821800Y1712248D02*
Y1713900D01*
G01D02*
Y1715552D01*
G01X820148Y1713900D02*
X821800D01*
G01D02*
X823452D01*
G01X820500Y1692548D02*
Y1694200D01*
G01D02*
Y1695852D01*
G01Y1694200D02*
X822152D01*
G01X821900Y1705600D02*
Y1709600D01*
X821800Y1709700D01*
G54D19*
X715284Y1653700D03*
X712725D03*
Y1675900D03*
X715284D03*
X740875Y1653700D03*
X738316D03*
X735757D03*
X733198D03*
X730639D03*
X728080D03*
X725520D03*
X722961D03*
X720402D03*
X717843D03*
Y1675900D03*
X720402D03*
X722961D03*
X725520D03*
X728080D03*
X730639D03*
X733198D03*
X735757D03*
X738316D03*
X740875D03*
G54D28*
X797100Y1701500D03*
G54D38*
G01X815100Y1705100D02*
X815600Y1705600D01*
X819300D01*
G01X809250Y1703468D02*
X813468D01*
X815100Y1705100D01*
G01Y1700900D02*
X815600Y1700400D01*
X819300D01*
G01X809250Y1701500D02*
X814500D01*
X815100Y1700900D01*
G54D29*
X819300Y1700400D03*
Y1705600D03*
X824500Y1700400D03*
X821900D03*
Y1705600D03*
X824500D03*
M02*
