G04 ================== begin FILE IDENTIFICATION RECORD ==================*
G04 Layout Name:  C:/USERS/MSAHADAT3/DROPBOX/GATECH/ETDS_PCB/allegro/ETDS_CHIP_AN.brd*
G04 Film Name:    BOTTOM*
G04 File Format:  Gerber RS274X*
G04 File Origin:  Cadence Allegro 16.6-P004*
G04 Origin Date:  Thu Sep 11 12:01:08 2014*
G04 *
G04 Layer:  VIA CLASS/BOTTOM*
G04 Layer:  PIN/BOTTOM*
G04 Layer:  ETCH/BOTTOM*
G04 *
G04 Offset:    (0.00 0.00)*
G04 Mirror:    No*
G04 Mode:      Positive*
G04 Rotation:  0*
G04 FullContactRelief:  No*
G04 UndefLineWidth:     5.00*
G04 ================== end FILE IDENTIFICATION RECORD ====================*
%FSLAX25Y25*MOIN*%
%IR0*IPPOS*OFA0.00000B0.00000*MIA0B0*SFA1.00000B1.00000*%
%ADD10C,.015*%
%ADD21R,.138X.03937*%
%ADD11R,.05X.01*%
%ADD19R,.05X.05*%
%ADD13R,.0315X.04*%
%ADD16R,.016X.036*%
%ADD20R,.054X.018*%
%ADD14R,.019X.019*%
%ADD17R,.025X.049*%
%ADD15R,.019X.019*%
%ADD18R,.01574X.025*%
%ADD12R,.06693X.04134*%
%ADD22C,.005*%
%ADD23C,.02504*%
%ADD25R,.02904X.02904*%
%ADD24R,.07696X.05138*%
G75*
%LPD*%
G75*
G36*
G01X750901Y1656901D02*
Y1703599D01*
X765271D01*
G02X765553Y1702916I0J-400D01*
G01X765080Y1702442D01*
X764989Y1702449D01*
G03X764126Y1702184I-89J-1249D01*
G02X763802Y1702341I-124J157D01*
G01Y1702368D01*
X761551D01*
G03X760049I-751J-1002D01*
G01X757798D01*
Y1682643D01*
X763802D01*
Y1690770D01*
X765499D01*
G03X766516Y1692773I1001J751D01*
G02X766129Y1693250I5J400D01*
G03X765988Y1694110I-1229J240D01*
G02X766335Y1694708I348J198D01*
G01X768639D01*
X768839Y1694508D01*
X769398D01*
Y1682443D01*
X775402D01*
Y1690570D01*
X775789D01*
X780990Y1685368D01*
X782231D01*
X783120Y1686258D01*
X783211Y1686251D01*
G03X782051Y1687411I89J1249D01*
G01X782058Y1687320D01*
X781610Y1686873D01*
X780835Y1687649D01*
G02X780993Y1688311I283J282D01*
G03X780511Y1690749I-392J1189D01*
G01X780420Y1690742D01*
X777121Y1694042D01*
X775402D01*
Y1694508D01*
X779280D01*
X791439Y1682348D01*
X801961D01*
X809224Y1689611D01*
G02X809907Y1689329I283J-282D01*
G01Y1688998D01*
X810458D01*
Y1687548D01*
X817078D01*
Y1688998D01*
X817629D01*
Y1693602D01*
X817078D01*
Y1694177D01*
X819266Y1696364D01*
G02X819948Y1696081I282J-283D01*
G01Y1695148D01*
X822852D01*
Y1697948D01*
X823348D01*
Y1693048D01*
X829352D01*
Y1699052D01*
X825180D01*
G02X824897Y1699734I0J400D01*
G01X825263Y1700100D01*
X836300D01*
Y1699052D01*
X830398D01*
Y1693048D01*
X832648D01*
Y1692661D01*
X831460Y1691473D01*
Y1676357D01*
X833082Y1674735D01*
G02X832800Y1674052I-282J-283D01*
G01X829852D01*
Y1676332D01*
X827038Y1679146D01*
X826028D01*
Y1680146D01*
X823552D01*
X822552Y1681146D01*
X818956D01*
X817334Y1679524D01*
G02X816652Y1679807I-282J283D01*
G01Y1681652D01*
X813748D01*
Y1680952D01*
X809853D01*
X800194Y1671293D01*
Y1668574D01*
X797856Y1666236D01*
G02X797173Y1666518I-283J282D01*
G01Y1670986D01*
X789477D01*
Y1665848D01*
X796503D01*
G02X796786Y1665166I0J-400D01*
G01X796110Y1664490D01*
X789477D01*
Y1659406D01*
X786543D01*
Y1664490D01*
X778847D01*
Y1659352D01*
X781944D01*
Y1657902D01*
X796868D01*
X799376Y1660410D01*
X799764D01*
Y1658660D01*
X803916D01*
Y1662132D01*
G02X804599Y1662415I400J0D01*
G01X806604Y1660410D01*
X807244D01*
Y1658660D01*
X811396D01*
Y1660410D01*
X815348D01*
Y1657948D01*
X818252D01*
Y1660120D01*
G02X818934Y1660403I400J0D01*
G01X819548Y1659789D01*
Y1657948D01*
X822452D01*
Y1658648D01*
X822839D01*
X823903Y1657584D01*
G02X823621Y1656901I-282J-283D01*
G01X750901D01*
G37*
G36*
G01X792061Y1683852D02*
X779902Y1696010D01*
X775402D01*
Y1696476D01*
X781811D01*
X791639Y1686648D01*
X792899D01*
G03X794901I1001J752D01*
G01X802404D01*
X805420Y1689665D01*
X805511Y1689658D01*
G03X806840Y1691083I89J1249D01*
G02X807324Y1691529I396J56D01*
G03X807689Y1691501I277J1221D01*
G01X807780Y1691508D01*
X808228Y1691059D01*
Y1690741D01*
X801339Y1683852D01*
X792061D01*
G37*
G36*
G01X792261Y1688152D02*
X782433Y1697980D01*
X775402D01*
Y1698446D01*
X783143D01*
X791890Y1689698D01*
X798149D01*
G03Y1691202I1001J752D01*
G01X792512D01*
X783765Y1699948D01*
X775402D01*
Y1702248D01*
X794647D01*
G02X794974Y1701619I0J-400D01*
G03X794751Y1700812I1026J-718D01*
G01X794758Y1700721D01*
X792709Y1698672D01*
X788690D01*
X788242Y1699120D01*
X788249Y1699211D01*
G03X787089Y1698051I-1249J89D01*
G01X787180Y1698058D01*
X788068Y1697170D01*
X793331D01*
X795820Y1699659D01*
X795911Y1699652D01*
G03X797076Y1700260I89J1249D01*
G02X797351Y1700329I172J-102D01*
G03X797911Y1702649I649J1071D01*
G01X797820Y1702642D01*
X797547Y1702916D01*
G02X797829Y1703599I282J283D01*
G01X819825D01*
G02X820206Y1703078I0J-400D01*
G03X820149Y1702663I1194J-375D01*
G02X819948Y1702305I-400J-11D01*
G01Y1699172D01*
X817978Y1697202D01*
G02X817357Y1697270I-283J283D01*
G03X817346Y1697289I-1089J-618D01*
G02X817513Y1697598I167J109D01*
G01X817628D01*
Y1702202D01*
X815026D01*
Y1697598D01*
X815087D01*
G02X815254Y1697289I0J-200D01*
G03X815630Y1695543I1046J-688D01*
G02X815698Y1694922I-215J-338D01*
G01X815576Y1694799D01*
Y1693602D01*
X811960D01*
Y1694702D01*
X807752Y1698911D01*
Y1699329D01*
G02X808434Y1699612I400J0D01*
G01X808898Y1699148D01*
X809908D01*
Y1697598D01*
X812510D01*
Y1702202D01*
X809908D01*
Y1700652D01*
X809520D01*
X808420Y1701752D01*
X804728D01*
X803598Y1700622D01*
X803352Y1700724D01*
Y1700752D01*
X800448D01*
Y1697848D01*
X803352D01*
Y1698548D01*
X803650D01*
X804166Y1699064D01*
G02X804849Y1698781I283J-283D01*
G01Y1697848D01*
X806689D01*
X807303Y1697234D01*
G02X807020Y1696551I-283J-283D01*
G01X804848D01*
Y1693648D01*
X806025D01*
G02X806406Y1693128I0J-400D01*
G03X806360Y1692574I1194J-378D01*
G02X805876Y1692128I-396J-56D01*
G03X804351Y1690818I-276J-1221D01*
G01X804358Y1690727D01*
X801782Y1688152D01*
X794901D01*
G03X792899I-1001J-752D01*
G01X792261D01*
G37*
G36*
G01X808452Y1669552D02*
X808216Y1669788D01*
X807656D01*
Y1671538D01*
X805135D01*
G02X804852Y1672220I0J400D01*
G01X808030Y1675398D01*
X815334D01*
X818833Y1678897D01*
G02X819516Y1678614I283J-283D01*
G01Y1677705D01*
X817898Y1676088D01*
Y1674552D01*
X815048D01*
Y1671648D01*
X817898D01*
Y1670252D01*
X815148D01*
Y1669552D01*
X808452D01*
G37*
G36*
G01X831534Y1659267D02*
G02X830852Y1659550I-282J283D01*
G01Y1663752D01*
X829852D01*
Y1665011D01*
X826924Y1667939D01*
X827089Y1668105D01*
X827120Y1668120D01*
G03X827132Y1668126I-173J360D01*
G01X827176Y1668148D01*
X836300D01*
Y1665983D01*
X835828Y1665511D01*
Y1663752D01*
X834828D01*
Y1661552D01*
X833819D01*
X831534Y1659267D01*
G37*
G36*
G01X835891Y1674052D02*
X832964Y1676979D01*
Y1690851D01*
X834152Y1692039D01*
Y1693048D01*
X836300D01*
Y1674052D01*
X835891D01*
G37*
G36*
G01X822851Y1700780D02*
Y1702305D01*
G02X822651Y1702663I200J347D01*
G03X822594Y1703078I-1251J40D01*
G02X822975Y1703599I381J121D01*
G01X832247D01*
G02X832635Y1703102I0J-400D01*
G03X832753Y1702196I1215J-302D01*
G02X832403Y1701604I-350J-192D01*
G01X824641D01*
X823534Y1700497D01*
G02X822851Y1700780I-283J283D01*
G37*
%LPC*%
G75*
G36*
G01X819589Y1690349D02*
X819680Y1690342D01*
X820569Y1691232D01*
X821431D01*
X822320Y1690342D01*
X822411Y1690349D01*
G02X821251Y1689189I89J-1249D01*
G01X821258Y1689280D01*
X821000Y1689537D01*
X820742Y1689280D01*
X820749Y1689189D01*
G02X819589Y1690349I-1249J-89D01*
G37*
G36*
G01X824060Y1685264D02*
Y1681760D01*
X821484D01*
Y1682760D01*
X820474D01*
X819586Y1683648D01*
X816652D01*
Y1682948D01*
X813748D01*
Y1685852D01*
X816652D01*
Y1685152D01*
X820208D01*
X821096Y1684264D01*
X821484D01*
Y1685264D01*
X824060D01*
G37*
G36*
G01X799211Y1674548D02*
X774211D01*
X769542Y1669880D01*
X769549Y1669789D01*
G02X768389Y1670949I-1249J-89D01*
G01X768480Y1670942D01*
X773589Y1676052D01*
X798589D01*
X805458Y1682920D01*
X805451Y1683011D01*
G02X806611Y1681851I1249J89D01*
G01X806520Y1681858D01*
X799211Y1674548D01*
G37*
G54D23*
X757250Y1672600D03*
X765750Y1687150D03*
G54D25*
X801900Y1695100D03*
G54D24*
X782695Y1668417D03*
%LPD*%
G75*
G54D10*
X752151Y1660000D03*
Y1664550D03*
Y1668650D03*
X752350Y1700650D03*
X752200Y1697150D03*
X755800Y1702349D03*
X772200Y1658151D03*
X767400D03*
X761950D03*
X756600Y1658250D03*
X756800Y1664350D03*
X757250Y1672600D03*
X768300Y1669700D03*
X765750Y1687150D03*
X764900Y1693490D03*
X766500Y1691521D03*
X760800Y1701366D03*
X764900Y1701200D03*
X776350Y1658151D03*
X787500Y1667000D03*
X781900Y1678050D03*
X781750Y1673150D03*
X780600Y1689500D03*
X783300Y1687500D03*
X787000Y1699300D03*
X772350Y1701302D03*
X798650Y1658151D03*
X794500Y1679500D03*
X800000Y1685000D03*
X793900Y1687400D03*
X799150Y1690450D03*
X796000Y1700901D03*
X801550Y1702400D03*
X798000Y1701400D03*
X811350Y1667050D03*
X811850Y1670650D03*
X806700Y1683100D03*
X816300Y1696600D03*
X805600Y1690907D03*
X807600Y1692750D03*
X825200Y1661150D03*
X832200Y1661200D03*
X826900Y1674900D03*
X832750Y1671300D03*
X833900Y1679550D03*
X826850Y1694850D03*
X819500Y1689100D03*
X822500D03*
X821400Y1702700D03*
X833850Y1702800D03*
X830750D03*
X841850Y1657920D03*
G54D20*
D03*
Y1660480D03*
Y1663040D03*
Y1665600D03*
Y1668160D03*
G54D11*
X760800Y1683645D03*
X772400Y1683445D03*
X760800Y1685614D03*
Y1687583D03*
Y1689552D03*
Y1691521D03*
Y1693490D03*
Y1695459D03*
Y1697428D03*
Y1699397D03*
X772400Y1685414D03*
Y1687383D03*
Y1689352D03*
Y1691321D03*
Y1693290D03*
Y1695259D03*
Y1697228D03*
Y1699197D03*
X760800Y1701366D03*
X772400Y1701166D03*
G54D12*
X782695Y1668417D03*
Y1661921D03*
X793325Y1668417D03*
Y1661921D03*
G54D21*
X843900Y1685104D03*
Y1692978D03*
Y1700852D03*
G54D22*
G01X760800Y1682443D02*
Y1683645D01*
G01X757598D02*
X760800D01*
G01D02*
X764002D01*
G01X769198Y1683445D02*
X772400D01*
G01X806700Y1683100D02*
X798900Y1675300D01*
X773900D01*
X768300Y1669700D01*
G01X772400Y1697228D02*
X769150D01*
X768950Y1697428D01*
X760800D01*
G01Y1693490D02*
X764900D01*
G01X772400Y1695259D02*
X769150D01*
X768950Y1695459D01*
X760800D01*
G01X772400Y1699197D02*
X769150D01*
X768950Y1699397D01*
X760800D01*
G01Y1691521D02*
X766500D01*
G01X798000Y1701400D02*
X796400Y1703000D01*
X766700D01*
X764900Y1701200D01*
G01X782695Y1665648D02*
Y1668417D01*
G01D02*
Y1671186D01*
G01X778646Y1668417D02*
X782695D01*
G01D02*
X786744D01*
G01X782695Y1661921D02*
Y1658654D01*
X796557D01*
X799065Y1661162D01*
X801840D01*
G01X772400Y1682243D02*
Y1683445D01*
G01D02*
X775602D01*
G01X793900Y1687400D02*
X791950D01*
X782122Y1697228D01*
X772400D01*
G01X807600Y1692750D02*
X808980Y1691370D01*
Y1690430D01*
X801650Y1683100D01*
X791750D01*
X779591Y1695259D01*
X772400D01*
G01X780600Y1689500D02*
X776810Y1693290D01*
X772400D01*
G01X799150Y1690450D02*
X792201D01*
X783454Y1699197D01*
X772400D01*
G01X783300Y1687500D02*
X781920Y1686120D01*
X781301D01*
X776100Y1691321D01*
X772400D01*
G01X796000Y1700901D02*
X793020Y1697921D01*
X788379D01*
X787000Y1699300D01*
G01X772350Y1701302D02*
Y1701216D01*
X772400Y1701166D01*
G01X793325Y1665648D02*
Y1668417D01*
G01D02*
Y1671186D01*
G01X789276Y1668417D02*
X793325D01*
G01D02*
X797374D01*
G01X793325Y1661921D02*
X794604D01*
X800946Y1668263D01*
Y1670982D01*
X810164Y1680200D01*
X815200D01*
G01X801900Y1693448D02*
Y1695100D01*
G01D02*
Y1696752D01*
G01X800248Y1695100D02*
X801900D01*
G01D02*
X803552D01*
G01X811209Y1699900D02*
X809209D01*
X808109Y1701000D01*
X805039D01*
X803339Y1699300D01*
X801900D01*
G01X805600Y1690907D02*
X802093Y1687400D01*
X793900D01*
G01X821000Y1659400D02*
X818749Y1661651D01*
Y1661849D01*
X820900Y1664000D01*
G01X816800Y1657748D02*
Y1659400D01*
G01X815148D02*
X816800D01*
G01D02*
X818452D01*
G01X809320Y1661162D02*
X816012D01*
X816700Y1661850D01*
Y1664000D01*
G01X824740Y1678394D02*
X824241D01*
X822241Y1680394D01*
X819267D01*
X815023Y1676150D01*
X807719D01*
X803255Y1671686D01*
Y1664822D01*
X806915Y1661162D01*
X809320D01*
G01X820804Y1678394D02*
Y1677931D01*
X818650Y1675777D01*
Y1668800D01*
X820800D01*
G01X816500Y1671448D02*
Y1673100D01*
G01D02*
Y1674752D01*
G01X814848Y1673100D02*
X816500D01*
G01X805580Y1669036D02*
X807905D01*
X808141Y1668800D01*
X816600D01*
G01X822772Y1683512D02*
X820785D01*
X819897Y1684400D01*
X815200D01*
G01X843900Y1700852D02*
X824952D01*
X822800Y1698700D01*
X820539D01*
X816327Y1694488D01*
Y1691300D01*
G01X811209D02*
Y1694391D01*
X806300Y1699300D01*
G01X816327Y1691300D02*
Y1688300D01*
X811209D01*
Y1691300D01*
G01X816300Y1696600D02*
X816327Y1696627D01*
Y1699900D01*
G01X813768Y1695332D02*
Y1691300D01*
G01X806300Y1695100D02*
Y1696752D01*
G01X804648Y1695100D02*
X806300D01*
G01X821000Y1659400D02*
X823150D01*
X824950Y1657600D01*
X830930D01*
X834130Y1660800D01*
X836580D01*
G01X820800Y1668800D02*
X823051Y1666549D01*
Y1666151D01*
X820900Y1664000D01*
G01X829100Y1660800D02*
Y1664700D01*
X820700Y1673100D01*
G01X832840Y1669900D02*
Y1671100D01*
G01D02*
Y1671210D01*
G01X836580Y1671100D02*
Y1672300D01*
X832212Y1676668D01*
Y1691162D01*
X833400Y1692350D01*
Y1696050D01*
G01X829100Y1671100D02*
Y1676021D01*
X826727Y1678394D01*
X824740D01*
G01X821400Y1694948D02*
Y1696600D01*
G01D02*
X823052D01*
G01X826350Y1692848D02*
Y1696050D01*
G01D02*
Y1699252D01*
G01X823148Y1696050D02*
X826350D01*
G01D02*
X829552D01*
G01X843900Y1692978D02*
X840828Y1696050D01*
X833400D01*
G01X819500Y1689100D02*
X820880Y1690480D01*
X821120D01*
X822500Y1689100D01*
G01X821400Y1700800D02*
Y1702700D01*
G01X841850Y1668160D02*
X839540D01*
X836580Y1665200D01*
Y1660800D01*
G54D13*
X801840Y1661162D03*
X805580Y1669036D03*
X809320Y1661162D03*
G54D14*
X801900Y1695100D03*
Y1699300D03*
X815200Y1684400D03*
Y1680200D03*
X806300Y1695100D03*
Y1699300D03*
X821400Y1696600D03*
Y1700800D03*
G54D15*
X816600Y1668800D03*
X816700Y1664000D03*
X816800Y1659400D03*
X816500Y1673100D03*
X820800Y1668800D03*
X820900Y1664000D03*
X821000Y1659400D03*
X820700Y1673100D03*
G54D16*
X816327Y1699900D03*
X811209D03*
Y1691300D03*
X813768D03*
X816327D03*
G54D17*
X829100Y1660800D03*
X832840Y1671100D03*
X829100D03*
X836580Y1660800D03*
Y1671100D03*
G54D18*
X822772Y1683512D03*
X820804Y1678394D03*
X824740D03*
G54D19*
X833400Y1696050D03*
X826350D03*
M02*
