G04 ================== begin FILE IDENTIFICATION RECORD ==================*
G04 Layout Name:  C:/USERS/MSAHADAT3/DROPBOX/GATECH/ETDS_PCB/allegro/ETDS_CHIP_AN.brd*
G04 Film Name:    SILKSCREEN_TOP*
G04 File Format:  Gerber RS274X*
G04 File Origin:  Cadence Allegro 16.6-P004*
G04 Origin Date:  Thu Sep 11 12:01:08 2014*
G04 *
G04 Layer:  REF DES/SILKSCREEN_TOP*
G04 Layer:  PACKAGE GEOMETRY/SILKSCREEN_TOP*
G04 Layer:  BOARD GEOMETRY/SILKSCREEN_TOP*
G04 *
G04 Offset:    (0.00 0.00)*
G04 Mirror:    No*
G04 Mode:      Positive*
G04 Rotation:  0*
G04 FullContactRelief:  No*
G04 UndefLineWidth:     5.00*
G04 ================== end FILE IDENTIFICATION RECORD ====================*
%FSLAX25Y25*MOIN*%
%IR0*IPPOS*OFA0.00000B0.00000*MIA0B0*SFA1.00000B1.00000*%
%ADD10C,.005*%
G75*
%LPD*%
G75*
G36*
G01X759441Y1697800D02*
G03I-2341J0D01*
G37*
G36*
G01X761600Y1663200D02*
X763600D01*
Y1665400D01*
X761600D01*
Y1663200D01*
G37*
G36*
G01X769300Y1665500D02*
X767300D01*
Y1663300D01*
X769300D01*
Y1665500D01*
G37*
G36*
G01X774800Y1665300D02*
X772800D01*
Y1663100D01*
X774800D01*
Y1665300D01*
G37*
G36*
G01X779700Y1657300D02*
X790400D01*
Y1669900D01*
X779700D01*
Y1657300D01*
G37*
G36*
G01X783300Y1700500D02*
X781300D01*
Y1698300D01*
X783300D01*
Y1700500D01*
G37*
G36*
G01X776200Y1698300D02*
X778200D01*
Y1700500D01*
X776200D01*
Y1698300D01*
G37*
G36*
G01X797000Y1663400D02*
X795000D01*
Y1661200D01*
X797000D01*
Y1663400D01*
G37*
G36*
G01X803800Y1660900D02*
X805800D01*
Y1663100D01*
X803800D01*
Y1660900D01*
G37*
G36*
G01X808706Y1700900D02*
G03I-806J0D01*
G37*
G36*
G01X822697Y1667200D02*
G03I-447J0D01*
G37*
G36*
G01X823600Y1669050D02*
Y1667050D01*
X825800D01*
Y1669050D01*
X823600D01*
G37*
G36*
G01X825900Y1673900D02*
Y1675900D01*
X823700D01*
Y1673900D01*
X825900D01*
G37*
G36*
G01X823600Y1672600D02*
Y1670600D01*
X825800D01*
Y1672600D01*
X823600D01*
G37*
G36*
G01X823650Y1682850D02*
Y1680850D01*
X825850D01*
Y1682850D01*
X823650D01*
G37*
G36*
G01Y1679350D02*
Y1677350D01*
X825850D01*
Y1679350D01*
X823650D01*
G37*
G36*
G01X826361Y1688400D02*
G03I-361J0D01*
G37*
G36*
G01X825900Y1684250D02*
Y1686250D01*
X823700D01*
Y1684250D01*
X825900D01*
G37*
G54D10*
G01X779300Y1670300D02*
Y1695200D01*
Y1695300D01*
X779200D01*
X751400D01*
Y1670300D01*
X779300D01*
G01X760000Y1661767D02*
X757500D01*
Y1662433D01*
X757625Y1662647D01*
X757792Y1662780D01*
X758125Y1662833D01*
X758458Y1662780D01*
X758667Y1662620D01*
X758792Y1662433D01*
Y1661767D01*
G01Y1662433D02*
X760000Y1662833D01*
G01Y1664820D02*
X757500D01*
X759292Y1663833D01*
Y1665167D01*
G01X760000Y1667020D02*
X757500D01*
X759292Y1666033D01*
Y1667367D01*
G01X766692Y1665713D02*
X766817Y1665873D01*
X766900Y1666060D01*
Y1666273D01*
X766775Y1666513D01*
X766567Y1666700D01*
X766317Y1666833D01*
X765900Y1666940D01*
X765525Y1666967D01*
X765150Y1666913D01*
X764900Y1666833D01*
X764650Y1666673D01*
X764483Y1666487D01*
X764400Y1666300D01*
Y1666113D01*
X764483Y1665927D01*
X764608Y1665767D01*
X764775Y1665633D01*
G01X764400Y1663780D02*
X766900D01*
X765108Y1664767D01*
Y1663433D01*
G01X766900Y1661900D02*
X766817Y1662113D01*
X766608Y1662273D01*
X766358Y1662380D01*
X766025Y1662460D01*
X765650Y1662487D01*
X765275Y1662460D01*
X764942Y1662380D01*
X764692Y1662273D01*
X764483Y1662113D01*
X764400Y1661900D01*
X764483Y1661687D01*
X764692Y1661527D01*
X764942Y1661420D01*
X765275Y1661340D01*
X765650Y1661313D01*
X766025Y1661340D01*
X766358Y1661420D01*
X766608Y1661527D01*
X766817Y1661687D01*
X766900Y1661900D01*
G01X772192Y1665013D02*
X772317Y1665173D01*
X772400Y1665360D01*
Y1665573D01*
X772275Y1665813D01*
X772067Y1666000D01*
X771817Y1666133D01*
X771400Y1666240D01*
X771025Y1666267D01*
X770650Y1666213D01*
X770400Y1666133D01*
X770150Y1665973D01*
X769983Y1665787D01*
X769900Y1665600D01*
Y1665413D01*
X769983Y1665227D01*
X770108Y1665067D01*
X770275Y1664933D01*
G01Y1663987D02*
X770067Y1663827D01*
X769942Y1663640D01*
X769900Y1663400D01*
X769983Y1663160D01*
X770150Y1662973D01*
X770442Y1662840D01*
X770775Y1662813D01*
X771108Y1662867D01*
X771317Y1663000D01*
X771483Y1663187D01*
X771525Y1663373D01*
X771483Y1663560D01*
X771317Y1663800D01*
X772400Y1663720D01*
Y1663000D01*
G01X756167Y1696400D02*
X756300Y1696150D01*
X756460Y1695983D01*
X756647Y1695900D01*
X756860Y1695983D01*
X757020Y1696150D01*
X757180Y1696400D01*
X757233Y1696733D01*
Y1698400D01*
G01X758393Y1697983D02*
X758553Y1698233D01*
X758740Y1698358D01*
X758953Y1698400D01*
X759220Y1698317D01*
X759407Y1698108D01*
X759460Y1697858D01*
X759433Y1697608D01*
X759327Y1697400D01*
X758793Y1696983D01*
X758553Y1696692D01*
X758393Y1696275D01*
X758340Y1695900D01*
X759460D01*
G01X779000Y1662500D02*
X777875D01*
X776500Y1661967D01*
G01Y1663033D02*
X777875Y1662500D01*
G01X779000Y1664700D02*
X776500D01*
X777000Y1664380D01*
G01X779000D02*
Y1665020D01*
G01X784300Y1701633D02*
X786800D01*
Y1700967D01*
X786675Y1700753D01*
X786508Y1700620D01*
X786175Y1700567D01*
X785842Y1700620D01*
X785633Y1700780D01*
X785508Y1700967D01*
Y1701633D01*
G01Y1700967D02*
X784300Y1700567D01*
G01Y1698580D02*
X786800D01*
X785008Y1699567D01*
Y1698233D01*
G01X786383Y1697207D02*
X786633Y1697047D01*
X786758Y1696860D01*
X786800Y1696647D01*
X786717Y1696380D01*
X786508Y1696193D01*
X786258Y1696140D01*
X786008Y1696167D01*
X785800Y1696273D01*
X785383Y1696807D01*
X785092Y1697047D01*
X784675Y1697207D01*
X784300Y1697260D01*
Y1696140D01*
G01X775300Y1696867D02*
X772800D01*
Y1697533D01*
X772925Y1697747D01*
X773092Y1697880D01*
X773425Y1697933D01*
X773758Y1697880D01*
X773967Y1697720D01*
X774092Y1697533D01*
Y1696867D01*
G01Y1697533D02*
X775300Y1697933D01*
G01Y1699920D02*
X772800D01*
X774592Y1698933D01*
Y1700267D01*
G01X775300Y1701800D02*
X772800D01*
X773300Y1701480D01*
G01X775300D02*
Y1702120D01*
G01X800500Y1659867D02*
X803000D01*
Y1660933D01*
G01Y1662600D02*
X800500D01*
X801000Y1662280D01*
G01X803000D02*
Y1662920D01*
G01X793892Y1661513D02*
X794017Y1661673D01*
X794100Y1661860D01*
Y1662073D01*
X793975Y1662313D01*
X793767Y1662500D01*
X793517Y1662633D01*
X793100Y1662740D01*
X792725Y1662767D01*
X792350Y1662713D01*
X792100Y1662633D01*
X791850Y1662473D01*
X791683Y1662287D01*
X791600Y1662100D01*
Y1661913D01*
X791683Y1661727D01*
X791808Y1661567D01*
X791975Y1661433D01*
G01X791600Y1659580D02*
X794100D01*
X792308Y1660567D01*
Y1659233D01*
G01X790350Y1694650D02*
Y1675350D01*
X809650D01*
Y1694650D01*
X790350D01*
G01X809663Y1661700D02*
Y1659908D01*
X809770Y1659533D01*
X809983Y1659283D01*
X810250Y1659200D01*
X810517Y1659283D01*
X810730Y1659533D01*
X810837Y1659908D01*
Y1661700D01*
G01X811943Y1660242D02*
X812130Y1660533D01*
X812290Y1660700D01*
X812503Y1660783D01*
X812690Y1660700D01*
X812823Y1660533D01*
X812930Y1660283D01*
X812957Y1659992D01*
X812930Y1659742D01*
X812823Y1659492D01*
X812663Y1659283D01*
X812477Y1659200D01*
X812263Y1659283D01*
X812077Y1659533D01*
X811970Y1659908D01*
X811943Y1660325D01*
X811997Y1660867D01*
X812077Y1661158D01*
X812210Y1661450D01*
X812397Y1661658D01*
X812583Y1661700D01*
X812770Y1661617D01*
X812903Y1661408D01*
G01X815150Y1666700D02*
Y1656900D01*
X823550D01*
Y1666700D01*
X815150D01*
G01X820700Y1685793D02*
X817117D01*
X816367Y1685540D01*
X815867Y1685033D01*
X815700Y1684400D01*
X815867Y1683767D01*
X816367Y1683260D01*
X817117Y1683007D01*
X820700D01*
G01X815700Y1679427D02*
X816783Y1679300D01*
X817700Y1679110D01*
X818533Y1678857D01*
X819450Y1678540D01*
X820700Y1678033D01*
Y1680567D01*
G01X817900Y1691507D02*
X821483D01*
X822233Y1691760D01*
X822733Y1692267D01*
X822900Y1692900D01*
X822733Y1693533D01*
X822233Y1694040D01*
X821483Y1694293D01*
X817900D01*
G01X822900Y1698000D02*
X822817Y1698443D01*
X822567Y1698950D01*
X822150Y1699267D01*
X821567Y1699393D01*
X820983Y1699267D01*
X820483Y1698887D01*
X820233Y1698317D01*
Y1697683D01*
X820067Y1697303D01*
X819650Y1696987D01*
X819067Y1696860D01*
X818483Y1697050D01*
X818067Y1697493D01*
X817900Y1698000D01*
X818067Y1698507D01*
X818483Y1698950D01*
X819067Y1699140D01*
X819650Y1699013D01*
X820067Y1698697D01*
X820233Y1698317D01*
Y1697683D01*
X820483Y1697113D01*
X820983Y1696733D01*
X821567Y1696607D01*
X822150Y1696733D01*
X822567Y1697050D01*
X822817Y1697557D01*
X822900Y1698000D01*
G01X830537Y1669142D02*
X830377Y1669267D01*
X830190Y1669350D01*
X829977D01*
X829737Y1669225D01*
X829550Y1669017D01*
X829417Y1668767D01*
X829310Y1668350D01*
X829283Y1667975D01*
X829337Y1667600D01*
X829417Y1667350D01*
X829577Y1667100D01*
X829763Y1666933D01*
X829950Y1666850D01*
X830137D01*
X830323Y1666933D01*
X830483Y1667058D01*
X830617Y1667225D01*
G01X832150Y1666850D02*
Y1669350D01*
X831830Y1668850D01*
G01Y1666850D02*
X832470D01*
G01X834350D02*
Y1669350D01*
X834030Y1668850D01*
G01Y1666850D02*
X834670D01*
G01X833333Y1673800D02*
Y1676300D01*
X832267D01*
G01X831107Y1674217D02*
X830947Y1673967D01*
X830760Y1673842D01*
X830547Y1673800D01*
X830280Y1673883D01*
X830093Y1674092D01*
X830040Y1674342D01*
X830067Y1674592D01*
X830173Y1674800D01*
X830707Y1675217D01*
X830947Y1675508D01*
X831107Y1675925D01*
X831160Y1676300D01*
X830040D01*
G01X830117Y1670350D02*
Y1672850D01*
X830783D01*
X830997Y1672725D01*
X831130Y1672558D01*
X831183Y1672225D01*
X831130Y1671892D01*
X830970Y1671683D01*
X830783Y1671558D01*
X830117D01*
G01X830783D02*
X831183Y1670350D01*
G01X833170D02*
Y1672850D01*
X832183Y1671058D01*
X833517D01*
G01X833313Y1684008D02*
X833473Y1683883D01*
X833660Y1683800D01*
X833873D01*
X834113Y1683925D01*
X834300Y1684133D01*
X834433Y1684383D01*
X834540Y1684800D01*
X834567Y1685175D01*
X834513Y1685550D01*
X834433Y1685800D01*
X834273Y1686050D01*
X834087Y1686217D01*
X833900Y1686300D01*
X833713D01*
X833527Y1686217D01*
X833367Y1686092D01*
X833233Y1685925D01*
G01X831380Y1686300D02*
Y1683800D01*
X832367Y1685592D01*
X831033D01*
G01X830007Y1684217D02*
X829847Y1683967D01*
X829660Y1683842D01*
X829447Y1683800D01*
X829180Y1683883D01*
X828993Y1684092D01*
X828940Y1684342D01*
X828967Y1684592D01*
X829073Y1684800D01*
X829607Y1685217D01*
X829847Y1685508D01*
X830007Y1685925D01*
X830060Y1686300D01*
X828940D01*
G01X830537Y1683142D02*
X830377Y1683267D01*
X830190Y1683350D01*
X829977D01*
X829737Y1683225D01*
X829550Y1683017D01*
X829417Y1682767D01*
X829310Y1682350D01*
X829283Y1681975D01*
X829337Y1681600D01*
X829417Y1681350D01*
X829577Y1681100D01*
X829763Y1680933D01*
X829950Y1680850D01*
X830137D01*
X830323Y1680933D01*
X830483Y1681058D01*
X830617Y1681225D01*
G01X832097Y1680850D02*
X832150Y1681392D01*
X832230Y1681850D01*
X832337Y1682267D01*
X832470Y1682725D01*
X832683Y1683350D01*
X831617D01*
G01X830737Y1679642D02*
X830577Y1679767D01*
X830390Y1679850D01*
X830177D01*
X829937Y1679725D01*
X829750Y1679517D01*
X829617Y1679267D01*
X829510Y1678850D01*
X829483Y1678475D01*
X829537Y1678100D01*
X829617Y1677850D01*
X829777Y1677600D01*
X829963Y1677433D01*
X830150Y1677350D01*
X830337D01*
X830523Y1677433D01*
X830683Y1677558D01*
X830817Y1677725D01*
G01X832350Y1677350D02*
X832537Y1677392D01*
X832750Y1677517D01*
X832883Y1677725D01*
X832937Y1678017D01*
X832883Y1678308D01*
X832723Y1678558D01*
X832483Y1678683D01*
X832217D01*
X832057Y1678767D01*
X831923Y1678975D01*
X831870Y1679267D01*
X831950Y1679558D01*
X832137Y1679767D01*
X832350Y1679850D01*
X832563Y1679767D01*
X832750Y1679558D01*
X832830Y1679267D01*
X832777Y1678975D01*
X832643Y1678767D01*
X832483Y1678683D01*
X832217D01*
X831977Y1678558D01*
X831817Y1678308D01*
X831763Y1678017D01*
X831817Y1677725D01*
X831950Y1677517D01*
X832163Y1677392D01*
X832350Y1677350D01*
G01X832900Y1692000D02*
Y1698000D01*
X826900D01*
Y1692000D01*
X832900D01*
G01X836950Y1670700D02*
Y1658300D01*
X849350D01*
Y1670700D01*
X836950D01*
G01X845790Y1673000D02*
Y1675500D01*
G01X846910D02*
Y1673000D01*
G01Y1674250D02*
X845790D01*
G01X848550Y1673000D02*
Y1675500D01*
X848230Y1675000D01*
G01Y1673000D02*
X848870D01*
G01X850243Y1675083D02*
X850403Y1675333D01*
X850590Y1675458D01*
X850803Y1675500D01*
X851070Y1675417D01*
X851257Y1675208D01*
X851310Y1674958D01*
X851283Y1674708D01*
X851177Y1674500D01*
X850643Y1674083D01*
X850403Y1673792D01*
X850243Y1673375D01*
X850190Y1673000D01*
X851310D01*
M02*
