G04 ================== begin FILE IDENTIFICATION RECORD ==================*
G04 Layout Name:  ETDS_PCB_AN_EXTENDED.brd*
G04 Film Name:    TOP*
G04 File Format:  Gerber RS274X*
G04 File Origin:  Cadence Allegro 16.6-S034*
G04 Origin Date:  Mon Dec 15 16:35:35 2014*
G04 *
G04 Layer:  VIA CLASS/TOP*
G04 Layer:  PIN/TOP*
G04 Layer:  ETCH/TOP*
G04 *
G04 Offset:    (0.00 0.00)*
G04 Mirror:    No*
G04 Mode:      Positive*
G04 Rotation:  0*
G04 FullContactRelief:  No*
G04 UndefLineWidth:     5.00*
G04 ================== end FILE IDENTIFICATION RECORD ====================*
%FSLAX25Y25*MOIN*%
%IR0*IPPOS*OFA0.00000B0.00000*MIA0B0*SFA1.00000B1.00000*%
%ADD11R,.1X.032*%
%ADD21R,.007X.012*%
%ADD20R,.012X.007*%
%ADD10C,.015*%
%ADD23R,.02X.02*%
%ADD19R,.03X.03*%
%ADD16R,.01X.05*%
%ADD14R,.05X.01*%
%ADD13R,.04X.04*%
%ADD17R,.016X.032*%
%ADD15R,.07X.07*%
%ADD22R,.035X.035*%
%ADD12R,.019X.019*%
%ADD18R,.019X.019*%
%ADD24C,.02*%
%ADD25C,.03*%
%ADD26C,.012*%
%ADD27C,.005*%
%ADD28C,.02504*%
%ADD29R,.02904X.02904*%
G75*
%LPD*%
G75*
G36*
G01X750900Y1655500D02*
Y1703800D01*
X772820D01*
G02X773102Y1703117I0J-400D01*
G01X772530Y1702544D01*
X772439Y1702551D01*
G03X771277Y1700657I-89J-1249D01*
G02X770934Y1700052I-343J-205D01*
G01X766640D01*
X765748Y1699160D01*
Y1695080D01*
G02X765240Y1694695I-400J0D01*
G03X764811Y1694739I-340J-1205D01*
G01X764720Y1694732D01*
X764272Y1695181D01*
Y1699509D01*
X764720Y1699958D01*
X764811Y1699951D01*
G03X763651Y1701111I89J1249D01*
G01X763658Y1701020D01*
X762768Y1700131D01*
Y1694902D01*
X751898D01*
Y1690698D01*
X762902D01*
Y1693460D01*
G02X763584Y1693743I400J0D01*
G01X763658Y1693670D01*
X763651Y1693579D01*
G03X764884Y1692238I1249J-89D01*
G02X765271Y1691761I-5J-400D01*
G03X765868Y1690440I1229J-240D01*
G02X765949Y1689812I-202J-345D01*
G01X764998Y1688861D01*
Y1688151D01*
G03X766718Y1687944I752J-1001D01*
G02X766744Y1688481I309J254D01*
G01X767216Y1688953D01*
G02X767898Y1688670I282J-283D01*
G01Y1685698D01*
X777839D01*
X777953Y1685584D01*
G02X777670Y1684902I-283J-282D01*
G01X767898D01*
Y1682669D01*
G02X767216Y1682386I-400J0D01*
G01X762902Y1686700D01*
Y1689902D01*
X751898D01*
Y1685698D01*
X761778D01*
X761892Y1685584D01*
G02X761609Y1684902I-283J-282D01*
G01X751898D01*
Y1680698D01*
X762902D01*
Y1683609D01*
G02X763584Y1683892I400J0D01*
G01X767778Y1679698D01*
X767898D01*
Y1675698D01*
X778902D01*
Y1679698D01*
X783848D01*
X784461Y1680312D01*
X784848D01*
Y1676124D01*
X790852D01*
Y1691577D01*
G02X791193Y1691718I200J0D01*
G01X791374Y1691537D01*
Y1675852D01*
X791124D01*
Y1670352D01*
X784089D01*
X782948Y1669211D01*
Y1668202D01*
X781198D01*
Y1664261D01*
X780188Y1663250D01*
X777912D01*
X775252Y1665911D01*
Y1667752D01*
X772348D01*
Y1664848D01*
X774189D01*
X774803Y1664234D01*
G02X774520Y1663552I-283J-282D01*
G01X772348D01*
Y1660648D01*
X775252D01*
Y1662820D01*
G02X775934Y1663103I400J0D01*
G01X777290Y1661748D01*
X780810D01*
X782261Y1663198D01*
X791402D01*
Y1668202D01*
X784452D01*
Y1668589D01*
X784711Y1668848D01*
X793405D01*
X794405Y1669848D01*
X795312D01*
Y1666412D01*
X795248Y1666349D01*
Y1665852D01*
X794548D01*
Y1662802D01*
X791739D01*
X790339Y1661402D01*
X781198D01*
Y1656398D01*
X791402D01*
Y1660339D01*
X792361Y1661298D01*
X794548D01*
Y1658748D01*
X797452D01*
Y1661652D01*
X796813D01*
X796711Y1661898D01*
X796752Y1661939D01*
Y1662948D01*
X797452D01*
Y1665852D01*
X796814D01*
Y1669848D01*
X798898D01*
Y1663744D01*
X801744Y1660898D01*
X802898D01*
Y1660548D01*
X805802D01*
Y1660658D01*
G02X806143Y1660799I200J0D01*
G01X807794Y1659148D01*
X809348D01*
Y1658148D01*
X817152D01*
Y1662352D01*
X817198D01*
Y1663348D01*
X817152D01*
Y1663948D01*
X836550D01*
Y1655500D01*
X750900D01*
G37*
G36*
G01X842550Y1710300D02*
X858050D01*
Y1703600D01*
X847650D01*
Y1691800D01*
X858050D01*
Y1685100D01*
X847650D01*
Y1673300D01*
X858050D01*
Y1666600D01*
X838750D01*
Y1664600D01*
X858050D01*
Y1659100D01*
X838750D01*
Y1655600D01*
X860050D01*
Y1675300D01*
X849650D01*
Y1683100D01*
X860050D01*
Y1693800D01*
X849650D01*
Y1701700D01*
X860050D01*
Y1712300D01*
X842550D01*
X783050D01*
X782800D01*
X763300D01*
Y1710300D01*
X782800D01*
X782900D01*
X842550D01*
G37*
G36*
G01X778652Y1700052D02*
Y1702952D01*
X776811D01*
X776646Y1703117D01*
G02X776928Y1703800I282J283D01*
G01X789072D01*
G02X789354Y1703117I0J-400D01*
G01X788048Y1701811D01*
Y1700819D01*
G02X787492Y1700451I-400J0D01*
G03X785999Y1700052I-492J-1151D01*
G01X783752D01*
Y1702952D01*
X780848D01*
Y1700052D01*
X778652D01*
G37*
G36*
G01X804248Y1675852D02*
X803248Y1676852D01*
X792878D01*
Y1685870D01*
G02X793428Y1686240I400J0D01*
G03Y1688560I472J1160D01*
G02X792878Y1688930I-150J370D01*
G01Y1692148D01*
X797867D01*
G02X798262Y1691688I0J-400D01*
G03X800501Y1690748I1238J-188D01*
G01X801377D01*
X802441Y1689684D01*
G02X802158Y1689002I-283J-282D01*
G01X795998D01*
Y1680998D01*
X804002D01*
Y1688186D01*
X809148D01*
Y1683784D01*
X807749D01*
G03X807647Y1682280I-1049J-684D01*
G01X809148D01*
Y1677878D01*
X806171D01*
X805154Y1676861D01*
Y1675852D01*
X804248D01*
G37*
G36*
G01X816048Y1694914D02*
X813061Y1697902D01*
X808876D01*
Y1700152D01*
X800752D01*
Y1701833D01*
X799468Y1703117D01*
G02X799750Y1703800I282J283D01*
G01X832311D01*
G02X832684Y1703255I0J-400D01*
G03X833098Y1701799I1166J-455D01*
G01Y1701161D01*
X832889Y1700952D01*
X832289D01*
Y1701302D01*
X822711D01*
Y1699738D01*
X821148D01*
Y1694914D01*
X816048D01*
G37*
G36*
G01X808556Y1666552D02*
X807806Y1667302D01*
X805802D01*
Y1667652D01*
X804456D01*
X803070Y1669038D01*
Y1669848D01*
X808876D01*
Y1672586D01*
X819251D01*
X819789Y1672048D01*
X820798D01*
Y1671348D01*
X823702D01*
Y1674252D01*
X823602D01*
Y1677548D01*
X823652D01*
Y1680452D01*
X823502D01*
Y1683302D01*
X820598D01*
Y1682602D01*
X819589D01*
X818802Y1681814D01*
X815152D01*
Y1688186D01*
X818645D01*
G03X820619Y1688538I855J914D01*
G02X821259Y1688641I357J-180D01*
G01X823202Y1686698D01*
X827098D01*
Y1683302D01*
X824798D01*
Y1680398D01*
X824948D01*
Y1677502D01*
X824898D01*
Y1674598D01*
X824998D01*
Y1671348D01*
X827902D01*
Y1674252D01*
X827802D01*
Y1677548D01*
X827852D01*
Y1680452D01*
X827702D01*
Y1683398D01*
X830002D01*
Y1686698D01*
X831298D01*
Y1683398D01*
X834202D01*
Y1685239D01*
X835867Y1686904D01*
G02X836550Y1686622I283J-282D01*
G01Y1666952D01*
X817152D01*
Y1667552D01*
X814002D01*
Y1668098D01*
X814702D01*
Y1671002D01*
X811798D01*
Y1668098D01*
X812498D01*
Y1667552D01*
X809348D01*
Y1666552D01*
X808556D01*
G37*
G36*
G01X828702Y1690802D02*
Y1691144D01*
X828836Y1691191D01*
G03X829119Y1691369I-248J709D01*
G01X829169Y1691419D01*
G03X829390Y1691950I-530J532D01*
G01Y1692275D01*
G03X829290Y1692649I-752J-1D01*
G01X829263Y1692695D01*
Y1692948D01*
X829402D01*
Y1696952D01*
X825398D01*
Y1693076D01*
X823914D01*
X823693Y1692856D01*
G02X823352Y1692997I-141J141D01*
G01Y1699098D01*
X830648D01*
Y1693191D01*
X831648Y1692191D01*
Y1690802D01*
X828702D01*
G37*
%LPC*%
G75*
G36*
G01X764052Y1660748D02*
X761148D01*
Y1662589D01*
X759698Y1664039D01*
Y1668500D01*
X761214Y1670016D01*
G03X760931Y1670698I-283J282D01*
G01X751898D01*
Y1674902D01*
X762848D01*
Y1675698D01*
X751898D01*
Y1679902D01*
X762902D01*
Y1678552D01*
X764352D01*
Y1671028D01*
X761858Y1668534D01*
G03X762141Y1667852I283J-282D01*
G01X764052D01*
Y1666011D01*
X765062Y1665000D01*
X765738D01*
X766848Y1666111D01*
Y1667952D01*
X767548D01*
Y1668699D01*
G02X767781Y1670840I752J1001D01*
G01X767898Y1670893D01*
Y1674902D01*
X778902D01*
Y1670698D01*
X769840D01*
G03X769467Y1670154I0J-400D01*
G02X769052Y1668699I-1167J-454D01*
G01Y1667952D01*
X769752D01*
Y1665048D01*
X767911D01*
X767297Y1664434D01*
G03X767580Y1663752I283J-282D01*
G01X769752D01*
Y1660848D01*
X766848D01*
Y1663503D01*
G03X766507Y1663644I-200J0D01*
G01X766360Y1663498D01*
X764440D01*
X764393Y1663544D01*
G03X764052Y1663403I-141J-141D01*
G01Y1660748D01*
G37*
G54D28*
X760800Y1701366D03*
X819050Y1697400D03*
G54D29*
X817450Y1669550D03*
%LPD*%
G75*
G54D10*
X752650Y1663550D03*
X752600Y1659550D03*
X752750Y1666950D03*
X752900Y1697800D03*
X753050Y1701950D03*
X757050Y1657300D03*
X761950Y1657200D03*
X766550D03*
X757400Y1672800D03*
X768300Y1669700D03*
X765750Y1687150D03*
X764900Y1693490D03*
X766500Y1691521D03*
X760800Y1701366D03*
X764900Y1701200D03*
X771550Y1657350D03*
X776300Y1657100D03*
X780600Y1689500D03*
X783300Y1687500D03*
X772350Y1701302D03*
X782300Y1701500D03*
X788900Y1665700D03*
X800000Y1685000D03*
X793900Y1687400D03*
X799500Y1691500D03*
X801550Y1702400D03*
X798000Y1701400D03*
X796000Y1700901D03*
X787000Y1699300D03*
X816450Y1675450D03*
X805600Y1690907D03*
X807600Y1692750D03*
X806700Y1683100D03*
X832000Y1662000D03*
X826350Y1676050D03*
X834000Y1672000D03*
X833900Y1679550D03*
X819050Y1697400D03*
X827400Y1694950D03*
X826800Y1691900D03*
X819500Y1689100D03*
X833850Y1702800D03*
G54D20*
X822250Y1691013D03*
Y1692588D03*
Y1694163D03*
Y1695737D03*
Y1697312D03*
X832750D03*
Y1695737D03*
Y1694163D03*
Y1692588D03*
Y1691013D03*
X822250Y1698887D03*
X832750D03*
G54D11*
X757400Y1672800D03*
Y1677800D03*
Y1682800D03*
Y1687800D03*
Y1692800D03*
X773400Y1672800D03*
Y1677800D03*
Y1682800D03*
Y1687800D03*
Y1692800D03*
G54D12*
X768300Y1662300D03*
Y1666500D03*
X762600Y1666400D03*
Y1662200D03*
X773800Y1662100D03*
Y1666300D03*
X777200Y1697300D03*
X782300D03*
X777200Y1701500D03*
X782300D03*
X796000Y1660200D03*
Y1664400D03*
X804350Y1666200D03*
Y1662000D03*
G54D21*
X831437Y1689700D03*
X829862D03*
X828287D03*
X826713D03*
X825138D03*
X823563D03*
Y1700200D03*
X825138D03*
X826713D03*
X828287D03*
X829862D03*
X831437D03*
G54D22*
X840500Y1657350D03*
G54D13*
X783700Y1658900D03*
Y1665700D03*
X788900D03*
Y1658900D03*
G54D14*
X787850Y1677126D03*
Y1679094D03*
Y1681063D03*
Y1683032D03*
Y1685000D03*
Y1686968D03*
Y1688937D03*
Y1690906D03*
Y1692874D03*
X812150Y1681063D03*
Y1679094D03*
Y1677126D03*
Y1692874D03*
Y1690906D03*
Y1688937D03*
Y1686968D03*
Y1685000D03*
Y1683032D03*
G54D23*
X839750Y1665600D03*
G54D24*
G01X815850Y1665450D02*
X839450D01*
G54D15*
X800000Y1685000D03*
G54D25*
G01X840500Y1657350D02*
X834200D01*
G54D16*
X801968Y1672850D03*
X800000D03*
X798032D03*
X796063D03*
X794094D03*
X792126D03*
Y1697150D03*
X794094D03*
X796063D03*
X798032D03*
X800000D03*
X801968D03*
X807874Y1672850D03*
X805906D03*
X803937D03*
Y1697150D03*
X805906D03*
X807874D03*
G54D26*
G01X804350Y1662000D02*
X802200D01*
X800000Y1664200D01*
Y1672850D01*
G01X804350Y1666200D02*
X801968Y1668582D01*
Y1672850D01*
G01X804350Y1662000D02*
X806500D01*
X808250Y1660250D01*
X810650D01*
G01Y1665450D02*
X808100D01*
X807350Y1666200D01*
X804350D01*
G54D17*
X815850Y1660250D03*
X813250D03*
X810650D03*
Y1665450D03*
X813250D03*
X815850D03*
G54D27*
G01X751698Y1692800D02*
X757400D01*
G01X768300Y1660648D02*
Y1662300D01*
G01D02*
Y1663952D01*
G01X766648Y1662300D02*
X768300D01*
G01D02*
X769952D01*
G01X762600Y1662200D02*
X760450Y1664350D01*
Y1668189D01*
X763600Y1671339D01*
Y1677800D01*
X757400D01*
G01X762600Y1666400D02*
X764751Y1664249D01*
X766049D01*
X768300Y1666500D01*
G01X757400Y1687800D02*
X760739D01*
X768089Y1680450D01*
X783537D01*
X784150Y1681063D01*
X787850D01*
G01X768300Y1666500D02*
Y1669700D01*
G01X773400Y1692800D02*
X770000D01*
X765750Y1688550D01*
Y1687150D01*
G01X757400Y1690498D02*
Y1692800D01*
G01D02*
Y1695102D01*
G01Y1692800D02*
X763102D01*
G01X764900Y1693490D02*
X763520Y1694870D01*
Y1699820D01*
X764900Y1701200D01*
G01X787000Y1699300D02*
X766951D01*
X766500Y1698849D01*
Y1691521D01*
G01X773800Y1660448D02*
Y1662100D01*
G01D02*
Y1663752D01*
G01X772148Y1662100D02*
X773800D01*
G01D02*
X775452D01*
G01X783700Y1656198D02*
Y1658900D01*
G01D02*
Y1661602D01*
G01X780998Y1658900D02*
X783700D01*
G01X794094Y1672850D02*
Y1670600D01*
X793094Y1669600D01*
X784400D01*
X783700Y1668900D01*
Y1665700D01*
G01D02*
X780499Y1662499D01*
X777601D01*
X773800Y1666300D01*
G01X780600Y1689500D02*
Y1692500D01*
X783226Y1695126D01*
X786526D01*
X789800Y1698400D01*
Y1700306D01*
X789900Y1700406D01*
X793994D01*
X794094Y1700306D01*
Y1697150D01*
G01X783300Y1687500D02*
Y1693401D01*
X784025Y1694126D01*
X787402D01*
X790426Y1697150D01*
X792126D01*
G01X773400Y1687800D02*
X776800D01*
X781568Y1683032D01*
X787850D01*
G01X777200Y1697300D02*
X782300D01*
G01D02*
X787122D01*
X788800Y1698978D01*
Y1701500D01*
X790200Y1702900D01*
X798622D01*
X800000Y1701522D01*
Y1697150D01*
G01X777200Y1701500D02*
X775049Y1703651D01*
X774699D01*
X772350Y1701302D01*
G01X782300Y1701500D02*
Y1703152D01*
G01X780648Y1701500D02*
X782300D01*
G01D02*
X783952D01*
G01X796000Y1658548D02*
Y1660200D01*
G01X794348D02*
X796000D01*
G01D02*
X797652D01*
G01X788900Y1662998D02*
Y1665700D01*
G01D02*
Y1668402D01*
G01Y1665700D02*
X791602D01*
G01X796000Y1664400D02*
Y1666038D01*
X796063Y1666101D01*
Y1672850D01*
G01X788900Y1658900D02*
X792050Y1662050D01*
X795800D01*
X796000Y1662250D01*
Y1664400D01*
G01X800000Y1680798D02*
Y1685000D01*
G01X798032Y1676100D02*
Y1672850D01*
G01X792126D02*
Y1676100D01*
G01D02*
X798032D01*
G01X791100Y1692874D02*
X792126Y1691848D01*
Y1676100D01*
G01X803937Y1672850D02*
Y1675100D01*
X802937Y1676100D01*
X798032D01*
G01X800000Y1685000D02*
Y1689202D01*
G01X795798Y1685000D02*
X800000D01*
G01D02*
X804202D01*
G01X798000Y1701400D02*
X798032Y1701368D01*
Y1697150D01*
G01X799500Y1691500D02*
X801688D01*
X804251Y1688937D01*
X812150D01*
G01X796000Y1700901D02*
X796063Y1700838D01*
Y1697150D01*
G01X791100Y1692874D02*
X787850D01*
G01X805906Y1697150D02*
Y1693450D01*
X805456Y1693000D01*
X798000D01*
X797900Y1692900D01*
X791100D01*
Y1692874D01*
G01X813300Y1657450D02*
X813250Y1657500D01*
G01D02*
Y1660250D01*
G01X815850Y1657948D02*
Y1660250D01*
G01D02*
X817352D01*
G01X813250Y1669550D02*
Y1665450D01*
G01X817450Y1667898D02*
Y1669550D01*
G01D02*
Y1671202D01*
G01X815798Y1669550D02*
X817450D01*
G01D02*
X819102D01*
G01X822250Y1672800D02*
X820100D01*
X819562Y1673338D01*
X808362D01*
X807874Y1672850D01*
G01X812150Y1679094D02*
X820406D01*
X820500Y1679000D01*
X822150D01*
G01X812150Y1679094D02*
Y1677126D01*
G01X805906Y1672850D02*
X803937D01*
G01X805906D02*
Y1676550D01*
X806482Y1677126D01*
X812150D01*
G01Y1681063D02*
X819113D01*
X819900Y1681850D01*
X822050D01*
G01X805600Y1690907D02*
X805601Y1690906D01*
X812150D01*
G01X832750Y1694163D02*
X834550D01*
Y1690163D01*
X831837Y1687450D01*
X823513D01*
X820057Y1690906D01*
X812150D01*
G01Y1692874D02*
X820614D01*
X820900Y1692588D01*
X822250D01*
G01X807600Y1692750D02*
X807724Y1692874D01*
X812150D01*
G01X819500Y1689100D02*
X819337Y1688937D01*
X812150D01*
G01X806700Y1683100D02*
X806768Y1683032D01*
X812150D01*
G01X822250Y1694163D02*
X815737D01*
X812750Y1697150D01*
X807874D01*
G01X826450Y1671148D02*
Y1672800D01*
G01X824798D02*
X826450D01*
G01D02*
X828102D01*
G01X826250Y1681850D02*
Y1683502D01*
G01X824598Y1681850D02*
X826250D01*
G01D02*
X827902D01*
G01X824748Y1679000D02*
X826400D01*
G01D02*
X828052D01*
G01X822150D02*
Y1676050D01*
G01X822200Y1679000D02*
X822150D01*
G01X831437Y1700200D02*
Y1699585D01*
X831400Y1699548D01*
Y1693502D01*
X832314Y1692588D01*
X832750D01*
G01X827400Y1694950D02*
Y1697152D01*
G01X825198Y1694950D02*
X827400D01*
G01D02*
X829602D01*
G01X828550Y1683198D02*
Y1684850D01*
G01X826898D02*
X828550D01*
G01D02*
X830202D01*
G01X826800Y1691900D02*
X828588D01*
X828638Y1691950D01*
Y1692275D01*
X828588Y1692325D01*
X824225D01*
X822913Y1691013D01*
X822250D01*
G01X832750Y1695737D02*
X835113D01*
X835557Y1695293D01*
Y1687657D01*
X832750Y1684850D01*
G01X833850Y1702800D02*
Y1700850D01*
X833200Y1700200D01*
X831437D01*
G01X823563D02*
Y1701502D01*
G01X822511Y1700200D02*
X823563D01*
G54D18*
X817450Y1669550D03*
X813250D03*
X826400Y1679000D03*
X822200D03*
X826250Y1681850D03*
X822050D03*
X826450Y1672800D03*
X822250D03*
X822150Y1676050D03*
X826350D03*
X828550Y1684850D03*
X832750D03*
G54D19*
X827400Y1694950D03*
M02*
