G04 ================== begin FILE IDENTIFICATION RECORD ==================*
G04 Layout Name:  ETDS_PCB_AN_EXTENDED.brd*
G04 Film Name:    GND*
G04 File Format:  Gerber RS274X*
G04 File Origin:  Cadence Allegro 16.6-S034*
G04 Origin Date:  Mon Dec 15 16:35:35 2014*
G04 *
G04 Layer:  ETCH/GND*
G04 Layer:  PIN/GND*
G04 Layer:  VIA CLASS/GND*
G04 *
G04 Offset:    (0.00 0.00)*
G04 Mirror:    No*
G04 Mode:      Positive*
G04 Rotation:  0*
G04 FullContactRelief:  No*
G04 UndefLineWidth:     5.00*
G04 ================== end FILE IDENTIFICATION RECORD ====================*
%FSLAX25Y25*MOIN*%
%IR0*IPPOS*OFA0.00000B0.00000*MIA0B0*SFA1.00000B1.00000*%
%ADD10C,.015*%
%ADD11C,.02504*%
G75*
%LPD*%
G75*
G36*
G01X750900Y1655500D02*
Y1703800D01*
X832311D01*
G02X832684Y1703255I0J-400D01*
G03X835016I1166J-455D01*
G02X835389Y1703800I373J145D01*
G01X836550D01*
Y1655500D01*
X750900D01*
G37*
%LPC*%
G75*
G36*
G01X797351Y1700329D02*
G03X797076Y1700260I-103J-171D01*
G02X796649Y1701972I-1076J641D01*
G03X796924Y1702041I103J171D01*
G02X797351Y1700329I1076J-641D01*
G37*
G36*
G01X766516Y1692773D02*
G02X765271Y1691761I-16J-1252D01*
G03X764884Y1692238I-392J77D01*
G02X766129Y1693250I16J1252D01*
G03X766516Y1692773I392J-77D01*
G37*
G36*
G01X806840Y1691083D02*
G02X805876Y1692128I-1240J-176D01*
G03X806360Y1692574I88J390D01*
G02X807324Y1691529I1240J176D01*
G03X806840Y1691083I-88J-390D01*
G37*
G54D11*
X768300Y1669700D03*
X757400Y1672800D03*
X765750Y1687150D03*
X764900Y1701200D03*
X760800Y1701366D03*
X780600Y1689500D03*
X783300Y1687500D03*
X772350Y1701302D03*
X799500Y1691500D03*
X793900Y1687400D03*
X787000Y1699300D03*
X806700Y1683100D03*
X826350Y1676050D03*
X819500Y1689100D03*
X826800Y1691900D03*
X819050Y1697400D03*
%LPD*%
G75*
G54D10*
X752650Y1663550D03*
X752600Y1659550D03*
X752750Y1666950D03*
X752900Y1697800D03*
X753050Y1701950D03*
X757050Y1657300D03*
X761950Y1657200D03*
X766550D03*
X757400Y1672800D03*
X768300Y1669700D03*
X765750Y1687150D03*
X764900Y1693490D03*
X766500Y1691521D03*
X760800Y1701366D03*
X764900Y1701200D03*
X771550Y1657350D03*
X776300Y1657100D03*
X780600Y1689500D03*
X783300Y1687500D03*
X772350Y1701302D03*
X782300Y1701500D03*
X788900Y1665700D03*
X800000Y1685000D03*
X793900Y1687400D03*
X799500Y1691500D03*
X801550Y1702400D03*
X798000Y1701400D03*
X796000Y1700901D03*
X787000Y1699300D03*
X816450Y1675450D03*
X805600Y1690907D03*
X807600Y1692750D03*
X806700Y1683100D03*
X832000Y1662000D03*
X826350Y1676050D03*
X834000Y1672000D03*
X833900Y1679550D03*
X819050Y1697400D03*
X827400Y1694950D03*
X826800Y1691900D03*
X819500Y1689100D03*
X833850Y1702800D03*
M02*
