G04 ================== begin FILE IDENTIFICATION RECORD ==================*
G04 Layout Name:  ETDS_PCB_AN_EXTENDED.brd*
G04 Film Name:    BOTTOM*
G04 File Format:  Gerber RS274X*
G04 File Origin:  Cadence Allegro 16.6-S034*
G04 Origin Date:  Mon Dec 15 16:35:35 2014*
G04 *
G04 Layer:  VIA CLASS/BOTTOM*
G04 Layer:  PIN/BOTTOM*
G04 Layer:  ETCH/BOTTOM*
G04 *
G04 Offset:    (0.00 0.00)*
G04 Mirror:    No*
G04 Mode:      Positive*
G04 Rotation:  0*
G04 FullContactRelief:  No*
G04 UndefLineWidth:     5.00*
G04 ================== end FILE IDENTIFICATION RECORD ====================*
%FSLAX25Y25*MOIN*%
%IR0*IPPOS*OFA0.00000B0.00000*MIA0B0*SFA1.00000B1.00000*%
%ADD10C,.015*%
%ADD18R,.03937X.138*%
%ADD12R,.05X.01*%
%ADD21R,.05X.05*%
%ADD14R,.0315X.04*%
%ADD17R,.016X.036*%
%ADD11R,.018X.054*%
%ADD15R,.019X.019*%
%ADD19R,.025X.049*%
%ADD16R,.019X.019*%
%ADD20R,.01574X.025*%
%ADD13R,.06693X.04134*%
%ADD22C,.005*%
%ADD23C,.008*%
%ADD24C,.02504*%
%ADD25R,.02904X.02904*%
G75*
%LPD*%
G75*
G36*
G01X750900Y1655500D02*
Y1703800D01*
X765472D01*
G02X765754Y1703117I0J-400D01*
G01X765080Y1702442D01*
X764989Y1702449D01*
G03X764126Y1702184I-89J-1249D01*
G02X763802Y1702341I-124J157D01*
G01Y1702368D01*
X761551D01*
G03X760049I-751J-1002D01*
G01X757798D01*
Y1682643D01*
X763802D01*
Y1690770D01*
X765499D01*
G03X766516Y1692773I1001J751D01*
G02X766129Y1693250I5J400D01*
G03X765988Y1694110I-1229J240D01*
G02X766335Y1694708I348J198D01*
G01X768639D01*
X768839Y1694508D01*
X769398D01*
Y1682443D01*
X775402D01*
Y1690570D01*
X775789D01*
X780990Y1685368D01*
X782231D01*
X783120Y1686258D01*
X783211Y1686251D01*
G03X782051Y1687411I89J1249D01*
G01X782058Y1687320D01*
X781610Y1686873D01*
X780835Y1687649D01*
G02X780993Y1688311I283J282D01*
G03X780511Y1690749I-392J1189D01*
G01X780420Y1690742D01*
X777121Y1694042D01*
X775402D01*
Y1694508D01*
X779280D01*
X791439Y1682348D01*
X801961D01*
X809732Y1690119D01*
Y1691681D01*
X808842Y1692570D01*
X808849Y1692661D01*
G03X807903Y1693965I-1249J89D01*
G01X807752Y1694003D01*
Y1695029D01*
G02X808434Y1695312I400J0D01*
G01X808848Y1694898D01*
X809858D01*
Y1693348D01*
X812816D01*
Y1692828D01*
X813466Y1692179D01*
Y1692123D01*
X810694Y1689352D01*
X809857D01*
Y1684748D01*
X817579D01*
Y1689352D01*
X817178D01*
Y1690213D01*
X815268Y1692123D01*
Y1692925D01*
X815187Y1693007D01*
G02X815328Y1693348I141J141D01*
G01X817578D01*
Y1695698D01*
X819948D01*
Y1694998D01*
X822852D01*
Y1697902D01*
X820203D01*
X820146Y1698005D01*
G03X817954I-1096J-605D01*
G01X817897Y1697901D01*
X817578D01*
Y1697952D01*
X814620D01*
Y1699102D01*
X816952D01*
Y1699098D01*
X821892D01*
Y1703800D01*
X822648D01*
Y1699177D01*
X824177Y1697648D01*
X830827D01*
X832548Y1695927D01*
Y1695602D01*
X830448D01*
Y1689598D01*
X835177D01*
X835691Y1689084D01*
G02X835408Y1688401I-283J-283D01*
G01X830448D01*
Y1682398D01*
X836250D01*
Y1675694D01*
X835678Y1675123D01*
Y1674052D01*
X829852D01*
Y1676332D01*
X827038Y1679146D01*
X826028D01*
Y1680146D01*
X823552D01*
X822552Y1681146D01*
X818956D01*
X816441Y1678631D01*
G02X815876I-282J283D01*
G03X815593Y1678748I-283J-283D01*
G01X815152D01*
Y1680102D01*
X812248D01*
Y1679448D01*
X810475D01*
X810428Y1679402D01*
X805839D01*
X798710Y1672272D01*
X798323D01*
Y1674090D01*
X790627D01*
Y1668952D01*
X798323D01*
Y1670770D01*
X799332D01*
X806461Y1677898D01*
X808119D01*
G02X808507Y1677400I0J-400D01*
G03X808494Y1677302I387J-101D01*
G02X808094Y1676902I-400J0D01*
G01X807408D01*
X802504Y1671997D01*
Y1671311D01*
G02X802104Y1670911I-400J0D01*
G03X801821Y1670794I0J-400D01*
G01X801698Y1670671D01*
Y1667952D01*
X797173Y1663427D01*
Y1661914D01*
X791248D01*
X784596Y1668565D01*
Y1668952D01*
X787693D01*
Y1674090D01*
X779997D01*
Y1668952D01*
X783094D01*
Y1667943D01*
X790626Y1660410D01*
X799764D01*
Y1658660D01*
X803916D01*
Y1662132D01*
G02X804599Y1662415I400J0D01*
G01X806604Y1660410D01*
X807244D01*
Y1658660D01*
X811396D01*
Y1660410D01*
X815348D01*
Y1658152D01*
X784612D01*
X776812Y1665952D01*
X772812D01*
Y1668252D01*
X769577D01*
G02X769268Y1668906I0J400D01*
G03X769549Y1669789I-968J794D01*
G01X769542Y1669880D01*
X779314Y1679651D01*
G02X779997Y1679369I283J-282D01*
G01Y1675448D01*
X787693D01*
Y1680148D01*
X790627D01*
Y1675448D01*
X798323D01*
Y1680148D01*
X804811D01*
X806520Y1681858D01*
X806611Y1681851D01*
G03X805451Y1683011I89J1249D01*
G01X805458Y1682920D01*
X804189Y1681652D01*
X779189D01*
X768480Y1670942D01*
X768389Y1670949D01*
G03X767332Y1668906I-89J-1249D01*
G02X767023Y1668252I-309J-254D01*
G01X759768D01*
Y1661848D01*
X772812D01*
Y1664148D01*
X776066D01*
X783866Y1656348D01*
X821902D01*
Y1657948D01*
X822452D01*
Y1658498D01*
X823777D01*
X826027Y1656248D01*
X836550D01*
Y1655500D01*
X750900D01*
G37*
G36*
G01X792061Y1683852D02*
X779902Y1696010D01*
X775402D01*
Y1696476D01*
X781811D01*
X791639Y1686648D01*
X792899D01*
G03X794901I1001J752D01*
G01X802404D01*
X805420Y1689665D01*
X805511Y1689658D01*
G03X806840Y1691083I89J1249D01*
G02X807324Y1691529I396J56D01*
G03X807689Y1691501I277J1221D01*
G01X807780Y1691508D01*
X808228Y1691059D01*
Y1690741D01*
X801339Y1683852D01*
X792061D01*
G37*
G36*
G01X792261Y1688152D02*
X782433Y1697980D01*
X775402D01*
Y1698446D01*
X783143D01*
X790840Y1690748D01*
X798499D01*
G03Y1692252I1001J752D01*
G01X791462D01*
X783765Y1699948D01*
X775402D01*
Y1702248D01*
X794647D01*
G02X794974Y1701619I0J-400D01*
G03X794751Y1700812I1026J-718D01*
G01X794758Y1700721D01*
X792709Y1698672D01*
X788690D01*
X788242Y1699120D01*
X788249Y1699211D01*
G03X787089Y1698051I-1249J89D01*
G01X787180Y1698058D01*
X788068Y1697170D01*
X793331D01*
X795820Y1699659D01*
X795911Y1699652D01*
G03X797076Y1700260I89J1249D01*
G02X797351Y1700329I172J-102D01*
G03X797911Y1702649I649J1071D01*
G01X797820Y1702642D01*
X797346Y1703117D01*
G02X797628Y1703800I282J283D01*
G01X805398D01*
Y1700752D01*
X804848D01*
Y1697952D01*
X804311D01*
X803352Y1698911D01*
Y1700752D01*
X800448D01*
Y1697848D01*
X802289D01*
X802903Y1697234D01*
G02X802620Y1696551I-283J-283D01*
G01X800448D01*
Y1693648D01*
X803352D01*
Y1696437D01*
X803598Y1696539D01*
X803689Y1696448D01*
X804848D01*
Y1693648D01*
X806025D01*
G02X806406Y1693128I0J-400D01*
G03X806360Y1692574I1194J-378D01*
G02X805876Y1692128I-396J-56D01*
G03X804351Y1690818I-276J-1221D01*
G01X804358Y1690727D01*
X801782Y1688152D01*
X794901D01*
G03X792899I-1001J-752D01*
G01X792261D01*
G37*
G36*
G01X808452Y1669552D02*
X808216Y1669788D01*
X807656D01*
Y1671538D01*
X805135D01*
G02X804852Y1672220I0J400D01*
G01X808030Y1675398D01*
X815334D01*
X818833Y1678897D01*
G02X819516Y1678614I283J-283D01*
G01Y1677705D01*
X817848Y1676038D01*
Y1674552D01*
X815048D01*
Y1671648D01*
X817848D01*
Y1670689D01*
X817944Y1670593D01*
G02X817803Y1670252I-141J-141D01*
G01X815148D01*
Y1669552D01*
X808452D01*
G37*
G36*
G01X830852Y1658052D02*
Y1663752D01*
X829852D01*
Y1665011D01*
X826924Y1667939D01*
X827089Y1668105D01*
X827120Y1668120D01*
G03X827132Y1668126I-173J360D01*
G01X827176Y1668148D01*
X836550D01*
Y1663752D01*
X834828D01*
Y1658052D01*
X830852D01*
G37*
%LPC*%
G75*
G36*
G01X820569Y1686968D02*
X819680Y1687858D01*
X819589Y1687851D01*
G02X820749Y1689011I-89J1249D01*
G01X820742Y1688920D01*
X821191Y1688472D01*
X822309D01*
X825558Y1691720D01*
X825551Y1691811D01*
G02X826711Y1690651I1249J89D01*
G01X826620Y1690658D01*
X822931Y1686968D01*
X820569D01*
G37*
G36*
G01X815152Y1682098D02*
Y1681398D01*
X812248D01*
Y1684302D01*
X815152D01*
Y1683602D01*
X815539D01*
X816201Y1684264D01*
X821484D01*
Y1685264D01*
X824060D01*
Y1681760D01*
X821484D01*
Y1682760D01*
X816823D01*
X816161Y1682098D01*
X815152D01*
G37*
G54D24*
X757400Y1672800D03*
X765750Y1687150D03*
G54D25*
X821400Y1692250D03*
%LPD*%
G75*
G54D10*
X752650Y1663550D03*
X752600Y1659550D03*
X752750Y1666950D03*
X752900Y1697800D03*
X753050Y1701950D03*
X757050Y1657300D03*
X761950Y1657200D03*
X766550D03*
X757400Y1672800D03*
X768300Y1669700D03*
X765750Y1687150D03*
X764900Y1693490D03*
X766500Y1691521D03*
X760800Y1701366D03*
X764900Y1701200D03*
X771550Y1657350D03*
X776300Y1657100D03*
X780600Y1689500D03*
X783300Y1687500D03*
X772350Y1701302D03*
X782300Y1701500D03*
X788900Y1665700D03*
X800000Y1685000D03*
X793900Y1687400D03*
X799500Y1691500D03*
X801550Y1702400D03*
X798000Y1701400D03*
X796000Y1700901D03*
X787000Y1699300D03*
X816450Y1675450D03*
X805600Y1690907D03*
X807600Y1692750D03*
X806700Y1683100D03*
X832000Y1662000D03*
X826350Y1676050D03*
X834000Y1672000D03*
X833900Y1679550D03*
X819050Y1697400D03*
X827400Y1694950D03*
X826800Y1691900D03*
X819500Y1689100D03*
X833850Y1702800D03*
G54D20*
X820804Y1678394D03*
X824740D03*
X822772Y1683512D03*
G54D11*
X761170Y1665050D03*
X763730D03*
X766290D03*
X768850D03*
X771410D03*
G54D21*
X833450Y1685400D03*
Y1692600D03*
G54D12*
X772400Y1683445D03*
Y1685414D03*
Y1687383D03*
Y1689352D03*
Y1691321D03*
Y1693290D03*
Y1695259D03*
Y1697228D03*
X760800Y1683645D03*
Y1685614D03*
Y1687583D03*
Y1689552D03*
Y1691521D03*
Y1693490D03*
Y1695459D03*
Y1697428D03*
X772400Y1699197D03*
Y1701166D03*
X760800Y1699397D03*
Y1701366D03*
G54D22*
G01X761170Y1661648D02*
Y1665050D01*
G01D02*
Y1668452D01*
G01X759568Y1665050D02*
X761170D01*
G01X806700Y1683100D02*
X804500Y1680900D01*
X779500D01*
X768300Y1669700D01*
G01X769198Y1683445D02*
X772400D01*
G01X760800Y1682443D02*
Y1683645D01*
G01X757598D02*
X760800D01*
G01D02*
X764002D01*
G01X760800Y1697428D02*
X768950D01*
X769150Y1697228D01*
X772400D01*
G01X760800Y1693490D02*
X764900D01*
G01X760800Y1695459D02*
X768950D01*
X769150Y1695259D01*
X772400D01*
G01X760800Y1691521D02*
X766500D01*
G01X798000Y1701400D02*
X796400Y1703000D01*
X766700D01*
X764900Y1701200D01*
G01X760800Y1699397D02*
X768950D01*
X769150Y1699197D01*
X772400D01*
G01X783845Y1671521D02*
Y1668254D01*
X790937Y1661162D01*
X801840D01*
G01X783845Y1675248D02*
Y1678017D01*
G01X779796D02*
X783845D01*
G01D02*
X787894D01*
G01X772400Y1682243D02*
Y1683445D01*
G01D02*
X775602D01*
G01X772400Y1697228D02*
X782122D01*
X791950Y1687400D01*
X793900D01*
G01X772400Y1695259D02*
X779591D01*
X791750Y1683100D01*
X801650D01*
X808980Y1690430D01*
Y1691370D01*
X807600Y1692750D01*
G01X780600Y1689500D02*
X776810Y1693290D01*
X772400D01*
G01Y1699197D02*
X783454D01*
X791151Y1691500D01*
X799500D01*
G01X783300Y1687500D02*
X781920Y1686120D01*
X781301D01*
X776100Y1691321D01*
X772400D01*
G01X772350Y1701302D02*
Y1701216D01*
X772400Y1701166D01*
G01X794475Y1675248D02*
Y1678017D01*
G01X790426D02*
X794475D01*
G01D02*
X798524D01*
G01X813700Y1678650D02*
X806150D01*
X799021Y1671521D01*
X794475D01*
G01X801900Y1693448D02*
Y1695100D01*
G01D02*
Y1696752D01*
G01X800248Y1695100D02*
X801900D01*
G01D02*
X803552D01*
G01X793900Y1687400D02*
X802093D01*
X805600Y1690907D01*
G01X796000Y1700901D02*
X793020Y1697921D01*
X788379D01*
X787000Y1699300D01*
G01X811159Y1695650D02*
X809159D01*
X807609Y1697200D01*
X804000D01*
X801900Y1699300D01*
G01X816800Y1659400D02*
X815000D01*
G01X809320Y1661162D02*
X816012D01*
X816700Y1661850D01*
Y1664000D01*
G01X809320Y1661162D02*
X806915D01*
X803255Y1664822D01*
Y1671686D01*
X807719Y1676150D01*
X815023D01*
X819267Y1680394D01*
X822241D01*
X824241Y1678394D01*
X824740D01*
G01X816500Y1671448D02*
Y1673100D01*
G01D02*
Y1674752D01*
G01X814848Y1673100D02*
X816500D01*
G01X816600Y1668800D02*
X808141D01*
X807905Y1669036D01*
X805580D01*
G01X816277Y1695650D02*
X817077Y1696450D01*
X819050D01*
G01X813650Y1684700D02*
Y1686982D01*
X813718Y1687050D01*
G01X804648Y1695100D02*
X806300D01*
G01D02*
X807952D01*
G01X813700Y1682850D02*
X815850D01*
X816512Y1683512D01*
X822772D01*
G01X821000Y1659400D02*
X818749Y1661651D01*
Y1661849D01*
X820900Y1664000D01*
G01D02*
X818649Y1666251D01*
Y1666649D01*
X820800Y1668800D01*
G01X820700Y1673100D02*
X829100Y1664700D01*
Y1660800D01*
G01X820800Y1668800D02*
X818600Y1671000D01*
Y1675727D01*
X820804Y1677931D01*
Y1678394D01*
G01X832840Y1667948D02*
Y1671100D01*
G01D02*
Y1674252D01*
G01X824740Y1678394D02*
X826727D01*
X829100Y1676021D01*
Y1671100D01*
G01X819050Y1696450D02*
Y1697400D01*
G01X821400Y1696450D02*
X819050D01*
G01X830248Y1685400D02*
X833450D01*
G01X821400Y1690598D02*
Y1692250D01*
G01D02*
Y1693902D01*
G01X819748Y1692250D02*
X821400D01*
G01D02*
X823052D01*
G01X819500Y1689100D02*
X820880Y1687720D01*
X822620D01*
X826800Y1691900D01*
G01X833450Y1682198D02*
Y1685400D01*
G01D02*
Y1688602D01*
G54D13*
X783845Y1678017D03*
Y1671521D03*
X794475Y1678017D03*
Y1671521D03*
G54D23*
G01X771410Y1665050D02*
X776439D01*
X784239Y1657250D01*
X821000D01*
Y1659400D01*
G01X814367Y1691750D02*
Y1692552D01*
X813718Y1693201D01*
Y1704330D01*
X811548Y1706500D01*
G01X816277Y1687050D02*
Y1689840D01*
X814367Y1691750D01*
G01X811159Y1687050D02*
Y1688542D01*
X814367Y1691750D01*
G01X811548Y1706500D02*
X808380D01*
X806300Y1704420D01*
Y1699300D01*
G01X836580Y1660800D02*
Y1657150D01*
X826400D01*
X824150Y1659400D01*
X821000D01*
G01X819422Y1706500D02*
X822590D01*
X823550Y1705540D01*
Y1699550D01*
X824550Y1698550D01*
X831200D01*
X833450Y1696300D01*
Y1692600D01*
G01D02*
X837151Y1688899D01*
Y1675321D01*
X836580Y1674750D01*
Y1671100D01*
G54D14*
X801840Y1661162D03*
X809320D03*
X805580Y1669036D03*
G54D15*
X801900Y1695100D03*
Y1699300D03*
X813700Y1682850D03*
Y1678650D03*
X806300Y1695100D03*
Y1699300D03*
X821400Y1692250D03*
Y1696450D03*
G54D16*
X816800Y1659400D03*
X816700Y1664000D03*
X816600Y1668800D03*
X816500Y1673100D03*
X821000Y1659400D03*
X820900Y1664000D03*
X820800Y1668800D03*
X820700Y1673100D03*
G54D17*
X816277Y1695650D03*
X811159D03*
Y1687050D03*
X813718D03*
X816277D03*
G54D18*
X819422Y1706500D03*
X811548D03*
X827296D03*
G54D19*
X829100Y1660800D03*
X832840Y1671100D03*
X829100D03*
X836580Y1660800D03*
Y1671100D03*
M02*
