G04 ================== begin FILE IDENTIFICATION RECORD ==================*
G04 Layout Name:  ETDS_PCB_AN_EXTENDED.brd*
G04 Film Name:    SILKSCREEN_BOTTOM*
G04 File Format:  Gerber RS274X*
G04 File Origin:  Cadence Allegro 16.6-S034*
G04 Origin Date:  Mon Dec 15 16:35:35 2014*
G04 *
G04 Layer:  REF DES/SILKSCREEN_BOTTOM*
G04 Layer:  PACKAGE GEOMETRY/SILKSCREEN_BOTTOM*
G04 Layer:  BOARD GEOMETRY/SILKSCREEN_BOTTOM*
G04 *
G04 Offset:    (0.00 0.00)*
G04 Mirror:    No*
G04 Mode:      Positive*
G04 Rotation:  0*
G04 FullContactRelief:  No*
G04 UndefLineWidth:     5.00*
G04 ================== end FILE IDENTIFICATION RECORD ====================*
%FSLAX25Y25*MOIN*%
%IR0*IPPOS*OFA0.00000B0.00000*MIA0B0*SFA1.00000B1.00000*%
%ADD10C,.005*%
G75*
%LPD*%
G75*
G36*
G01X756565Y1701400D02*
G03I-1265J0D01*
G37*
G36*
G01X768165Y1701200D02*
G03I-1265J0D01*
G37*
G36*
G01X800900Y1698300D02*
X802900D01*
Y1696100D01*
X800900D01*
Y1698300D01*
G37*
G36*
G01X814700Y1679650D02*
X812700D01*
Y1681850D01*
X814700D01*
Y1679650D01*
G37*
G36*
G01X817150Y1693850D02*
Y1689050D01*
X810250D01*
Y1693850D01*
X817150D01*
G37*
G36*
G01X805300Y1698300D02*
X807300D01*
Y1696100D01*
X805300D01*
Y1698300D01*
G37*
G36*
G01X827800Y1663400D02*
Y1668400D01*
X837900D01*
Y1663400D01*
X827800D01*
G37*
G36*
G01X820000Y1660400D02*
Y1658400D01*
X817800D01*
Y1660400D01*
X820000D01*
G37*
G36*
G01X819900Y1665000D02*
Y1663000D01*
X817700D01*
Y1665000D01*
X819900D01*
G37*
G36*
G01X824100Y1681600D02*
Y1685300D01*
X821500D01*
Y1681600D01*
X819500D01*
Y1676700D01*
X826000D01*
Y1681600D01*
X824100D01*
G37*
G36*
G01X817600Y1667800D02*
Y1669800D01*
X819800D01*
Y1667800D01*
X817600D01*
G37*
G36*
G01X819700Y1674100D02*
Y1672100D01*
X817500D01*
Y1674100D01*
X819700D01*
G37*
G36*
G01X820400Y1695450D02*
X822400D01*
Y1693250D01*
X820400D01*
Y1695450D01*
G37*
G54D10*
G01X750950Y1665050D02*
X781550D01*
Y1649650D01*
X750950D01*
Y1665050D01*
G01X755650Y1670910D02*
X753150D01*
G01Y1669790D02*
X755650D01*
G01X754400D02*
Y1670910D01*
G01X754608Y1668657D02*
X754317Y1668470D01*
X754150Y1668310D01*
X754067Y1668097D01*
X754150Y1667910D01*
X754317Y1667777D01*
X754567Y1667670D01*
X754858Y1667643D01*
X755108Y1667670D01*
X755358Y1667777D01*
X755567Y1667937D01*
X755650Y1668123D01*
X755567Y1668337D01*
X755317Y1668523D01*
X754942Y1668630D01*
X754525Y1668657D01*
X753983Y1668603D01*
X753692Y1668523D01*
X753400Y1668390D01*
X753192Y1668203D01*
X753150Y1668017D01*
X753233Y1667830D01*
X753442Y1667697D01*
G01X756510Y1692100D02*
Y1694600D01*
G01X755390D02*
Y1692100D01*
G01Y1693350D02*
X756510D01*
G01X753750Y1692100D02*
Y1694600D01*
X754070Y1694100D01*
G01Y1692100D02*
X753430D01*
G01X751550Y1694600D02*
X751763Y1694517D01*
X751923Y1694308D01*
X752030Y1694058D01*
X752110Y1693725D01*
X752137Y1693350D01*
X752110Y1692975D01*
X752030Y1692642D01*
X751923Y1692392D01*
X751763Y1692183D01*
X751550Y1692100D01*
X751337Y1692183D01*
X751177Y1692392D01*
X751070Y1692642D01*
X750990Y1692975D01*
X750963Y1693350D01*
X750990Y1693725D01*
X751070Y1694058D01*
X751177Y1694308D01*
X751337Y1694517D01*
X751550Y1694600D01*
G01X776500Y1703200D02*
Y1681600D01*
X768300D01*
Y1703200D01*
X776500D01*
G01X764900Y1703400D02*
Y1681800D01*
X756700D01*
Y1703400D01*
X764900D01*
G01X786687Y1710700D02*
Y1713200D01*
X786153D01*
X785940Y1713075D01*
X785780Y1712908D01*
X785647Y1712658D01*
X785540Y1712367D01*
X785513Y1711950D01*
X785540Y1711533D01*
X785647Y1711242D01*
X785780Y1710992D01*
X785940Y1710825D01*
X786153Y1710700D01*
X786687D01*
G01X784300Y1711825D02*
X783447D01*
X783527Y1712117D01*
X783660Y1712283D01*
X783847Y1712367D01*
X784033Y1712325D01*
X784193Y1712200D01*
X784300Y1711908D01*
X784353Y1711658D01*
Y1711408D01*
X784300Y1711158D01*
X784167Y1710908D01*
X784007Y1710742D01*
X783820Y1710700D01*
X783633Y1710783D01*
X783447Y1711033D01*
G01X782100Y1710992D02*
X781967Y1710825D01*
X781780Y1710700D01*
X781620D01*
X781460Y1710783D01*
X781353Y1710908D01*
X781300Y1711075D01*
X781327Y1711325D01*
X781433Y1711450D01*
X781913Y1711700D01*
X782020Y1711992D01*
X781967Y1712200D01*
X781860Y1712325D01*
X781700Y1712367D01*
X781540Y1712325D01*
X781380Y1712200D01*
G01X779500Y1712367D02*
Y1710700D01*
G01Y1713033D02*
X779553Y1713075D01*
Y1713158D01*
X779500Y1713200D01*
X779447Y1713158D01*
Y1713075D01*
X779500Y1713033D01*
G01X777673Y1710075D02*
X777487Y1709908D01*
X777273Y1709867D01*
X777087Y1709908D01*
X776927Y1710117D01*
X776820Y1710408D01*
Y1712367D01*
G01Y1712033D02*
X776927Y1712200D01*
X777087Y1712325D01*
X777273Y1712367D01*
X777487Y1712283D01*
X777620Y1712117D01*
X777727Y1711825D01*
X777780Y1711533D01*
X777753Y1711283D01*
X777647Y1710992D01*
X777487Y1710783D01*
X777273Y1710700D01*
X777113Y1710742D01*
X776927Y1710908D01*
X776820Y1711075D01*
G01X775553Y1710700D02*
Y1712367D01*
G01Y1711950D02*
X775447Y1712158D01*
X775287Y1712325D01*
X775073Y1712367D01*
X774887Y1712325D01*
X774727Y1712158D01*
X774647Y1711867D01*
Y1710700D01*
G01X772900Y1710617D02*
X772953Y1710658D01*
Y1710742D01*
X772900Y1710783D01*
X772847Y1710742D01*
Y1710658D01*
X772900Y1710617D01*
G01Y1711742D02*
X772953Y1711783D01*
Y1711867D01*
X772900Y1711908D01*
X772847Y1711867D01*
Y1711783D01*
X772900Y1711742D01*
G01X771393Y1710700D02*
Y1713200D01*
X770700Y1711117D01*
X770007Y1713200D01*
Y1710700D01*
G01X769113D02*
Y1713200D01*
X767887Y1710700D01*
Y1713200D01*
G01X766860Y1711033D02*
X766647Y1710825D01*
X766407Y1710700D01*
X766193D01*
X765980Y1710825D01*
X765820Y1711033D01*
X765740Y1711325D01*
X765793Y1711617D01*
X765927Y1711867D01*
X766167Y1712033D01*
X766487Y1712117D01*
X766673Y1712283D01*
X766753Y1712575D01*
X766700Y1712867D01*
X766567Y1713075D01*
X766380Y1713200D01*
X766193D01*
X766007Y1713117D01*
X765847Y1712908D01*
G01X786387Y1704350D02*
Y1706850D01*
X785853D01*
X785640Y1706725D01*
X785480Y1706558D01*
X785347Y1706308D01*
X785240Y1706017D01*
X785213Y1705600D01*
X785240Y1705183D01*
X785347Y1704892D01*
X785480Y1704642D01*
X785640Y1704475D01*
X785853Y1704350D01*
X786387D01*
G01X783067D02*
X784133D01*
Y1706850D01*
X783067D01*
G01X783493Y1705642D02*
X784133D01*
G01X780813Y1706642D02*
X780973Y1706767D01*
X781160Y1706850D01*
X781373D01*
X781613Y1706725D01*
X781800Y1706517D01*
X781933Y1706267D01*
X782040Y1705850D01*
X782067Y1705475D01*
X782013Y1705100D01*
X781933Y1704850D01*
X781773Y1704600D01*
X781587Y1704433D01*
X781400Y1704350D01*
X781213D01*
X781027Y1704433D01*
X780867Y1704558D01*
X780733Y1704725D01*
G01X777000Y1704350D02*
Y1706850D01*
X777320Y1706350D01*
G01Y1704350D02*
X776680D01*
G01X775387Y1704725D02*
X775227Y1704517D01*
X775040Y1704392D01*
X774800Y1704350D01*
X774560Y1704433D01*
X774373Y1704600D01*
X774240Y1704892D01*
X774213Y1705225D01*
X774267Y1705558D01*
X774400Y1705767D01*
X774587Y1705933D01*
X774773Y1705975D01*
X774960Y1705933D01*
X775200Y1705767D01*
X775120Y1706850D01*
X774400D01*
G01X772600D02*
Y1704350D01*
G01X773213Y1706850D02*
X771987D01*
G01X770960Y1704350D02*
Y1706850D01*
G01X769840D02*
Y1704350D01*
G01Y1705600D02*
X770960D01*
G01X768253Y1703892D02*
X768147Y1704433D01*
G01X766000Y1704350D02*
Y1706850D01*
X766320Y1706350D01*
G01Y1704350D02*
X765680D01*
G01X763480D02*
Y1706850D01*
X764467Y1705058D01*
X763133D01*
G01X786650Y1708625D02*
X785797D01*
X785877Y1708917D01*
X786010Y1709083D01*
X786197Y1709167D01*
X786383Y1709125D01*
X786543Y1709000D01*
X786650Y1708708D01*
X786703Y1708458D01*
Y1708208D01*
X786650Y1707958D01*
X786517Y1707708D01*
X786357Y1707542D01*
X786170Y1707500D01*
X785983Y1707583D01*
X785797Y1707833D01*
G01X784050Y1710000D02*
Y1707500D01*
G01X784663Y1710000D02*
X783437D01*
G01X782437Y1707500D02*
Y1710000D01*
X781903D01*
X781690Y1709875D01*
X781530Y1709708D01*
X781397Y1709458D01*
X781290Y1709167D01*
X781263Y1708750D01*
X781290Y1708333D01*
X781397Y1708042D01*
X781530Y1707792D01*
X781690Y1707625D01*
X781903Y1707500D01*
X782437D01*
G01X780210Y1707833D02*
X779997Y1707625D01*
X779757Y1707500D01*
X779543D01*
X779330Y1707625D01*
X779170Y1707833D01*
X779090Y1708125D01*
X779143Y1708417D01*
X779277Y1708667D01*
X779517Y1708833D01*
X779837Y1708917D01*
X780023Y1709083D01*
X780103Y1709375D01*
X780050Y1709667D01*
X779917Y1709875D01*
X779730Y1710000D01*
X779543D01*
X779357Y1709917D01*
X779197Y1709708D01*
G01X777983Y1707500D02*
Y1710000D01*
X777343D01*
X777130Y1709875D01*
X776970Y1709583D01*
X776917Y1709250D01*
X776970Y1708917D01*
X777103Y1708667D01*
X777343Y1708542D01*
X777983D01*
G01X775917Y1707500D02*
X775250Y1710000D01*
X774583Y1707500D01*
G01X774823Y1708375D02*
X775677D01*
G01X773663Y1707500D02*
Y1710000D01*
X772437Y1707500D01*
Y1710000D01*
G01X770317Y1707500D02*
X771383D01*
Y1710000D01*
X770317D01*
G01X770743Y1708792D02*
X771383D01*
G01X769210Y1707500D02*
X768090Y1710000D01*
G01X769210D02*
X768090Y1707500D01*
G01X764917Y1710000D02*
X764250Y1707500D01*
X763583Y1710000D01*
G01X762050Y1707500D02*
Y1710000D01*
X762370Y1709500D01*
G01Y1707500D02*
X761730D01*
G01X759850Y1707417D02*
X759903Y1707458D01*
Y1707542D01*
X759850Y1707583D01*
X759797Y1707542D01*
Y1707458D01*
X759850Y1707417D01*
G01X757650Y1710000D02*
X757863Y1709917D01*
X758023Y1709708D01*
X758130Y1709458D01*
X758210Y1709125D01*
X758237Y1708750D01*
X758210Y1708375D01*
X758130Y1708042D01*
X758023Y1707792D01*
X757863Y1707583D01*
X757650Y1707500D01*
X757437Y1707583D01*
X757277Y1707792D01*
X757170Y1708042D01*
X757090Y1708375D01*
X757063Y1708750D01*
X757090Y1709125D01*
X757170Y1709458D01*
X757277Y1709708D01*
X757437Y1709917D01*
X757650Y1710000D01*
G01X799150Y1682000D02*
Y1667800D01*
X779350D01*
Y1682000D01*
X799150D01*
G01X808000Y1666700D02*
Y1671500D01*
X803300D01*
Y1666600D01*
X799700D01*
Y1658500D01*
X811700D01*
Y1666700D01*
X808000D01*
G01X794283Y1684700D02*
Y1682200D01*
X793217D01*
G01X791017D02*
X792083D01*
Y1684700D01*
X791017D01*
G01X791443Y1683492D02*
X792083D01*
G01X789937Y1682200D02*
Y1684700D01*
X789403D01*
X789190Y1684575D01*
X789030Y1684408D01*
X788897Y1684158D01*
X788790Y1683867D01*
X788763Y1683450D01*
X788790Y1683033D01*
X788897Y1682742D01*
X789030Y1682492D01*
X789190Y1682325D01*
X789403Y1682200D01*
X789937D01*
G01X787150D02*
Y1684700D01*
X787470Y1684200D01*
G01Y1682200D02*
X786830D01*
G01X801700Y1667900D02*
X801913Y1667942D01*
X802100Y1668108D01*
X802260Y1668358D01*
X802367Y1668650D01*
X802420Y1668983D01*
Y1669317D01*
X802367Y1669650D01*
X802260Y1669942D01*
X802100Y1670192D01*
X801913Y1670358D01*
X801700Y1670400D01*
X801487Y1670358D01*
X801300Y1670192D01*
X801140Y1669942D01*
X801033Y1669650D01*
X800980Y1669317D01*
Y1668983D01*
X801033Y1668650D01*
X801140Y1668358D01*
X801300Y1668108D01*
X801487Y1667942D01*
X801700Y1667900D01*
G01X801487Y1668567D02*
X801167Y1667900D01*
G01X800007Y1669983D02*
X799847Y1670233D01*
X799660Y1670358D01*
X799447Y1670400D01*
X799180Y1670317D01*
X798993Y1670108D01*
X798940Y1669858D01*
X798967Y1669608D01*
X799073Y1669400D01*
X799607Y1668983D01*
X799847Y1668692D01*
X800007Y1668275D01*
X800060Y1667900D01*
X798940D01*
G01X800408Y1691013D02*
X800283Y1691173D01*
X800200Y1691360D01*
Y1691573D01*
X800325Y1691813D01*
X800533Y1692000D01*
X800783Y1692133D01*
X801200Y1692240D01*
X801575Y1692267D01*
X801950Y1692213D01*
X802200Y1692133D01*
X802450Y1691973D01*
X802617Y1691787D01*
X802700Y1691600D01*
Y1691413D01*
X802617Y1691227D01*
X802492Y1691067D01*
X802325Y1690933D01*
G01X800617Y1689907D02*
X800367Y1689747D01*
X800242Y1689560D01*
X800200Y1689347D01*
X800283Y1689080D01*
X800492Y1688893D01*
X800742Y1688840D01*
X800992Y1688867D01*
X801200Y1688973D01*
X801617Y1689507D01*
X801908Y1689747D01*
X802325Y1689907D01*
X802700Y1689960D01*
Y1688840D01*
G01X808867Y1670400D02*
Y1667900D01*
X809533D01*
X809747Y1668025D01*
X809880Y1668192D01*
X809933Y1668525D01*
X809880Y1668858D01*
X809720Y1669067D01*
X809533Y1669192D01*
X808867D01*
G01X809533D02*
X809933Y1670400D01*
G01X811093Y1668317D02*
X811253Y1668067D01*
X811440Y1667942D01*
X811653Y1667900D01*
X811920Y1667983D01*
X812107Y1668192D01*
X812160Y1668442D01*
X812133Y1668692D01*
X812027Y1668900D01*
X811493Y1669317D01*
X811253Y1669608D01*
X811093Y1670025D01*
X811040Y1670400D01*
X812160D01*
G01X813347Y1670108D02*
X813533Y1670317D01*
X813747Y1670400D01*
X813960Y1670317D01*
X814147Y1670067D01*
X814280Y1669692D01*
X814333Y1669317D01*
Y1668858D01*
X814280Y1668483D01*
X814147Y1668150D01*
X813987Y1667983D01*
X813800Y1667900D01*
X813587Y1667983D01*
X813427Y1668150D01*
X813320Y1668400D01*
X813267Y1668733D01*
X813320Y1669025D01*
X813453Y1669317D01*
X813613Y1669483D01*
X813800Y1669525D01*
X814013Y1669442D01*
X814173Y1669233D01*
X814333Y1668858D01*
G01X808700Y1678717D02*
X811200D01*
Y1679383D01*
X811075Y1679597D01*
X810908Y1679730D01*
X810575Y1679783D01*
X810242Y1679730D01*
X810033Y1679570D01*
X809908Y1679383D01*
Y1678717D01*
G01Y1679383D02*
X808700Y1679783D01*
G01Y1681770D02*
X811200D01*
X809408Y1680783D01*
Y1682117D01*
G01X811200Y1683650D02*
X811117Y1683437D01*
X810908Y1683277D01*
X810658Y1683170D01*
X810325Y1683090D01*
X809950Y1683063D01*
X809575Y1683090D01*
X809242Y1683170D01*
X808992Y1683277D01*
X808783Y1683437D01*
X808700Y1683650D01*
X808783Y1683863D01*
X808992Y1684023D01*
X809242Y1684130D01*
X809575Y1684210D01*
X809950Y1684237D01*
X810325Y1684210D01*
X810658Y1684130D01*
X810908Y1684023D01*
X811117Y1683863D01*
X811200Y1683650D01*
G01X814333Y1672600D02*
Y1675100D01*
X813667D01*
X813453Y1674975D01*
X813320Y1674808D01*
X813267Y1674475D01*
X813320Y1674142D01*
X813480Y1673933D01*
X813667Y1673808D01*
X814333D01*
G01X813667D02*
X813267Y1672600D01*
G01X811280D02*
Y1675100D01*
X812267Y1673308D01*
X810933D01*
G01X809987Y1673100D02*
X809827Y1672808D01*
X809613Y1672642D01*
X809373Y1672600D01*
X809160Y1672642D01*
X808947Y1672850D01*
X808813Y1673100D01*
X808787Y1673350D01*
X808840Y1673642D01*
X809027Y1673850D01*
X809213Y1673933D01*
X809453D01*
G01X809213D02*
X809053Y1674058D01*
X808920Y1674267D01*
X808867Y1674517D01*
X808920Y1674767D01*
X809053Y1674975D01*
X809293Y1675100D01*
X809533Y1675058D01*
X809773Y1674892D01*
G01X820837Y1686550D02*
Y1684758D01*
X820730Y1684383D01*
X820517Y1684133D01*
X820250Y1684050D01*
X819983Y1684133D01*
X819770Y1684383D01*
X819663Y1684758D01*
Y1686550D01*
G01X818050Y1684050D02*
Y1686550D01*
X818370Y1686050D01*
G01Y1684050D02*
X817730D01*
G01X804908Y1691513D02*
X804783Y1691673D01*
X804700Y1691860D01*
Y1692073D01*
X804825Y1692313D01*
X805033Y1692500D01*
X805283Y1692633D01*
X805700Y1692740D01*
X806075Y1692767D01*
X806450Y1692713D01*
X806700Y1692633D01*
X806950Y1692473D01*
X807117Y1692287D01*
X807200Y1692100D01*
Y1691913D01*
X807117Y1691727D01*
X806992Y1691567D01*
X806825Y1691433D01*
G01X806700Y1690487D02*
X806992Y1690327D01*
X807158Y1690113D01*
X807200Y1689873D01*
X807158Y1689660D01*
X806950Y1689447D01*
X806700Y1689313D01*
X806450Y1689287D01*
X806158Y1689340D01*
X805950Y1689527D01*
X805867Y1689713D01*
Y1689953D01*
G01Y1689713D02*
X805742Y1689553D01*
X805533Y1689420D01*
X805283Y1689367D01*
X805033Y1689420D01*
X804825Y1689553D01*
X804700Y1689793D01*
X804742Y1690033D01*
X804908Y1690273D01*
G01X806908Y1688153D02*
X807117Y1687967D01*
X807200Y1687753D01*
X807117Y1687540D01*
X806867Y1687353D01*
X806492Y1687220D01*
X806117Y1687167D01*
X805658D01*
X805283Y1687220D01*
X804950Y1687353D01*
X804783Y1687513D01*
X804700Y1687700D01*
X804783Y1687913D01*
X804950Y1688073D01*
X805200Y1688180D01*
X805533Y1688233D01*
X805825Y1688180D01*
X806117Y1688047D01*
X806283Y1687887D01*
X806325Y1687700D01*
X806242Y1687487D01*
X806033Y1687327D01*
X805658Y1687167D01*
G01X805667Y1708310D02*
X805875Y1708097D01*
X806000Y1707857D01*
Y1707643D01*
X805875Y1707430D01*
X805667Y1707270D01*
X805375Y1707190D01*
X805083Y1707243D01*
X804833Y1707377D01*
X804667Y1707617D01*
X804583Y1707937D01*
X804417Y1708123D01*
X804125Y1708203D01*
X803833Y1708150D01*
X803625Y1708017D01*
X803500Y1707830D01*
Y1707643D01*
X803583Y1707457D01*
X803792Y1707297D01*
G01X806000Y1705550D02*
X803500D01*
X804000Y1705870D01*
G01X806000D02*
Y1705230D01*
G01X808900Y1714100D02*
X829900D01*
Y1699000D01*
X808900D01*
Y1714100D01*
G01X826363Y1660592D02*
X826523Y1660717D01*
X826710Y1660800D01*
X826923D01*
X827163Y1660675D01*
X827350Y1660467D01*
X827483Y1660217D01*
X827590Y1659800D01*
X827617Y1659425D01*
X827563Y1659050D01*
X827483Y1658800D01*
X827323Y1658550D01*
X827137Y1658383D01*
X826950Y1658300D01*
X826763D01*
X826577Y1658383D01*
X826417Y1658508D01*
X826283Y1658675D01*
G01X825337Y1658800D02*
X825177Y1658508D01*
X824963Y1658342D01*
X824723Y1658300D01*
X824510Y1658342D01*
X824297Y1658550D01*
X824163Y1658800D01*
X824137Y1659050D01*
X824190Y1659342D01*
X824377Y1659550D01*
X824563Y1659633D01*
X824803D01*
G01X824563D02*
X824403Y1659758D01*
X824270Y1659967D01*
X824217Y1660217D01*
X824270Y1660467D01*
X824403Y1660675D01*
X824643Y1660800D01*
X824883Y1660758D01*
X825123Y1660592D01*
G01X823057Y1660383D02*
X822897Y1660633D01*
X822710Y1660758D01*
X822497Y1660800D01*
X822230Y1660717D01*
X822043Y1660508D01*
X821990Y1660258D01*
X822017Y1660008D01*
X822123Y1659800D01*
X822657Y1659383D01*
X822897Y1659092D01*
X823057Y1658675D01*
X823110Y1658300D01*
X821990D01*
G01X827533Y1665000D02*
Y1667500D01*
X826867D01*
X826653Y1667375D01*
X826520Y1667208D01*
X826467Y1666875D01*
X826520Y1666542D01*
X826680Y1666333D01*
X826867Y1666208D01*
X827533D01*
G01X826867D02*
X826467Y1665000D01*
G01X825307Y1667083D02*
X825147Y1667333D01*
X824960Y1667458D01*
X824747Y1667500D01*
X824480Y1667417D01*
X824293Y1667208D01*
X824240Y1666958D01*
X824267Y1666708D01*
X824373Y1666500D01*
X824907Y1666083D01*
X825147Y1665792D01*
X825307Y1665375D01*
X825360Y1665000D01*
X824240D01*
G01X822600D02*
X822413Y1665042D01*
X822200Y1665167D01*
X822067Y1665375D01*
X822013Y1665667D01*
X822067Y1665958D01*
X822227Y1666208D01*
X822467Y1666333D01*
X822733D01*
X822893Y1666417D01*
X823027Y1666625D01*
X823080Y1666917D01*
X823000Y1667208D01*
X822813Y1667417D01*
X822600Y1667500D01*
X822387Y1667417D01*
X822200Y1667208D01*
X822120Y1666917D01*
X822173Y1666625D01*
X822307Y1666417D01*
X822467Y1666333D01*
X822733D01*
X822973Y1666208D01*
X823133Y1665958D01*
X823187Y1665667D01*
X823133Y1665375D01*
X823000Y1665167D01*
X822787Y1665042D01*
X822600Y1665000D01*
G01X831313Y1674500D02*
Y1676292D01*
X831420Y1676667D01*
X831633Y1676917D01*
X831900Y1677000D01*
X832167Y1676917D01*
X832380Y1676667D01*
X832487Y1676292D01*
Y1674500D01*
G01X833593Y1674917D02*
X833753Y1674667D01*
X833940Y1674542D01*
X834153Y1674500D01*
X834420Y1674583D01*
X834607Y1674792D01*
X834660Y1675042D01*
X834633Y1675292D01*
X834527Y1675500D01*
X833993Y1675917D01*
X833753Y1676208D01*
X833593Y1676625D01*
X833540Y1677000D01*
X834660D01*
G01X827000Y1682500D02*
X827213Y1682542D01*
X827400Y1682708D01*
X827560Y1682958D01*
X827667Y1683250D01*
X827720Y1683583D01*
Y1683917D01*
X827667Y1684250D01*
X827560Y1684542D01*
X827400Y1684792D01*
X827213Y1684958D01*
X827000Y1685000D01*
X826787Y1684958D01*
X826600Y1684792D01*
X826440Y1684542D01*
X826333Y1684250D01*
X826280Y1683917D01*
Y1683583D01*
X826333Y1683250D01*
X826440Y1682958D01*
X826600Y1682708D01*
X826787Y1682542D01*
X827000Y1682500D01*
G01X826787Y1683167D02*
X826467Y1682500D01*
G01X824800D02*
Y1685000D01*
X825120Y1684500D01*
G01Y1682500D02*
X824480D01*
G01X820408Y1689663D02*
X820283Y1689823D01*
X820200Y1690010D01*
Y1690223D01*
X820325Y1690463D01*
X820533Y1690650D01*
X820783Y1690783D01*
X821200Y1690890D01*
X821575Y1690917D01*
X821950Y1690863D01*
X822200Y1690783D01*
X822450Y1690623D01*
X822617Y1690437D01*
X822700Y1690250D01*
Y1690063D01*
X822617Y1689877D01*
X822492Y1689717D01*
X822325Y1689583D01*
G01X822200Y1688637D02*
X822492Y1688477D01*
X822658Y1688263D01*
X822700Y1688023D01*
X822658Y1687810D01*
X822450Y1687597D01*
X822200Y1687463D01*
X821950Y1687437D01*
X821658Y1687490D01*
X821450Y1687677D01*
X821367Y1687863D01*
Y1688103D01*
G01Y1687863D02*
X821242Y1687703D01*
X821033Y1687570D01*
X820783Y1687517D01*
X820533Y1687570D01*
X820325Y1687703D01*
X820200Y1687943D01*
X820242Y1688183D01*
X820408Y1688423D01*
G01X836350Y1688300D02*
Y1682500D01*
X830550D01*
Y1688300D01*
X836350D01*
G01Y1695500D02*
Y1689700D01*
X830550D01*
Y1695500D01*
X836350D01*
G01X841060Y1684600D02*
Y1687100D01*
G01X839940D02*
Y1684600D01*
G01Y1685850D02*
X841060D01*
G01X838300Y1684600D02*
X838113Y1684642D01*
X837900Y1684767D01*
X837767Y1684975D01*
X837713Y1685267D01*
X837767Y1685558D01*
X837927Y1685808D01*
X838167Y1685933D01*
X838433D01*
X838593Y1686017D01*
X838727Y1686225D01*
X838780Y1686517D01*
X838700Y1686808D01*
X838513Y1687017D01*
X838300Y1687100D01*
X838087Y1687017D01*
X837900Y1686808D01*
X837820Y1686517D01*
X837873Y1686225D01*
X838007Y1686017D01*
X838167Y1685933D01*
X838433D01*
X838673Y1685808D01*
X838833Y1685558D01*
X838887Y1685267D01*
X838833Y1684975D01*
X838700Y1684767D01*
X838487Y1684642D01*
X838300Y1684600D01*
G01X841010Y1691250D02*
Y1693750D01*
G01X839890D02*
Y1691250D01*
G01Y1692500D02*
X841010D01*
G01X838837Y1691625D02*
X838677Y1691417D01*
X838490Y1691292D01*
X838250Y1691250D01*
X838010Y1691333D01*
X837823Y1691500D01*
X837690Y1691792D01*
X837663Y1692125D01*
X837717Y1692458D01*
X837850Y1692667D01*
X838037Y1692833D01*
X838223Y1692875D01*
X838410Y1692833D01*
X838650Y1692667D01*
X838570Y1693750D01*
X837850D01*
M02*
