G04 ================== begin FILE IDENTIFICATION RECORD ==================*
G04 Layout Name:  C:/Users/msahadat3/Dropbox/GATech/eTDS_PCB/allegro/ETDS_PCB_V1_5.brd*
G04 Film Name:    VCC3V*
G04 File Format:  Gerber RS274X*
G04 File Origin:  Cadence Allegro 16.6-2015-S056*
G04 Origin Date:  Wed Nov 11 17:54:27 2015*
G04 *
G04 Layer:  VIA CLASS/VCC3V*
G04 Layer:  PIN/VCC3V*
G04 Layer:  ETCH/VCC3V*
G04 *
G04 Offset:    (0.00 0.00)*
G04 Mirror:    No*
G04 Mode:      Positive*
G04 Rotation:  0*
G04 FullContactRelief:  No*
G04 UndefLineWidth:     5.00*
G04 ================== end FILE IDENTIFICATION RECORD ====================*
%FSLAX25Y25*MOIN*%
%IR0*IPPOS*OFA0.00000B0.00000*MIA0B0*SFA1.00000B1.00000*%
%ADD13C,.04*%
%ADD10C,.015*%
%ADD12C,.025*%
%ADD11C,.035*%
%ADD14C,.005*%
%ADD17C,.05004*%
%ADD15C,.02504*%
%ADD16C,.04504*%
G75*
%LPD*%
G75*
G36*
G01X749851Y1654901D02*
Y1677046D01*
G02X750575Y1677280I400J0D01*
G03X752978Y1676423I1825J1320D01*
G02X753474Y1675968I102J-386D01*
G03X754753Y1677005I1234J-214D01*
G02X754410Y1677585I14J400D01*
G03X750575Y1679920I-2010J1015D01*
G02X749851Y1680154I-324J234D01*
G01Y1682046D01*
G02X750575Y1682280I400J0D01*
G03Y1684920I1825J1320D01*
G02X749851Y1685154I-324J234D01*
G01Y1687046D01*
G02X750575Y1687280I400J0D01*
G03Y1689920I1825J1320D01*
G02X749851Y1690154I-324J234D01*
G01Y1692046D01*
G02X750575Y1692280I400J0D01*
G03Y1694920I1825J1320D01*
G02X749851Y1695154I-324J234D01*
G01Y1697046D01*
G02X750575Y1697280I400J0D01*
G03Y1699920I1825J1320D01*
G02X749851Y1700154I-324J234D01*
G01Y1712699D01*
X806214D01*
G02X806550Y1712081I0J-400D01*
G03X808650I1050J-681D01*
G02X808986Y1712699I336J218D01*
G01X839600D01*
Y1708514D01*
G02X838958Y1708196I-400J0D01*
G03Y1706202I-758J-997D01*
G02X839600Y1705884I242J-318D01*
G01Y1654901D01*
X749851D01*
G37*
%LPC*%
G75*
G36*
G01X831356Y1676348D02*
G03X830951Y1675901I-8J-400D01*
G02X829244Y1676917I-1243J-147D01*
G03X829443Y1677486I-149J371D01*
G02X831356Y1676348I1957J1114D01*
G37*
G36*
G01X824504Y1703242D02*
G02X823384Y1704149I-1204J-342D01*
G03X823796Y1704658I27J399D01*
G02X824916Y1703751I1204J342D01*
G03X824504Y1703242I-27J-399D01*
G37*
G36*
G01X820674Y1704064D02*
G02X819387Y1703649I-320J-1210D01*
G03X819180Y1704290I-309J254D01*
G02X818249Y1705542I320J1210D01*
G03X817886Y1705953I-400J13D01*
G02X819251Y1707158I114J1247D01*
G03X819614Y1706747I400J-13D01*
G02X820467Y1704705I-114J-1247D01*
G03X820674Y1704064I309J-254D01*
G37*
G36*
G01X833430Y1699575D02*
G02X832053Y1700755I-2030J-975D01*
G03X832564Y1701201I116J383D01*
G02X835026Y1701145I1236J199D01*
G03X835565Y1700692I391J-82D01*
G02X834376Y1699587I836J-2091D01*
G03X833964Y1700159I-360J175D01*
G02X833793Y1700148I-166J1241D01*
G03X833430Y1699575I-2J-400D01*
G37*
G36*
G01X818244Y1698209D02*
G02X818185Y1696667I956J-809D01*
G03X817556Y1696691I-324J-234D01*
G02X817615Y1698233I-956J809D01*
G03X818244Y1698209I324J234D01*
G37*
G36*
G01X759753Y1677005D02*
G02X758474Y1675968I-45J-1251D01*
G03X757978Y1676423I-394J69D01*
G02X759410Y1677585I-579J2176D01*
G03X759753Y1677005I357J-180D01*
G37*
G54D17*
X799800Y1658000D03*
X791926D03*
G54D15*
X752400Y1658400D03*
X759708Y1663754D03*
X754708D03*
X759708Y1671754D03*
X754708D03*
X759708Y1667754D03*
X754708D03*
Y1703754D03*
Y1707754D03*
X768200Y1658200D03*
X773200Y1656600D03*
X761600Y1658600D03*
X767600Y1677500D03*
X767900Y1692600D03*
X771400Y1691039D03*
X767600Y1681800D03*
X769708Y1703754D03*
Y1707754D03*
X778400Y1663600D03*
X774708Y1671754D03*
Y1667754D03*
X775600Y1691200D03*
X783306Y1691039D03*
X782200Y1694600D03*
X783000Y1710400D03*
X792400Y1665200D03*
X789000Y1665000D03*
X800300Y1678100D03*
X793932Y1685200D03*
X800215Y1685215D03*
X799708Y1703754D03*
X794708D03*
X789708D03*
X799708Y1707754D03*
X813200Y1657400D03*
X811600Y1697000D03*
X809708Y1703754D03*
X803937Y1704237D03*
X803500Y1708900D03*
X824708Y1659754D03*
Y1675754D03*
X825200Y1668600D03*
X818600Y1691400D03*
X821700Y1682586D03*
X825500Y1696900D03*
X822500Y1694500D03*
X829708Y1671754D03*
X836600Y1703600D03*
G54D16*
X757400Y1683600D03*
Y1688600D03*
Y1693600D03*
X762339Y1686039D03*
X757400Y1698600D03*
X767339Y1686039D03*
X772339D03*
X782339D03*
X777339D03*
X836400Y1678600D03*
Y1683600D03*
X831400D03*
X836400Y1688600D03*
X831400D03*
X836400Y1693600D03*
X831400D03*
%LPD*%
G75*
G54D10*
X752400Y1658400D03*
X759708Y1663754D03*
X754708D03*
X759708Y1675754D03*
X754708D03*
X759708Y1671754D03*
X754708D03*
X759708Y1667754D03*
X754708D03*
Y1703754D03*
Y1707754D03*
X768200Y1658200D03*
X773200Y1656600D03*
X761600Y1658600D03*
X767600Y1677500D03*
X767900Y1692600D03*
X771400Y1691039D03*
X767600Y1681800D03*
X769708Y1703754D03*
Y1707754D03*
X778400Y1663600D03*
X774708Y1671754D03*
Y1667754D03*
X775600Y1691200D03*
X783306Y1691039D03*
X782200Y1694600D03*
X783000Y1710400D03*
X798032Y1664432D03*
X792400Y1665200D03*
X789000Y1665000D03*
X800300Y1678100D03*
X793932Y1685200D03*
X800215Y1685215D03*
X799708Y1703754D03*
X794708D03*
X789708D03*
X792800Y1709100D03*
X799708Y1707754D03*
X813200Y1657400D03*
X805600Y1668800D03*
X805906Y1702394D03*
X811600Y1697000D03*
X809708Y1703754D03*
X803937Y1704237D03*
X807600Y1711400D03*
X803500Y1708900D03*
X824708Y1659754D03*
X821700Y1675300D03*
X824708Y1675754D03*
X825200Y1668600D03*
X818600Y1691400D03*
X821700Y1682586D03*
X825000Y1705000D03*
X819200Y1697400D03*
X825500Y1696900D03*
X816600Y1697500D03*
X822500Y1694500D03*
X818000Y1707200D03*
X819500Y1705500D03*
X820354Y1702854D03*
X823300Y1702900D03*
X829708Y1675754D03*
Y1671754D03*
X830300Y1705000D03*
X830200Y1701600D03*
X833800Y1701400D03*
X836600Y1703600D03*
X838200Y1707199D03*
X830300Y1711300D03*
G54D11*
X757400Y1678600D03*
X752400D03*
X757400Y1683600D03*
X752400D03*
X757400Y1688600D03*
X752400D03*
X757400Y1693600D03*
X752400D03*
X762339Y1686039D03*
X757400Y1698600D03*
X752400D03*
X767339Y1686039D03*
X772339D03*
X777339D03*
X782339D03*
X836400Y1678600D03*
X831400D03*
X836400Y1683600D03*
X831400D03*
X836400Y1688600D03*
X831400D03*
X836400Y1693600D03*
X831400D03*
X836400Y1698600D03*
X831400D03*
G54D12*
X787000Y1671077D03*
X782900Y1674800D03*
G54D13*
X791926Y1658000D03*
X799800D03*
G54D14*
G01X759887Y1686039D02*
X762339D01*
G01X752400Y1681148D02*
Y1683600D01*
G01D02*
Y1686052D01*
G01Y1683600D02*
X754852D01*
G01X762339Y1683587D02*
Y1686039D01*
G01D02*
Y1688491D01*
G01Y1686039D02*
X764791D01*
G01X831400Y1681148D02*
Y1683600D01*
G01D02*
Y1686052D01*
G01X828948Y1683600D02*
X831400D01*
G01D02*
X833852D01*
M02*
