G04 ================== begin FILE IDENTIFICATION RECORD ==================*
G04 Layout Name:  C:/USERS/MSAHADAT3/DROPBOX/GATECH/ETDS_PCB/allegro/ETDS_PCB_V1_3.brd*
G04 Film Name:    VCC3V*
G04 File Format:  Gerber RS274X*
G04 File Origin:  Cadence Allegro 16.6-S034*
G04 Origin Date:  Mon Aug 24 20:03:50 2015*
G04 *
G04 Layer:  VIA CLASS/VCC3V*
G04 Layer:  PIN/VCC3V*
G04 Layer:  ETCH/VCC3V*
G04 *
G04 Offset:    (0.00 0.00)*
G04 Mirror:    No*
G04 Mode:      Positive*
G04 Rotation:  0*
G04 FullContactRelief:  No*
G04 UndefLineWidth:     5.00*
G04 ================== end FILE IDENTIFICATION RECORD ====================*
%FSLAX25Y25*MOIN*%
%IR0*IPPOS*OFA0.00000B0.00000*MIA0B0*SFA1.00000B1.00000*%
%ADD10C,.015*%
%ADD11C,.02559*%
%ADD12C,.005*%
%ADD13C,.02504*%
%ADD14C,.03562*%
G75*
%LPD*%
G75*
G36*
G01X751924Y1655204D02*
G03X750396Y1657016I-1073J646D01*
G02X749851Y1657389I-145J373D01*
G01Y1657638D01*
G02X750161Y1657805I200J0D01*
G03X750396Y1660016I690J1045D01*
G02X749851Y1660389I-145J373D01*
G01Y1660638D01*
G02X750161Y1660805I200J0D01*
G03X750396Y1663016I690J1045D01*
G02X749851Y1663389I-145J373D01*
G01Y1663638D01*
G02X750161Y1663805I200J0D01*
G03X750396Y1666016I690J1045D01*
G02X749851Y1666389I-145J373D01*
G01Y1666638D01*
G02X750161Y1666805I200J0D01*
G03X750396Y1669016I690J1045D01*
G02X749851Y1669389I-145J373D01*
G01Y1669638D01*
G02X750161Y1669805I200J0D01*
G03X750396Y1672016I690J1045D01*
G02X749851Y1672389I-145J373D01*
G01Y1672638D01*
G02X750161Y1672805I200J0D01*
G03X750396Y1675016I690J1045D01*
G02X749851Y1675389I-145J373D01*
G01Y1684311D01*
G02X750396Y1684684I400J0D01*
G03X750455Y1684662I467J1162D01*
G02X750709Y1684158I-126J-380D01*
G03X754083Y1684184I1691J-558D01*
G02X754313Y1684686I378J131D01*
G03X754157Y1687064I-462J1164D01*
G02X753914Y1687663I97J388D01*
G03X750876Y1687678I-1514J937D01*
G02X750611Y1687079I-342J-207D01*
G03X750396Y1687016I243J-1228D01*
G02X749851Y1687389I-145J373D01*
G01Y1699311D01*
G02X750396Y1699684I400J0D01*
G03X750455Y1699662I467J1162D01*
G02X750709Y1699158I-126J-380D01*
G03X754083Y1699184I1691J-558D01*
G02X754313Y1699686I378J131D01*
G03X752621Y1700618I-462J1164D01*
G02X752422Y1700381I-197J-37D01*
G03X752290Y1700378I-26J-1781D01*
G02X752081Y1700615I-13J199D01*
G03X750396Y1702016I-1230J235D01*
G02X749851Y1702389I-145J373D01*
G01Y1702638D01*
G02X750161Y1702805I200J0D01*
G03X750396Y1705016I690J1045D01*
G02X749851Y1705389I-145J373D01*
G01Y1705638D01*
G02X750161Y1705805I200J0D01*
G03X750396Y1708016I690J1045D01*
G02X749851Y1708389I-145J373D01*
G01Y1708638D01*
G02X750161Y1708805I200J0D01*
G03X750396Y1711016I690J1045D01*
G02X749851Y1711389I-145J373D01*
G01Y1712699D01*
X839600D01*
Y1708514D01*
G02X838958Y1708196I-400J0D01*
G03X838797Y1708300I-758J-997D01*
G02X838712Y1708941I191J351D01*
G03X837254Y1708749I-861J909D01*
G02X837339Y1708108I-191J-351D01*
G03X838958Y1706202I861J-909D01*
G02X839600Y1705884I242J-318D01*
G01Y1654901D01*
X827409D01*
G02X827032Y1655434I0J400D01*
G03X824670I-1181J416D01*
G02X824293Y1654901I-377J-133D01*
G01X818409D01*
G02X818032Y1655434I0J400D01*
G03X815670I-1181J416D01*
G02X815293Y1654901I-377J-133D01*
G01X815095D01*
G02X814924Y1655204I0J200D01*
G03X812670Y1655434I-1073J646D01*
G02X812293Y1654901I-377J-133D01*
G01X803409D01*
G02X803032Y1655434I0J400D01*
G03X800670I-1181J416D01*
G02X800293Y1654901I-377J-133D01*
G01X800095D01*
G02X799924Y1655204I0J200D01*
G03X797670Y1655434I-1073J646D01*
G02X797293Y1654901I-377J-133D01*
G01X797095D01*
G02X796924Y1655204I0J200D01*
G03X794670Y1655434I-1073J646D01*
G02X794293Y1654901I-377J-133D01*
G01X794095D01*
G02X793924Y1655204I0J200D01*
G03X791670Y1655434I-1073J646D01*
G02X791293Y1654901I-377J-133D01*
G01X785409D01*
G02X785032Y1655434I0J400D01*
G03X782670I-1181J416D01*
G02X782293Y1654901I-377J-133D01*
G01X782095D01*
G02X781924Y1655204I0J200D01*
G03X779670Y1655434I-1073J646D01*
G02X779293Y1654901I-377J-133D01*
G01X779095D01*
G02X778924Y1655204I0J200D01*
G03X776670Y1655434I-1073J646D01*
G02X776293Y1654901I-377J-133D01*
G01X776095D01*
G02X775924Y1655204I0J200D01*
G03X773670Y1655434I-1073J646D01*
G02X773293Y1654901I-377J-133D01*
G01X773095D01*
G02X772924Y1655204I0J200D01*
G03X770670Y1655434I-1073J646D01*
G02X770293Y1654901I-377J-133D01*
G01X770095D01*
G02X769924Y1655204I0J200D01*
G03X767670Y1655434I-1073J646D01*
G02X767293Y1654901I-377J-133D01*
G01X767095D01*
G02X766924Y1655204I0J200D01*
G03X764670Y1655434I-1073J646D01*
G02X764293Y1654901I-377J-133D01*
G01X764095D01*
G02X763924Y1655204I0J200D01*
G03X761670Y1655434I-1073J646D01*
G02X761293Y1654901I-377J-133D01*
G01X761095D01*
G02X760924Y1655204I0J200D01*
G03X758670Y1655434I-1073J646D01*
G02X758293Y1654901I-377J-133D01*
G01X758095D01*
G02X757924Y1655204I0J200D01*
G03X755670Y1655434I-1073J646D01*
G02X755293Y1654901I-377J-133D01*
G01X755095D01*
G02X754924Y1655204I0J200D01*
G03X752670Y1655434I-1073J646D01*
G02X752293Y1654901I-377J-133D01*
G01X752095D01*
G02X751924Y1655204I0J200D01*
G37*
%LPC*%
G75*
G36*
G01X829654Y1699916D02*
G03X830197Y1699913I273J292D01*
G02X829858Y1697709I1203J-1313D01*
G03X829339Y1697870I-346J-200D01*
G02X829654Y1699916I-539J1130D01*
G37*
G36*
G01X801425Y1684673D02*
G03X801170Y1684555I-68J-188D01*
G02X800426Y1686177I-1170J445D01*
G03X800681Y1686295I68J188D01*
G02X801425Y1684673I1170J-445D01*
G37*
G36*
G01X830372Y1682145D02*
G03X829829Y1682068I-231J-326D01*
G02X829250Y1684037I-978J782D01*
G03X829748Y1684266I127J379D01*
G02X830372Y1682145I1652J-666D01*
G37*
G36*
G01X755992Y1684691D02*
G03X755974Y1684956I-158J122D01*
G02X756052Y1686814I877J894D01*
G03X756091Y1687393I-255J308D01*
G02X758145Y1686983I1309J1207D01*
G03X757959Y1686433I168J-363D01*
G02X758041Y1685461I-1108J-583D01*
G03X758147Y1685217I190J-63D01*
G02X759043Y1684288I-747J-1617D01*
G03X759518Y1684057I369J155D01*
G02X758900Y1682036I333J-1207D01*
G03X758376Y1682111I-305J-260D01*
G02X755992Y1684691I-976J1490D01*
G37*
G36*
G01X759622Y1678619D02*
G03X759155Y1678295I-73J-393D01*
G02X758183Y1680200I-1755J305D01*
G03X758720Y1680387I176J359D01*
G02X759622Y1678619I1131J-537D01*
G37*
G36*
G01X761617Y1674061D02*
G03X761444Y1674293I-197J34D01*
G02X761317Y1674314I227J1766D01*
G03X761082Y1674081I-38J-196D01*
G02X759630Y1675082I-1230J-231D01*
G03X759945Y1675583I-70J394D01*
G02X763321Y1675416I1716J478D01*
G03X763490Y1674927I373J-145D01*
G02X761617Y1674061I-639J-1077D01*
G37*
G36*
G01X820674Y1704064D02*
G02X819387Y1703649I-320J-1210D01*
G03X819180Y1704290I-309J254D01*
G02X818249Y1705542I320J1210D01*
G03X817886Y1705953I-400J13D01*
G02X819251Y1707158I114J1247D01*
G03X819614Y1706747I400J-13D01*
G02X820467Y1704705I-114J-1247D01*
G03X820674Y1704064I309J-254D01*
G37*
G36*
G01X818244Y1698209D02*
G02X818185Y1696667I956J-809D01*
G03X817556Y1696691I-324J-234D01*
G02X817615Y1698233I-956J809D01*
G03X818244Y1698209I324J234D01*
G37*
G36*
G01X830091Y1691675D02*
G02X829133Y1693070I-1240J175D01*
G03X829623Y1693485I91J390D01*
G02X830654Y1691983I1777J115D01*
G03X830091Y1691675I-167J-363D01*
G37*
G36*
G01X838083Y1684184D02*
G02X836237Y1685374I-1683J-584D01*
G03X836600Y1685791I-36J398D01*
G02X836676Y1686283I1251J59D01*
G03X836319Y1686821I-375J138D01*
G02X837914Y1687663I81J1779D01*
G03X838157Y1687064I340J-211D01*
G02X838313Y1684686I-306J-1214D01*
G03X838083Y1684184I148J-371D01*
G37*
G36*
G01X830091Y1676675D02*
G02X829383Y1677984I-1240J175D01*
G03X829663Y1678209I85J181D01*
G02X829643Y1678311I1737J393D01*
G03X829152Y1678635I-395J-64D01*
G02X829996Y1680356I-301J1215D01*
G03X830552Y1680166I366J162D01*
G02X830654Y1676983I848J-1566D01*
G03X830091Y1676675I-167J-363D01*
G37*
G54D13*
X753851Y1664850D03*
Y1661850D03*
Y1658850D03*
Y1673850D03*
Y1670850D03*
Y1667850D03*
Y1709850D03*
Y1706850D03*
Y1703850D03*
X768851Y1664850D03*
X765851D03*
X762851D03*
X759851D03*
X756851D03*
X768851Y1661850D03*
X765851D03*
X762851D03*
X759851D03*
X756851D03*
X768851Y1658850D03*
X765851D03*
X762851D03*
X759851D03*
X756851D03*
Y1673850D03*
X759851Y1670850D03*
X756851D03*
X759851Y1667850D03*
X756851D03*
X763800Y1681000D03*
X761300Y1693400D03*
X768851Y1682850D03*
X769400Y1689805D03*
X763900Y1685000D03*
X768851Y1709850D03*
X765851D03*
X762851D03*
X756851D03*
X768851Y1706850D03*
X765851D03*
X756851D03*
X768851Y1703850D03*
X756851D03*
X768851Y1700850D03*
X774851Y1664850D03*
X771851D03*
X774851Y1661850D03*
X771851D03*
X783851Y1658850D03*
X780851D03*
X774851D03*
X771851D03*
X783851Y1670850D03*
X780851D03*
X783851Y1667850D03*
X774851D03*
X783306Y1690906D03*
X780200Y1690100D03*
X783851Y1709850D03*
X774851D03*
X771851D03*
X774851Y1706850D03*
X771851D03*
X789851Y1664850D03*
X786851D03*
X792851Y1658850D03*
X798851Y1676850D03*
X786851Y1670850D03*
X795851Y1685850D03*
X792851D03*
X789851Y1709850D03*
X798851Y1706850D03*
X792851D03*
Y1703850D03*
X789851D03*
Y1700850D03*
X805700Y1677600D03*
X811500Y1696600D03*
X807851Y1685850D03*
X804851D03*
X810851Y1703850D03*
X816851Y1700850D03*
X813851D03*
X810851D03*
X803500Y1708900D03*
X803937Y1704237D03*
X825851Y1661850D03*
Y1658850D03*
Y1676850D03*
X831851Y1673850D03*
X828851D03*
X825851D03*
X831851Y1670850D03*
X828851D03*
X821700Y1682586D03*
X818500Y1691400D03*
X825851Y1691850D03*
X825500Y1696900D03*
X822500Y1694500D03*
X824300Y1705800D03*
X833700Y1701700D03*
X823300Y1702900D03*
X837851Y1673850D03*
X834851D03*
X837851Y1670850D03*
X834851D03*
X834900Y1705200D03*
G54D14*
X752400Y1678600D03*
Y1693600D03*
X771661Y1676061D03*
X766661D03*
X757400Y1693600D03*
Y1698600D03*
X781661Y1676061D03*
X776661D03*
X831400Y1688600D03*
X836400Y1678600D03*
Y1693600D03*
Y1698600D03*
%LPD*%
G75*
G54D10*
X759851Y1664850D03*
X756851D03*
X753851D03*
X750851D03*
X759851Y1661850D03*
X756851D03*
X753851D03*
X750851D03*
X759851Y1658850D03*
X756851D03*
X753851D03*
X750851D03*
X759851Y1655850D03*
X756851D03*
X753851D03*
X750851D03*
X759851Y1679850D03*
Y1673850D03*
X756851D03*
X753851D03*
X750851D03*
X759851Y1670850D03*
X756851D03*
X753851D03*
X750851D03*
X759851Y1667850D03*
X756851D03*
X753851D03*
X750851D03*
X756851Y1685850D03*
X753851D03*
X750851D03*
X759851Y1682850D03*
X756851Y1706850D03*
X753851D03*
X750851D03*
X756851Y1703850D03*
X753851D03*
X750851D03*
X753851Y1700850D03*
X750851D03*
X756851Y1709850D03*
X753851D03*
X750851D03*
X771851Y1664850D03*
X768851D03*
X765851D03*
X762851D03*
X771851Y1661850D03*
X768851D03*
X765851D03*
X762851D03*
X771851Y1658850D03*
X768851D03*
X765851D03*
X762851D03*
X771851Y1655850D03*
X768851D03*
X765851D03*
X762851D03*
Y1673850D03*
X763800Y1681000D03*
X769400Y1689805D03*
X761300Y1693400D03*
X768851Y1682850D03*
X763900Y1685000D03*
X771851Y1706850D03*
X768851D03*
X765851D03*
X768851Y1703850D03*
Y1700850D03*
X771851Y1709850D03*
X768851D03*
X765851D03*
X762851D03*
X786851Y1664850D03*
X774851D03*
Y1661850D03*
X783851Y1658850D03*
X780851D03*
X774851D03*
X783851Y1655850D03*
X780851D03*
X777851D03*
X774851D03*
X786851Y1670850D03*
X783851D03*
X780851D03*
X783851Y1667850D03*
X774851D03*
X780200Y1690100D03*
X783306Y1690906D03*
X774851Y1706850D03*
X783851Y1709850D03*
X774851D03*
X800200Y1658500D03*
X789851Y1664850D03*
X792851Y1658850D03*
X798851Y1655850D03*
X795851D03*
X792851D03*
X798851Y1676850D03*
X795851Y1685850D03*
X792851D03*
X800000Y1685000D03*
X798851Y1706850D03*
X792851D03*
Y1703850D03*
X789851D03*
Y1700850D03*
X792800Y1709100D03*
X789851Y1709850D03*
X813851Y1655850D03*
X801851D03*
X805600Y1668800D03*
X805700Y1677600D03*
X807851Y1685850D03*
X804851D03*
X801851D03*
X805906Y1702394D03*
X811500Y1696600D03*
X810851Y1703850D03*
X813851Y1700850D03*
X810851D03*
X803937Y1704237D03*
X803500Y1708900D03*
X825851Y1661850D03*
Y1658850D03*
Y1655850D03*
X816851D03*
X821700Y1675300D03*
X825851Y1676850D03*
Y1673850D03*
X818500Y1691400D03*
X825851Y1691850D03*
X821700Y1682586D03*
X819200Y1697400D03*
X824300Y1705800D03*
X816851Y1700850D03*
X825500Y1696900D03*
X816600Y1697500D03*
X822500Y1694500D03*
X818000Y1707200D03*
X819500Y1705500D03*
X820354Y1702854D03*
X823300Y1702900D03*
X828851Y1679850D03*
Y1676850D03*
X837851Y1673850D03*
X834851D03*
X831851D03*
X828851D03*
X837851Y1670850D03*
X834851D03*
X831851D03*
X828851D03*
Y1691850D03*
X837851Y1685850D03*
X828851Y1682850D03*
X830700Y1701900D03*
X830654Y1705054D03*
X828800Y1699000D03*
X833700Y1701700D03*
X834900Y1705200D03*
X838200Y1707199D03*
X837851Y1709850D03*
G54D11*
X757400Y1678600D03*
X752400D03*
X757400Y1683600D03*
X752400D03*
X757400Y1688600D03*
X752400D03*
X757400Y1693600D03*
X752400D03*
X757400Y1698600D03*
X752400D03*
X771661Y1676061D03*
X766661D03*
X761661D03*
X781661D03*
X776661D03*
X836400Y1678600D03*
X831400D03*
X836400Y1683600D03*
X831400D03*
X836400Y1688600D03*
X831400D03*
X836400Y1693600D03*
X831400D03*
X836400Y1698600D03*
X831400D03*
G54D12*
G01X752400Y1681618D02*
Y1683600D01*
G01X750418D02*
X752400D01*
G01D02*
X754382D01*
G01X781661Y1674079D02*
Y1676061D01*
G01D02*
Y1678043D01*
G01X779679Y1676061D02*
X781661D01*
G01D02*
X783643D01*
G01X831400Y1681618D02*
Y1683600D01*
G01D02*
Y1685582D01*
G01Y1683600D02*
X833382D01*
M02*
