G04 ================== begin FILE IDENTIFICATION RECORD ==================*
G04 Layout Name:  C:/USERS/MSAHADAT3/DROPBOX/GATECH/ETDS_PCB/allegro/ETDS_PCB_V1_3.brd*
G04 Film Name:    SOLDERMASK_BOTTOM*
G04 File Format:  Gerber RS274X*
G04 File Origin:  Cadence Allegro 16.6-S034*
G04 Origin Date:  Mon Aug 24 20:03:50 2015*
G04 *
G04 Layer:  VIA CLASS/SOLDERMASK_BOTTOM*
G04 Layer:  PIN/SOLDERMASK_BOTTOM*
G04 Layer:  PACKAGE GEOMETRY/SOLDERMASK_BOTTOM*
G04 Layer:  BOARD GEOMETRY/SOLDERMASK_BOTTOM*
G04 *
G04 Offset:    (0.00 0.00)*
G04 Mirror:    No*
G04 Mode:      Positive*
G04 Rotation:  0*
G04 FullContactRelief:  No*
G04 UndefLineWidth:     5.00*
G04 ================== end FILE IDENTIFICATION RECORD ====================*
%FSLAX25Y25*MOIN*%
%IR0*IPPOS*OFA0.00000B0.00000*MIA0B0*SFA1.00000B1.00000*%
%ADD20R,.045X.143*%
%ADD11R,.08X.08*%
%ADD13C,.02953*%
%ADD17R,.021X.041*%
%ADD18R,.033X.033*%
%ADD15R,.024X.024*%
%ADD14R,.054X.03*%
%ADD21R,.024X.024*%
%ADD12R,.02X.058*%
%ADD19R,.017X.045*%
%ADD10R,.062X.056*%
%ADD16R,.055X.055*%
%LPD*%
G75*
G54D10*
X752600Y1658850D03*
X779600D03*
G54D11*
X761420D03*
X770780D03*
G54D20*
X821248Y1662000D03*
X836996D03*
X829122D03*
G54D12*
X760980Y1669380D03*
X771220D03*
X768650D03*
X763540D03*
X766100D03*
G54D21*
X820400Y1702900D03*
X816200D03*
X834900Y1705200D03*
X830700D03*
X834900Y1701900D03*
X830700D03*
X834900Y1708500D03*
X830700D03*
G54D13*
X757400Y1678600D03*
X752400D03*
X757400Y1683600D03*
X752400D03*
X757400Y1688600D03*
X752400D03*
X757400Y1693600D03*
X752400D03*
X757400Y1698600D03*
X752400D03*
X771661Y1676061D03*
X766661D03*
X761661D03*
X781661D03*
X776661D03*
X836400Y1678600D03*
X831400D03*
X836400Y1683600D03*
X831400D03*
X836400Y1688600D03*
X831400D03*
X836400Y1693600D03*
X831400D03*
X836400Y1698600D03*
X831400D03*
G54D14*
X765000Y1680620D03*
X775300D03*
X765000Y1688100D03*
X775300Y1684360D03*
Y1688100D03*
G54D15*
X787300Y1677000D03*
Y1681200D03*
X798400Y1664300D03*
X793800D03*
X798400Y1668500D03*
X793800D03*
X800200Y1676900D03*
Y1681100D03*
X807900Y1664300D03*
X803300D03*
X812200D03*
X807900Y1668500D03*
X803300D03*
X812200D03*
X819300Y1675400D03*
Y1679600D03*
X823300Y1707100D03*
Y1702900D03*
G54D16*
X794400Y1658300D03*
X808600D03*
G54D17*
X791073Y1673100D03*
X796191D03*
Y1681700D03*
X793632D03*
X791073D03*
G54D18*
X814700Y1673700D03*
Y1679300D03*
G54D19*
X805500Y1673800D03*
X808100D03*
X810700D03*
Y1682600D03*
X808100D03*
X805500D03*
M02*
