G04 ================== begin FILE IDENTIFICATION RECORD ==================*
G04 Layout Name:  C:/USERS/MSAHADAT3/DROPBOX/GATECH/ETDS_PCB/allegro/ETDS_PCB_V1_3.brd*
G04 Film Name:    SILKSCREEN_BOTTOM*
G04 File Format:  Gerber RS274X*
G04 File Origin:  Cadence Allegro 16.6-S034*
G04 Origin Date:  Mon Aug 24 20:03:50 2015*
G04 *
G04 Layer:  REF DES/SILKSCREEN_BOTTOM*
G04 Layer:  PACKAGE GEOMETRY/SILKSCREEN_BOTTOM*
G04 Layer:  BOARD GEOMETRY/SILKSCREEN_BOTTOM*
G04 *
G04 Offset:    (0.00 0.00)*
G04 Mirror:    No*
G04 Mode:      Positive*
G04 Rotation:  0*
G04 FullContactRelief:  No*
G04 UndefLineWidth:     5.00*
G04 ================== end FILE IDENTIFICATION RECORD ====================*
%FSLAX25Y25*MOIN*%
%IR0*IPPOS*OFA0.00000B0.00000*MIA0B0*SFA1.00000B1.00000*%
%ADD10C,.005*%
G75*
%LPD*%
G75*
G36*
G01X767600Y1689400D02*
X772600D01*
Y1679300D01*
X767600D01*
Y1689400D01*
G37*
G36*
G01X786300Y1680200D02*
X788300D01*
Y1678000D01*
X786300D01*
Y1680200D01*
G37*
G36*
G01X797400Y1667500D02*
X799400D01*
Y1665300D01*
X797400D01*
Y1667500D01*
G37*
G36*
G01X792800D02*
X794800D01*
Y1665300D01*
X792800D01*
Y1667500D01*
G37*
G36*
G01X799200Y1680100D02*
X801200D01*
Y1677900D01*
X799200D01*
Y1680100D01*
G37*
G36*
G01X790200Y1674900D02*
Y1679700D01*
X797100D01*
Y1674900D01*
X790200D01*
G37*
G36*
G01X806900Y1667500D02*
X808900D01*
Y1665300D01*
X806900D01*
Y1667500D01*
G37*
G36*
G01X802300D02*
X804300D01*
Y1665300D01*
X802300D01*
Y1667500D01*
G37*
G36*
G01X811200D02*
X813200D01*
Y1665300D01*
X811200D01*
Y1667500D01*
G37*
G36*
G01X814700Y1673800D02*
G03I-1000J0D01*
G37*
G36*
G01X818300Y1678600D02*
X820300D01*
Y1676400D01*
X818300D01*
Y1678600D01*
G37*
G36*
G01X813900Y1677800D02*
X815900D01*
Y1675600D01*
X813900D01*
Y1677800D01*
G37*
G36*
G01X817200Y1701900D02*
Y1703900D01*
X819400D01*
Y1701900D01*
X817200D01*
G37*
G36*
G01X824300Y1703900D02*
X822300D01*
Y1706100D01*
X824300D01*
Y1703900D01*
G37*
G36*
G01X831700Y1704200D02*
Y1706200D01*
X833900D01*
Y1704200D01*
X831700D01*
G37*
G36*
G01Y1700900D02*
Y1702900D01*
X833900D01*
Y1700900D01*
X831700D01*
G37*
G36*
G01Y1707500D02*
Y1709500D01*
X833900D01*
Y1707500D01*
X831700D01*
G37*
G54D10*
G01X781800Y1647450D02*
Y1669050D01*
X750400D01*
Y1647450D01*
X781800D01*
G01X785713Y1671600D02*
Y1673392D01*
X785820Y1673767D01*
X786033Y1674017D01*
X786300Y1674100D01*
X786567Y1674017D01*
X786780Y1673767D01*
X786887Y1673392D01*
Y1671600D01*
G01X787993Y1672017D02*
X788153Y1671767D01*
X788340Y1671642D01*
X788553Y1671600D01*
X788820Y1671683D01*
X789007Y1671892D01*
X789060Y1672142D01*
X789033Y1672392D01*
X788927Y1672600D01*
X788393Y1673017D01*
X788153Y1673308D01*
X787993Y1673725D01*
X787940Y1674100D01*
X789060D01*
G01X786308Y1687413D02*
X786183Y1687573D01*
X786100Y1687760D01*
Y1687973D01*
X786225Y1688213D01*
X786433Y1688400D01*
X786683Y1688533D01*
X787100Y1688640D01*
X787475Y1688667D01*
X787850Y1688613D01*
X788100Y1688533D01*
X788350Y1688373D01*
X788517Y1688187D01*
X788600Y1688000D01*
Y1687813D01*
X788517Y1687627D01*
X788392Y1687467D01*
X788225Y1687333D01*
G01X788600Y1685800D02*
X786100D01*
X786600Y1686120D01*
G01X788600D02*
Y1685480D01*
G01X788225Y1684187D02*
X788433Y1684027D01*
X788558Y1683840D01*
X788600Y1683600D01*
X788517Y1683360D01*
X788350Y1683173D01*
X788058Y1683040D01*
X787725Y1683013D01*
X787392Y1683067D01*
X787183Y1683200D01*
X787017Y1683387D01*
X786975Y1683573D01*
X787017Y1683760D01*
X787183Y1684000D01*
X786100Y1683920D01*
Y1683200D01*
G01X778700Y1685087D02*
X780492D01*
X780867Y1684980D01*
X781117Y1684767D01*
X781200Y1684500D01*
X781117Y1684233D01*
X780867Y1684020D01*
X780492Y1683913D01*
X778700D01*
G01X780700Y1682887D02*
X780992Y1682727D01*
X781158Y1682513D01*
X781200Y1682273D01*
X781158Y1682060D01*
X780950Y1681847D01*
X780700Y1681713D01*
X780450Y1681687D01*
X780158Y1681740D01*
X779950Y1681927D01*
X779867Y1682113D01*
Y1682353D01*
G01Y1682113D02*
X779742Y1681953D01*
X779533Y1681820D01*
X779283Y1681767D01*
X779033Y1681820D01*
X778825Y1681953D01*
X778700Y1682193D01*
X778742Y1682433D01*
X778908Y1682673D01*
G01X801400Y1662833D02*
X798900D01*
Y1662167D01*
X799025Y1661953D01*
X799192Y1661820D01*
X799525Y1661767D01*
X799858Y1661820D01*
X800067Y1661980D01*
X800192Y1662167D01*
Y1662833D01*
G01Y1662167D02*
X801400Y1661767D01*
G01Y1660153D02*
X800858Y1660100D01*
X800400Y1660020D01*
X799983Y1659913D01*
X799525Y1659780D01*
X798900Y1659567D01*
Y1660633D01*
G01X789708Y1669613D02*
X789583Y1669773D01*
X789500Y1669960D01*
Y1670173D01*
X789625Y1670413D01*
X789833Y1670600D01*
X790083Y1670733D01*
X790500Y1670840D01*
X790875Y1670867D01*
X791250Y1670813D01*
X791500Y1670733D01*
X791750Y1670573D01*
X791917Y1670387D01*
X792000Y1670200D01*
Y1670013D01*
X791917Y1669827D01*
X791792Y1669667D01*
X791625Y1669533D01*
G01X792000Y1668000D02*
X789500D01*
X790000Y1668320D01*
G01X792000D02*
Y1667680D01*
G01Y1665480D02*
X789500D01*
X791292Y1666467D01*
Y1665133D01*
G01X790560Y1657900D02*
Y1660400D01*
G01X789440D02*
Y1657900D01*
G01Y1659150D02*
X790560D01*
G01X788307Y1659983D02*
X788147Y1660233D01*
X787960Y1660358D01*
X787747Y1660400D01*
X787480Y1660317D01*
X787293Y1660108D01*
X787240Y1659858D01*
X787267Y1659608D01*
X787373Y1659400D01*
X787907Y1658983D01*
X788147Y1658692D01*
X788307Y1658275D01*
X788360Y1657900D01*
X787240D01*
G01X797300Y1661200D02*
Y1655400D01*
X791500D01*
Y1661200D01*
X797300D01*
G01X798108Y1674313D02*
X797983Y1674473D01*
X797900Y1674660D01*
Y1674873D01*
X798025Y1675113D01*
X798233Y1675300D01*
X798483Y1675433D01*
X798900Y1675540D01*
X799275Y1675567D01*
X799650Y1675513D01*
X799900Y1675433D01*
X800150Y1675273D01*
X800317Y1675087D01*
X800400Y1674900D01*
Y1674713D01*
X800317Y1674527D01*
X800192Y1674367D01*
X800025Y1674233D01*
G01X800400Y1672700D02*
X797900D01*
X798400Y1673020D01*
G01X800400D02*
Y1672380D01*
G01X798317Y1671007D02*
X798067Y1670847D01*
X797942Y1670660D01*
X797900Y1670447D01*
X797983Y1670180D01*
X798192Y1669993D01*
X798442Y1669940D01*
X798692Y1669967D01*
X798900Y1670073D01*
X799317Y1670607D01*
X799608Y1670847D01*
X800025Y1671007D01*
X800400Y1671060D01*
Y1669940D01*
G01X799008Y1690113D02*
X798883Y1690273D01*
X798800Y1690460D01*
Y1690673D01*
X798925Y1690913D01*
X799133Y1691100D01*
X799383Y1691233D01*
X799800Y1691340D01*
X800175Y1691367D01*
X800550Y1691313D01*
X800800Y1691233D01*
X801050Y1691073D01*
X801217Y1690887D01*
X801300Y1690700D01*
Y1690513D01*
X801217Y1690327D01*
X801092Y1690167D01*
X800925Y1690033D01*
G01X801300Y1688500D02*
X798800D01*
X799300Y1688820D01*
G01X801300D02*
Y1688180D01*
G01X800258Y1686807D02*
X799967Y1686620D01*
X799800Y1686460D01*
X799717Y1686247D01*
X799800Y1686060D01*
X799967Y1685927D01*
X800217Y1685820D01*
X800508Y1685793D01*
X800758Y1685820D01*
X801008Y1685927D01*
X801217Y1686087D01*
X801300Y1686273D01*
X801217Y1686487D01*
X800967Y1686673D01*
X800592Y1686780D01*
X800175Y1686807D01*
X799633Y1686753D01*
X799342Y1686673D01*
X799050Y1686540D01*
X798842Y1686353D01*
X798800Y1686167D01*
X798883Y1685980D01*
X799092Y1685847D01*
G01X805200Y1662633D02*
X802700D01*
Y1661967D01*
X802825Y1661753D01*
X802992Y1661620D01*
X803325Y1661567D01*
X803658Y1661620D01*
X803867Y1661780D01*
X803992Y1661967D01*
Y1662633D01*
G01Y1661967D02*
X805200Y1661567D01*
G01X804158Y1660407D02*
X803867Y1660220D01*
X803700Y1660060D01*
X803617Y1659847D01*
X803700Y1659660D01*
X803867Y1659527D01*
X804117Y1659420D01*
X804408Y1659393D01*
X804658Y1659420D01*
X804908Y1659527D01*
X805117Y1659687D01*
X805200Y1659873D01*
X805117Y1660087D01*
X804867Y1660273D01*
X804492Y1660380D01*
X804075Y1660407D01*
X803533Y1660353D01*
X803242Y1660273D01*
X802950Y1660140D01*
X802742Y1659953D01*
X802700Y1659767D01*
X802783Y1659580D01*
X802992Y1659447D01*
G01X814860Y1657500D02*
Y1660000D01*
G01X813740D02*
Y1657500D01*
G01Y1658750D02*
X814860D01*
G01X812100Y1657500D02*
Y1660000D01*
X812420Y1659500D01*
G01Y1657500D02*
X811780D01*
G01X811500Y1661200D02*
Y1655400D01*
X805700D01*
Y1661200D01*
X811500D01*
G01X812700Y1681600D02*
X816700D01*
Y1671600D01*
X812700D01*
Y1681600D01*
G01Y1685800D02*
Y1670800D01*
X803700D01*
Y1685800D01*
X812700D01*
G01X808180Y1687100D02*
Y1689600D01*
X809167Y1687808D01*
X807833D01*
G01X814208Y1668313D02*
X814083Y1668473D01*
X814000Y1668660D01*
Y1668873D01*
X814125Y1669113D01*
X814333Y1669300D01*
X814583Y1669433D01*
X815000Y1669540D01*
X815375Y1669567D01*
X815750Y1669513D01*
X816000Y1669433D01*
X816250Y1669273D01*
X816417Y1669087D01*
X816500Y1668900D01*
Y1668713D01*
X816417Y1668527D01*
X816292Y1668367D01*
X816125Y1668233D01*
G01X816500Y1666700D02*
X814000D01*
X814500Y1667020D01*
G01X816500D02*
Y1666380D01*
G01X816000Y1665087D02*
X816292Y1664927D01*
X816458Y1664713D01*
X816500Y1664473D01*
X816458Y1664260D01*
X816250Y1664047D01*
X816000Y1663913D01*
X815750Y1663887D01*
X815458Y1663940D01*
X815250Y1664127D01*
X815167Y1664313D01*
Y1664553D01*
G01Y1664313D02*
X815042Y1664153D01*
X814833Y1664020D01*
X814583Y1663967D01*
X814333Y1664020D01*
X814125Y1664153D01*
X814000Y1664393D01*
X814042Y1664633D01*
X814208Y1664873D01*
G01X818600Y1669600D02*
X839600D01*
Y1654500D01*
X818600D01*
Y1669600D01*
G01X820200Y1685033D02*
X817700D01*
Y1684367D01*
X817825Y1684153D01*
X817992Y1684020D01*
X818325Y1683967D01*
X818658Y1684020D01*
X818867Y1684180D01*
X818992Y1684367D01*
Y1685033D01*
G01Y1684367D02*
X820200Y1683967D01*
G01X819825Y1682887D02*
X820033Y1682727D01*
X820158Y1682540D01*
X820200Y1682300D01*
X820117Y1682060D01*
X819950Y1681873D01*
X819658Y1681740D01*
X819325Y1681713D01*
X818992Y1681767D01*
X818783Y1681900D01*
X818617Y1682087D01*
X818575Y1682273D01*
X818617Y1682460D01*
X818783Y1682700D01*
X817700Y1682620D01*
Y1681900D01*
G01X813400Y1686033D02*
X815900D01*
Y1684967D01*
G01X813817Y1683807D02*
X813567Y1683647D01*
X813442Y1683460D01*
X813400Y1683247D01*
X813483Y1682980D01*
X813692Y1682793D01*
X813942Y1682740D01*
X814192Y1682767D01*
X814400Y1682873D01*
X814817Y1683407D01*
X815108Y1683647D01*
X815525Y1683807D01*
X815900Y1683860D01*
Y1682740D01*
G01X826787Y1704208D02*
X826627Y1704083D01*
X826440Y1704000D01*
X826227D01*
X825987Y1704125D01*
X825800Y1704333D01*
X825667Y1704583D01*
X825560Y1705000D01*
X825533Y1705375D01*
X825587Y1705750D01*
X825667Y1706000D01*
X825827Y1706250D01*
X826013Y1706417D01*
X826200Y1706500D01*
X826387D01*
X826573Y1706417D01*
X826733Y1706292D01*
X826867Y1706125D01*
G01X827813D02*
X827973Y1706333D01*
X828160Y1706458D01*
X828400Y1706500D01*
X828640Y1706417D01*
X828827Y1706250D01*
X828960Y1705958D01*
X828987Y1705625D01*
X828933Y1705292D01*
X828800Y1705083D01*
X828613Y1704917D01*
X828427Y1704875D01*
X828240Y1704917D01*
X828000Y1705083D01*
X828080Y1704000D01*
X828800D01*
G01X814887Y1704808D02*
X814727Y1704683D01*
X814540Y1704600D01*
X814327D01*
X814087Y1704725D01*
X813900Y1704933D01*
X813767Y1705183D01*
X813660Y1705600D01*
X813633Y1705975D01*
X813687Y1706350D01*
X813767Y1706600D01*
X813927Y1706850D01*
X814113Y1707017D01*
X814300Y1707100D01*
X814487D01*
X814673Y1707017D01*
X814833Y1706892D01*
X814967Y1706725D01*
G01X815913Y1706600D02*
X816073Y1706892D01*
X816287Y1707058D01*
X816527Y1707100D01*
X816740Y1707058D01*
X816953Y1706850D01*
X817087Y1706600D01*
X817113Y1706350D01*
X817060Y1706058D01*
X816873Y1705850D01*
X816687Y1705767D01*
X816447D01*
G01X816687D02*
X816847Y1705642D01*
X816980Y1705433D01*
X817033Y1705183D01*
X816980Y1704933D01*
X816847Y1704725D01*
X816607Y1704600D01*
X816367Y1704642D01*
X816127Y1704808D01*
G01X824292Y1699187D02*
X824417Y1699027D01*
X824500Y1698840D01*
Y1698627D01*
X824375Y1698387D01*
X824167Y1698200D01*
X823917Y1698067D01*
X823500Y1697960D01*
X823125Y1697933D01*
X822750Y1697987D01*
X822500Y1698067D01*
X822250Y1698227D01*
X822083Y1698413D01*
X822000Y1698600D01*
Y1698787D01*
X822083Y1698973D01*
X822208Y1699133D01*
X822375Y1699267D01*
G01X824083Y1700293D02*
X824333Y1700453D01*
X824458Y1700640D01*
X824500Y1700853D01*
X824417Y1701120D01*
X824208Y1701307D01*
X823958Y1701360D01*
X823708Y1701333D01*
X823500Y1701227D01*
X823083Y1700693D01*
X822792Y1700453D01*
X822375Y1700293D01*
X822000Y1700240D01*
Y1701360D01*
G01X826887Y1701008D02*
X826727Y1700883D01*
X826540Y1700800D01*
X826327D01*
X826087Y1700925D01*
X825900Y1701133D01*
X825767Y1701383D01*
X825660Y1701800D01*
X825633Y1702175D01*
X825687Y1702550D01*
X825767Y1702800D01*
X825927Y1703050D01*
X826113Y1703217D01*
X826300Y1703300D01*
X826487D01*
X826673Y1703217D01*
X826833Y1703092D01*
X826967Y1702925D01*
G01X828820Y1703300D02*
Y1700800D01*
X827833Y1702592D01*
X829167D01*
G01X826687Y1707508D02*
X826527Y1707383D01*
X826340Y1707300D01*
X826127D01*
X825887Y1707425D01*
X825700Y1707633D01*
X825567Y1707883D01*
X825460Y1708300D01*
X825433Y1708675D01*
X825487Y1709050D01*
X825567Y1709300D01*
X825727Y1709550D01*
X825913Y1709717D01*
X826100Y1709800D01*
X826287D01*
X826473Y1709717D01*
X826633Y1709592D01*
X826767Y1709425D01*
G01X828300Y1709800D02*
Y1707300D01*
X827980Y1707800D01*
G01Y1709800D02*
X828620D01*
M02*
