G04 ================== begin FILE IDENTIFICATION RECORD ==================*
G04 Layout Name:  C:/USERS/MSAHADAT3/DROPBOX/GATECH/ETDS_PCB/allegro/ETDS_PCB_V1_3.brd*
G04 Film Name:    TOP*
G04 File Format:  Gerber RS274X*
G04 File Origin:  Cadence Allegro 16.6-S034*
G04 Origin Date:  Mon Aug 24 20:03:50 2015*
G04 *
G04 Layer:  VIA CLASS/TOP*
G04 Layer:  PIN/TOP*
G04 Layer:  ETCH/TOP*
G04 *
G04 Offset:    (0.00 0.00)*
G04 Mirror:    No*
G04 Mode:      Positive*
G04 Rotation:  0*
G04 FullContactRelief:  No*
G04 UndefLineWidth:     5.00*
G04 ================== end FILE IDENTIFICATION RECORD ====================*
%FSLAX25Y25*MOIN*%
%IR0*IPPOS*OFA0.00000B0.00000*MIA0B0*SFA1.00000B1.00000*%
%ADD10C,.015*%
%ADD11C,.02559*%
%ADD25R,.02X.02*%
%ADD20R,.01X.05*%
%ADD17R,.05X.01*%
%ADD16R,.04X.04*%
%ADD21R,.016X.032*%
%ADD18R,.0315X.04*%
%ADD24R,.035X.035*%
%ADD12R,.019X.019*%
%ADD13R,.019X.019*%
%ADD22R,.01102X.01575*%
%ADD23R,.01575X.01102*%
%ADD15R,.039X.039*%
%ADD14R,.01574X.025*%
%ADD19R,.17323X.17323*%
%ADD26C,.01*%
%ADD27C,.02*%
%ADD28C,.012*%
%ADD29C,.035*%
%ADD30C,.005*%
%ADD31C,.03562*%
%ADD32R,.02904X.02904*%
G75*
%LPD*%
G75*
G36*
G01X749851Y1654901D02*
Y1712699D01*
X777264D01*
Y1707486D01*
X778588D01*
Y1706451D01*
X776434Y1704297D01*
G02X775752Y1704580I-282J283D01*
G01Y1705252D01*
X775041D01*
Y1705603D01*
X775188Y1705644D01*
G03X775752Y1707720I-337J1206D01*
G01Y1708980D01*
G03Y1710720I-901J870D01*
G01Y1711252D01*
X770848D01*
Y1710600D01*
G03Y1709100I1003J-750D01*
G01Y1707600D01*
G03X770989Y1705942I1003J-750D01*
G02X770848Y1705275I-275J-290D01*
G01Y1700348D01*
X775220D01*
G02X775503Y1699666I0J-400D01*
G01X774189Y1698352D01*
X772348D01*
Y1696511D01*
X771489Y1695652D01*
X767416D01*
Y1699064D01*
X764840D01*
Y1698064D01*
X764280D01*
X764268Y1698052D01*
X764011D01*
X760952Y1701111D01*
Y1702598D01*
X761652D01*
Y1704695D01*
G02X762338Y1704973I400J-1D01*
G01X763048Y1704243D01*
Y1700348D01*
X767952D01*
Y1705252D01*
X766988D01*
G02X766713Y1705942I0J400D01*
G03X766947Y1706245I-862J908D01*
G01X767004Y1706348D01*
X767952D01*
Y1711252D01*
X763048D01*
Y1707384D01*
G02X762362Y1707105I-400J0D01*
G01X761652Y1707835D01*
Y1709702D01*
X758748D01*
Y1706798D01*
X760563D01*
X761164Y1706180D01*
G02X760878Y1705502I-287J-278D01*
G01X758748D01*
Y1702598D01*
X759448D01*
Y1700489D01*
X763389Y1696548D01*
X764840D01*
Y1695560D01*
X765035D01*
G02X765318Y1694878I0J-400D01*
G01X764386Y1693946D01*
X762872D01*
Y1690442D01*
X765448D01*
Y1692883D01*
X766125Y1693559D01*
G02X766808Y1693276I283J-283D01*
G01Y1690442D01*
X767895D01*
X768191Y1690146D01*
X768171Y1690042D01*
G03X768176Y1689541I1229J-238D01*
G02X767785Y1689056I-391J-85D01*
G01X762106D01*
X759411Y1691752D01*
X759030D01*
G02X758731Y1692417I0J400D01*
G03X756069I-1331J1183D01*
G02X755770Y1691752I-299J-265D01*
G01X754489D01*
X753013Y1690276D01*
X752900Y1690309D01*
G03X754109Y1689100I-500J-1709D01*
G01X754076Y1689213D01*
X755111Y1690248D01*
X755612D01*
G02X755940Y1689620I0J-400D01*
G03X757900Y1686891I1460J-1020D01*
G01X758013Y1686924D01*
X758721Y1686216D01*
X762348D01*
Y1683448D01*
X765252D01*
Y1686216D01*
X766548D01*
Y1683448D01*
X769452D01*
Y1686216D01*
X784848D01*
Y1683784D01*
X773321D01*
X770134Y1680597D01*
G02X769452Y1680880I-282J283D01*
G01Y1682452D01*
X766548D01*
Y1679548D01*
X768120D01*
G02X768403Y1678866I0J-400D01*
G01X767274Y1677737D01*
X767161Y1677770D01*
G03X768370Y1676561I-500J-1709D01*
G01X768337Y1676674D01*
X773943Y1682280D01*
X784848D01*
Y1681814D01*
X776352D01*
X772274Y1677737D01*
X772161Y1677770D01*
G03X773370Y1676561I-500J-1709D01*
G01X773337Y1676674D01*
X776974Y1680312D01*
X784848D01*
Y1676124D01*
X790837D01*
Y1675837D01*
X791124D01*
Y1674102D01*
X785390D01*
X783444Y1676048D01*
X783441Y1676127D01*
G03X781595Y1674281I-1780J-66D01*
G01X781674Y1674278D01*
X784354Y1671598D01*
X791124D01*
Y1669848D01*
X792796D01*
G02X792938Y1669507I0J-200D01*
G01X792583Y1669152D01*
X786989D01*
X784539Y1666702D01*
X780598D01*
Y1664952D01*
X780039D01*
X779234Y1664147D01*
G02X778559Y1664352I-283J283D01*
G01X775648D01*
Y1661448D01*
X778552D01*
Y1662148D01*
X779361D01*
X779915Y1662702D01*
G02X780598Y1662420I283J-282D01*
G01Y1661698D01*
X790802D01*
Y1664036D01*
G03Y1665664I-951J814D01*
G01Y1666702D01*
X787630D01*
G02X787348Y1667385I0J400D01*
G01X787611Y1667648D01*
X793205D01*
X794846Y1669289D01*
Y1669848D01*
X795312D01*
Y1666274D01*
X793948Y1664911D01*
Y1664352D01*
X793248D01*
Y1662511D01*
X791420Y1660682D01*
X790520D01*
X789739Y1659902D01*
X784530D01*
G03X783172I-679J-1052D01*
G01X780598D01*
Y1654901D01*
X749851D01*
G37*
G36*
G01X784307Y1691658D02*
G03X782734Y1692020I-1001J-752D01*
G02X782152Y1692376I-182J356D01*
G01Y1693511D01*
X779911Y1695752D01*
X779352D01*
Y1697295D01*
X779837Y1697784D01*
X779847Y1697791D01*
G03X779915Y1697852I-467J589D01*
G01X781659Y1699612D01*
X785156D01*
Y1704616D01*
X782144D01*
G02X781861Y1705298I0J400D01*
G01X783268Y1706706D01*
X785025D01*
X785806Y1707486D01*
X788896D01*
Y1712699D01*
X839600D01*
Y1708514D01*
G02X838958Y1708196I-400J0D01*
G03X838111Y1708448I-758J-997D01*
G01X838020Y1708441D01*
X837271Y1709190D01*
X828414D01*
Y1709492D01*
X828178D01*
Y1712268D01*
X814222D01*
Y1711730D01*
X813663D01*
X807122Y1705190D01*
Y1703830D01*
G02X806525Y1703482I-400J0D01*
G03X805654Y1703620I-619J-1088D01*
G02X805177Y1704067I-81J392D01*
G03X803317Y1705325I-1240J170D01*
G02X802720Y1705672I-197J348D01*
G01Y1707057D01*
X803320Y1707658D01*
X803411Y1707651D01*
G03X802251Y1708811I89J1249D01*
G01X802258Y1708720D01*
X801216Y1707679D01*
Y1700152D01*
X800752D01*
Y1701111D01*
X798452Y1703411D01*
Y1705252D01*
X797752D01*
Y1707648D01*
X798452D01*
Y1710552D01*
X795548D01*
Y1707648D01*
X796248D01*
Y1705252D01*
X795548D01*
Y1702348D01*
X797389D01*
X799248Y1700489D01*
Y1700152D01*
X791124D01*
Y1694163D01*
X790837D01*
Y1693876D01*
X788602D01*
Y1703839D01*
X792411Y1707648D01*
X794252D01*
Y1710552D01*
X791348D01*
Y1708711D01*
X787098Y1704461D01*
Y1693876D01*
X784848D01*
Y1691658D01*
X784307D01*
G37*
G36*
G01X781416Y1707945D02*
Y1712699D01*
X784744D01*
Y1708549D01*
X784403Y1708208D01*
X782646D01*
X782099Y1707662D01*
G02X781416Y1707945I-283J283D01*
G37*
G36*
G01X790802Y1654901D02*
Y1658839D01*
X791142Y1659180D01*
X792042D01*
X792566Y1659703D01*
G02X793248Y1659420I282J-283D01*
G01Y1657248D01*
X796152D01*
Y1660152D01*
X793980D01*
G02X793697Y1660834I0J400D01*
G01X794311Y1661448D01*
X796152D01*
Y1664352D01*
X795997D01*
G02X795856Y1664693I0J200D01*
G01X796814Y1665652D01*
Y1669848D01*
X797280D01*
Y1660357D01*
X798958Y1658680D01*
X798951Y1658589D01*
G03X800111Y1659749I1249J-89D01*
G01X800020Y1659742D01*
X798784Y1660979D01*
Y1665935D01*
G02X799466Y1666217I400J-1D01*
G01X805148Y1660535D01*
Y1659048D01*
X808052D01*
Y1659398D01*
X809348D01*
Y1658148D01*
X817152D01*
Y1662352D01*
X816872D01*
G02X816730Y1662693I0J200D01*
G01X817048Y1663011D01*
Y1663348D01*
X817152D01*
Y1663948D01*
X837928D01*
X837978Y1663898D01*
X839600D01*
Y1659402D01*
X839598D01*
Y1654901D01*
X790802D01*
G37*
G36*
G01X808052Y1665802D02*
Y1666152D01*
X806565D01*
X805784Y1666932D01*
G02X805954Y1667599I283J283D01*
G03X806684Y1669426I-354J1201D01*
G01X806658Y1669472D01*
Y1669848D01*
X808876D01*
Y1672098D01*
X818539D01*
X819689Y1670948D01*
X820248D01*
Y1670248D01*
X823152D01*
Y1673152D01*
X820248D01*
Y1672997D01*
G02X819907Y1672856I-200J0D01*
G01X819161Y1673602D01*
X808876D01*
Y1675837D01*
X809163D01*
Y1676124D01*
X817509D01*
X819335Y1674298D01*
X820248D01*
Y1673848D01*
X823152D01*
Y1676752D01*
X820248D01*
Y1676701D01*
G02X819907Y1676559I-200J0D01*
G01X818339Y1678128D01*
X815152D01*
Y1680312D01*
X819226D01*
X820248Y1679289D01*
Y1677448D01*
X823152D01*
Y1680352D01*
X821311D01*
X820956Y1680707D01*
G02X821097Y1681048I141J141D01*
G01X823152D01*
Y1683448D01*
X823889D01*
X824448Y1682889D01*
Y1681048D01*
X827352D01*
Y1683952D01*
X825511D01*
X825156Y1684307D01*
G02X825297Y1684648I141J141D01*
G01X827352D01*
Y1687148D01*
X827789D01*
X829698Y1685239D01*
G02X829940Y1684620I-86J-391D01*
G03X832860I1460J-1020D01*
G02X833188Y1685248I328J228D01*
G01X834111D01*
X835787Y1686924D01*
X835900Y1686891D01*
G03X834691Y1688100I500J1709D01*
G01X834724Y1687987D01*
X833489Y1686752D01*
X833030D01*
G02X832731Y1687417I0J400D01*
G03X830900Y1690309I-1331J1183D01*
G01X830787Y1690276D01*
X830011Y1691052D01*
X822580D01*
G02X822297Y1691734I0J400D01*
G01X823252Y1692689D01*
Y1693499D01*
G03X823501Y1693748I-752J1001D01*
G01X827611D01*
X830787Y1696924D01*
X830900Y1696891D01*
G03X831900I500J1709D01*
G01X832013Y1696924D01*
X833589Y1695348D01*
X834686D01*
G02X835000Y1694701I0J-400D01*
G03X837800I1400J-1101D01*
G02X838111Y1695348I314J247D01*
G01X838917Y1696154D01*
G02X839600Y1695872I283J-282D01*
G01Y1666902D01*
X839222D01*
X839172Y1666952D01*
X817152D01*
Y1667552D01*
X814002D01*
Y1668098D01*
X814702D01*
Y1671002D01*
X811798D01*
Y1668098D01*
X812498D01*
Y1667552D01*
X809348D01*
Y1665802D01*
X808052D01*
G37*
G36*
G01X815834Y1692403D02*
G02X815152Y1692686I-282J283D01*
G01Y1692813D01*
X817352Y1695013D01*
Y1696499D01*
G03X815848I-752J1001D01*
G01Y1695635D01*
X814089Y1693876D01*
X809163D01*
Y1694163D01*
X808876D01*
Y1700152D01*
X808626D01*
Y1704568D01*
X813303Y1709245D01*
G02X813986Y1708963I283J-282D01*
G01Y1702308D01*
X814222D01*
Y1699532D01*
X823259D01*
X824259Y1698532D01*
X824399D01*
G02X824666Y1697833I0J-400D01*
G03X824499Y1697652I832J-935D01*
G01X821083D01*
X815834Y1692403D01*
G37*
G36*
G01X815152Y1689688D02*
Y1690154D01*
X815711D01*
X821705Y1696148D01*
X822600D01*
Y1695762D01*
X822414Y1695749D01*
G03X821680Y1693554I86J-1249D01*
G01X821748Y1693494D01*
Y1693311D01*
X818126Y1689688D01*
X815152D01*
G37*
G36*
G01X816564Y1702110D02*
Y1705913D01*
G02X817215Y1706225I400J0D01*
G03X817886Y1705953I786J975D01*
G02X818249Y1705542I-37J-398D01*
G03X819180Y1704290I1251J-42D01*
G02X819387Y1703649I-102J-387D01*
G03X819129Y1702594I967J-795D01*
G02X818738Y1702110I-391J-84D01*
G01X816564D01*
G37*
G36*
G01X826320Y1695954D02*
G03X826334Y1697833I-820J946D01*
G02X826601Y1698532I267J299D01*
G01X826605D01*
X827605Y1699532D01*
X828178D01*
Y1700070D01*
X829499D01*
G02X829848Y1699473I0J-400D01*
G03X829691Y1698100I1552J-873D01*
G01X829724Y1697987D01*
X826989Y1695252D01*
X826582D01*
G02X826320Y1695954I0J400D01*
G37*
G36*
G01X821970Y1702110D02*
G02X821579Y1702594I0J400D01*
G03X820330Y1704106I-1225J260D01*
G02X820212Y1704470I-4J200D01*
G03X820501Y1704748I-712J1030D01*
G01X821802D01*
X825153Y1708099D01*
G02X825836Y1707817I283J-282D01*
G01Y1703983D01*
G02X825213Y1703652I-400J1D01*
G01X824301D01*
G03X822156Y1702392I-1001J-752D01*
G01X822173Y1702353D01*
Y1702110D01*
X821970D01*
G37*
G36*
G01X816564Y1708487D02*
Y1709690D01*
X821959D01*
G02X822242Y1709007I0J-400D01*
G01X821187Y1707952D01*
X819001D01*
G03X817215Y1708175I-1001J-752D01*
G02X816564Y1708487I-251J312D01*
G37*
G36*
G01X837420Y1700060D02*
G03X837152Y1700215I-1022J-1459D01*
G01Y1701911D01*
X834811Y1704252D01*
X832256D01*
G02X831868Y1704749I0J400D01*
G03X831837Y1705464I-1214J306D01*
G02X832215Y1705994I378J130D01*
G01X835543D01*
X838048Y1703489D01*
Y1700388D01*
G02X837420Y1700060I-400J0D01*
G37*
G36*
G01X834211Y1696852D02*
X833076Y1697987D01*
X833109Y1698100D01*
G03X831781Y1700340I-1709J500D01*
G02X831584Y1701014I86J391D01*
G03X831905Y1702240I-884J886D01*
G02X832290Y1702748I385J108D01*
G01X834189D01*
X835648Y1701289D01*
Y1700215D01*
G03X835000Y1697499I752J-1615D01*
G02X834686Y1696852I-314J-247D01*
G01X834211D01*
G37*
G36*
G01X843900Y1712100D02*
Y1710100D01*
X859400D01*
Y1703400D01*
X849000D01*
Y1691600D01*
X859400D01*
Y1684900D01*
X849000D01*
Y1673100D01*
X859400D01*
Y1666400D01*
X840100D01*
Y1664400D01*
X859400D01*
Y1658900D01*
X840100D01*
Y1655400D01*
X861400D01*
Y1675100D01*
X851000D01*
Y1682900D01*
X861400D01*
Y1693600D01*
X851000D01*
Y1701500D01*
X861400D01*
Y1712100D01*
X843900D01*
G37*
%LPC*%
G75*
G54D31*
X757400Y1678600D03*
X752400D03*
X757400Y1683600D03*
X752400D03*
Y1693600D03*
X757400Y1698600D03*
X752400D03*
X761661Y1676061D03*
X776661D03*
X836400Y1678600D03*
X831400D03*
X836400Y1683600D03*
X831400Y1693600D03*
G54D32*
X763800Y1681000D03*
X777100Y1658700D03*
X792800Y1703800D03*
X817450Y1669550D03*
X825900Y1671700D03*
Y1678900D03*
Y1675300D03*
%LPD*%
G75*
G54D10*
G01X792126Y1672850D02*
X784872D01*
X781661Y1676061D01*
X759851Y1664850D03*
X756851D03*
X753851D03*
X750851D03*
X759851Y1661850D03*
X756851D03*
X753851D03*
X750851D03*
X759851Y1658850D03*
X756851D03*
X753851D03*
X750851D03*
X759851Y1655850D03*
X756851D03*
X753851D03*
X750851D03*
X759851Y1679850D03*
Y1673850D03*
X756851D03*
X753851D03*
X750851D03*
X759851Y1670850D03*
X756851D03*
X753851D03*
X750851D03*
X759851Y1667850D03*
X756851D03*
X753851D03*
X750851D03*
X756851Y1685850D03*
X753851D03*
X750851D03*
X759851Y1682850D03*
X756851Y1706850D03*
X753851D03*
X750851D03*
X756851Y1703850D03*
X753851D03*
X750851D03*
X753851Y1700850D03*
X750851D03*
X756851Y1709850D03*
X753851D03*
X750851D03*
X771851Y1664850D03*
X768851D03*
X765851D03*
X762851D03*
X771851Y1661850D03*
X768851D03*
X765851D03*
X762851D03*
X771851Y1658850D03*
X768851D03*
X765851D03*
X762851D03*
X771851Y1655850D03*
X768851D03*
X765851D03*
X762851D03*
Y1673850D03*
X763800Y1681000D03*
X769400Y1689805D03*
X761300Y1693400D03*
X768851Y1682850D03*
X763900Y1685000D03*
X771851Y1706850D03*
X768851D03*
X765851D03*
X768851Y1703850D03*
Y1700850D03*
X771851Y1709850D03*
X768851D03*
X765851D03*
X762851D03*
X786851Y1664850D03*
X774851D03*
Y1661850D03*
X783851Y1658850D03*
X780851D03*
X774851D03*
X783851Y1655850D03*
X780851D03*
X777851D03*
X774851D03*
X786851Y1670850D03*
X783851D03*
X780851D03*
X783851Y1667850D03*
X774851D03*
X780200Y1690100D03*
X783306Y1690906D03*
X774851Y1706850D03*
X783851Y1709850D03*
X774851D03*
X800200Y1658500D03*
X789851Y1664850D03*
X792851Y1658850D03*
X798851Y1655850D03*
X795851D03*
X792851D03*
X798851Y1676850D03*
X795851Y1685850D03*
X792851D03*
X800000Y1685000D03*
X798851Y1706850D03*
X792851D03*
Y1703850D03*
X789851D03*
Y1700850D03*
X792800Y1709100D03*
X789851Y1709850D03*
X813851Y1655850D03*
X801851D03*
X805600Y1668800D03*
X805700Y1677600D03*
X807851Y1685850D03*
X804851D03*
X801851D03*
X805906Y1702394D03*
X811500Y1696600D03*
X810851Y1703850D03*
X813851Y1700850D03*
X810851D03*
X803937Y1704237D03*
X803500Y1708900D03*
X825851Y1661850D03*
Y1658850D03*
Y1655850D03*
X816851D03*
X821700Y1675300D03*
X825851Y1676850D03*
Y1673850D03*
X818500Y1691400D03*
X825851Y1691850D03*
X821700Y1682586D03*
X819200Y1697400D03*
X824300Y1705800D03*
X816851Y1700850D03*
X825500Y1696900D03*
X816600Y1697500D03*
X822500Y1694500D03*
X818000Y1707200D03*
X819500Y1705500D03*
X820354Y1702854D03*
X823300Y1702900D03*
X828851Y1679850D03*
Y1676850D03*
X837851Y1673850D03*
X834851D03*
X831851D03*
X828851D03*
X837851Y1670850D03*
X834851D03*
X831851D03*
X828851D03*
Y1691850D03*
X837851Y1685850D03*
X828851Y1682850D03*
X830700Y1701900D03*
X830654Y1705054D03*
X828800Y1699000D03*
X833700Y1701700D03*
X834900Y1705200D03*
X838200Y1707199D03*
X837851Y1709850D03*
G54D20*
X800000Y1672850D03*
X798032D03*
X796063D03*
X794094D03*
X792126D03*
Y1697150D03*
X794094D03*
X796063D03*
X798032D03*
X800000D03*
X807874Y1672850D03*
X805906D03*
X803937D03*
X801968D03*
Y1697150D03*
X803937D03*
X805906D03*
X807874D03*
G54D11*
X757400Y1678600D03*
X752400D03*
X757400Y1683600D03*
X752400D03*
X757400Y1688600D03*
X752400D03*
X757400Y1693600D03*
X752400D03*
X757400Y1698600D03*
X752400D03*
X771661Y1676061D03*
X766661D03*
X761661D03*
X781661D03*
X776661D03*
X836400Y1678600D03*
X831400D03*
X836400Y1683600D03*
X831400D03*
X836400Y1688600D03*
X831400D03*
X836400Y1693600D03*
X831400D03*
X836400Y1698600D03*
X831400D03*
G54D30*
G01X759679Y1676061D02*
X761661D01*
G01X757400Y1681618D02*
Y1683600D01*
G01D02*
Y1685582D01*
G01X755418Y1683600D02*
X757400D01*
G01D02*
X759382D01*
G01X787850Y1688937D02*
X782436D01*
X781804Y1688305D01*
X761795D01*
X759100Y1691000D01*
X754800D01*
X752400Y1688600D01*
G01X757400D02*
X759032Y1686968D01*
X787850D01*
G01X766128Y1697312D02*
X764591D01*
X764579Y1697300D01*
X763700D01*
X760200Y1700800D01*
Y1704050D01*
G01Y1708250D02*
X765500Y1702800D01*
G01X761661Y1674079D02*
Y1676061D01*
G01D02*
Y1678043D01*
G01Y1676061D02*
X763643D01*
G01X768000Y1679348D02*
Y1681000D01*
G01X787850Y1683032D02*
X773632D01*
X766661Y1676061D01*
G01X787850Y1681063D02*
X776663D01*
X771661Y1676061D01*
G01X769400Y1689805D02*
Y1690000D01*
X768096Y1691304D01*
Y1692194D01*
G01X773800Y1692700D02*
X770139D01*
X769633Y1692194D01*
X768096D01*
G01X768000Y1683248D02*
Y1684900D01*
G01X766348D02*
X768000D01*
G01D02*
X769652D01*
G01X768000Y1681000D02*
Y1682652D01*
G01X766348Y1681000D02*
X768000D01*
G01D02*
X769652D01*
G01X773800Y1696900D02*
X771800Y1694900D01*
X766403D01*
X764160Y1692657D01*
Y1692194D01*
G01X779340Y1709988D02*
Y1706140D01*
X776000Y1702800D01*
X773300D01*
G01X765500Y1708800D02*
Y1711452D01*
G01X762848Y1708800D02*
X765500D01*
G01D02*
X768152D01*
G01X773300D02*
Y1711452D01*
G01X770648Y1708800D02*
X773300D01*
G01D02*
X775952D01*
G01X777100Y1657048D02*
Y1658700D01*
G01D02*
Y1660352D01*
G01X775448Y1658700D02*
X777100D01*
G01D02*
X778752D01*
G01X783100Y1657400D02*
Y1660102D01*
G01X780398Y1657400D02*
X783100D01*
G01Y1664200D02*
X787300Y1668400D01*
X792894D01*
X794094Y1669600D01*
Y1672850D01*
G01X777100Y1662900D02*
X779050D01*
X780350Y1664200D01*
X783100D01*
G01X773800Y1692700D02*
X777900D01*
G01X780200Y1690100D02*
X781400Y1691300D01*
Y1693200D01*
X779600Y1695000D01*
X775700D01*
X773800Y1696900D01*
G01X787850Y1690906D02*
X783306D01*
G01X783080Y1702114D02*
X779381Y1698381D01*
G01X777900Y1696900D02*
X783080Y1702114D01*
G01X786820Y1709988D02*
Y1709563D01*
X784714Y1707457D01*
X782957D01*
X777100Y1701600D01*
Y1700200D01*
X773800Y1696900D01*
G01X798032Y1672850D02*
Y1660668D01*
X800200Y1658500D01*
G01X794700Y1657048D02*
Y1658700D01*
G01D02*
Y1660352D01*
G01X793048Y1658700D02*
X794700D01*
G01D02*
X796352D01*
G01X788300Y1661498D02*
Y1664200D01*
G01D02*
Y1666902D01*
G01Y1664200D02*
X791002D01*
G01X788300Y1657400D02*
X790831Y1659931D01*
X791731D01*
X794700Y1662900D01*
G01X796063Y1672850D02*
Y1665963D01*
X794700Y1664600D01*
Y1662900D01*
G01X787850Y1692874D02*
Y1704150D01*
X792800Y1709100D01*
G01Y1702148D02*
Y1703800D01*
G01D02*
Y1705452D01*
G01X791148Y1703800D02*
X792800D01*
G01D02*
X794452D01*
G01X797000D02*
Y1709100D01*
G01X800000Y1697150D02*
Y1700800D01*
X797000Y1703800D01*
G01X813250Y1657650D02*
X813200Y1657600D01*
G01X813250Y1660250D02*
Y1657650D01*
G01Y1669550D02*
Y1665450D01*
G01X803937Y1672850D02*
X805906D01*
G01D02*
Y1669106D01*
X805600Y1668800D01*
G01X812150Y1679094D02*
Y1677126D01*
G01X807874Y1672850D02*
X818850D01*
X820000Y1671700D01*
X821700D01*
G01X825500Y1696900D02*
X821394D01*
X815400Y1690906D01*
X812150D01*
G01Y1692874D02*
X814150D01*
X816600Y1695324D01*
Y1697500D01*
G01X812150Y1686968D02*
X818083D01*
X821415Y1690300D01*
X829700D01*
X831400Y1688600D01*
G01X822500Y1694500D02*
Y1693000D01*
X818437Y1688937D01*
X812150D01*
G01Y1685000D02*
X817530D01*
X820430Y1687900D01*
X828100D01*
X830000Y1686000D01*
X833800D01*
X836400Y1688600D01*
G01X820439Y1684200D02*
X819271Y1683032D01*
X812150D01*
G01Y1681063D02*
X819537D01*
X821700Y1678900D01*
G01X805906Y1697150D02*
Y1702394D01*
G01X813600Y1706700D02*
X813646Y1706746D01*
G01X803937Y1697150D02*
Y1704237D01*
G01X803500Y1708900D02*
X801968Y1707368D01*
Y1697150D01*
G01X807874D02*
Y1704879D01*
X813974Y1710979D01*
X815275D01*
G01X815850Y1657948D02*
Y1660250D01*
G01D02*
X817352D01*
G01X825900Y1673648D02*
Y1675300D01*
G01D02*
Y1676952D01*
G01X824248Y1675300D02*
X825900D01*
G01D02*
X827552D01*
G01X825900Y1677248D02*
Y1678900D01*
G01D02*
Y1680552D01*
G01X824248Y1678900D02*
X825900D01*
G01D02*
X827552D01*
G01X817450Y1667898D02*
Y1669550D01*
G01D02*
Y1671202D01*
G01X815798Y1669550D02*
X817450D01*
G01D02*
X819102D01*
G01X825900Y1670048D02*
Y1671700D01*
G01D02*
Y1673352D01*
G01X824248Y1671700D02*
X825900D01*
G01D02*
X827552D01*
G01X825900Y1684448D02*
Y1686100D01*
G01D02*
X827552D01*
G01X825900Y1682500D02*
X824200Y1684200D01*
X820439D01*
G01X821700Y1686100D02*
Y1685461D01*
X820439Y1684200D01*
G01X823739Y1700821D02*
Y1700114D01*
X824570Y1699283D01*
X826294D01*
X827125Y1700114D01*
Y1700821D01*
G01X822046D02*
X823739D01*
G01X813646Y1706746D02*
X815275D01*
G01X813785Y1703361D02*
X815275D01*
G01D02*
X816765D01*
G01X813785Y1705054D02*
X815275D01*
G01D02*
X816765D01*
G01X818661Y1699331D02*
Y1700821D01*
G01D02*
Y1702311D01*
G01X816968Y1699331D02*
Y1700821D01*
G01D02*
Y1702311D01*
G01X815275Y1699331D02*
Y1700821D01*
G01X814022D02*
X815275D01*
G01X822500Y1694500D02*
X827300D01*
X831400Y1698600D01*
G01X819500Y1705500D02*
X821491D01*
X825432Y1709441D01*
Y1710979D01*
G01X820354Y1700821D02*
Y1702854D01*
G01X823300Y1702900D02*
X824891D01*
X825432Y1702359D01*
Y1700821D01*
G01X813785Y1708439D02*
X815275D01*
G01D02*
X816765D01*
G01X818000Y1707200D02*
X821498D01*
X823739Y1709441D01*
Y1710979D01*
G01X836400Y1681618D02*
Y1683600D01*
G01D02*
Y1685582D01*
G01X834418Y1683600D02*
X836400D01*
G01D02*
X838382D01*
G01X827125Y1705054D02*
X830654D01*
G01X827125Y1700821D02*
X829621D01*
X830700Y1701900D01*
G01X836400Y1698600D02*
Y1701600D01*
X834500Y1703500D01*
X828802D01*
X828663Y1703361D01*
X827125D01*
G01Y1706746D02*
X835854D01*
X838800Y1703800D01*
Y1697100D01*
X837800Y1696100D01*
X833900D01*
X831400Y1698600D01*
G01X827125Y1708439D02*
Y1710979D01*
G01X838200Y1707199D02*
X836960Y1708439D01*
X827125D01*
G54D12*
X760200Y1704050D03*
Y1708250D03*
X773800Y1692700D03*
Y1696900D03*
X777100Y1658700D03*
Y1662900D03*
X777900Y1692700D03*
Y1696900D03*
X794700Y1658700D03*
Y1662900D03*
X806600Y1664700D03*
Y1660500D03*
G54D21*
X813250Y1660250D03*
X810650D03*
Y1665450D03*
X813250D03*
X815850Y1660250D03*
Y1665450D03*
G54D22*
X815275Y1700821D03*
X816968D03*
X818661D03*
X820354D03*
X822046D03*
X823739D03*
X825432D03*
X827125D03*
Y1710979D03*
X825432D03*
X823739D03*
X822046D03*
X820354D03*
X818661D03*
X816968D03*
X815275D03*
G54D13*
X768000Y1681000D03*
X763800D03*
X768000Y1684900D03*
X763800D03*
X797000Y1703800D03*
X792800D03*
Y1709100D03*
X797000D03*
X813250Y1669550D03*
X825900Y1671700D03*
X821700D03*
X817450Y1669550D03*
X825900Y1678900D03*
X821700D03*
X825900Y1675300D03*
X821700D03*
X825900Y1682500D03*
X821700D03*
X825900Y1686100D03*
X821700D03*
G54D14*
X768096Y1692194D03*
X764160D03*
X766128Y1697312D03*
G54D23*
X827125Y1703361D03*
Y1705054D03*
Y1706746D03*
X815275D03*
Y1705054D03*
Y1703361D03*
X827125Y1708439D03*
X815275D03*
G54D15*
X773300Y1708800D03*
Y1702800D03*
X765500Y1708800D03*
Y1702800D03*
G54D24*
X841850Y1657150D03*
G54D16*
X783100Y1657400D03*
X788300Y1664200D03*
X783100D03*
X788300Y1657400D03*
G54D25*
X841100Y1665400D03*
G54D26*
G01X800000Y1672850D02*
Y1667100D01*
X806600Y1660500D01*
G01X801968Y1672850D02*
Y1669332D01*
X806600Y1664700D01*
G01X812150Y1677126D02*
X817924D01*
X819750Y1675300D01*
X821700D01*
G54D17*
X787850Y1677126D03*
Y1679094D03*
Y1681063D03*
Y1683032D03*
Y1685000D03*
Y1686968D03*
Y1688937D03*
Y1690906D03*
Y1692874D03*
X812150Y1679094D03*
Y1677126D03*
Y1692874D03*
Y1690906D03*
Y1688937D03*
Y1686968D03*
Y1685000D03*
Y1683032D03*
Y1681063D03*
G54D27*
G01X841100Y1665400D02*
X838600D01*
X838550Y1665450D01*
X815850D01*
G54D18*
X783080Y1702114D03*
X779340Y1709988D03*
X786820D03*
G54D28*
G01X806600Y1660500D02*
X810400D01*
X810650Y1660250D01*
G01X806600Y1664700D02*
X809900D01*
X810650Y1665450D01*
G54D19*
X800000Y1685000D03*
G54D29*
G01X841850Y1657150D02*
X838650D01*
M02*
