G04 ================== begin FILE IDENTIFICATION RECORD ==================*
G04 Layout Name:  BBB_CAPE_PCB_AN.brd*
G04 Film Name:    SILKSCREEN_TOP*
G04 File Format:  Gerber RS274X*
G04 File Origin:  Cadence Allegro 16.6-P004*
G04 Origin Date:  Thu Sep 11 16:38:19 2014*
G04 *
G04 Layer:  REF DES/SILKSCREEN_TOP*
G04 Layer:  PACKAGE GEOMETRY/SILKSCREEN_TOP*
G04 Layer:  BOARD GEOMETRY/SILKSCREEN_TOP*
G04 *
G04 Offset:    (0.00 0.00)*
G04 Mirror:    No*
G04 Mode:      Positive*
G04 Rotation:  0*
G04 FullContactRelief:  No*
G04 UndefLineWidth:     5.00*
G04 ================== end FILE IDENTIFICATION RECORD ====================*
%FSLAX25Y25*MOIN*%
%IR0*IPPOS*OFA0.00000B0.00000*MIA0B0*SFA1.00000B1.00000*%
%ADD10C,.005*%
%ADD11C,.006*%
G75*
%LPD*%
G75*
G36*
G01X711710Y1633200D02*
X713210D01*
Y1634200D01*
X711710D01*
Y1633200D01*
G37*
G36*
G01X700500Y1678300D02*
Y1676300D01*
X702700D01*
Y1678300D01*
X700500D01*
G37*
G36*
G01X698910Y1665200D02*
X700410D01*
Y1664200D01*
X698910D01*
Y1665200D01*
G37*
G36*
G01X700900Y1697100D02*
Y1695100D01*
X703100D01*
Y1697100D01*
X700900D01*
G37*
G36*
G01X702800Y1683400D02*
Y1685400D01*
X700600D01*
Y1683400D01*
X702800D01*
G37*
G36*
G01X701200Y1709100D02*
Y1707100D01*
X703400D01*
Y1709100D01*
X701200D01*
G37*
G36*
G01X703200Y1701400D02*
Y1703400D01*
X701000D01*
Y1701400D01*
X703200D01*
G37*
G36*
G01X700700Y1691500D02*
Y1689500D01*
X702900D01*
Y1691500D01*
X700700D01*
G37*
G36*
G01X703300Y1718900D02*
Y1720900D01*
X701100D01*
Y1718900D01*
X703300D01*
G37*
G36*
G01Y1713200D02*
Y1715200D01*
X701100D01*
Y1713200D01*
X703300D01*
G37*
G36*
G01X701500Y1727000D02*
Y1725000D01*
X703700D01*
Y1727000D01*
X701500D01*
G37*
G36*
G01X749200Y1706800D02*
Y1704800D01*
X751400D01*
Y1706800D01*
X749200D01*
G37*
G36*
G01X751500Y1697200D02*
Y1699200D01*
X749300D01*
Y1697200D01*
X751500D01*
G37*
G36*
G01X751100Y1712000D02*
Y1714000D01*
X748900D01*
Y1712000D01*
X751100D01*
G37*
G36*
G01X751300Y1725300D02*
Y1727300D01*
X749100D01*
Y1725300D01*
X751300D01*
G37*
G36*
G01Y1719300D02*
Y1721300D01*
X749100D01*
Y1719300D01*
X751300D01*
G37*
G36*
G01X774500Y1723600D02*
X776500D01*
Y1725800D01*
X774500D01*
Y1723600D01*
G37*
G36*
G01X800800Y1640300D02*
Y1642300D01*
X798600D01*
Y1640300D01*
X800800D01*
G37*
G36*
G01X798600Y1648900D02*
Y1646900D01*
X800800D01*
Y1648900D01*
X798600D01*
G37*
G36*
G01X800700Y1653800D02*
Y1655800D01*
X798500D01*
Y1653800D01*
X800700D01*
G37*
G36*
G01X782306Y1671400D02*
G03I-806J0D01*
G37*
G36*
G01X805600Y1708500D02*
X807600D01*
Y1710700D01*
X805600D01*
Y1708500D01*
G37*
G36*
G01X799000Y1726500D02*
X797000D01*
Y1724300D01*
X799000D01*
Y1726500D01*
G37*
G36*
G01X780700Y1730200D02*
Y1719500D01*
X793300D01*
Y1730200D01*
X780700D01*
G37*
G36*
G01X827941Y1661200D02*
G03I-2341J0D01*
G37*
G36*
G01X815700Y1718500D02*
X817700D01*
Y1720700D01*
X815700D01*
Y1718500D01*
G37*
G36*
G01X819947Y1715200D02*
G03I-447J0D01*
G37*
G36*
G01X833841Y1786900D02*
G03I-2341J0D01*
G37*
G54D10*
G01X615308Y1656687D02*
X615183Y1656527D01*
X615100Y1656340D01*
Y1656127D01*
X615225Y1655887D01*
X615433Y1655700D01*
X615683Y1655567D01*
X616100Y1655460D01*
X616475Y1655433D01*
X616850Y1655487D01*
X617100Y1655567D01*
X617350Y1655727D01*
X617517Y1655913D01*
X617600Y1656100D01*
Y1656287D01*
X617517Y1656473D01*
X617392Y1656633D01*
X617225Y1656767D01*
G01X617100Y1657713D02*
X617392Y1657873D01*
X617558Y1658087D01*
X617600Y1658327D01*
X617558Y1658540D01*
X617350Y1658753D01*
X617100Y1658887D01*
X616850Y1658913D01*
X616558Y1658860D01*
X616350Y1658673D01*
X616267Y1658487D01*
Y1658247D01*
G01Y1658487D02*
X616142Y1658647D01*
X615933Y1658780D01*
X615683Y1658833D01*
X615433Y1658780D01*
X615225Y1658647D01*
X615100Y1658407D01*
X615142Y1658167D01*
X615308Y1657927D01*
G01X612700Y1661900D02*
X622700D01*
Y1681900D01*
X612700D01*
Y1661900D01*
G01X680300Y1717400D02*
Y1780500D01*
X612000D01*
X611500Y1717400D01*
X680300D01*
G01X653993Y1634400D02*
Y1637983D01*
X653740Y1638733D01*
X653233Y1639233D01*
X652600Y1639400D01*
X651967Y1639233D01*
X651460Y1638733D01*
X651207Y1637983D01*
Y1634400D01*
G01X647500Y1639400D02*
Y1634400D01*
X648260Y1635400D01*
G01Y1639400D02*
X646740D01*
G01X643793Y1638400D02*
X643413Y1638983D01*
X642907Y1639317D01*
X642337Y1639400D01*
X641830Y1639317D01*
X641323Y1638900D01*
X641007Y1638400D01*
X640943Y1637900D01*
X641070Y1637317D01*
X641513Y1636900D01*
X641957Y1636733D01*
X642527D01*
G01X641957D02*
X641577Y1636483D01*
X641260Y1636067D01*
X641133Y1635567D01*
X641260Y1635067D01*
X641577Y1634650D01*
X642147Y1634400D01*
X642717Y1634483D01*
X643287Y1634817D01*
G01X682600Y1711300D02*
X672600D01*
Y1691300D01*
X682600D01*
Y1711300D01*
G01X668387Y1723900D02*
Y1725692D01*
X668280Y1726067D01*
X668067Y1726317D01*
X667800Y1726400D01*
X667533Y1726317D01*
X667320Y1726067D01*
X667213Y1725692D01*
Y1723900D01*
G01X666107Y1725358D02*
X665920Y1725067D01*
X665760Y1724900D01*
X665547Y1724817D01*
X665360Y1724900D01*
X665227Y1725067D01*
X665120Y1725317D01*
X665093Y1725608D01*
X665120Y1725858D01*
X665227Y1726108D01*
X665387Y1726317D01*
X665573Y1726400D01*
X665787Y1726317D01*
X665973Y1726067D01*
X666080Y1725692D01*
X666107Y1725275D01*
X666053Y1724733D01*
X665973Y1724442D01*
X665840Y1724150D01*
X665653Y1723942D01*
X665467Y1723900D01*
X665280Y1723983D01*
X665147Y1724192D01*
G01X679992Y1713913D02*
X680117Y1714073D01*
X680200Y1714260D01*
Y1714473D01*
X680075Y1714713D01*
X679867Y1714900D01*
X679617Y1715033D01*
X679200Y1715140D01*
X678825Y1715167D01*
X678450Y1715113D01*
X678200Y1715033D01*
X677950Y1714873D01*
X677783Y1714687D01*
X677700Y1714500D01*
Y1714313D01*
X677783Y1714127D01*
X677908Y1713967D01*
X678075Y1713833D01*
G01X677700Y1712300D02*
X680200D01*
X679700Y1712620D01*
G01X677700D02*
Y1711980D01*
G01X683567Y1735500D02*
Y1738000D01*
X684233D01*
X684447Y1737875D01*
X684580Y1737708D01*
X684633Y1737375D01*
X684580Y1737042D01*
X684420Y1736833D01*
X684233Y1736708D01*
X683567D01*
G01X684233D02*
X684633Y1735500D01*
G01X685713Y1735875D02*
X685873Y1735667D01*
X686060Y1735542D01*
X686300Y1735500D01*
X686540Y1735583D01*
X686727Y1735750D01*
X686860Y1736042D01*
X686887Y1736375D01*
X686833Y1736708D01*
X686700Y1736917D01*
X686513Y1737083D01*
X686327Y1737125D01*
X686140Y1737083D01*
X685900Y1736917D01*
X685980Y1738000D01*
X686700D01*
G01X688500Y1735500D02*
X688687Y1735542D01*
X688900Y1735667D01*
X689033Y1735875D01*
X689087Y1736167D01*
X689033Y1736458D01*
X688873Y1736708D01*
X688633Y1736833D01*
X688367D01*
X688207Y1736917D01*
X688073Y1737125D01*
X688020Y1737417D01*
X688100Y1737708D01*
X688287Y1737917D01*
X688500Y1738000D01*
X688713Y1737917D01*
X688900Y1737708D01*
X688980Y1737417D01*
X688927Y1737125D01*
X688793Y1736917D01*
X688633Y1736833D01*
X688367D01*
X688127Y1736708D01*
X687967Y1736458D01*
X687913Y1736167D01*
X687967Y1735875D01*
X688100Y1735667D01*
X688313Y1735542D01*
X688500Y1735500D01*
G01X683067Y1765600D02*
Y1768100D01*
X683733D01*
X683947Y1767975D01*
X684080Y1767808D01*
X684133Y1767475D01*
X684080Y1767142D01*
X683920Y1766933D01*
X683733Y1766808D01*
X683067D01*
G01X683733D02*
X684133Y1765600D01*
G01X685213Y1765975D02*
X685373Y1765767D01*
X685560Y1765642D01*
X685800Y1765600D01*
X686040Y1765683D01*
X686227Y1765850D01*
X686360Y1766142D01*
X686387Y1766475D01*
X686333Y1766808D01*
X686200Y1767017D01*
X686013Y1767183D01*
X685827Y1767225D01*
X685640Y1767183D01*
X685400Y1767017D01*
X685480Y1768100D01*
X686200D01*
G01X687413Y1765975D02*
X687573Y1765767D01*
X687760Y1765642D01*
X688000Y1765600D01*
X688240Y1765683D01*
X688427Y1765850D01*
X688560Y1766142D01*
X688587Y1766475D01*
X688533Y1766808D01*
X688400Y1767017D01*
X688213Y1767183D01*
X688027Y1767225D01*
X687840Y1767183D01*
X687600Y1767017D01*
X687680Y1768100D01*
X688400D01*
G01X683467Y1755900D02*
Y1758400D01*
X684133D01*
X684347Y1758275D01*
X684480Y1758108D01*
X684533Y1757775D01*
X684480Y1757442D01*
X684320Y1757233D01*
X684133Y1757108D01*
X683467D01*
G01X684133D02*
X684533Y1755900D01*
G01X685613Y1756275D02*
X685773Y1756067D01*
X685960Y1755942D01*
X686200Y1755900D01*
X686440Y1755983D01*
X686627Y1756150D01*
X686760Y1756442D01*
X686787Y1756775D01*
X686733Y1757108D01*
X686600Y1757317D01*
X686413Y1757483D01*
X686227Y1757525D01*
X686040Y1757483D01*
X685800Y1757317D01*
X685880Y1758400D01*
X686600D01*
G01X688720Y1755900D02*
Y1758400D01*
X687733Y1756608D01*
X689067D01*
G01X683067Y1746500D02*
Y1749000D01*
X683733D01*
X683947Y1748875D01*
X684080Y1748708D01*
X684133Y1748375D01*
X684080Y1748042D01*
X683920Y1747833D01*
X683733Y1747708D01*
X683067D01*
G01X683733D02*
X684133Y1746500D01*
G01X685213Y1746875D02*
X685373Y1746667D01*
X685560Y1746542D01*
X685800Y1746500D01*
X686040Y1746583D01*
X686227Y1746750D01*
X686360Y1747042D01*
X686387Y1747375D01*
X686333Y1747708D01*
X686200Y1747917D01*
X686013Y1748083D01*
X685827Y1748125D01*
X685640Y1748083D01*
X685400Y1747917D01*
X685480Y1749000D01*
X686200D01*
G01X687413Y1747000D02*
X687573Y1746708D01*
X687787Y1746542D01*
X688027Y1746500D01*
X688240Y1746542D01*
X688453Y1746750D01*
X688587Y1747000D01*
X688613Y1747250D01*
X688560Y1747542D01*
X688373Y1747750D01*
X688187Y1747833D01*
X687947D01*
G01X688187D02*
X688347Y1747958D01*
X688480Y1748167D01*
X688533Y1748417D01*
X688480Y1748667D01*
X688347Y1748875D01*
X688107Y1749000D01*
X687867Y1748958D01*
X687627Y1748792D01*
G01X683167Y1776500D02*
Y1779000D01*
X683833D01*
X684047Y1778875D01*
X684180Y1778708D01*
X684233Y1778375D01*
X684180Y1778042D01*
X684020Y1777833D01*
X683833Y1777708D01*
X683167D01*
G01X683833D02*
X684233Y1776500D01*
G01X685313Y1776875D02*
X685473Y1776667D01*
X685660Y1776542D01*
X685900Y1776500D01*
X686140Y1776583D01*
X686327Y1776750D01*
X686460Y1777042D01*
X686487Y1777375D01*
X686433Y1777708D01*
X686300Y1777917D01*
X686113Y1778083D01*
X685927Y1778125D01*
X685740Y1778083D01*
X685500Y1777917D01*
X685580Y1779000D01*
X686300D01*
G01X687593Y1777542D02*
X687780Y1777833D01*
X687940Y1778000D01*
X688153Y1778083D01*
X688340Y1778000D01*
X688473Y1777833D01*
X688580Y1777583D01*
X688607Y1777292D01*
X688580Y1777042D01*
X688473Y1776792D01*
X688313Y1776583D01*
X688127Y1776500D01*
X687913Y1776583D01*
X687727Y1776833D01*
X687620Y1777208D01*
X687593Y1777625D01*
X687647Y1778167D01*
X687727Y1778458D01*
X687860Y1778750D01*
X688047Y1778958D01*
X688233Y1779000D01*
X688420Y1778917D01*
X688553Y1778708D01*
G01X700600Y1620507D02*
X704183D01*
X704933Y1620760D01*
X705433Y1621267D01*
X705600Y1621900D01*
X705433Y1622533D01*
X704933Y1623040D01*
X704183Y1623293D01*
X700600D01*
G01X705600Y1627000D02*
X700600D01*
X701600Y1626240D01*
G01X705600D02*
Y1627760D01*
G01Y1632100D02*
X700600D01*
X701600Y1631340D01*
G01X705600D02*
Y1632860D01*
G01X708187Y1678492D02*
X708027Y1678617D01*
X707840Y1678700D01*
X707627D01*
X707387Y1678575D01*
X707200Y1678367D01*
X707067Y1678117D01*
X706960Y1677700D01*
X706933Y1677325D01*
X706987Y1676950D01*
X707067Y1676700D01*
X707227Y1676450D01*
X707413Y1676283D01*
X707600Y1676200D01*
X707787D01*
X707973Y1676283D01*
X708133Y1676408D01*
X708267Y1676575D01*
G01X710120Y1676200D02*
Y1678700D01*
X709133Y1676908D01*
X710467D01*
G01X711413Y1676575D02*
X711573Y1676367D01*
X711760Y1676242D01*
X712000Y1676200D01*
X712240Y1676283D01*
X712427Y1676450D01*
X712560Y1676742D01*
X712587Y1677075D01*
X712533Y1677408D01*
X712400Y1677617D01*
X712213Y1677783D01*
X712027Y1677825D01*
X711840Y1677783D01*
X711600Y1677617D01*
X711680Y1678700D01*
X712400D01*
G01X708067Y1694800D02*
Y1697300D01*
X708733D01*
X708947Y1697175D01*
X709080Y1697008D01*
X709133Y1696675D01*
X709080Y1696342D01*
X708920Y1696133D01*
X708733Y1696008D01*
X708067D01*
G01X708733D02*
X709133Y1694800D01*
G01X711120D02*
Y1697300D01*
X710133Y1695508D01*
X711467D01*
G01X711533Y1684800D02*
Y1682300D01*
X710867D01*
X710653Y1682425D01*
X710520Y1682592D01*
X710467Y1682925D01*
X710520Y1683258D01*
X710680Y1683467D01*
X710867Y1683592D01*
X711533D01*
G01X710867D02*
X710467Y1684800D01*
G01X709387Y1684300D02*
X709227Y1684592D01*
X709013Y1684758D01*
X708773Y1684800D01*
X708560Y1684758D01*
X708347Y1684550D01*
X708213Y1684300D01*
X708187Y1684050D01*
X708240Y1683758D01*
X708427Y1683550D01*
X708613Y1683467D01*
X708853D01*
G01X708613D02*
X708453Y1683342D01*
X708320Y1683133D01*
X708267Y1682883D01*
X708320Y1682633D01*
X708453Y1682425D01*
X708693Y1682300D01*
X708933Y1682342D01*
X709173Y1682508D01*
G01X707367Y1706300D02*
Y1708800D01*
X708033D01*
X708247Y1708675D01*
X708380Y1708508D01*
X708433Y1708175D01*
X708380Y1707842D01*
X708220Y1707633D01*
X708033Y1707508D01*
X707367D01*
G01X708033D02*
X708433Y1706300D01*
G01X710633D02*
X709567D01*
Y1708800D01*
X710633D01*
G01X710207Y1707592D02*
X709567D01*
G01X711687Y1706300D02*
Y1708800D01*
X712913Y1706300D01*
Y1708800D01*
G01X714500D02*
Y1706300D01*
G01X713887Y1708800D02*
X715113D01*
G01X710113Y1700308D02*
X710273Y1700183D01*
X710460Y1700100D01*
X710673D01*
X710913Y1700225D01*
X711100Y1700433D01*
X711233Y1700683D01*
X711340Y1701100D01*
X711367Y1701475D01*
X711313Y1701850D01*
X711233Y1702100D01*
X711073Y1702350D01*
X710887Y1702517D01*
X710700Y1702600D01*
X710513D01*
X710327Y1702517D01*
X710167Y1702392D01*
X710033Y1702225D01*
G01X709007Y1700517D02*
X708847Y1700267D01*
X708660Y1700142D01*
X708447Y1700100D01*
X708180Y1700183D01*
X707993Y1700392D01*
X707940Y1700642D01*
X707967Y1700892D01*
X708073Y1701100D01*
X708607Y1701517D01*
X708847Y1701808D01*
X709007Y1702225D01*
X709060Y1702600D01*
X707940D01*
G01X709187Y1691092D02*
X709027Y1691217D01*
X708840Y1691300D01*
X708627D01*
X708387Y1691175D01*
X708200Y1690967D01*
X708067Y1690717D01*
X707960Y1690300D01*
X707933Y1689925D01*
X707987Y1689550D01*
X708067Y1689300D01*
X708227Y1689050D01*
X708413Y1688883D01*
X708600Y1688800D01*
X708787D01*
X708973Y1688883D01*
X709133Y1689008D01*
X709267Y1689175D01*
G01X711120Y1688800D02*
Y1691300D01*
X710133Y1689508D01*
X711467D01*
G01X691300Y1741200D02*
Y1731200D01*
X711300D01*
Y1741200D01*
X691300D01*
G01X710733Y1720300D02*
Y1717800D01*
X710067D01*
X709853Y1717925D01*
X709720Y1718092D01*
X709667Y1718425D01*
X709720Y1718758D01*
X709880Y1718967D01*
X710067Y1719092D01*
X710733D01*
G01X710067D02*
X709667Y1720300D01*
G01X708507Y1718217D02*
X708347Y1717967D01*
X708160Y1717842D01*
X707947Y1717800D01*
X707680Y1717883D01*
X707493Y1718092D01*
X707440Y1718342D01*
X707467Y1718592D01*
X707573Y1718800D01*
X708107Y1719217D01*
X708347Y1719508D01*
X708507Y1719925D01*
X708560Y1720300D01*
X707440D01*
G01X714933Y1715000D02*
Y1712500D01*
X714267D01*
X714053Y1712625D01*
X713920Y1712792D01*
X713867Y1713125D01*
X713920Y1713458D01*
X714080Y1713667D01*
X714267Y1713792D01*
X714933D01*
G01X714267D02*
X713867Y1715000D01*
G01X711667D02*
X712733D01*
Y1712500D01*
X711667D01*
G01X712093Y1713708D02*
X712733D01*
G01X710613Y1715000D02*
Y1712500D01*
X709387Y1715000D01*
Y1712500D01*
G01X707587Y1713667D02*
X707480Y1713542D01*
X707400Y1713333D01*
X707347Y1713042D01*
X707400Y1712792D01*
X707507Y1712625D01*
X707693Y1712500D01*
X708413D01*
Y1715000D01*
X707533D01*
X707347Y1714833D01*
X707240Y1714583D01*
X707187Y1714292D01*
X707240Y1714000D01*
X707400Y1713750D01*
X707587Y1713667D01*
X708413D01*
G01X707067Y1724000D02*
Y1726500D01*
X707733D01*
X707947Y1726375D01*
X708080Y1726208D01*
X708133Y1725875D01*
X708080Y1725542D01*
X707920Y1725333D01*
X707733Y1725208D01*
X707067D01*
G01X707733D02*
X708133Y1724000D01*
G01X709213Y1724375D02*
X709373Y1724167D01*
X709560Y1724042D01*
X709800Y1724000D01*
X710040Y1724083D01*
X710227Y1724250D01*
X710360Y1724542D01*
X710387Y1724875D01*
X710333Y1725208D01*
X710200Y1725417D01*
X710013Y1725583D01*
X709827Y1725625D01*
X709640Y1725583D01*
X709400Y1725417D01*
X709480Y1726500D01*
X710200D01*
G01X711947Y1724000D02*
X712000Y1724542D01*
X712080Y1725000D01*
X712187Y1725417D01*
X712320Y1725875D01*
X712533Y1726500D01*
X711467D01*
G01X691300Y1772000D02*
Y1762000D01*
X711300D01*
Y1772000D01*
X691300D01*
G01Y1761700D02*
Y1751700D01*
X711300D01*
Y1761700D01*
X691300D01*
G01X691200Y1751400D02*
Y1741400D01*
X711200D01*
Y1751400D01*
X691200D01*
G01X718500Y1745767D02*
X716000D01*
Y1746433D01*
X716125Y1746647D01*
X716292Y1746780D01*
X716625Y1746833D01*
X716958Y1746780D01*
X717167Y1746620D01*
X717292Y1746433D01*
Y1745767D01*
G01Y1746433D02*
X718500Y1746833D01*
G01X718125Y1747913D02*
X718333Y1748073D01*
X718458Y1748260D01*
X718500Y1748500D01*
X718417Y1748740D01*
X718250Y1748927D01*
X717958Y1749060D01*
X717625Y1749087D01*
X717292Y1749033D01*
X717083Y1748900D01*
X716917Y1748713D01*
X716875Y1748527D01*
X716917Y1748340D01*
X717083Y1748100D01*
X716000Y1748180D01*
Y1748900D01*
G01X718500Y1750700D02*
X716000D01*
X716500Y1750380D01*
G01X718500D02*
Y1751020D01*
G01X713000Y1753000D02*
X723000D01*
Y1773000D01*
X713000D01*
Y1753000D01*
G01X691400Y1782400D02*
Y1772400D01*
X711400D01*
Y1782400D01*
X691400D01*
G01X747000Y1735800D02*
X746787Y1735842D01*
X746600Y1736008D01*
X746440Y1736258D01*
X746333Y1736550D01*
X746280Y1736883D01*
Y1737217D01*
X746333Y1737550D01*
X746440Y1737842D01*
X746600Y1738092D01*
X746787Y1738258D01*
X747000Y1738300D01*
X747213Y1738258D01*
X747400Y1738092D01*
X747560Y1737842D01*
X747667Y1737550D01*
X747720Y1737217D01*
Y1736883D01*
X747667Y1736550D01*
X747560Y1736258D01*
X747400Y1736008D01*
X747213Y1735842D01*
X747000Y1735800D01*
G01X747213Y1736467D02*
X747533Y1735800D01*
G01X748693Y1737883D02*
X748853Y1738133D01*
X749040Y1738258D01*
X749253Y1738300D01*
X749520Y1738217D01*
X749707Y1738008D01*
X749760Y1737758D01*
X749733Y1737508D01*
X749627Y1737300D01*
X749093Y1736883D01*
X748853Y1736592D01*
X748693Y1736175D01*
X748640Y1735800D01*
X749760D01*
G01X739300Y1745267D02*
X736800D01*
Y1745933D01*
X736925Y1746147D01*
X737092Y1746280D01*
X737425Y1746333D01*
X737758Y1746280D01*
X737967Y1746120D01*
X738092Y1745933D01*
Y1745267D01*
G01Y1745933D02*
X739300Y1746333D01*
G01Y1748320D02*
X736800D01*
X738592Y1747333D01*
Y1748667D01*
G01X739008Y1749747D02*
X739217Y1749933D01*
X739300Y1750147D01*
X739217Y1750360D01*
X738967Y1750547D01*
X738592Y1750680D01*
X738217Y1750733D01*
X737758D01*
X737383Y1750680D01*
X737050Y1750547D01*
X736883Y1750387D01*
X736800Y1750200D01*
X736883Y1749987D01*
X737050Y1749827D01*
X737300Y1749720D01*
X737633Y1749667D01*
X737925Y1749720D01*
X738217Y1749853D01*
X738383Y1750013D01*
X738425Y1750200D01*
X738342Y1750413D01*
X738133Y1750573D01*
X737758Y1750733D01*
G01X733800Y1753000D02*
X743800D01*
Y1773000D01*
X733800D01*
Y1753000D01*
G01X729600Y1745567D02*
X727100D01*
Y1746233D01*
X727225Y1746447D01*
X727392Y1746580D01*
X727725Y1746633D01*
X728058Y1746580D01*
X728267Y1746420D01*
X728392Y1746233D01*
Y1745567D01*
G01Y1746233D02*
X729600Y1746633D01*
G01X729225Y1747713D02*
X729433Y1747873D01*
X729558Y1748060D01*
X729600Y1748300D01*
X729517Y1748540D01*
X729350Y1748727D01*
X729058Y1748860D01*
X728725Y1748887D01*
X728392Y1748833D01*
X728183Y1748700D01*
X728017Y1748513D01*
X727975Y1748327D01*
X728017Y1748140D01*
X728183Y1747900D01*
X727100Y1747980D01*
Y1748700D01*
G01X727517Y1749993D02*
X727267Y1750153D01*
X727142Y1750340D01*
X727100Y1750553D01*
X727183Y1750820D01*
X727392Y1751007D01*
X727642Y1751060D01*
X727892Y1751033D01*
X728100Y1750927D01*
X728517Y1750393D01*
X728808Y1750153D01*
X729225Y1749993D01*
X729600Y1749940D01*
Y1751060D01*
G01X723400Y1753000D02*
X733400D01*
Y1773000D01*
X723400D01*
Y1753000D01*
G01X749800Y1744767D02*
X747300D01*
Y1745433D01*
X747425Y1745647D01*
X747592Y1745780D01*
X747925Y1745833D01*
X748258Y1745780D01*
X748467Y1745620D01*
X748592Y1745433D01*
Y1744767D01*
G01Y1745433D02*
X749800Y1745833D01*
G01X749425Y1746913D02*
X749633Y1747073D01*
X749758Y1747260D01*
X749800Y1747500D01*
X749717Y1747740D01*
X749550Y1747927D01*
X749258Y1748060D01*
X748925Y1748087D01*
X748592Y1748033D01*
X748383Y1747900D01*
X748217Y1747713D01*
X748175Y1747527D01*
X748217Y1747340D01*
X748383Y1747100D01*
X747300Y1747180D01*
Y1747900D01*
G01Y1749700D02*
X747383Y1749487D01*
X747592Y1749327D01*
X747842Y1749220D01*
X748175Y1749140D01*
X748550Y1749113D01*
X748925Y1749140D01*
X749258Y1749220D01*
X749508Y1749327D01*
X749717Y1749487D01*
X749800Y1749700D01*
X749717Y1749913D01*
X749508Y1750073D01*
X749258Y1750180D01*
X748925Y1750260D01*
X748550Y1750287D01*
X748175Y1750260D01*
X747842Y1750180D01*
X747592Y1750073D01*
X747383Y1749913D01*
X747300Y1749700D01*
G01X744100Y1753000D02*
X754100D01*
Y1773000D01*
X744100D01*
Y1753000D01*
G01X799050Y1677650D02*
Y1696950D01*
X779750D01*
Y1677650D01*
X799050D01*
G01X757367Y1706800D02*
Y1704300D01*
X758433D01*
G01X759593Y1706383D02*
X759753Y1706633D01*
X759940Y1706758D01*
X760153Y1706800D01*
X760420Y1706717D01*
X760607Y1706508D01*
X760660Y1706258D01*
X760633Y1706008D01*
X760527Y1705800D01*
X759993Y1705383D01*
X759753Y1705092D01*
X759593Y1704675D01*
X759540Y1704300D01*
X760660D01*
G01X761613Y1697308D02*
X761773Y1697183D01*
X761960Y1697100D01*
X762173D01*
X762413Y1697225D01*
X762600Y1697433D01*
X762733Y1697683D01*
X762840Y1698100D01*
X762867Y1698475D01*
X762813Y1698850D01*
X762733Y1699100D01*
X762573Y1699350D01*
X762387Y1699517D01*
X762200Y1699600D01*
X762013D01*
X761827Y1699517D01*
X761667Y1699392D01*
X761533Y1699225D01*
G01X760000Y1699600D02*
Y1697100D01*
X760320Y1697600D01*
G01Y1699600D02*
X759680D01*
G01X758307Y1697517D02*
X758147Y1697267D01*
X757960Y1697142D01*
X757747Y1697100D01*
X757480Y1697183D01*
X757293Y1697392D01*
X757240Y1697642D01*
X757267Y1697892D01*
X757373Y1698100D01*
X757907Y1698517D01*
X758147Y1698808D01*
X758307Y1699225D01*
X758360Y1699600D01*
X757240D01*
G01X760733Y1713700D02*
Y1711200D01*
X760067D01*
X759853Y1711325D01*
X759720Y1711492D01*
X759667Y1711825D01*
X759720Y1712158D01*
X759880Y1712367D01*
X760067Y1712492D01*
X760733D01*
G01X760067D02*
X759667Y1713700D01*
G01X758587Y1713325D02*
X758427Y1713533D01*
X758240Y1713658D01*
X758000Y1713700D01*
X757760Y1713617D01*
X757573Y1713450D01*
X757440Y1713158D01*
X757413Y1712825D01*
X757467Y1712492D01*
X757600Y1712283D01*
X757787Y1712117D01*
X757973Y1712075D01*
X758160Y1712117D01*
X758400Y1712283D01*
X758320Y1711200D01*
X757600D01*
G01X760213Y1725108D02*
X760373Y1724983D01*
X760560Y1724900D01*
X760773D01*
X761013Y1725025D01*
X761200Y1725233D01*
X761333Y1725483D01*
X761440Y1725900D01*
X761467Y1726275D01*
X761413Y1726650D01*
X761333Y1726900D01*
X761173Y1727150D01*
X760987Y1727317D01*
X760800Y1727400D01*
X760613D01*
X760427Y1727317D01*
X760267Y1727192D01*
X760133Y1727025D01*
G01X758280Y1727400D02*
Y1724900D01*
X759267Y1726692D01*
X757933D01*
G01X756400Y1727400D02*
Y1724900D01*
X756720Y1725400D01*
G01Y1727400D02*
X756080D01*
G01X774108Y1714887D02*
X773983Y1714727D01*
X773900Y1714540D01*
Y1714327D01*
X774025Y1714087D01*
X774233Y1713900D01*
X774483Y1713767D01*
X774900Y1713660D01*
X775275Y1713633D01*
X775650Y1713687D01*
X775900Y1713767D01*
X776150Y1713927D01*
X776317Y1714113D01*
X776400Y1714300D01*
Y1714487D01*
X776317Y1714673D01*
X776192Y1714833D01*
X776025Y1714967D01*
G01X776400Y1716500D02*
X773900D01*
X774400Y1716180D01*
G01X776400D02*
Y1716820D01*
G01X775900Y1718113D02*
X776192Y1718273D01*
X776358Y1718487D01*
X776400Y1718727D01*
X776358Y1718940D01*
X776150Y1719153D01*
X775900Y1719287D01*
X775650Y1719313D01*
X775358Y1719260D01*
X775150Y1719073D01*
X775067Y1718887D01*
Y1718647D01*
G01Y1718887D02*
X774942Y1719047D01*
X774733Y1719180D01*
X774483Y1719233D01*
X774233Y1719180D01*
X774025Y1719047D01*
X773900Y1718807D01*
X773942Y1718567D01*
X774108Y1718327D01*
G01X760413Y1719308D02*
X760573Y1719183D01*
X760760Y1719100D01*
X760973D01*
X761213Y1719225D01*
X761400Y1719433D01*
X761533Y1719683D01*
X761640Y1720100D01*
X761667Y1720475D01*
X761613Y1720850D01*
X761533Y1721100D01*
X761373Y1721350D01*
X761187Y1721517D01*
X761000Y1721600D01*
X760813D01*
X760627Y1721517D01*
X760467Y1721392D01*
X760333Y1721225D01*
G01X758480Y1721600D02*
Y1719100D01*
X759467Y1720892D01*
X758133D01*
G01X757107Y1719517D02*
X756947Y1719267D01*
X756760Y1719142D01*
X756547Y1719100D01*
X756280Y1719183D01*
X756093Y1719392D01*
X756040Y1719642D01*
X756067Y1719892D01*
X756173Y1720100D01*
X756707Y1720517D01*
X756947Y1720808D01*
X757107Y1721225D01*
X757160Y1721600D01*
X756040D01*
G01X773400Y1772100D02*
Y1732100D01*
X823400D01*
Y1772100D01*
X773400D01*
G01X756200Y1741400D02*
Y1746200D01*
X760900D01*
Y1741300D01*
X764500D01*
Y1733200D01*
X752500D01*
Y1741400D01*
X756200D01*
G01X768500Y1736013D02*
X766000D01*
Y1736547D01*
X766125Y1736760D01*
X766292Y1736920D01*
X766542Y1737053D01*
X766833Y1737160D01*
X767250Y1737187D01*
X767667Y1737160D01*
X767958Y1737053D01*
X768208Y1736920D01*
X768375Y1736760D01*
X768500Y1736547D01*
Y1736013D01*
G01Y1738800D02*
X766000D01*
X766500Y1738480D01*
G01X768500D02*
Y1739120D01*
G01X760300Y1745667D02*
X757800D01*
Y1746333D01*
X757925Y1746547D01*
X758092Y1746680D01*
X758425Y1746733D01*
X758758Y1746680D01*
X758967Y1746520D01*
X759092Y1746333D01*
Y1745667D01*
G01Y1746333D02*
X760300Y1746733D01*
G01X759925Y1747813D02*
X760133Y1747973D01*
X760258Y1748160D01*
X760300Y1748400D01*
X760217Y1748640D01*
X760050Y1748827D01*
X759758Y1748960D01*
X759425Y1748987D01*
X759092Y1748933D01*
X758883Y1748800D01*
X758717Y1748613D01*
X758675Y1748427D01*
X758717Y1748240D01*
X758883Y1748000D01*
X757800Y1748080D01*
Y1748800D01*
G01X760008Y1750147D02*
X760217Y1750333D01*
X760300Y1750547D01*
X760217Y1750760D01*
X759967Y1750947D01*
X759592Y1751080D01*
X759217Y1751133D01*
X758758D01*
X758383Y1751080D01*
X758050Y1750947D01*
X757883Y1750787D01*
X757800Y1750600D01*
X757883Y1750387D01*
X758050Y1750227D01*
X758300Y1750120D01*
X758633Y1750067D01*
X758925Y1750120D01*
X759217Y1750253D01*
X759383Y1750413D01*
X759425Y1750600D01*
X759342Y1750813D01*
X759133Y1750973D01*
X758758Y1751133D01*
G01X754200Y1753000D02*
X764200D01*
Y1773000D01*
X754200D01*
Y1753000D01*
G01X765200Y1741400D02*
X769400D01*
Y1757700D01*
X765200D01*
Y1741400D01*
G01X786513Y1628500D02*
Y1631000D01*
X787047D01*
X787260Y1630875D01*
X787420Y1630708D01*
X787553Y1630458D01*
X787660Y1630167D01*
X787687Y1629750D01*
X787660Y1629333D01*
X787553Y1629042D01*
X787420Y1628792D01*
X787260Y1628625D01*
X787047Y1628500D01*
X786513D01*
G01X788900Y1629625D02*
X789753D01*
X789673Y1629917D01*
X789540Y1630083D01*
X789353Y1630167D01*
X789167Y1630125D01*
X789007Y1630000D01*
X788900Y1629708D01*
X788847Y1629458D01*
Y1629208D01*
X788900Y1628958D01*
X789033Y1628708D01*
X789193Y1628542D01*
X789380Y1628500D01*
X789567Y1628583D01*
X789753Y1628833D01*
G01X791100Y1628792D02*
X791233Y1628625D01*
X791420Y1628500D01*
X791580D01*
X791740Y1628583D01*
X791847Y1628708D01*
X791900Y1628875D01*
X791873Y1629125D01*
X791767Y1629250D01*
X791287Y1629500D01*
X791180Y1629792D01*
X791233Y1630000D01*
X791340Y1630125D01*
X791500Y1630167D01*
X791660Y1630125D01*
X791820Y1630000D01*
G01X793700Y1630167D02*
Y1628500D01*
G01Y1630833D02*
X793647Y1630875D01*
Y1630958D01*
X793700Y1631000D01*
X793753Y1630958D01*
Y1630875D01*
X793700Y1630833D01*
G01X795527Y1627875D02*
X795713Y1627708D01*
X795927Y1627667D01*
X796113Y1627708D01*
X796273Y1627917D01*
X796380Y1628208D01*
Y1630167D01*
G01Y1629833D02*
X796273Y1630000D01*
X796113Y1630125D01*
X795927Y1630167D01*
X795713Y1630083D01*
X795580Y1629917D01*
X795473Y1629625D01*
X795420Y1629333D01*
X795447Y1629083D01*
X795553Y1628792D01*
X795713Y1628583D01*
X795927Y1628500D01*
X796087Y1628542D01*
X796273Y1628708D01*
X796380Y1628875D01*
G01X797647Y1628500D02*
Y1630167D01*
G01Y1629750D02*
X797753Y1629958D01*
X797913Y1630125D01*
X798127Y1630167D01*
X798313Y1630125D01*
X798473Y1629958D01*
X798553Y1629667D01*
Y1628500D01*
G01X800300Y1628417D02*
X800247Y1628458D01*
Y1628542D01*
X800300Y1628583D01*
X800353Y1628542D01*
Y1628458D01*
X800300Y1628417D01*
G01Y1629542D02*
X800247Y1629583D01*
Y1629667D01*
X800300Y1629708D01*
X800353Y1629667D01*
Y1629583D01*
X800300Y1629542D01*
G01X801807Y1628500D02*
Y1631000D01*
X802500Y1628917D01*
X803193Y1631000D01*
Y1628500D01*
G01X804087D02*
Y1631000D01*
X805313Y1628500D01*
Y1631000D01*
G01X806340Y1628833D02*
X806553Y1628625D01*
X806793Y1628500D01*
X807007D01*
X807220Y1628625D01*
X807380Y1628833D01*
X807460Y1629125D01*
X807407Y1629417D01*
X807273Y1629667D01*
X807033Y1629833D01*
X806713Y1629917D01*
X806527Y1630083D01*
X806447Y1630375D01*
X806500Y1630667D01*
X806633Y1630875D01*
X806820Y1631000D01*
X807007D01*
X807193Y1630917D01*
X807353Y1630708D01*
G01X786613Y1625733D02*
X786720Y1625858D01*
X786800Y1626067D01*
X786853Y1626358D01*
X786800Y1626608D01*
X786693Y1626775D01*
X786507Y1626900D01*
X785787D01*
Y1624400D01*
X786667D01*
X786853Y1624567D01*
X786960Y1624817D01*
X787013Y1625108D01*
X786960Y1625400D01*
X786800Y1625650D01*
X786613Y1625733D01*
X785787D01*
G01X788813D02*
X788920Y1625858D01*
X789000Y1626067D01*
X789053Y1626358D01*
X789000Y1626608D01*
X788893Y1626775D01*
X788707Y1626900D01*
X787987D01*
Y1624400D01*
X788867D01*
X789053Y1624567D01*
X789160Y1624817D01*
X789213Y1625108D01*
X789160Y1625400D01*
X789000Y1625650D01*
X788813Y1625733D01*
X787987D01*
G01X791013D02*
X791120Y1625858D01*
X791200Y1626067D01*
X791253Y1626358D01*
X791200Y1626608D01*
X791093Y1626775D01*
X790907Y1626900D01*
X790187D01*
Y1624400D01*
X791067D01*
X791253Y1624567D01*
X791360Y1624817D01*
X791413Y1625108D01*
X791360Y1625400D01*
X791200Y1625650D01*
X791013Y1625733D01*
X790187D01*
G01X792200Y1623567D02*
X793800D01*
G01X795787Y1626692D02*
X795627Y1626817D01*
X795440Y1626900D01*
X795227D01*
X794987Y1626775D01*
X794800Y1626567D01*
X794667Y1626317D01*
X794560Y1625900D01*
X794533Y1625525D01*
X794587Y1625150D01*
X794667Y1624900D01*
X794827Y1624650D01*
X795013Y1624483D01*
X795200Y1624400D01*
X795387D01*
X795573Y1624483D01*
X795733Y1624608D01*
X795867Y1624775D01*
G01X796733Y1624400D02*
X797400Y1626900D01*
X798067Y1624400D01*
G01X797827Y1625275D02*
X796973D01*
G01X799067Y1624400D02*
Y1626900D01*
X799707D01*
X799920Y1626775D01*
X800080Y1626483D01*
X800133Y1626150D01*
X800080Y1625817D01*
X799947Y1625567D01*
X799707Y1625442D01*
X799067D01*
G01X802333Y1624400D02*
X801267D01*
Y1626900D01*
X802333D01*
G01X801907Y1625692D02*
X801267D01*
G01X785840Y1621633D02*
X786053Y1621425D01*
X786293Y1621300D01*
X786507D01*
X786720Y1621425D01*
X786880Y1621633D01*
X786960Y1621925D01*
X786907Y1622217D01*
X786773Y1622467D01*
X786533Y1622633D01*
X786213Y1622717D01*
X786027Y1622883D01*
X785947Y1623175D01*
X786000Y1623467D01*
X786133Y1623675D01*
X786320Y1623800D01*
X786507D01*
X786693Y1623717D01*
X786853Y1623508D01*
G01X789133Y1621300D02*
X788067D01*
Y1623800D01*
X789133D01*
G01X788707Y1622592D02*
X788067D01*
G01X790320Y1620467D02*
Y1622967D01*
G01Y1622592D02*
X790453Y1622800D01*
X790587Y1622925D01*
X790800Y1622967D01*
X790987Y1622925D01*
X791173Y1622717D01*
X791253Y1622425D01*
X791280Y1622133D01*
X791253Y1621842D01*
X791173Y1621550D01*
X791013Y1621383D01*
X790800Y1621300D01*
X790613Y1621342D01*
X790427Y1621467D01*
X790320Y1621633D01*
G01X792947Y1620842D02*
X793053Y1621383D01*
G01X795200Y1621300D02*
Y1623800D01*
X794880Y1623300D01*
G01Y1621300D02*
X795520D01*
G01X797400D02*
Y1623800D01*
X797080Y1623300D01*
G01Y1621300D02*
X797720D01*
G01X799600Y1623800D02*
Y1621300D01*
G01X799227Y1622967D02*
X799973D01*
G01X801347Y1621300D02*
Y1623800D01*
G01Y1622592D02*
X801480Y1622800D01*
X801613Y1622925D01*
X801827Y1622967D01*
X801987Y1622925D01*
X802173Y1622758D01*
X802253Y1622508D01*
Y1621300D01*
G01X803947Y1620842D02*
X804053Y1621383D01*
G01X805693Y1623383D02*
X805853Y1623633D01*
X806040Y1623758D01*
X806253Y1623800D01*
X806520Y1623717D01*
X806707Y1623508D01*
X806760Y1623258D01*
X806733Y1623008D01*
X806627Y1622800D01*
X806093Y1622383D01*
X805853Y1622092D01*
X805693Y1621675D01*
X805640Y1621300D01*
X806760D01*
G01X808400Y1623800D02*
X808187Y1623717D01*
X808027Y1623508D01*
X807920Y1623258D01*
X807840Y1622925D01*
X807813Y1622550D01*
X807840Y1622175D01*
X807920Y1621842D01*
X808027Y1621592D01*
X808187Y1621383D01*
X808400Y1621300D01*
X808613Y1621383D01*
X808773Y1621592D01*
X808880Y1621842D01*
X808960Y1622175D01*
X808987Y1622550D01*
X808960Y1622925D01*
X808880Y1623258D01*
X808773Y1623508D01*
X808613Y1623717D01*
X808400Y1623800D01*
G01X810600Y1621300D02*
Y1623800D01*
X810280Y1623300D01*
G01Y1621300D02*
X810920D01*
G01X813120D02*
Y1623800D01*
X812133Y1622008D01*
X813467D01*
G01X792433Y1642800D02*
Y1640300D01*
X791767D01*
X791553Y1640425D01*
X791420Y1640592D01*
X791367Y1640925D01*
X791420Y1641258D01*
X791580Y1641467D01*
X791767Y1641592D01*
X792433D01*
G01X791767D02*
X791367Y1642800D01*
G01X789380D02*
Y1640300D01*
X790367Y1642092D01*
X789033D01*
G01X787180Y1642800D02*
Y1640300D01*
X788167Y1642092D01*
X786833D01*
G01X787887Y1649492D02*
X787727Y1649617D01*
X787540Y1649700D01*
X787327D01*
X787087Y1649575D01*
X786900Y1649367D01*
X786767Y1649117D01*
X786660Y1648700D01*
X786633Y1648325D01*
X786687Y1647950D01*
X786767Y1647700D01*
X786927Y1647450D01*
X787113Y1647283D01*
X787300Y1647200D01*
X787487D01*
X787673Y1647283D01*
X787833Y1647408D01*
X787967Y1647575D01*
G01X789820Y1647200D02*
Y1649700D01*
X788833Y1647908D01*
X790167D01*
G01X791700Y1649700D02*
X791487Y1649617D01*
X791327Y1649408D01*
X791220Y1649158D01*
X791140Y1648825D01*
X791113Y1648450D01*
X791140Y1648075D01*
X791220Y1647742D01*
X791327Y1647492D01*
X791487Y1647283D01*
X791700Y1647200D01*
X791913Y1647283D01*
X792073Y1647492D01*
X792180Y1647742D01*
X792260Y1648075D01*
X792287Y1648450D01*
X792260Y1648825D01*
X792180Y1649158D01*
X792073Y1649408D01*
X791913Y1649617D01*
X791700Y1649700D01*
G01X791313Y1653508D02*
X791473Y1653383D01*
X791660Y1653300D01*
X791873D01*
X792113Y1653425D01*
X792300Y1653633D01*
X792433Y1653883D01*
X792540Y1654300D01*
X792567Y1654675D01*
X792513Y1655050D01*
X792433Y1655300D01*
X792273Y1655550D01*
X792087Y1655717D01*
X791900Y1655800D01*
X791713D01*
X791527Y1655717D01*
X791367Y1655592D01*
X791233Y1655425D01*
G01X789700Y1655800D02*
Y1653300D01*
X790020Y1653800D01*
G01Y1655800D02*
X789380D01*
G01X787500D02*
Y1653300D01*
X787820Y1653800D01*
G01Y1655800D02*
X787180D01*
G01X786500Y1661907D02*
X790083D01*
X790833Y1662160D01*
X791333Y1662667D01*
X791500Y1663300D01*
X791333Y1663933D01*
X790833Y1664440D01*
X790083Y1664693D01*
X786500D01*
G01X791500Y1668273D02*
X790417Y1668400D01*
X789500Y1668590D01*
X788667Y1668843D01*
X787750Y1669160D01*
X786500Y1669667D01*
Y1667133D01*
G01X804400Y1715467D02*
X806900D01*
Y1716533D01*
G01Y1718200D02*
X804400D01*
X804900Y1717880D01*
G01X806900D02*
Y1718520D01*
G01X798492Y1718613D02*
X798617Y1718773D01*
X798700Y1718960D01*
Y1719173D01*
X798575Y1719413D01*
X798367Y1719600D01*
X798117Y1719733D01*
X797700Y1719840D01*
X797325Y1719867D01*
X796950Y1719813D01*
X796700Y1719733D01*
X796450Y1719573D01*
X796283Y1719387D01*
X796200Y1719200D01*
Y1719013D01*
X796283Y1718827D01*
X796408Y1718667D01*
X796575Y1718533D01*
G01X796200Y1717000D02*
X798700D01*
X798200Y1717320D01*
G01X796200D02*
Y1716680D01*
G01Y1714480D02*
X798700D01*
X796908Y1715467D01*
Y1714133D01*
G01X792500Y1731900D02*
Y1733025D01*
X791967Y1734400D01*
G01X793033D02*
X792500Y1733025D01*
G01X794700Y1731900D02*
Y1734400D01*
X794380Y1733900D01*
G01Y1731900D02*
X795020D01*
G01X803613Y1777100D02*
Y1775308D01*
X803720Y1774933D01*
X803933Y1774683D01*
X804200Y1774600D01*
X804467Y1774683D01*
X804680Y1774933D01*
X804787Y1775308D01*
Y1777100D01*
G01X806400Y1774600D02*
Y1777100D01*
X806080Y1776600D01*
G01Y1774600D02*
X806720D01*
G01X808920D02*
Y1777100D01*
X807933Y1775308D01*
X809267D01*
G01X847800Y1633700D02*
Y1658600D01*
Y1658700D01*
X847700D01*
X819900D01*
Y1633700D01*
X847800D01*
G01X833067Y1662400D02*
X833200Y1662150D01*
X833360Y1661983D01*
X833547Y1661900D01*
X833760Y1661983D01*
X833920Y1662150D01*
X834080Y1662400D01*
X834133Y1662733D01*
Y1664400D01*
G01X835293Y1663983D02*
X835453Y1664233D01*
X835640Y1664358D01*
X835853Y1664400D01*
X836120Y1664317D01*
X836307Y1664108D01*
X836360Y1663858D01*
X836333Y1663608D01*
X836227Y1663400D01*
X835693Y1662983D01*
X835453Y1662692D01*
X835293Y1662275D01*
X835240Y1661900D01*
X836360D01*
G01X813913Y1700500D02*
Y1698708D01*
X814020Y1698333D01*
X814233Y1698083D01*
X814500Y1698000D01*
X814767Y1698083D01*
X814980Y1698333D01*
X815087Y1698708D01*
Y1700500D01*
G01X816700Y1698000D02*
Y1700500D01*
X816380Y1700000D01*
G01Y1698000D02*
X817020D01*
G01X818313Y1698375D02*
X818473Y1698167D01*
X818660Y1698042D01*
X818900Y1698000D01*
X819140Y1698083D01*
X819327Y1698250D01*
X819460Y1698542D01*
X819487Y1698875D01*
X819433Y1699208D01*
X819300Y1699417D01*
X819113Y1699583D01*
X818927Y1699625D01*
X818740Y1699583D01*
X818500Y1699417D01*
X818580Y1700500D01*
X819300D01*
G01X812400Y1714700D02*
Y1704900D01*
X820800D01*
Y1714700D01*
X812400D01*
G01X854400Y1694900D02*
X831700D01*
Y1753000D01*
X854400D01*
Y1694900D01*
G01X811208Y1723987D02*
X811083Y1723827D01*
X811000Y1723640D01*
Y1723427D01*
X811125Y1723187D01*
X811333Y1723000D01*
X811583Y1722867D01*
X812000Y1722760D01*
X812375Y1722733D01*
X812750Y1722787D01*
X813000Y1722867D01*
X813250Y1723027D01*
X813417Y1723213D01*
X813500Y1723400D01*
Y1723587D01*
X813417Y1723773D01*
X813292Y1723933D01*
X813125Y1724067D01*
G01X813500Y1725920D02*
X811000D01*
X812792Y1724933D01*
Y1726267D01*
G01X812458Y1727293D02*
X812167Y1727480D01*
X812000Y1727640D01*
X811917Y1727853D01*
X812000Y1728040D01*
X812167Y1728173D01*
X812417Y1728280D01*
X812708Y1728307D01*
X812958Y1728280D01*
X813208Y1728173D01*
X813417Y1728013D01*
X813500Y1727827D01*
X813417Y1727613D01*
X813167Y1727427D01*
X812792Y1727320D01*
X812375Y1727293D01*
X811833Y1727347D01*
X811542Y1727427D01*
X811250Y1727560D01*
X811042Y1727747D01*
X811000Y1727933D01*
X811083Y1728120D01*
X811292Y1728253D01*
G01X831367Y1752900D02*
X831500Y1752650D01*
X831660Y1752483D01*
X831847Y1752400D01*
X832060Y1752483D01*
X832220Y1752650D01*
X832380Y1752900D01*
X832433Y1753233D01*
Y1754900D01*
G01X833513Y1752900D02*
X833673Y1752608D01*
X833887Y1752442D01*
X834127Y1752400D01*
X834340Y1752442D01*
X834553Y1752650D01*
X834687Y1752900D01*
X834713Y1753150D01*
X834660Y1753442D01*
X834473Y1753650D01*
X834287Y1753733D01*
X834047D01*
G01X834287D02*
X834447Y1753858D01*
X834580Y1754067D01*
X834633Y1754317D01*
X834580Y1754567D01*
X834447Y1754775D01*
X834207Y1754900D01*
X833967Y1754858D01*
X833727Y1754692D01*
G01X853700Y1759400D02*
Y1784300D01*
Y1784400D01*
X853600D01*
X825800D01*
Y1759400D01*
X853700D01*
G01X839000Y1745440D02*
X836500D01*
G01Y1746560D02*
X839000D01*
G01X837750D02*
Y1745440D01*
G01X839000Y1748200D02*
X836500D01*
X837000Y1747880D01*
G01X839000D02*
Y1748520D01*
G01X838500Y1749813D02*
X838792Y1749973D01*
X838958Y1750187D01*
X839000Y1750427D01*
X838958Y1750640D01*
X838750Y1750853D01*
X838500Y1750987D01*
X838250Y1751013D01*
X837958Y1750960D01*
X837750Y1750773D01*
X837667Y1750587D01*
Y1750347D01*
G01Y1750587D02*
X837542Y1750747D01*
X837333Y1750880D01*
X837083Y1750933D01*
X836833Y1750880D01*
X836625Y1750747D01*
X836500Y1750507D01*
X836542Y1750267D01*
X836708Y1750027D01*
G54D11*
G01X631950Y1687000D02*
Y1690300D01*
G01X636950Y1687000D02*
Y1690300D01*
G01X641950Y1687000D02*
Y1690300D01*
G01X646950Y1687000D02*
Y1690300D01*
G01X651950Y1687000D02*
Y1690300D01*
G01X656950Y1687000D02*
Y1690300D01*
G01X634850Y1687000D02*
Y1690300D01*
G01X639850Y1687000D02*
Y1690300D01*
G01X644850Y1687000D02*
Y1690300D01*
G01X649850Y1687000D02*
Y1690300D01*
G01X654850Y1687000D02*
Y1690300D01*
G01X659850Y1687000D02*
Y1690300D01*
G01X687950Y1648000D02*
G03X687971Y1650400I0J1200D01*
G01X687950Y1656360D02*
Y1642040D01*
G01X661950Y1687000D02*
Y1690300D01*
G01X664850Y1687000D02*
Y1690300D01*
G01X719050Y1642040D02*
Y1656360D01*
M02*
