G04 ================== begin FILE IDENTIFICATION RECORD ==================*
G04 Layout Name:  BBB_CAPE_PCB_AN.brd*
G04 Film Name:    SOLDERMASK_TOP*
G04 File Format:  Gerber RS274X*
G04 File Origin:  Cadence Allegro 16.6-P004*
G04 Origin Date:  Thu Sep 11 16:38:19 2014*
G04 *
G04 Layer:  VIA CLASS/SOLDERMASK_TOP*
G04 Layer:  PIN/SOLDERMASK_TOP*
G04 Layer:  PACKAGE GEOMETRY/SOLDERMASK_TOP*
G04 Layer:  BOARD GEOMETRY/SOLDERMASK_TOP*
G04 *
G04 Offset:    (0.00 0.00)*
G04 Mirror:    No*
G04 Mode:      Positive*
G04 Rotation:  0*
G04 FullContactRelief:  No*
G04 UndefLineWidth:     5.00*
G04 ================== end FILE IDENTIFICATION RECORD ====================*
%FSLAX25Y25*MOIN*%
%IR0*IPPOS*OFA0.00000B0.00000*MIA0B0*SFA1.00000B1.00000*%
%ADD27R,.105X.037*%
%ADD10C,.08*%
%ADD21C,.074*%
%ADD11R,.41X.406*%
%ADD20R,.024X.024*%
%ADD18R,.024X.024*%
%ADD28R,.021X.037*%
%ADD16R,.02X.066*%
%ADD14R,.202X.185*%
%ADD24R,.015X.055*%
%ADD23R,.035X.035*%
%ADD19R,.055X.015*%
%ADD26R,.045X.045*%
%ADD22R,.036X.045*%
%ADD25R,.075X.075*%
%ADD17R,.198X.128*%
%ADD13R,.029X.093*%
%AMMACRO15*
21,1,.202,.185,0.0,0.0,90.389*%
%ADD15MACRO15*%
%AMMACRO12*
21,1,.202,.185,0.0,0.0,89.79*%
%ADD12MACRO12*%
%LPD*%
G75*
G54D10*
X626300Y1610600D03*
X616300D03*
X626300Y1600600D03*
X616300D03*
X617700Y1676900D03*
Y1666900D03*
X626400Y1800500D03*
X616400D03*
X626400Y1790500D03*
X616400D03*
X656300Y1610600D03*
X646300D03*
X636300D03*
X656300Y1600600D03*
X646300D03*
X636300D03*
X656400Y1800500D03*
X646400D03*
X636400D03*
X656400Y1790500D03*
X646400D03*
X636400D03*
X686300Y1610600D03*
X676300D03*
X666300D03*
X686300Y1600600D03*
X676300D03*
X666300D03*
X677600Y1696300D03*
Y1706300D03*
X686400Y1800500D03*
X676400D03*
X666400D03*
X686400Y1790500D03*
X676400D03*
X666400D03*
X716300Y1610600D03*
X706300D03*
X696300D03*
X716300Y1600600D03*
X706300D03*
X696300D03*
X706300Y1736200D03*
X696300D03*
X706300Y1767000D03*
X696300D03*
X706300Y1756700D03*
X696300D03*
X706200Y1746400D03*
X696200D03*
X718000Y1768000D03*
Y1758000D03*
X706400Y1777400D03*
X696400D03*
X716400Y1800500D03*
X706400D03*
X696400D03*
X716400Y1790500D03*
X706400D03*
X696400D03*
X746300Y1610600D03*
X736300D03*
X726300D03*
X746300Y1600600D03*
X736300D03*
X726300D03*
X738800Y1768000D03*
Y1758000D03*
X728400Y1768000D03*
Y1758000D03*
X749100Y1768000D03*
Y1758000D03*
X746400Y1800500D03*
X736400D03*
X726400D03*
X746400Y1790500D03*
X736400D03*
X726400D03*
X776300Y1610600D03*
X766300D03*
X756300D03*
X776300Y1600600D03*
X766300D03*
X756300D03*
X759200Y1768000D03*
Y1758000D03*
X776400Y1800500D03*
X766400D03*
X756400D03*
X776400Y1790500D03*
X766400D03*
X756400D03*
X806300Y1610600D03*
X796300D03*
X786300D03*
X806300Y1600600D03*
X796300D03*
X786300D03*
X806400Y1800500D03*
X796400D03*
X786400D03*
X806400Y1790500D03*
X796400D03*
X786400D03*
X826300Y1610600D03*
X816300D03*
X826300Y1600600D03*
X816300D03*
X826400Y1800500D03*
X816400D03*
X826400Y1790500D03*
X816400D03*
G54D20*
X775500Y1726800D03*
Y1722600D03*
X806600Y1707500D03*
Y1711700D03*
X798000Y1723300D03*
Y1727500D03*
X816700Y1721700D03*
Y1717500D03*
G54D11*
X648400Y1664700D03*
G54D12*
X623600Y1768400D03*
G54D21*
X778400Y1737100D03*
Y1767100D03*
X808400Y1737100D03*
X798400D03*
X788400D03*
Y1767100D03*
X798400D03*
X808400D03*
X818400Y1737100D03*
Y1767100D03*
G54D13*
X633400Y1696350D03*
X638400D03*
X643400D03*
X648400D03*
X653400D03*
X658400D03*
X663400D03*
G54D22*
X762360Y1735862D03*
X754880D03*
X758620Y1743736D03*
G54D23*
X767300Y1755600D03*
Y1743600D03*
G54D14*
X668800Y1740200D03*
G54D15*
X646800Y1768200D03*
G54D24*
X797274Y1675150D03*
X795306D03*
X793337D03*
X791368D03*
X789400D03*
X787432D03*
X785463D03*
X783494D03*
X781526D03*
Y1699450D03*
X783494D03*
X785463D03*
X787432D03*
X789400D03*
X791368D03*
X793337D03*
X795306D03*
X797274D03*
G54D25*
X789400Y1687300D03*
G54D16*
X689425Y1638100D03*
Y1660300D03*
X717575Y1638100D03*
X715016D03*
X712457D03*
X709898D03*
X707339D03*
X704780D03*
X702220D03*
X699661D03*
X697102D03*
X694543D03*
X691984D03*
Y1660300D03*
X694543D03*
X697102D03*
X699661D03*
X702220D03*
X704780D03*
X707339D03*
X709898D03*
X712457D03*
X715016D03*
X717575D03*
G54D17*
X703500Y1649200D03*
G54D26*
X783600Y1727600D03*
X790400Y1722400D03*
Y1727600D03*
X783600Y1722400D03*
G54D18*
X703700Y1677300D03*
X699500D03*
X704100Y1696100D03*
X699900D03*
X699600Y1684400D03*
X703800D03*
X704400Y1708100D03*
X700200D03*
X700000Y1702400D03*
X704200D03*
X703900Y1690500D03*
X699700D03*
X700100Y1719900D03*
X704300D03*
X700100Y1714200D03*
X704300D03*
X704700Y1726000D03*
X700500D03*
X748200Y1705800D03*
X748300Y1698200D03*
X747900Y1713000D03*
X748100Y1726300D03*
Y1720300D03*
X752400Y1705800D03*
X752500Y1698200D03*
X752100Y1713000D03*
X752300Y1726300D03*
Y1720300D03*
X797600Y1641300D03*
X801800D03*
Y1647900D03*
X797600D03*
X797500Y1654800D03*
X801700D03*
G54D27*
X841900Y1636200D03*
X825900D03*
X841900Y1641200D03*
X825900D03*
X841900Y1646200D03*
X825900D03*
X841900Y1651200D03*
X825900D03*
X841900Y1656200D03*
X825900D03*
X831800Y1761900D03*
Y1766900D03*
Y1771900D03*
Y1776900D03*
Y1781900D03*
X847800Y1761900D03*
Y1766900D03*
Y1771900D03*
Y1776900D03*
Y1781900D03*
G54D19*
X777250Y1679426D03*
Y1681394D03*
Y1683363D03*
Y1685332D03*
Y1687300D03*
Y1689268D03*
Y1691237D03*
Y1693206D03*
Y1695174D03*
X801550Y1679426D03*
Y1695174D03*
Y1693206D03*
Y1691237D03*
Y1689268D03*
Y1687300D03*
Y1685332D03*
Y1683363D03*
Y1681394D03*
G54D28*
X819300Y1707100D03*
X816700D03*
X814100D03*
Y1712300D03*
X816700D03*
X819300D03*
M02*
