G04 ================== begin FILE IDENTIFICATION RECORD ==================*
G04 Layout Name:  ETDS_PCB_AN_V1_2.brd*
G04 Film Name:    VCC3V*
G04 File Format:  Gerber RS274X*
G04 File Origin:  Cadence Allegro 16.6-S034*
G04 Origin Date:  Mon Mar 16 22:09:46 2015*
G04 *
G04 Layer:  VIA CLASS/VCC3V*
G04 Layer:  PIN/VCC3V*
G04 Layer:  ETCH/VCC3V*
G04 *
G04 Offset:    (0.00 0.00)*
G04 Mirror:    No*
G04 Mode:      Positive*
G04 Rotation:  0*
G04 FullContactRelief:  No*
G04 UndefLineWidth:     5.00*
G04 ================== end FILE IDENTIFICATION RECORD ====================*
%FSLAX25Y25*MOIN*%
%IR0*IPPOS*OFA0.00000B0.00000*MIA0B0*SFA1.00000B1.00000*%
%ADD10C,.024*%
%ADD11C,.03404*%
G75*
%LPD*%
G75*
G36*
G01X749851Y1654901D02*
Y1663297D01*
G02X750565Y1663545I400J0D01*
G03Y1665655I1335J1055D01*
G02X749851Y1665903I-314J248D01*
G01Y1712699D01*
X839600D01*
Y1654901D01*
X818038D01*
G02X817802Y1655624I0J400D01*
G03X815798I-1002J1376D01*
G02X815562Y1654901I-236J-323D01*
G01X810238D01*
G02X810002Y1655624I0J400D01*
G03X807998I-1002J1376D01*
G02X807762Y1654901I-236J-323D01*
G01X749851D01*
G37*
%LPC*%
G75*
G36*
G01X834537Y1705771D02*
G03X833987Y1705723I-250J-312D01*
G02X833773Y1708177I-1277J1125D01*
G03X834323Y1708225I250J312D01*
G02X834537Y1705771I1277J-1125D01*
G37*
G36*
G01X781569Y1686866D02*
G03X781138Y1687241I-399J-24D01*
G02X782699Y1689039I-138J1696D01*
G03X783130Y1688664I399J24D01*
G02X781569Y1686866I138J-1696D01*
G37*
G36*
G01X831215Y1684435D02*
G02X829223Y1684318I-915J-1435D01*
G03X829185Y1684965I-253J310D01*
G02X831177Y1685082I915J1435D01*
G03X831215Y1684435I253J-310D01*
G37*
G54D11*
X753000Y1701000D03*
Y1705400D03*
Y1709600D03*
X757400Y1692800D03*
X764468Y1700932D03*
X782200Y1674973D03*
X787100Y1709600D03*
X783700Y1701800D03*
X795300Y1660100D03*
X800000Y1685000D03*
X788100Y1699400D03*
X797600Y1708600D03*
X818068Y1683032D03*
X808400Y1708700D03*
X829200Y1657400D03*
X829600Y1671600D03*
X826200Y1690300D03*
X829500Y1692300D03*
X822174Y1692874D03*
X824100Y1705800D03*
%LPD*%
G75*
G54D10*
X751900Y1664600D03*
X753000Y1701000D03*
Y1705400D03*
Y1709600D03*
X757400Y1672800D03*
X766934Y1694166D03*
X757400Y1692800D03*
X767027Y1709627D03*
X764468Y1700932D03*
X786250Y1672850D03*
X782200Y1674973D03*
X771900Y1696800D03*
X781000Y1688937D03*
X783268Y1686968D03*
X787100Y1709600D03*
X783700Y1701800D03*
X793000Y1657400D03*
X795300Y1660100D03*
X800000Y1685000D03*
X789813Y1711187D03*
X797600Y1708600D03*
X788100Y1699400D03*
X809000Y1657000D03*
X816800D03*
X810700Y1669400D03*
X818068Y1683032D03*
X805906Y1697150D03*
X808400Y1708700D03*
X829200Y1657400D03*
X830200Y1677000D03*
X829600Y1671600D03*
X830300Y1683000D03*
X832679Y1698721D03*
X826200Y1690300D03*
X822174Y1692874D03*
X830100Y1686400D03*
X829500Y1692300D03*
X823800Y1702900D03*
X824100Y1705800D03*
X832710Y1706848D03*
X836300Y1694300D03*
X839400Y1702900D03*
X835600D03*
Y1707100D03*
M02*
