G04 ================== begin FILE IDENTIFICATION RECORD ==================*
G04 Layout Name:  ETDS_PCB_AN_V1_2.brd*
G04 Film Name:    BOTTOM*
G04 File Format:  Gerber RS274X*
G04 File Origin:  Cadence Allegro 16.6-S034*
G04 Origin Date:  Mon Mar 16 22:09:46 2015*
G04 *
G04 Layer:  VIA CLASS/BOTTOM*
G04 Layer:  PIN/BOTTOM*
G04 Layer:  ETCH/BOTTOM*
G04 *
G04 Offset:    (0.00 0.00)*
G04 Mirror:    No*
G04 Mode:      Positive*
G04 Rotation:  0*
G04 FullContactRelief:  No*
G04 UndefLineWidth:     5.00*
G04 ================== end FILE IDENTIFICATION RECORD ====================*
%FSLAX25Y25*MOIN*%
%IR0*IPPOS*OFA0.00000B0.00000*MIA0B0*SFA1.00000B1.00000*%
%ADD11C,.016*%
%ADD25R,.03937X.138*%
%ADD13R,.0748X.0748*%
%ADD19R,.04X.012*%
%ADD14R,.05X.01*%
%ADD21R,.05X.05*%
%ADD23R,.0315X.04*%
%ADD16R,.016X.036*%
%ADD20R,.028X.028*%
%ADD18R,.019X.019*%
%ADD17R,.049X.025*%
%ADD12R,.019X.019*%
%ADD24R,.025X.01574*%
%ADD22R,.039X.039*%
%ADD15R,.01574X.05314*%
%ADD10R,.05709X.05118*%
%ADD26C,.01*%
%ADD27C,.005*%
%ADD28C,.008*%
%ADD30C,.02604*%
%ADD31R,.06712X.0612*%
%ADD29R,.02904X.02904*%
G75*
%LPD*%
G75*
G36*
G01X749851Y1654901D02*
Y1655790D01*
X755956D01*
Y1661910D01*
X749851D01*
Y1712699D01*
X788525D01*
G02X788827Y1712038I-1J-400D01*
G03X788512Y1711243I986J-851D01*
G01X788504Y1711052D01*
X785648D01*
Y1709233D01*
G02X784966Y1708951I-400J1D01*
G01X784873Y1709044D01*
X784273D01*
X783652Y1709665D01*
Y1711152D01*
X780748D01*
Y1711101D01*
G02X780407Y1710959I-200J0D01*
G01X780265Y1711102D01*
X778302D01*
Y1712002D01*
X774498D01*
Y1708198D01*
X778302D01*
Y1709098D01*
X779435D01*
X779835Y1708698D01*
X780748D01*
Y1708248D01*
X782235D01*
X783191Y1707293D01*
G02X783049Y1706952I-142J-141D01*
G01X782771D01*
G03X782100Y1707252I-672J-602D01*
G01X781477D01*
X781177Y1706952D01*
X780748D01*
Y1706523D01*
X779148Y1704922D01*
Y1704134D01*
G02X778465Y1703852I-400J1D01*
G01X778302Y1704015D01*
Y1706402D01*
X774498D01*
Y1702598D01*
X776885D01*
X776991Y1702493D01*
G02X776849Y1702152I-142J-141D01*
G01X774748D01*
Y1700333D01*
G02X774066Y1700051I-400J1D01*
G01X772115Y1702002D01*
X768329D01*
Y1703302D01*
X760607D01*
Y1702002D01*
X758652D01*
Y1702452D01*
X755748D01*
Y1699548D01*
X758652D01*
Y1699998D01*
X760607D01*
Y1698698D01*
X761339D01*
X762838Y1697198D01*
X766098D01*
X767597Y1698698D01*
X768329D01*
Y1699998D01*
X771285D01*
X774748Y1696535D01*
Y1695048D01*
X777652D01*
Y1695498D01*
X781098D01*
Y1695398D01*
X786102D01*
Y1695598D01*
X788154D01*
X788468Y1695284D01*
G02X788185Y1694602I-283J-282D01*
G01X777127D01*
X775624Y1693098D01*
X769952D01*
Y1695168D01*
X767766D01*
G03X766102I-832J-1002D01*
G01X763948D01*
Y1675444D01*
X769952D01*
Y1683420D01*
X780994D01*
X783239Y1685664D01*
X783317Y1685667D01*
G03X782802Y1688184I-49J1301D01*
G02X782269Y1688647I-143J373D01*
G03X782253Y1689290I-1269J290D01*
G02X782638Y1689798I385J108D01*
G01X820373D01*
X820590Y1690015D01*
G02X821272Y1689732I282J-283D01*
G01Y1689553D01*
X823368Y1687458D01*
X828530D01*
G02X828899Y1686903I0J-400D01*
G03X830145Y1685099I1201J-503D01*
G02X830441Y1684416I13J-400D01*
G01X830329Y1684304D01*
X830251Y1684301D01*
G03X831601Y1682951I49J-1301D01*
G01X831604Y1683029D01*
X832094Y1683520D01*
X833298D01*
Y1675544D01*
X837362D01*
G02X837644Y1674861I-1J-400D01*
G01X823785Y1661002D01*
X819252D01*
Y1665452D01*
X817702D01*
Y1668960D01*
X818816D01*
Y1673964D01*
X816151D01*
G02X816010Y1674305I0J200D01*
G01X816203Y1674498D01*
X820334D01*
X822144Y1672689D01*
Y1668960D01*
X826296D01*
Y1673964D01*
X823418D01*
X821080Y1676302D01*
X815457D01*
X811668Y1672513D01*
Y1671004D01*
G02X811135Y1670627I-400J0D01*
G03X810732Y1670702I-437J-1227D01*
G02X810414Y1671330I10J400D01*
G01Y1673888D01*
X810498Y1673972D01*
Y1675831D01*
X810414Y1675915D01*
Y1676340D01*
X811264D01*
Y1678434D01*
X818404D01*
Y1676834D01*
X822556D01*
Y1681838D01*
X819573D01*
G02X819219Y1682424I0J400D01*
G03X818117Y1684333I-1151J608D01*
G01X818039Y1684336D01*
X814673Y1687702D01*
X789127D01*
X779884Y1678458D01*
Y1676015D01*
X780896Y1675002D01*
X780899Y1674924D01*
G03X782249Y1676274I1301J49D01*
G01X782171Y1676277D01*
X781686Y1676761D01*
Y1677712D01*
X789873Y1685898D01*
X813927D01*
X816764Y1683061D01*
X816767Y1682983D01*
G03X816824Y1682648I1301J49D01*
G02X816442Y1682130I-382J-118D01*
G01X803637D01*
G03X803354Y1681448I0J-400D01*
G01X803576Y1681226D01*
G02X803434Y1680884I-141J-142D01*
G01X802642D01*
Y1680498D01*
X801754D01*
X801422Y1680830D01*
X798555D01*
X797423Y1679698D01*
X796752D01*
Y1682952D01*
X793848D01*
Y1680048D01*
X796652D01*
Y1679148D01*
X795023D01*
X794726Y1678852D01*
X793848D01*
Y1676452D01*
X793323D01*
X792552Y1677223D01*
Y1678852D01*
X789648D01*
Y1678690D01*
X789448Y1678490D01*
G03X789375Y1678477I-2J-200D01*
G01X789340Y1678463D01*
X789102D01*
Y1680377D01*
X789323Y1680598D01*
X789648D01*
Y1680048D01*
X792552D01*
Y1682952D01*
X789648D01*
Y1682402D01*
X788577D01*
X787298Y1681123D01*
Y1674424D01*
G02X786746Y1674054I-400J0D01*
G03Y1671646I-496J-1204D01*
G02X787298Y1671276I152J-370D01*
G01Y1666752D01*
X785248D01*
Y1665103D01*
G02X784566Y1664821I-400J1D01*
G01X779005Y1670382D01*
X772509D01*
Y1672539D01*
X759691D01*
Y1666221D01*
X772509D01*
Y1668378D01*
X778175D01*
X786599Y1659954D01*
G02X786317Y1659272I-283J-282D01*
G01X785248D01*
Y1655768D01*
X791152D01*
Y1659272D01*
X789942D01*
G02X789659Y1659954I0J400D01*
G01X794252Y1664547D01*
Y1664691D01*
G02X794593Y1664832I200J0D01*
G01X795327Y1664098D01*
X795548D01*
Y1655768D01*
X801452D01*
Y1656518D01*
X802565D01*
X805045Y1658998D01*
X806548D01*
Y1654901D01*
X775022D01*
Y1663092D01*
X766538D01*
Y1654901D01*
X765662D01*
Y1663092D01*
X757178D01*
Y1654901D01*
X749851D01*
G37*
G36*
G01X777652Y1697502D02*
Y1697952D01*
X776165D01*
X775551Y1698566D01*
G02X775833Y1699248I283J282D01*
G01X777652D01*
Y1700867D01*
G02X778334Y1701149I400J-1D01*
G01X781098Y1698385D01*
Y1697502D01*
X777652D01*
G37*
G36*
G01X801452Y1658522D02*
Y1666752D01*
X799402D01*
Y1667706D01*
X802066Y1670370D01*
G02X802748Y1670087I282J-283D01*
G01Y1669148D01*
X803298D01*
Y1664277D01*
X805477Y1662098D01*
X806548D01*
Y1661002D01*
X804215D01*
X801735Y1658522D01*
X801452D01*
G37*
G36*
G01X794902Y1695902D02*
Y1698098D01*
X795235D01*
X796335Y1696998D01*
X797448D01*
Y1696548D01*
X800352D01*
Y1699452D01*
X799902D01*
Y1700048D01*
X800352D01*
Y1702598D01*
X801648D01*
Y1700048D01*
X804552D01*
Y1701367D01*
G02X805234Y1701649I400J-1D01*
G01X807098Y1699785D01*
Y1698656D01*
G02X806512Y1698302I-400J0D01*
G03X805176Y1698228I-606J-1152D01*
G02X804552Y1698559I-224J331D01*
G01Y1699452D01*
X801648D01*
Y1696548D01*
X802198D01*
Y1696223D01*
X801877Y1695902D01*
X794902D01*
G37*
G36*
G01X797002Y1704602D02*
Y1710202D01*
X791411D01*
G02X791036Y1710739I0J400D01*
G03X790799Y1712038I-1223J448D01*
G02X791101Y1712699I303J261D01*
G01X813534D01*
G02X813817Y1712016I0J-400D01*
G01X813402Y1711602D01*
X809878D01*
Y1707902D01*
X808069D01*
X807769Y1708202D01*
X807502D01*
Y1710202D01*
X801498D01*
Y1704602D01*
X797002D01*
G37*
G36*
G01X789065Y1702702D02*
X788102Y1703665D01*
Y1703948D01*
X788552D01*
Y1706852D01*
X787065D01*
X786451Y1707466D01*
G02X786733Y1708148I283J282D01*
G01X788552D01*
Y1709719D01*
G02X789154Y1710064I400J0D01*
G03X790414Y1710032I659J1123D01*
G02X790998Y1709677I184J-355D01*
G01Y1704198D01*
X793917D01*
G02X794199Y1703516I-1J-400D01*
G01X793485Y1702802D01*
X789898D01*
Y1702702D01*
X789065D01*
G37*
G36*
G01X811452Y1654901D02*
Y1658998D01*
X814348D01*
Y1654901D01*
X811452D01*
G37*
G36*
G01X819252D02*
Y1658998D01*
X824615D01*
X838917Y1673301D01*
G02X839600Y1673018I283J-283D01*
G01Y1654901D01*
X819252D01*
G37*
%LPC*%
G75*
G36*
G01X763210Y1711902D02*
Y1707298D01*
X760608D01*
Y1708598D01*
X758652D01*
Y1708148D01*
X755748D01*
Y1711052D01*
X758652D01*
Y1710602D01*
X760608D01*
Y1711902D01*
X763210D01*
G37*
G36*
G01X758652Y1704398D02*
Y1703948D01*
X755748D01*
Y1706852D01*
X758652D01*
Y1706402D01*
X763412D01*
X765726Y1708715D01*
Y1711902D01*
X768328D01*
Y1707298D01*
X767142D01*
X764242Y1704398D01*
X758652D01*
G37*
G54D30*
X757400Y1672800D03*
X771900Y1696800D03*
X793000Y1657400D03*
X830200Y1677000D03*
G54D31*
X779600Y1658850D03*
G54D29*
X753000Y1705400D03*
Y1709600D03*
Y1701000D03*
%LPD*%
G75*
G54D10*
X752600Y1658850D03*
X779600D03*
G54D20*
X776400Y1710100D03*
Y1704500D03*
G54D11*
X751900Y1664600D03*
X753000Y1701000D03*
Y1705400D03*
Y1709600D03*
X757400Y1672800D03*
X766934Y1694166D03*
X757400Y1692800D03*
X767027Y1709627D03*
X764468Y1700932D03*
X786250Y1672850D03*
X782200Y1674973D03*
X771900Y1696800D03*
X781000Y1688937D03*
X783268Y1686968D03*
X787100Y1709600D03*
X783700Y1701800D03*
X793000Y1657400D03*
X795300Y1660100D03*
X800000Y1685000D03*
X789813Y1711187D03*
X797600Y1708600D03*
X788100Y1699400D03*
X809000Y1657000D03*
X816800D03*
X810700Y1669400D03*
X818068Y1683032D03*
X805906Y1697150D03*
X808400Y1708700D03*
X829200Y1657400D03*
X830200Y1677000D03*
X829600Y1671600D03*
X830300Y1683000D03*
X832679Y1698721D03*
X826200Y1690300D03*
X822174Y1692874D03*
X830100Y1686400D03*
X829500Y1692300D03*
X823800Y1702900D03*
X824100Y1705800D03*
X832710Y1706848D03*
X836300Y1694300D03*
X839400Y1702900D03*
X835600D03*
Y1707100D03*
G54D12*
X753000Y1701000D03*
Y1709600D03*
Y1705400D03*
X757200Y1701000D03*
Y1709600D03*
Y1705400D03*
X795300Y1681500D03*
X791100D03*
Y1669400D03*
X795300D03*
Y1673500D03*
X791100D03*
X795300Y1677400D03*
X791100D03*
X798900Y1698000D03*
Y1701500D03*
X808400Y1670600D03*
X804200D03*
X803100Y1698000D03*
Y1701500D03*
G54D21*
X794000Y1707200D03*
X804500D03*
G54D22*
X816800Y1657000D03*
Y1663000D03*
X809000Y1657000D03*
Y1663000D03*
G54D13*
X770780Y1658850D03*
X761420D03*
G54D23*
X816740Y1671462D03*
X820480Y1679336D03*
X824220Y1671462D03*
G54D14*
X766950Y1676445D03*
Y1678414D03*
Y1680383D03*
Y1682352D03*
Y1684321D03*
Y1686290D03*
Y1688259D03*
Y1690228D03*
Y1692197D03*
Y1694166D03*
X836300Y1676545D03*
Y1678514D03*
Y1680483D03*
Y1682452D03*
Y1684421D03*
Y1686390D03*
Y1688359D03*
Y1690328D03*
Y1692297D03*
Y1694266D03*
G54D15*
X771220Y1669380D03*
X760980D03*
X768650D03*
X763540D03*
X766100D03*
G54D24*
X809512Y1677628D03*
X804394Y1679596D03*
Y1675660D03*
G54D16*
X767027Y1709600D03*
X761909D03*
Y1701000D03*
X764468D03*
X767027D03*
G54D25*
X812348Y1704200D03*
X828096D03*
X820222D03*
G54D26*
G01X761909Y1701000D02*
Y1699544D01*
X763253Y1698200D01*
X765683D01*
X767027Y1699544D01*
Y1701000D01*
G01X757200Y1705400D02*
X763827D01*
X767027Y1708600D01*
Y1709600D01*
G01X757200D02*
X761909D01*
G01X767027Y1701000D02*
X771700D01*
X776200Y1696500D01*
G01X757200Y1701000D02*
X761909D01*
G01X788200Y1659770D02*
X778590Y1669380D01*
X771220D01*
G01X783600Y1696500D02*
X776200D01*
G01X776400Y1710100D02*
X779850D01*
X780250Y1709700D01*
X782200D01*
G01D02*
X783858Y1708042D01*
X784458D01*
X787100Y1705400D01*
G01X776400Y1704500D02*
X781800Y1699100D01*
X783600D01*
G01X788200Y1657520D02*
Y1659770D01*
G01X798500Y1657520D02*
X802150D01*
X804630Y1660000D01*
X824200D01*
X841900Y1677700D01*
Y1705100D01*
X834800Y1712200D01*
X815417D01*
X812348Y1709131D01*
Y1704200D01*
G01X798900Y1698000D02*
Y1701500D01*
G01X792400Y1699100D02*
X795650D01*
X796750Y1698000D01*
X798900D01*
G01X820222Y1704200D02*
X817054D01*
X816200Y1703346D01*
Y1697768D01*
X813932Y1695500D01*
X809800D01*
X808100Y1697200D01*
Y1700200D01*
X804700Y1703600D01*
X795700D01*
X793800Y1701700D01*
X792400D01*
G01X787100Y1705400D02*
Y1703250D01*
X788650Y1701700D01*
X792400D01*
G01X804500Y1707200D02*
X807354D01*
X807654Y1706900D01*
X809648D01*
X812348Y1704200D01*
G54D17*
X788200Y1665000D03*
Y1657520D03*
X798500D03*
Y1661260D03*
Y1665000D03*
G54D27*
G01X753000Y1699348D02*
Y1701000D01*
G01D02*
Y1702652D01*
G01X751348Y1701000D02*
X753000D01*
G01D02*
X754652D01*
G01X753000Y1707948D02*
Y1709600D01*
G01D02*
Y1711252D01*
G01X751348Y1709600D02*
X753000D01*
G01D02*
X754652D01*
G01X753000Y1703748D02*
Y1705400D01*
G01D02*
Y1707052D01*
G01X751348Y1705400D02*
X753000D01*
G01D02*
X754652D01*
G01X760980Y1666021D02*
Y1669380D01*
G01X766950Y1675243D02*
Y1676445D01*
G01X763748D02*
X766950D01*
G01D02*
X770152D01*
G01X760980Y1669380D02*
Y1672739D01*
G01X759491Y1669380D02*
X760980D01*
G01X776200Y1699048D02*
Y1700700D01*
G01X774548D02*
X776200D01*
G01D02*
X777852D01*
G01X785448Y1709600D02*
X787100D01*
G01X795348Y1661260D02*
X798500D01*
G01D02*
X801652D01*
G01X795300Y1681500D02*
Y1683152D01*
G01X793648Y1681500D02*
X795300D01*
G01D02*
X796952D01*
G01X797439Y1696500D02*
X792400D01*
G01X801448Y1701500D02*
X803100D01*
G01X794000Y1703998D02*
Y1707200D01*
G01D02*
Y1710402D01*
G01X790798Y1707200D02*
X794000D01*
G01D02*
X797202D01*
G01X787100Y1707948D02*
Y1709600D01*
G01D02*
Y1711252D01*
G01Y1709600D02*
X788752D01*
G01X814148Y1657000D02*
X816800D01*
G01D02*
X819452D01*
G01X806348D02*
X809000D01*
G01D02*
X811652D01*
G01X803100Y1699848D02*
Y1701500D01*
G01D02*
X804752D01*
G01X833098Y1676545D02*
X836300D01*
G01Y1675343D02*
Y1676545D01*
G54D18*
X776200Y1696500D03*
X782200Y1709700D03*
Y1705500D03*
X776200Y1700700D03*
X787100Y1709600D03*
Y1705400D03*
G54D28*
G01X766950Y1694166D02*
X766934D01*
G01X826200Y1690300D02*
Y1692000D01*
X823626Y1694574D01*
X821274D01*
X818900Y1692200D01*
X778800D01*
X776828Y1690228D01*
X766950D01*
G01X781000Y1688937D02*
X778353Y1686290D01*
X766950D01*
G01X822174Y1692874D02*
X820000Y1690700D01*
X779500D01*
X777059Y1688259D01*
X766950D01*
G01Y1692197D02*
X775997D01*
X777500Y1693700D01*
X817800D01*
X819974Y1695874D01*
X825926D01*
X829500Y1692300D01*
G01X783268Y1686968D02*
X780621Y1684321D01*
X766950D01*
G01X767027Y1709600D02*
Y1709627D01*
G01X764468Y1701000D02*
Y1700932D01*
G01X818068Y1683032D02*
X814300Y1686800D01*
X789500D01*
X780785Y1678085D01*
Y1676388D01*
X782200Y1674973D01*
G01X803100Y1698000D02*
Y1695850D01*
X802250Y1695000D01*
X790027D01*
X788527Y1696500D01*
X783600D01*
G01X782200Y1705500D02*
Y1706250D01*
X782100Y1706350D01*
X781850D01*
X780049Y1704549D01*
Y1703851D01*
X782200Y1701700D01*
X783600D01*
G01X788200Y1659770D02*
X793350Y1664920D01*
Y1665300D01*
X791100Y1667550D01*
Y1669400D01*
G01X798500Y1665000D02*
Y1668079D01*
X803551Y1673130D01*
X805799D01*
X805899Y1673230D01*
Y1673579D01*
X804394D01*
G01X795300Y1673500D02*
X793200Y1671400D01*
Y1667500D01*
X795700Y1665000D01*
X798500D01*
G01X788200D02*
Y1680750D01*
X788950Y1681500D01*
X791100D01*
G01Y1677400D02*
X792950Y1675550D01*
X797898D01*
X801944Y1679596D01*
X804394D01*
G01X791100Y1673500D02*
Y1677400D01*
G01Y1669400D02*
Y1673500D01*
G01X795300Y1681500D02*
Y1677400D01*
G01X820480Y1679336D02*
X807910D01*
X806274Y1677700D01*
X803124D01*
X802244Y1676820D01*
Y1674444D01*
X797200Y1669400D01*
X795300D01*
G01X788100Y1699400D02*
X791000Y1696500D01*
X792400D01*
G01X816800Y1663000D02*
Y1668502D01*
X816740Y1668562D01*
Y1671462D01*
G01X809000Y1663000D02*
X805850D01*
X804200Y1664650D01*
Y1670600D01*
G01X808400D02*
X809512Y1671712D01*
Y1677628D01*
G01X824220Y1671462D02*
Y1671887D01*
X820707Y1675400D01*
X815830D01*
X812570Y1672140D01*
Y1668270D01*
X811100Y1666800D01*
X808500D01*
X806300Y1669000D01*
Y1671673D01*
X804394Y1673579D01*
G01D02*
Y1675660D01*
G01X826200Y1690300D02*
X826228Y1690328D01*
X836300D01*
G01X822174Y1692874D02*
Y1689926D01*
X823741Y1688359D01*
X836300D01*
G01X830100Y1686400D02*
X830110Y1686390D01*
X836300D01*
G01X829500Y1692300D02*
X829503Y1692297D01*
X836300D01*
G01X830300Y1683000D02*
X831721Y1684421D01*
X836300D01*
G01X832710Y1706848D02*
Y1702129D01*
X839700Y1695139D01*
Y1691424D01*
X838604Y1690328D01*
X836300D01*
G01Y1694266D02*
Y1694300D01*
G54D19*
X783600Y1696500D03*
Y1701700D03*
Y1699100D03*
X792400Y1696500D03*
Y1699100D03*
Y1701700D03*
M02*
