G04 ================== begin FILE IDENTIFICATION RECORD ==================*
G04 Layout Name:  ETDS_PCB_AN_V1_2.brd*
G04 Film Name:    SOLDERMASK_BOTTOM*
G04 File Format:  Gerber RS274X*
G04 File Origin:  Cadence Allegro 16.6-S034*
G04 Origin Date:  Mon Mar 16 22:09:46 2015*
G04 *
G04 Layer:  VIA CLASS/SOLDERMASK_BOTTOM*
G04 Layer:  PIN/SOLDERMASK_BOTTOM*
G04 Layer:  PACKAGE GEOMETRY/SOLDERMASK_BOTTOM*
G04 Layer:  BOARD GEOMETRY/SOLDERMASK_BOTTOM*
G04 *
G04 Offset:    (0.00 0.00)*
G04 Mirror:    No*
G04 Mode:      Positive*
G04 Rotation:  0*
G04 FullContactRelief:  No*
G04 UndefLineWidth:     5.00*
G04 ================== end FILE IDENTIFICATION RECORD ====================*
%FSLAX25Y25*MOIN*%
%IR0*IPPOS*OFA0.00000B0.00000*MIA0B0*SFA1.00000B1.00000*%
%ADD24R,.045X.143*%
%ADD12R,.08X.08*%
%ADD23R,.03X.02*%
%ADD15R,.021X.041*%
%ADD19R,.033X.033*%
%ADD17R,.024X.024*%
%ADD16R,.054X.03*%
%ADD11R,.024X.024*%
%ADD14R,.02X.058*%
%ADD21R,.044X.044*%
%ADD18R,.045X.017*%
%ADD13R,.055X.015*%
%ADD22R,.036X.045*%
%ADD10R,.062X.056*%
%ADD20R,.055X.055*%
%LPD*%
G75*
G54D10*
X752600Y1658850D03*
X779600D03*
G54D20*
X794000Y1707200D03*
X804500D03*
G54D11*
X753000Y1701000D03*
Y1709600D03*
Y1705400D03*
X757200Y1701000D03*
Y1709600D03*
Y1705400D03*
X795300Y1681500D03*
X791100D03*
Y1669400D03*
X795300D03*
Y1673500D03*
X791100D03*
X795300Y1677400D03*
X791100D03*
X798900Y1698000D03*
Y1701500D03*
X808400Y1670600D03*
X804200D03*
X803100Y1698000D03*
Y1701500D03*
G54D21*
X816800Y1657000D03*
Y1663000D03*
X809000Y1657000D03*
Y1663000D03*
G54D12*
X770780Y1658850D03*
X761420D03*
G54D22*
X816740Y1671462D03*
X820480Y1679336D03*
X824220Y1671462D03*
G54D13*
X766950Y1676445D03*
Y1678414D03*
Y1680383D03*
Y1682352D03*
Y1684321D03*
Y1686290D03*
Y1688259D03*
Y1690228D03*
Y1692197D03*
Y1694166D03*
X836300Y1676545D03*
Y1678514D03*
Y1680483D03*
Y1682452D03*
Y1684421D03*
Y1686390D03*
Y1688359D03*
Y1690328D03*
Y1692297D03*
Y1694266D03*
G54D14*
X771220Y1669380D03*
X760980D03*
X768650D03*
X763540D03*
X766100D03*
G54D23*
X809512Y1677628D03*
X804394Y1679596D03*
Y1675660D03*
G54D15*
X767027Y1709600D03*
X761909D03*
Y1701000D03*
X764468D03*
X767027D03*
G54D24*
X812348Y1704200D03*
X828096D03*
X820222D03*
G54D16*
X788200Y1665000D03*
Y1657520D03*
X798500D03*
Y1661260D03*
Y1665000D03*
G54D17*
X776200Y1696500D03*
X782200Y1709700D03*
Y1705500D03*
X776200Y1700700D03*
X787100Y1709600D03*
Y1705400D03*
G54D18*
X783600Y1696500D03*
Y1701700D03*
Y1699100D03*
X792400Y1696500D03*
Y1699100D03*
Y1701700D03*
G54D19*
X776400Y1710100D03*
Y1704500D03*
M02*
