G04 ================== begin FILE IDENTIFICATION RECORD ==================*
G04 Layout Name:  ETDS_PCB_AN_V1_2.brd*
G04 Film Name:    SILKSCREEN_TOP*
G04 File Format:  Gerber RS274X*
G04 File Origin:  Cadence Allegro 16.6-S034*
G04 Origin Date:  Mon Mar 16 22:09:46 2015*
G04 *
G04 Layer:  REF DES/SILKSCREEN_TOP*
G04 Layer:  PACKAGE GEOMETRY/SILKSCREEN_TOP*
G04 Layer:  BOARD GEOMETRY/SILKSCREEN_TOP*
G04 *
G04 Offset:    (0.00 0.00)*
G04 Mirror:    No*
G04 Mode:      Positive*
G04 Rotation:  0*
G04 FullContactRelief:  No*
G04 UndefLineWidth:     5.00*
G04 ================== end FILE IDENTIFICATION RECORD ====================*
%FSLAX25Y25*MOIN*%
%IR0*IPPOS*OFA0.00000B0.00000*MIA0B0*SFA1.00000B1.00000*%
%ADD10C,.005*%
G75*
%LPD*%
G75*
G36*
G01X764500Y1661500D02*
X766500D01*
Y1663700D01*
X764500D01*
Y1661500D01*
G37*
G36*
G01X771700Y1663700D02*
X769700D01*
Y1661500D01*
X771700D01*
Y1663700D01*
G37*
G36*
G01X759441Y1697800D02*
G03I-2341J0D01*
G37*
G36*
G01X777700Y1663600D02*
X775700D01*
Y1661400D01*
X777700D01*
Y1663600D01*
G37*
G36*
G01X781100Y1656000D02*
X791800D01*
Y1668600D01*
X781100D01*
Y1656000D01*
G37*
G36*
G01X796300Y1663300D02*
X794300D01*
Y1661100D01*
X796300D01*
Y1663300D01*
G37*
G36*
G01X798600Y1707600D02*
X796600D01*
Y1705400D01*
X798600D01*
Y1707600D01*
G37*
G36*
G01X790400Y1705400D02*
X792400D01*
Y1707600D01*
X790400D01*
Y1705400D01*
G37*
G36*
G01X805600Y1661500D02*
X807600D01*
Y1663700D01*
X805600D01*
Y1661500D01*
G37*
G36*
G01X816497Y1668350D02*
G03I-447J0D01*
G37*
G36*
G01X814250Y1670550D02*
Y1668550D01*
X816450D01*
Y1670550D01*
X814250D01*
G37*
G36*
G01X802400Y1705500D02*
X804400D01*
Y1707700D01*
X802400D01*
Y1705500D01*
G37*
G36*
G01X813900Y1707700D02*
X811900D01*
Y1705500D01*
X813900D01*
Y1707700D01*
G37*
G36*
G01X807400Y1705500D02*
X809400D01*
Y1707700D01*
X807400D01*
Y1705500D01*
G37*
G36*
G01X808706Y1700900D02*
G03I-806J0D01*
G37*
G36*
G01X823000Y1675700D02*
Y1673700D01*
X825200D01*
Y1675700D01*
X823000D01*
G37*
G36*
G01Y1680000D02*
Y1678000D01*
X825200D01*
Y1680000D01*
X823000D01*
G37*
G36*
G01Y1684000D02*
Y1682000D01*
X825200D01*
Y1684000D01*
X823000D01*
G37*
G36*
G01X832306Y1695926D02*
G03I-1113J0D01*
G37*
G36*
G01X838400Y1703900D02*
X840400D01*
Y1706100D01*
X838400D01*
Y1703900D01*
G37*
G36*
G01X834600D02*
X836600D01*
Y1706100D01*
X834600D01*
Y1703900D01*
G37*
G54D10*
G01X779300Y1670300D02*
Y1695200D01*
Y1695300D01*
X779200D01*
X751400D01*
Y1670300D01*
X779300D01*
G01X763400Y1659767D02*
X760900D01*
Y1660433D01*
X761025Y1660647D01*
X761192Y1660780D01*
X761525Y1660833D01*
X761858Y1660780D01*
X762067Y1660620D01*
X762192Y1660433D01*
Y1659767D01*
G01Y1660433D02*
X763400Y1660833D01*
G01Y1662820D02*
X760900D01*
X762692Y1661833D01*
Y1663167D01*
G01X763400Y1665020D02*
X760900D01*
X762692Y1664033D01*
Y1665367D01*
G01X769092Y1663913D02*
X769217Y1664073D01*
X769300Y1664260D01*
Y1664473D01*
X769175Y1664713D01*
X768967Y1664900D01*
X768717Y1665033D01*
X768300Y1665140D01*
X767925Y1665167D01*
X767550Y1665113D01*
X767300Y1665033D01*
X767050Y1664873D01*
X766883Y1664687D01*
X766800Y1664500D01*
Y1664313D01*
X766883Y1664127D01*
X767008Y1663967D01*
X767175Y1663833D01*
G01X766800Y1661980D02*
X769300D01*
X767508Y1662967D01*
Y1661633D01*
G01X769300Y1660100D02*
X769217Y1660313D01*
X769008Y1660473D01*
X768758Y1660580D01*
X768425Y1660660D01*
X768050Y1660687D01*
X767675Y1660660D01*
X767342Y1660580D01*
X767092Y1660473D01*
X766883Y1660313D01*
X766800Y1660100D01*
X766883Y1659887D01*
X767092Y1659727D01*
X767342Y1659620D01*
X767675Y1659540D01*
X768050Y1659513D01*
X768425Y1659540D01*
X768758Y1659620D01*
X769008Y1659727D01*
X769217Y1659887D01*
X769300Y1660100D01*
G01X761217Y1696700D02*
X761350Y1696450D01*
X761510Y1696283D01*
X761697Y1696200D01*
X761910Y1696283D01*
X762070Y1696450D01*
X762230Y1696700D01*
X762283Y1697033D01*
Y1698700D01*
G01X763443Y1698283D02*
X763603Y1698533D01*
X763790Y1698658D01*
X764003Y1698700D01*
X764270Y1698617D01*
X764457Y1698408D01*
X764510Y1698158D01*
X764483Y1697908D01*
X764377Y1697700D01*
X763843Y1697283D01*
X763603Y1696992D01*
X763443Y1696575D01*
X763390Y1696200D01*
X764510D01*
G01X775092Y1663313D02*
X775217Y1663473D01*
X775300Y1663660D01*
Y1663873D01*
X775175Y1664113D01*
X774967Y1664300D01*
X774717Y1664433D01*
X774300Y1664540D01*
X773925Y1664567D01*
X773550Y1664513D01*
X773300Y1664433D01*
X773050Y1664273D01*
X772883Y1664087D01*
X772800Y1663900D01*
Y1663713D01*
X772883Y1663527D01*
X773008Y1663367D01*
X773175Y1663233D01*
G01Y1662287D02*
X772967Y1662127D01*
X772842Y1661940D01*
X772800Y1661700D01*
X772883Y1661460D01*
X773050Y1661273D01*
X773342Y1661140D01*
X773675Y1661113D01*
X774008Y1661167D01*
X774217Y1661300D01*
X774383Y1661487D01*
X774425Y1661673D01*
X774383Y1661860D01*
X774217Y1662100D01*
X775300Y1662020D01*
Y1661300D01*
G01X780400Y1655800D02*
X779275D01*
X777900Y1655267D01*
G01Y1656333D02*
X779275Y1655800D01*
G01X780400Y1658000D02*
X777900D01*
X778400Y1657680D01*
G01X780400D02*
Y1658320D01*
G01X787100Y1701993D02*
X783517D01*
X782767Y1701740D01*
X782267Y1701233D01*
X782100Y1700600D01*
X782267Y1699967D01*
X782767Y1699460D01*
X783517Y1699207D01*
X787100D01*
G01X782100Y1695627D02*
X783183Y1695500D01*
X784100Y1695310D01*
X784933Y1695057D01*
X785850Y1694740D01*
X787100Y1694233D01*
Y1696767D01*
G01X799392Y1662513D02*
X799517Y1662673D01*
X799600Y1662860D01*
Y1663073D01*
X799475Y1663313D01*
X799267Y1663500D01*
X799017Y1663633D01*
X798600Y1663740D01*
X798225Y1663767D01*
X797850Y1663713D01*
X797600Y1663633D01*
X797350Y1663473D01*
X797183Y1663287D01*
X797100Y1663100D01*
Y1662913D01*
X797183Y1662727D01*
X797308Y1662567D01*
X797475Y1662433D01*
G01X797100Y1660580D02*
X799600D01*
X797808Y1661567D01*
Y1660233D01*
G01X790350Y1694650D02*
Y1675350D01*
X809650D01*
Y1694650D01*
X790350D01*
G01X793300Y1709133D02*
X795800D01*
Y1708467D01*
X795675Y1708253D01*
X795508Y1708120D01*
X795175Y1708067D01*
X794842Y1708120D01*
X794633Y1708280D01*
X794508Y1708467D01*
Y1709133D01*
G01Y1708467D02*
X793300Y1708067D01*
G01Y1706080D02*
X795800D01*
X794008Y1707067D01*
Y1705733D01*
G01X795383Y1704707D02*
X795633Y1704547D01*
X795758Y1704360D01*
X795800Y1704147D01*
X795717Y1703880D01*
X795508Y1703693D01*
X795258Y1703640D01*
X795008Y1703667D01*
X794800Y1703773D01*
X794383Y1704307D01*
X794092Y1704547D01*
X793675Y1704707D01*
X793300Y1704760D01*
Y1703640D01*
G01X789500Y1703967D02*
X787000D01*
Y1704633D01*
X787125Y1704847D01*
X787292Y1704980D01*
X787625Y1705033D01*
X787958Y1704980D01*
X788167Y1704820D01*
X788292Y1704633D01*
Y1703967D01*
G01Y1704633D02*
X789500Y1705033D01*
G01Y1707020D02*
X787000D01*
X788792Y1706033D01*
Y1707367D01*
G01X789500Y1708900D02*
X787000D01*
X787500Y1708580D01*
G01X789500D02*
Y1709220D01*
G01X799408Y1704387D02*
X799283Y1704227D01*
X799200Y1704040D01*
Y1703827D01*
X799325Y1703587D01*
X799533Y1703400D01*
X799783Y1703267D01*
X800200Y1703160D01*
X800575Y1703133D01*
X800950Y1703187D01*
X801200Y1703267D01*
X801450Y1703427D01*
X801617Y1703613D01*
X801700Y1703800D01*
Y1703987D01*
X801617Y1704173D01*
X801492Y1704333D01*
X801325Y1704467D01*
G01X801700Y1706320D02*
X799200D01*
X800992Y1705333D01*
Y1706667D01*
G01X799617Y1707693D02*
X799367Y1707853D01*
X799242Y1708040D01*
X799200Y1708253D01*
X799283Y1708520D01*
X799492Y1708707D01*
X799742Y1708760D01*
X799992Y1708733D01*
X800200Y1708627D01*
X800617Y1708093D01*
X800908Y1707853D01*
X801325Y1707693D01*
X801700Y1707640D01*
Y1708760D01*
G01X810963Y1657150D02*
Y1655358D01*
X811070Y1654983D01*
X811283Y1654733D01*
X811550Y1654650D01*
X811817Y1654733D01*
X812030Y1654983D01*
X812137Y1655358D01*
Y1657150D01*
G01X813243Y1655692D02*
X813430Y1655983D01*
X813590Y1656150D01*
X813803Y1656233D01*
X813990Y1656150D01*
X814123Y1655983D01*
X814230Y1655733D01*
X814257Y1655442D01*
X814230Y1655192D01*
X814123Y1654942D01*
X813963Y1654733D01*
X813777Y1654650D01*
X813563Y1654733D01*
X813377Y1654983D01*
X813270Y1655358D01*
X813243Y1655775D01*
X813297Y1656317D01*
X813377Y1656608D01*
X813510Y1656900D01*
X813697Y1657108D01*
X813883Y1657150D01*
X814070Y1657067D01*
X814203Y1656858D01*
G01X808950Y1667850D02*
Y1658050D01*
X817350D01*
Y1667850D01*
X808950D01*
G01X802300Y1660467D02*
X804800D01*
Y1661533D01*
G01Y1663200D02*
X802300D01*
X802800Y1662880D01*
G01X804800D02*
Y1663520D01*
G01X822318Y1689489D02*
Y1691281D01*
X822211Y1691656D01*
X821998Y1691906D01*
X821731Y1691989D01*
X821464Y1691906D01*
X821251Y1691656D01*
X821144Y1691281D01*
Y1689489D01*
G01X819531Y1691989D02*
Y1689489D01*
X819851Y1689989D01*
G01Y1691989D02*
X819211D01*
G01X817331Y1689489D02*
X817544Y1689572D01*
X817704Y1689781D01*
X817811Y1690031D01*
X817891Y1690364D01*
X817918Y1690739D01*
X817891Y1691114D01*
X817811Y1691447D01*
X817704Y1691697D01*
X817544Y1691906D01*
X817331Y1691989D01*
X817118Y1691906D01*
X816958Y1691697D01*
X816851Y1691447D01*
X816771Y1691114D01*
X816744Y1690739D01*
X816771Y1690364D01*
X816851Y1690031D01*
X816958Y1689781D01*
X817118Y1689572D01*
X817331Y1689489D01*
G01X831980Y1697107D02*
Y1710493D01*
X817020D01*
Y1697107D01*
X831980D01*
G01X816692Y1708213D02*
X816817Y1708373D01*
X816900Y1708560D01*
Y1708773D01*
X816775Y1709013D01*
X816567Y1709200D01*
X816317Y1709333D01*
X815900Y1709440D01*
X815525Y1709467D01*
X815150Y1709413D01*
X814900Y1709333D01*
X814650Y1709173D01*
X814483Y1708987D01*
X814400Y1708800D01*
Y1708613D01*
X814483Y1708427D01*
X814608Y1708267D01*
X814775Y1708133D01*
G01X814400Y1706280D02*
X816900D01*
X815108Y1707267D01*
Y1705933D01*
G01X814400Y1704080D02*
X816900D01*
X815108Y1705067D01*
Y1703733D01*
G01X805008Y1704787D02*
X804883Y1704627D01*
X804800Y1704440D01*
Y1704227D01*
X804925Y1703987D01*
X805133Y1703800D01*
X805383Y1703667D01*
X805800Y1703560D01*
X806175Y1703533D01*
X806550Y1703587D01*
X806800Y1703667D01*
X807050Y1703827D01*
X807217Y1704013D01*
X807300Y1704200D01*
Y1704387D01*
X807217Y1704573D01*
X807092Y1704733D01*
X806925Y1704867D01*
G01X807300Y1706720D02*
X804800D01*
X806592Y1705733D01*
Y1707067D01*
G01X806925Y1708013D02*
X807133Y1708173D01*
X807258Y1708360D01*
X807300Y1708600D01*
X807217Y1708840D01*
X807050Y1709027D01*
X806758Y1709160D01*
X806425Y1709187D01*
X806092Y1709133D01*
X805883Y1709000D01*
X805717Y1708813D01*
X805675Y1708627D01*
X805717Y1708440D01*
X805883Y1708200D01*
X804800Y1708280D01*
Y1709000D01*
G01X829517Y1673450D02*
Y1675950D01*
X830183D01*
X830397Y1675825D01*
X830530Y1675658D01*
X830583Y1675325D01*
X830530Y1674992D01*
X830370Y1674783D01*
X830183Y1674658D01*
X829517D01*
G01X830183D02*
X830583Y1673450D01*
G01X832570D02*
Y1675950D01*
X831583Y1674158D01*
X832917D01*
G01X821187Y1670642D02*
X821027Y1670767D01*
X820840Y1670850D01*
X820627D01*
X820387Y1670725D01*
X820200Y1670517D01*
X820067Y1670267D01*
X819960Y1669850D01*
X819933Y1669475D01*
X819987Y1669100D01*
X820067Y1668850D01*
X820227Y1668600D01*
X820413Y1668433D01*
X820600Y1668350D01*
X820787D01*
X820973Y1668433D01*
X821133Y1668558D01*
X821267Y1668725D01*
G01X822800Y1668350D02*
Y1670850D01*
X822480Y1670350D01*
G01Y1668350D02*
X823120D01*
G01X825000D02*
Y1670850D01*
X824680Y1670350D01*
G01Y1668350D02*
X825320D01*
G01X829887Y1684292D02*
X829727Y1684417D01*
X829540Y1684500D01*
X829327D01*
X829087Y1684375D01*
X828900Y1684167D01*
X828767Y1683917D01*
X828660Y1683500D01*
X828633Y1683125D01*
X828687Y1682750D01*
X828767Y1682500D01*
X828927Y1682250D01*
X829113Y1682083D01*
X829300Y1682000D01*
X829487D01*
X829673Y1682083D01*
X829833Y1682208D01*
X829967Y1682375D01*
G01X831447Y1682000D02*
X831500Y1682542D01*
X831580Y1683000D01*
X831687Y1683417D01*
X831820Y1683875D01*
X832033Y1684500D01*
X830967D01*
G01X830087Y1680292D02*
X829927Y1680417D01*
X829740Y1680500D01*
X829527D01*
X829287Y1680375D01*
X829100Y1680167D01*
X828967Y1679917D01*
X828860Y1679500D01*
X828833Y1679125D01*
X828887Y1678750D01*
X828967Y1678500D01*
X829127Y1678250D01*
X829313Y1678083D01*
X829500Y1678000D01*
X829687D01*
X829873Y1678083D01*
X830033Y1678208D01*
X830167Y1678375D01*
G01X831700Y1678000D02*
X831887Y1678042D01*
X832100Y1678167D01*
X832233Y1678375D01*
X832287Y1678667D01*
X832233Y1678958D01*
X832073Y1679208D01*
X831833Y1679333D01*
X831567D01*
X831407Y1679417D01*
X831273Y1679625D01*
X831220Y1679917D01*
X831300Y1680208D01*
X831487Y1680417D01*
X831700Y1680500D01*
X831913Y1680417D01*
X832100Y1680208D01*
X832180Y1679917D01*
X832127Y1679625D01*
X831993Y1679417D01*
X831833Y1679333D01*
X831567D01*
X831327Y1679208D01*
X831167Y1678958D01*
X831113Y1678667D01*
X831167Y1678375D01*
X831300Y1678167D01*
X831513Y1678042D01*
X831700Y1678000D01*
G01X862300Y1654700D02*
X839600D01*
Y1712800D01*
X862300D01*
Y1654700D01*
G01X843975Y1672800D02*
Y1673653D01*
X843683Y1673573D01*
X843517Y1673440D01*
X843433Y1673253D01*
X843475Y1673067D01*
X843600Y1672907D01*
X843892Y1672800D01*
X844142Y1672747D01*
X844392D01*
X844642Y1672800D01*
X844892Y1672933D01*
X845058Y1673093D01*
X845100Y1673280D01*
X845017Y1673467D01*
X844767Y1673653D01*
G01X842600Y1675400D02*
X845100D01*
G01X842600Y1674787D02*
Y1676013D01*
G01X845100Y1677013D02*
X842600D01*
Y1677547D01*
X842725Y1677760D01*
X842892Y1677920D01*
X843142Y1678053D01*
X843433Y1678160D01*
X843850Y1678187D01*
X844267Y1678160D01*
X844558Y1678053D01*
X844808Y1677920D01*
X844975Y1677760D01*
X845100Y1677547D01*
Y1677013D01*
G01X844767Y1679240D02*
X844975Y1679453D01*
X845100Y1679693D01*
Y1679907D01*
X844975Y1680120D01*
X844767Y1680280D01*
X844475Y1680360D01*
X844183Y1680307D01*
X843933Y1680173D01*
X843767Y1679933D01*
X843683Y1679613D01*
X843517Y1679427D01*
X843225Y1679347D01*
X842933Y1679400D01*
X842725Y1679533D01*
X842600Y1679720D01*
Y1679907D01*
X842683Y1680093D01*
X842892Y1680253D01*
G01X842600Y1683533D02*
X845100Y1684200D01*
X842600Y1684867D01*
G01X845100Y1686400D02*
X842600D01*
X843100Y1686080D01*
G01X845100D02*
Y1686720D01*
G01X845183Y1688600D02*
X845142Y1688547D01*
X845058D01*
X845017Y1688600D01*
X845058Y1688653D01*
X845142D01*
X845183Y1688600D01*
G01X843017Y1690293D02*
X842767Y1690453D01*
X842642Y1690640D01*
X842600Y1690853D01*
X842683Y1691120D01*
X842892Y1691307D01*
X843142Y1691360D01*
X843392Y1691333D01*
X843600Y1691227D01*
X844017Y1690693D01*
X844308Y1690453D01*
X844725Y1690293D01*
X845100Y1690240D01*
Y1691360D01*
G01X849500Y1672767D02*
X847000D01*
Y1673407D01*
X847125Y1673620D01*
X847417Y1673780D01*
X847750Y1673833D01*
X848083Y1673780D01*
X848333Y1673647D01*
X848458Y1673407D01*
Y1672767D01*
G01X849500Y1675127D02*
X847833D01*
G01X848167D02*
X848000Y1675260D01*
X847875Y1675393D01*
X847833Y1675580D01*
X847875Y1675713D01*
X848000Y1675873D01*
G01X849500Y1677700D02*
X849458Y1677540D01*
X849292Y1677380D01*
X849000Y1677273D01*
X848667Y1677220D01*
X848333Y1677273D01*
X848042Y1677380D01*
X847875Y1677540D01*
X847833Y1677700D01*
X847875Y1677860D01*
X848042Y1678020D01*
X848333Y1678127D01*
X848667Y1678153D01*
X849000Y1678127D01*
X849292Y1678020D01*
X849458Y1677860D01*
X849500Y1677700D01*
G01X850125Y1679473D02*
X850292Y1679660D01*
X850333Y1679820D01*
X850250Y1680033D01*
X850042Y1680193D01*
X849667Y1680273D01*
X847833D01*
G01X847167D02*
X847125Y1680220D01*
X847042D01*
X847000Y1680273D01*
X847042Y1680327D01*
X847125D01*
X847167Y1680273D01*
G01X849583Y1682100D02*
X849542Y1682047D01*
X849458D01*
X849417Y1682100D01*
X849458Y1682153D01*
X849542D01*
X849583Y1682100D01*
G01X848458D02*
X848417Y1682047D01*
X848333D01*
X848292Y1682100D01*
X848333Y1682153D01*
X848417D01*
X848458Y1682100D01*
G01X847000Y1686500D02*
X849500D01*
G01X847000Y1685887D02*
Y1687113D01*
G01X849500Y1688113D02*
X847000D01*
Y1688647D01*
X847125Y1688860D01*
X847292Y1689020D01*
X847542Y1689153D01*
X847833Y1689260D01*
X848250Y1689287D01*
X848667Y1689260D01*
X848958Y1689153D01*
X849208Y1689020D01*
X849375Y1688860D01*
X849500Y1688647D01*
Y1688113D01*
G01X849167Y1690340D02*
X849375Y1690553D01*
X849500Y1690793D01*
Y1691007D01*
X849375Y1691220D01*
X849167Y1691380D01*
X848875Y1691460D01*
X848583Y1691407D01*
X848333Y1691273D01*
X848167Y1691033D01*
X848083Y1690713D01*
X847917Y1690527D01*
X847625Y1690447D01*
X847333Y1690500D01*
X847125Y1690633D01*
X847000Y1690820D01*
Y1691007D01*
X847083Y1691193D01*
X847292Y1691353D01*
G01X838900Y1669340D02*
X836400D01*
G01Y1670460D02*
X838900D01*
G01X837650D02*
Y1669340D01*
G01X838900Y1672100D02*
X836400D01*
X836900Y1671780D01*
G01X838900D02*
Y1672420D01*
G01X836817Y1673793D02*
X836567Y1673953D01*
X836442Y1674140D01*
X836400Y1674353D01*
X836483Y1674620D01*
X836692Y1674807D01*
X836942Y1674860D01*
X837192Y1674833D01*
X837400Y1674727D01*
X837817Y1674193D01*
X838108Y1673953D01*
X838525Y1673793D01*
X838900Y1673740D01*
Y1674860D01*
G01X838608Y1695687D02*
X838483Y1695527D01*
X838400Y1695340D01*
Y1695127D01*
X838525Y1694887D01*
X838733Y1694700D01*
X838983Y1694567D01*
X839400Y1694460D01*
X839775Y1694433D01*
X840150Y1694487D01*
X840400Y1694567D01*
X840650Y1694727D01*
X840817Y1694913D01*
X840900Y1695100D01*
Y1695287D01*
X840817Y1695473D01*
X840692Y1695633D01*
X840525Y1695767D01*
G01X840900Y1697620D02*
X838400D01*
X840192Y1696633D01*
Y1697967D01*
G01X840400Y1698913D02*
X840692Y1699073D01*
X840858Y1699287D01*
X840900Y1699527D01*
X840858Y1699740D01*
X840650Y1699953D01*
X840400Y1700087D01*
X840150Y1700113D01*
X839858Y1700060D01*
X839650Y1699873D01*
X839567Y1699687D01*
Y1699447D01*
G01Y1699687D02*
X839442Y1699847D01*
X839233Y1699980D01*
X838983Y1700033D01*
X838733Y1699980D01*
X838525Y1699847D01*
X838400Y1699607D01*
X838442Y1699367D01*
X838608Y1699127D01*
G01X834608Y1696187D02*
X834483Y1696027D01*
X834400Y1695840D01*
Y1695627D01*
X834525Y1695387D01*
X834733Y1695200D01*
X834983Y1695067D01*
X835400Y1694960D01*
X835775Y1694933D01*
X836150Y1694987D01*
X836400Y1695067D01*
X836650Y1695227D01*
X836817Y1695413D01*
X836900Y1695600D01*
Y1695787D01*
X836817Y1695973D01*
X836692Y1696133D01*
X836525Y1696267D01*
G01X836900Y1698120D02*
X834400D01*
X836192Y1697133D01*
Y1698467D01*
G01X835858Y1699493D02*
X835567Y1699680D01*
X835400Y1699840D01*
X835317Y1700053D01*
X835400Y1700240D01*
X835567Y1700373D01*
X835817Y1700480D01*
X836108Y1700507D01*
X836358Y1700480D01*
X836608Y1700373D01*
X836817Y1700213D01*
X836900Y1700027D01*
X836817Y1699813D01*
X836567Y1699627D01*
X836192Y1699520D01*
X835775Y1699493D01*
X835233Y1699547D01*
X834942Y1699627D01*
X834650Y1699760D01*
X834442Y1699947D01*
X834400Y1700133D01*
X834483Y1700320D01*
X834692Y1700453D01*
G01X854300Y1672413D02*
X851800D01*
Y1672947D01*
X851925Y1673160D01*
X852092Y1673320D01*
X852342Y1673453D01*
X852633Y1673560D01*
X853050Y1673587D01*
X853467Y1673560D01*
X853758Y1673453D01*
X854008Y1673320D01*
X854175Y1673160D01*
X854300Y1672947D01*
Y1672413D01*
G01X853175Y1674800D02*
Y1675653D01*
X852883Y1675573D01*
X852717Y1675440D01*
X852633Y1675253D01*
X852675Y1675067D01*
X852800Y1674907D01*
X853092Y1674800D01*
X853342Y1674747D01*
X853592D01*
X853842Y1674800D01*
X854092Y1674933D01*
X854258Y1675093D01*
X854300Y1675280D01*
X854217Y1675467D01*
X853967Y1675653D01*
G01X854008Y1677000D02*
X854175Y1677133D01*
X854300Y1677320D01*
Y1677480D01*
X854217Y1677640D01*
X854092Y1677747D01*
X853925Y1677800D01*
X853675Y1677773D01*
X853550Y1677667D01*
X853300Y1677187D01*
X853008Y1677080D01*
X852800Y1677133D01*
X852675Y1677240D01*
X852633Y1677400D01*
X852675Y1677560D01*
X852800Y1677720D01*
G01X854925Y1679227D02*
X855092Y1679413D01*
X855133Y1679627D01*
X855092Y1679813D01*
X854883Y1679973D01*
X854592Y1680080D01*
X852633D01*
G01X852967D02*
X852800Y1679973D01*
X852675Y1679813D01*
X852633Y1679627D01*
X852717Y1679413D01*
X852883Y1679280D01*
X853175Y1679173D01*
X853467Y1679120D01*
X853717Y1679147D01*
X854008Y1679253D01*
X854217Y1679413D01*
X854300Y1679627D01*
X854258Y1679787D01*
X854092Y1679973D01*
X853925Y1680080D01*
G01X854300Y1681347D02*
X852633D01*
G01X853050D02*
X852842Y1681453D01*
X852675Y1681613D01*
X852633Y1681827D01*
X852675Y1682013D01*
X852842Y1682173D01*
X853133Y1682253D01*
X854300D01*
G01X854383Y1684000D02*
X854342Y1683947D01*
X854258D01*
X854217Y1684000D01*
X854258Y1684053D01*
X854342D01*
X854383Y1684000D01*
G01X853258D02*
X853217Y1683947D01*
X853133D01*
X853092Y1684000D01*
X853133Y1684053D01*
X853217D01*
X853258Y1684000D01*
G01X854300Y1687707D02*
X851800D01*
X853883Y1688400D01*
X851800Y1689093D01*
X854300D01*
G01Y1689987D02*
X851800D01*
X854300Y1691213D01*
X851800D01*
G01X853967Y1692240D02*
X854175Y1692453D01*
X854300Y1692693D01*
Y1692907D01*
X854175Y1693120D01*
X853967Y1693280D01*
X853675Y1693360D01*
X853383Y1693307D01*
X853133Y1693173D01*
X852967Y1692933D01*
X852883Y1692613D01*
X852717Y1692427D01*
X852425Y1692347D01*
X852133Y1692400D01*
X851925Y1692533D01*
X851800Y1692720D01*
Y1692907D01*
X851883Y1693093D01*
X852092Y1693253D01*
G01X858900Y1672207D02*
X856400D01*
X858483Y1672900D01*
X856400Y1673593D01*
X858900D01*
G01Y1675580D02*
X857233D01*
G01X857525D02*
X857358Y1675473D01*
X857275Y1675313D01*
X857233Y1675127D01*
X857317Y1674940D01*
X857483Y1674780D01*
X857733Y1674673D01*
X858067Y1674620D01*
X858400Y1674673D01*
X858650Y1674780D01*
X858817Y1674940D01*
X858900Y1675127D01*
X858858Y1675313D01*
X858733Y1675473D01*
X858567Y1675580D01*
G01X858900Y1676927D02*
X857233D01*
G01X857567D02*
X857400Y1677060D01*
X857275Y1677193D01*
X857233Y1677380D01*
X857275Y1677513D01*
X857400Y1677673D01*
G01X857442Y1679927D02*
X857275Y1679740D01*
X857233Y1679580D01*
X857317Y1679367D01*
X857483Y1679207D01*
X857775Y1679100D01*
X858067Y1679073D01*
X858358Y1679100D01*
X858608Y1679207D01*
X858817Y1679367D01*
X858900Y1679580D01*
X858817Y1679767D01*
X858650Y1679927D01*
G01X858900Y1681247D02*
X856400D01*
G01X857608D02*
X857400Y1681380D01*
X857275Y1681513D01*
X857233Y1681727D01*
X857275Y1681887D01*
X857442Y1682073D01*
X857692Y1682153D01*
X858900D01*
G01Y1686100D02*
X856400D01*
X856900Y1685780D01*
G01X858900D02*
Y1686420D01*
G01X858525Y1687713D02*
X858733Y1687873D01*
X858858Y1688060D01*
X858900Y1688300D01*
X858817Y1688540D01*
X858650Y1688727D01*
X858358Y1688860D01*
X858025Y1688887D01*
X857692Y1688833D01*
X857483Y1688700D01*
X857317Y1688513D01*
X857275Y1688327D01*
X857317Y1688140D01*
X857483Y1687900D01*
X856400Y1687980D01*
Y1688700D01*
G01Y1690500D02*
X858900D01*
G01X857233Y1690127D02*
Y1690873D01*
G01X858900Y1692247D02*
X856400D01*
G01X857608D02*
X857400Y1692380D01*
X857275Y1692513D01*
X857233Y1692727D01*
X857275Y1692887D01*
X857442Y1693073D01*
X857692Y1693153D01*
X858900D01*
G01X859358Y1694847D02*
X858817Y1694953D01*
G01X858900Y1697100D02*
X856400D01*
X856900Y1696780D01*
G01X858900D02*
Y1697420D01*
G01X858525Y1698713D02*
X858733Y1698873D01*
X858858Y1699060D01*
X858900Y1699300D01*
X858817Y1699540D01*
X858650Y1699727D01*
X858358Y1699860D01*
X858025Y1699887D01*
X857692Y1699833D01*
X857483Y1699700D01*
X857317Y1699513D01*
X857275Y1699327D01*
X857317Y1699140D01*
X857483Y1698900D01*
X856400Y1698980D01*
Y1699700D01*
M02*
