G04 ================== begin FILE IDENTIFICATION RECORD ==================*
G04 Layout Name:  C:/Users/msahadat3/Dropbox/GATech/eTDS_PCB/allegro/ETDS_PCB_V1_4.brd*
G04 Film Name:    SILKSCREEN_BOTTOM*
G04 File Format:  Gerber RS274X*
G04 File Origin:  Cadence Allegro 16.6-2015-S056*
G04 Origin Date:  Mon Oct 12 16:32:23 2015*
G04 *
G04 Layer:  REF DES/SILKSCREEN_BOTTOM*
G04 Layer:  PACKAGE GEOMETRY/SILKSCREEN_BOTTOM*
G04 Layer:  BOARD GEOMETRY/SILKSCREEN_BOTTOM*
G04 *
G04 Offset:    (0.00 0.00)*
G04 Mirror:    No*
G04 Mode:      Positive*
G04 Rotation:  0*
G04 FullContactRelief:  No*
G04 UndefLineWidth:     5.00*
G04 ================== end FILE IDENTIFICATION RECORD ====================*
%FSLAX25Y25*MOIN*%
%IR0*IPPOS*OFA0.00000B0.00000*MIA0B0*SFA1.00000B1.00000*%
%ADD10C,.005*%
G75*
%LPD*%
G75*
G36*
G01X770200Y1683100D02*
X775200D01*
Y1673000D01*
X770200D01*
Y1683100D01*
G37*
G36*
G01X786300Y1681300D02*
X788300D01*
Y1679100D01*
X786300D01*
Y1681300D01*
G37*
G36*
G01X795800Y1671200D02*
X797800D01*
Y1669000D01*
X795800D01*
Y1671200D01*
G37*
G36*
G01X790800D02*
X792800D01*
Y1669000D01*
X790800D01*
Y1671200D01*
G37*
G36*
G01X799300Y1681300D02*
X801300D01*
Y1679100D01*
X799300D01*
Y1681300D01*
G37*
G36*
G01X790500Y1678400D02*
Y1683200D01*
X797400D01*
Y1678400D01*
X790500D01*
G37*
G36*
G01X807200Y1671200D02*
X809200D01*
Y1669000D01*
X807200D01*
Y1671200D01*
G37*
G36*
G01X800700D02*
X802700D01*
Y1669000D01*
X800700D01*
Y1671200D01*
G37*
G36*
G01X813300D02*
X815300D01*
Y1669000D01*
X813300D01*
Y1671200D01*
G37*
G36*
G01X814000Y1676000D02*
G03I-1000J0D01*
G37*
G36*
G01X818300Y1678600D02*
X820300D01*
Y1676400D01*
X818300D01*
Y1678600D01*
G37*
G36*
G01X813500Y1681700D02*
X815500D01*
Y1679500D01*
X813500D01*
Y1681700D01*
G37*
G36*
G01X817200Y1701900D02*
Y1703900D01*
X819400D01*
Y1701900D01*
X817200D01*
G37*
G36*
G01X824300Y1703900D02*
X822300D01*
Y1706100D01*
X824300D01*
Y1703900D01*
G37*
G36*
G01X831300Y1704900D02*
Y1706900D01*
X833500D01*
Y1704900D01*
X831300D01*
G37*
G36*
G01Y1710300D02*
Y1712300D01*
X833500D01*
Y1710300D01*
X831300D01*
G37*
G36*
G01Y1707700D02*
Y1709700D01*
X833500D01*
Y1707700D01*
X831300D01*
G37*
G54D10*
G01X781800Y1647450D02*
Y1669050D01*
X750400D01*
Y1647450D01*
X781800D01*
G01X784800Y1653000D02*
Y1663000D01*
X806800D01*
Y1653000D01*
X784800D01*
G01X781300Y1678787D02*
X783092D01*
X783467Y1678680D01*
X783717Y1678467D01*
X783800Y1678200D01*
X783717Y1677933D01*
X783467Y1677720D01*
X783092Y1677613D01*
X781300D01*
G01X783300Y1676587D02*
X783592Y1676427D01*
X783758Y1676213D01*
X783800Y1675973D01*
X783758Y1675760D01*
X783550Y1675547D01*
X783300Y1675413D01*
X783050Y1675387D01*
X782758Y1675440D01*
X782550Y1675627D01*
X782467Y1675813D01*
Y1676053D01*
G01Y1675813D02*
X782342Y1675653D01*
X782133Y1675520D01*
X781883Y1675467D01*
X781633Y1675520D01*
X781425Y1675653D01*
X781300Y1675893D01*
X781342Y1676133D01*
X781508Y1676373D01*
G01X786013Y1675100D02*
Y1676892D01*
X786120Y1677267D01*
X786333Y1677517D01*
X786600Y1677600D01*
X786867Y1677517D01*
X787080Y1677267D01*
X787187Y1676892D01*
Y1675100D01*
G01X788293Y1675517D02*
X788453Y1675267D01*
X788640Y1675142D01*
X788853Y1675100D01*
X789120Y1675183D01*
X789307Y1675392D01*
X789360Y1675642D01*
X789333Y1675892D01*
X789227Y1676100D01*
X788693Y1676517D01*
X788453Y1676808D01*
X788293Y1677225D01*
X788240Y1677600D01*
X789360D01*
G01X786308Y1688513D02*
X786183Y1688673D01*
X786100Y1688860D01*
Y1689073D01*
X786225Y1689313D01*
X786433Y1689500D01*
X786683Y1689633D01*
X787100Y1689740D01*
X787475Y1689767D01*
X787850Y1689713D01*
X788100Y1689633D01*
X788350Y1689473D01*
X788517Y1689287D01*
X788600Y1689100D01*
Y1688913D01*
X788517Y1688727D01*
X788392Y1688567D01*
X788225Y1688433D01*
G01X788600Y1686900D02*
X786100D01*
X786600Y1687220D01*
G01X788600D02*
Y1686580D01*
G01X788225Y1685287D02*
X788433Y1685127D01*
X788558Y1684940D01*
X788600Y1684700D01*
X788517Y1684460D01*
X788350Y1684273D01*
X788058Y1684140D01*
X787725Y1684113D01*
X787392Y1684167D01*
X787183Y1684300D01*
X787017Y1684487D01*
X786975Y1684673D01*
X787017Y1684860D01*
X787183Y1685100D01*
X786100Y1685020D01*
Y1684300D01*
G01X799800Y1666533D02*
X797300D01*
Y1665867D01*
X797425Y1665653D01*
X797592Y1665520D01*
X797925Y1665467D01*
X798258Y1665520D01*
X798467Y1665680D01*
X798592Y1665867D01*
Y1666533D01*
G01Y1665867D02*
X799800Y1665467D01*
G01Y1663853D02*
X799258Y1663800D01*
X798800Y1663720D01*
X798383Y1663613D01*
X797925Y1663480D01*
X797300Y1663267D01*
Y1664333D01*
G01X796508Y1678013D02*
X796383Y1678173D01*
X796300Y1678360D01*
Y1678573D01*
X796425Y1678813D01*
X796633Y1679000D01*
X796883Y1679133D01*
X797300Y1679240D01*
X797675Y1679267D01*
X798050Y1679213D01*
X798300Y1679133D01*
X798550Y1678973D01*
X798717Y1678787D01*
X798800Y1678600D01*
Y1678413D01*
X798717Y1678227D01*
X798592Y1678067D01*
X798425Y1677933D01*
G01X798800Y1676400D02*
X796300D01*
X796800Y1676720D01*
G01X798800D02*
Y1676080D01*
G01X796717Y1674707D02*
X796467Y1674547D01*
X796342Y1674360D01*
X796300Y1674147D01*
X796383Y1673880D01*
X796592Y1673693D01*
X796842Y1673640D01*
X797092Y1673667D01*
X797300Y1673773D01*
X797717Y1674307D01*
X798008Y1674547D01*
X798425Y1674707D01*
X798800Y1674760D01*
Y1673640D01*
G01X787708Y1673313D02*
X787583Y1673473D01*
X787500Y1673660D01*
Y1673873D01*
X787625Y1674113D01*
X787833Y1674300D01*
X788083Y1674433D01*
X788500Y1674540D01*
X788875Y1674567D01*
X789250Y1674513D01*
X789500Y1674433D01*
X789750Y1674273D01*
X789917Y1674087D01*
X790000Y1673900D01*
Y1673713D01*
X789917Y1673527D01*
X789792Y1673367D01*
X789625Y1673233D01*
G01X790000Y1671700D02*
X787500D01*
X788000Y1672020D01*
G01X790000D02*
Y1671380D01*
G01Y1669180D02*
X787500D01*
X789292Y1670167D01*
Y1668833D01*
G01X799108Y1691313D02*
X798983Y1691473D01*
X798900Y1691660D01*
Y1691873D01*
X799025Y1692113D01*
X799233Y1692300D01*
X799483Y1692433D01*
X799900Y1692540D01*
X800275Y1692567D01*
X800650Y1692513D01*
X800900Y1692433D01*
X801150Y1692273D01*
X801317Y1692087D01*
X801400Y1691900D01*
Y1691713D01*
X801317Y1691527D01*
X801192Y1691367D01*
X801025Y1691233D01*
G01X801400Y1689700D02*
X798900D01*
X799400Y1690020D01*
G01X801400D02*
Y1689380D01*
G01X800358Y1688007D02*
X800067Y1687820D01*
X799900Y1687660D01*
X799817Y1687447D01*
X799900Y1687260D01*
X800067Y1687127D01*
X800317Y1687020D01*
X800608Y1686993D01*
X800858Y1687020D01*
X801108Y1687127D01*
X801317Y1687287D01*
X801400Y1687473D01*
X801317Y1687687D01*
X801067Y1687873D01*
X800692Y1687980D01*
X800275Y1688007D01*
X799733Y1687953D01*
X799442Y1687873D01*
X799150Y1687740D01*
X798942Y1687553D01*
X798900Y1687367D01*
X798983Y1687180D01*
X799192Y1687047D01*
G01X805500Y1666333D02*
X803000D01*
Y1665667D01*
X803125Y1665453D01*
X803292Y1665320D01*
X803625Y1665267D01*
X803958Y1665320D01*
X804167Y1665480D01*
X804292Y1665667D01*
Y1666333D01*
G01Y1665667D02*
X805500Y1665267D01*
G01X804458Y1664107D02*
X804167Y1663920D01*
X804000Y1663760D01*
X803917Y1663547D01*
X804000Y1663360D01*
X804167Y1663227D01*
X804417Y1663120D01*
X804708Y1663093D01*
X804958Y1663120D01*
X805208Y1663227D01*
X805417Y1663387D01*
X805500Y1663573D01*
X805417Y1663787D01*
X805167Y1663973D01*
X804792Y1664080D01*
X804375Y1664107D01*
X803833Y1664053D01*
X803542Y1663973D01*
X803250Y1663840D01*
X803042Y1663653D01*
X803000Y1663467D01*
X803083Y1663280D01*
X803292Y1663147D01*
G01X812300Y1685500D02*
X816300D01*
Y1675500D01*
X812300D01*
Y1685500D01*
G01X812000Y1688000D02*
Y1673000D01*
X803000D01*
Y1688000D01*
X812000D01*
G01X813000Y1689933D02*
X815500D01*
Y1688867D01*
G01X813417Y1687707D02*
X813167Y1687547D01*
X813042Y1687360D01*
X813000Y1687147D01*
X813083Y1686880D01*
X813292Y1686693D01*
X813542Y1686640D01*
X813792Y1686667D01*
X814000Y1686773D01*
X814417Y1687307D01*
X814708Y1687547D01*
X815125Y1687707D01*
X815500Y1687760D01*
Y1686640D01*
G01X807480Y1689300D02*
Y1691800D01*
X808467Y1690008D01*
X807133D01*
G01X818600Y1669600D02*
X839600D01*
Y1654500D01*
X818600D01*
Y1669600D01*
G01X816308Y1672013D02*
X816183Y1672173D01*
X816100Y1672360D01*
Y1672573D01*
X816225Y1672813D01*
X816433Y1673000D01*
X816683Y1673133D01*
X817100Y1673240D01*
X817475Y1673267D01*
X817850Y1673213D01*
X818100Y1673133D01*
X818350Y1672973D01*
X818517Y1672787D01*
X818600Y1672600D01*
Y1672413D01*
X818517Y1672227D01*
X818392Y1672067D01*
X818225Y1671933D01*
G01X818600Y1670400D02*
X816100D01*
X816600Y1670720D01*
G01X818600D02*
Y1670080D01*
G01X818100Y1668787D02*
X818392Y1668627D01*
X818558Y1668413D01*
X818600Y1668173D01*
X818558Y1667960D01*
X818350Y1667747D01*
X818100Y1667613D01*
X817850Y1667587D01*
X817558Y1667640D01*
X817350Y1667827D01*
X817267Y1668013D01*
Y1668253D01*
G01Y1668013D02*
X817142Y1667853D01*
X816933Y1667720D01*
X816683Y1667667D01*
X816433Y1667720D01*
X816225Y1667853D01*
X816100Y1668093D01*
X816142Y1668333D01*
X816308Y1668573D01*
G01X820200Y1685033D02*
X817700D01*
Y1684367D01*
X817825Y1684153D01*
X817992Y1684020D01*
X818325Y1683967D01*
X818658Y1684020D01*
X818867Y1684180D01*
X818992Y1684367D01*
Y1685033D01*
G01Y1684367D02*
X820200Y1683967D01*
G01X819825Y1682887D02*
X820033Y1682727D01*
X820158Y1682540D01*
X820200Y1682300D01*
X820117Y1682060D01*
X819950Y1681873D01*
X819658Y1681740D01*
X819325Y1681713D01*
X818992Y1681767D01*
X818783Y1681900D01*
X818617Y1682087D01*
X818575Y1682273D01*
X818617Y1682460D01*
X818783Y1682700D01*
X817700Y1682620D01*
Y1681900D01*
G01X814887Y1704808D02*
X814727Y1704683D01*
X814540Y1704600D01*
X814327D01*
X814087Y1704725D01*
X813900Y1704933D01*
X813767Y1705183D01*
X813660Y1705600D01*
X813633Y1705975D01*
X813687Y1706350D01*
X813767Y1706600D01*
X813927Y1706850D01*
X814113Y1707017D01*
X814300Y1707100D01*
X814487D01*
X814673Y1707017D01*
X814833Y1706892D01*
X814967Y1706725D01*
G01X815913Y1706600D02*
X816073Y1706892D01*
X816287Y1707058D01*
X816527Y1707100D01*
X816740Y1707058D01*
X816953Y1706850D01*
X817087Y1706600D01*
X817113Y1706350D01*
X817060Y1706058D01*
X816873Y1705850D01*
X816687Y1705767D01*
X816447D01*
G01X816687D02*
X816847Y1705642D01*
X816980Y1705433D01*
X817033Y1705183D01*
X816980Y1704933D01*
X816847Y1704725D01*
X816607Y1704600D01*
X816367Y1704642D01*
X816127Y1704808D01*
G01X824292Y1699187D02*
X824417Y1699027D01*
X824500Y1698840D01*
Y1698627D01*
X824375Y1698387D01*
X824167Y1698200D01*
X823917Y1698067D01*
X823500Y1697960D01*
X823125Y1697933D01*
X822750Y1697987D01*
X822500Y1698067D01*
X822250Y1698227D01*
X822083Y1698413D01*
X822000Y1698600D01*
Y1698787D01*
X822083Y1698973D01*
X822208Y1699133D01*
X822375Y1699267D01*
G01X824083Y1700293D02*
X824333Y1700453D01*
X824458Y1700640D01*
X824500Y1700853D01*
X824417Y1701120D01*
X824208Y1701307D01*
X823958Y1701360D01*
X823708Y1701333D01*
X823500Y1701227D01*
X823083Y1700693D01*
X822792Y1700453D01*
X822375Y1700293D01*
X822000Y1700240D01*
Y1701360D01*
G01X826487Y1705008D02*
X826327Y1704883D01*
X826140Y1704800D01*
X825927D01*
X825687Y1704925D01*
X825500Y1705133D01*
X825367Y1705383D01*
X825260Y1705800D01*
X825233Y1706175D01*
X825287Y1706550D01*
X825367Y1706800D01*
X825527Y1707050D01*
X825713Y1707217D01*
X825900Y1707300D01*
X826087D01*
X826273Y1707217D01*
X826433Y1707092D01*
X826567Y1706925D01*
G01X828420Y1707300D02*
Y1704800D01*
X827433Y1706592D01*
X828767D01*
G01X826287Y1710308D02*
X826127Y1710183D01*
X825940Y1710100D01*
X825727D01*
X825487Y1710225D01*
X825300Y1710433D01*
X825167Y1710683D01*
X825060Y1711100D01*
X825033Y1711475D01*
X825087Y1711850D01*
X825167Y1712100D01*
X825327Y1712350D01*
X825513Y1712517D01*
X825700Y1712600D01*
X825887D01*
X826073Y1712517D01*
X826233Y1712392D01*
X826367Y1712225D01*
G01X827900Y1712600D02*
Y1710100D01*
X827580Y1710600D01*
G01Y1712600D02*
X828220D01*
G01X826387Y1707708D02*
X826227Y1707583D01*
X826040Y1707500D01*
X825827D01*
X825587Y1707625D01*
X825400Y1707833D01*
X825267Y1708083D01*
X825160Y1708500D01*
X825133Y1708875D01*
X825187Y1709250D01*
X825267Y1709500D01*
X825427Y1709750D01*
X825613Y1709917D01*
X825800Y1710000D01*
X825987D01*
X826173Y1709917D01*
X826333Y1709792D01*
X826467Y1709625D01*
G01X827413D02*
X827573Y1709833D01*
X827760Y1709958D01*
X828000Y1710000D01*
X828240Y1709917D01*
X828427Y1709750D01*
X828560Y1709458D01*
X828587Y1709125D01*
X828533Y1708792D01*
X828400Y1708583D01*
X828213Y1708417D01*
X828027Y1708375D01*
X827840Y1708417D01*
X827600Y1708583D01*
X827680Y1707500D01*
X828400D01*
M02*
