G04 ================== begin FILE IDENTIFICATION RECORD ==================*
G04 Layout Name:  C:/Users/msahadat3/Dropbox/GATech/eTDS_PCB/allegro/ETDS_PCB_V1_4.brd*
G04 Film Name:    GND*
G04 File Format:  Gerber RS274X*
G04 File Origin:  Cadence Allegro 16.6-2015-S056*
G04 Origin Date:  Mon Oct 12 16:32:23 2015*
G04 *
G04 Layer:  ETCH/GND*
G04 Layer:  PIN/GND*
G04 Layer:  VIA CLASS/GND*
G04 *
G04 Offset:    (0.00 0.00)*
G04 Mirror:    No*
G04 Mode:      Positive*
G04 Rotation:  0*
G04 FullContactRelief:  No*
G04 UndefLineWidth:     5.00*
G04 ================== end FILE IDENTIFICATION RECORD ====================*
%FSLAX25Y25*MOIN*%
%IR0*IPPOS*OFA0.00000B0.00000*MIA0B0*SFA1.00000B1.00000*%
%ADD13C,.04*%
%ADD10C,.015*%
%ADD12C,.025*%
%ADD11C,.035*%
%ADD14C,.005*%
%ADD18C,.05004*%
%ADD16C,.02504*%
%ADD17C,.03504*%
%ADD15C,.04504*%
G75*
%LPD*%
G75*
G36*
G01X749851Y1654901D02*
Y1677046D01*
G02X750575Y1677280I400J0D01*
G03Y1679920I1825J1320D01*
G02X749851Y1680154I-324J234D01*
G01Y1682046D01*
G02X750575Y1682280I400J0D01*
G03Y1684920I1825J1320D01*
G02X749851Y1685154I-324J234D01*
G01Y1687046D01*
G02X750575Y1687280I400J0D01*
G03Y1689920I1825J1320D01*
G02X749851Y1690154I-324J234D01*
G01Y1692046D01*
G02X750575Y1692280I400J0D01*
G03Y1694920I1825J1320D01*
G02X749851Y1695154I-324J234D01*
G01Y1697046D01*
G02X750575Y1697280I400J0D01*
G03Y1699920I1825J1320D01*
G02X749851Y1700154I-324J234D01*
G01Y1712699D01*
X828984D01*
G02X829303Y1712057I0J-400D01*
G03X831297I997J-757D01*
G02X831616Y1712699I319J242D01*
G01X839600D01*
Y1708514D01*
G02X838958Y1708196I-400J0D01*
G03Y1706202I-758J-997D01*
G02X839600Y1705884I242J-318D01*
G01Y1654901D01*
X749851D01*
G37*
%LPC*%
G75*
G36*
G01X829615Y1699973D02*
G03X829516Y1700551I-318J243D01*
G02X831419Y1701312I684J1049D01*
G03X831746Y1700825I389J-92D01*
G02X829615Y1699973I-346J-2225D01*
G37*
G36*
G01X820674Y1704064D02*
G02X819387Y1703649I-320J-1210D01*
G03X819180Y1704290I-309J254D01*
G02X818249Y1705542I320J1210D01*
G03X817886Y1705953I-400J13D01*
G02X819251Y1707158I114J1247D01*
G03X819614Y1706747I400J-13D01*
G02X820467Y1704705I-114J-1247D01*
G03X820674Y1704064I309J-254D01*
G37*
G36*
G01X805654Y1703620D02*
G02X804666Y1702564I252J-1226D01*
G03X804189Y1703011I-396J55D01*
G02X805177Y1704067I-252J1226D01*
G03X805654Y1703620I396J-55D01*
G37*
G54D18*
X791926Y1658000D03*
X799800D03*
G54D16*
X767600Y1677500D03*
X767900Y1692600D03*
X771400Y1691039D03*
X767600Y1681800D03*
X783306Y1691039D03*
X798032Y1664432D03*
X792800Y1709100D03*
X805600Y1668800D03*
X803500Y1708900D03*
X821700Y1675300D03*
Y1682586D03*
X825500Y1696900D03*
X816600Y1697500D03*
X822500Y1694500D03*
X823300Y1702900D03*
X830200Y1705600D03*
G54D17*
X787000Y1671077D03*
X782900Y1674800D03*
G54D15*
X757400Y1678600D03*
Y1683600D03*
Y1688600D03*
Y1693600D03*
X762339Y1686039D03*
X757400Y1698600D03*
X767339Y1686039D03*
X772339D03*
X777339D03*
X782339D03*
X836400Y1678600D03*
X831400D03*
X836400Y1683600D03*
X831400D03*
X836400Y1688600D03*
X831400D03*
X836400Y1693600D03*
X831400D03*
X836400Y1698600D03*
%LPD*%
G75*
G54D10*
X752400Y1658400D03*
X759708Y1663754D03*
X754708D03*
X759708Y1675754D03*
X754708D03*
X759708Y1671754D03*
X754708D03*
X759708Y1667754D03*
X754708D03*
Y1703754D03*
Y1707754D03*
X768200Y1658200D03*
X773200Y1656600D03*
X761600Y1658600D03*
X764708Y1663754D03*
X767600Y1677500D03*
X767900Y1692600D03*
X771400Y1691039D03*
X767600Y1681800D03*
X769708Y1703754D03*
Y1707754D03*
X778400Y1663600D03*
X774708Y1671754D03*
Y1667754D03*
X775600Y1691200D03*
X783306Y1691039D03*
X782200Y1694600D03*
X783000Y1710400D03*
X798032Y1664432D03*
X792400Y1665200D03*
X789000Y1665000D03*
X800300Y1678100D03*
X793932Y1685200D03*
X800215Y1685215D03*
X799708Y1703754D03*
X794708D03*
X789708D03*
X792800Y1709100D03*
X799708Y1707754D03*
X813200Y1657400D03*
X805600Y1668800D03*
X805906Y1702394D03*
X811600Y1697000D03*
X809708Y1703754D03*
X803937Y1704237D03*
X807600Y1711400D03*
X803500Y1708900D03*
X824708Y1659754D03*
X821700Y1675300D03*
X824708Y1675754D03*
X825200Y1668600D03*
X818600Y1691400D03*
X821700Y1682586D03*
X825000Y1705000D03*
X819200Y1697400D03*
X825500Y1696900D03*
X816600Y1697500D03*
X822500Y1694500D03*
X818000Y1707200D03*
X819500Y1705500D03*
X820354Y1702854D03*
X823300Y1702900D03*
X829708Y1675754D03*
Y1671754D03*
X830200Y1705600D03*
Y1701600D03*
X833800Y1701400D03*
X836600Y1703600D03*
X838200Y1707199D03*
X830300Y1711300D03*
G54D11*
X757400Y1678600D03*
X752400D03*
X757400Y1683600D03*
X752400D03*
X757400Y1688600D03*
X752400D03*
X757400Y1693600D03*
X752400D03*
X762339Y1686039D03*
X757400Y1698600D03*
X752400D03*
X767339Y1686039D03*
X772339D03*
X777339D03*
X782339D03*
X836400Y1678600D03*
X831400D03*
X836400Y1683600D03*
X831400D03*
X836400Y1688600D03*
X831400D03*
X836400Y1693600D03*
X831400D03*
X836400Y1698600D03*
X831400D03*
G54D12*
X787000Y1671077D03*
X782900Y1674800D03*
G54D13*
X791926Y1658000D03*
X799800D03*
G54D14*
G01X757400Y1681148D02*
Y1683600D01*
G01D02*
Y1686052D01*
G01X754948Y1683600D02*
X757400D01*
G01D02*
X759852D01*
G01X782339Y1683587D02*
Y1686039D01*
G01D02*
Y1688491D01*
G01X779887Y1686039D02*
X782339D01*
G01D02*
X784791D01*
G01X791926Y1655298D02*
Y1658000D01*
G01D02*
Y1660702D01*
G01X789224Y1658000D02*
X791926D01*
G01D02*
X794628D01*
G01X836400Y1681148D02*
Y1683600D01*
G01D02*
Y1686052D01*
G01X833948Y1683600D02*
X836400D01*
G01D02*
X838852D01*
M02*
