G04 ================== begin FILE IDENTIFICATION RECORD ==================*
G04 Layout Name:  C:/Users/msahadat3/Dropbox/GATech/eTDS_PCB/allegro/ETDS_PCB_V1_4.brd*
G04 Film Name:    SOLDEMASK_TOP*
G04 File Format:  Gerber RS274X*
G04 File Origin:  Cadence Allegro 16.6-2015-S056*
G04 Origin Date:  Mon Oct 12 16:32:23 2015*
G04 *
G04 Layer:  VIA CLASS/SOLDERMASK_TOP*
G04 Layer:  PIN/SOLDERMASK_TOP*
G04 Layer:  PACKAGE GEOMETRY/SOLDERMASK_TOP*
G04 Layer:  BOARD GEOMETRY/SOLDERMASK_TOP*
G04 *
G04 Offset:    (0.00 0.00)*
G04 Mirror:    No*
G04 Mode:      Positive*
G04 Rotation:  0*
G04 FullContactRelief:  No*
G04 UndefLineWidth:     5.00*
G04 ================== end FILE IDENTIFICATION RECORD ====================*
%FSLAX25Y25*MOIN*%
%IR0*IPPOS*OFA0.00000B0.00000*MIA0B0*SFA1.00000B1.00000*%
%ADD10C,.04*%
%ADD18C,.045*%
%ADD14R,.02X.03*%
%ADD11R,.024X.024*%
%ADD13R,.024X.024*%
%ADD22R,.014X.018*%
%ADD21R,.021X.037*%
%ADD23R,.018X.014*%
%ADD20R,.015X.055*%
%ADD16R,.055X.015*%
%ADD15R,.044X.044*%
%ADD12R,.045X.045*%
%ADD17R,.036X.045*%
%ADD19R,.178X.178*%
%LPD*%
G75*
G54D10*
X757400Y1678600D03*
X752400D03*
X757400Y1683600D03*
X752400D03*
X757400Y1688600D03*
X752400D03*
X757400Y1693600D03*
X752400D03*
X762339Y1686039D03*
X757400Y1698600D03*
X752400D03*
X767339Y1686039D03*
X772339D03*
X777339D03*
X782339D03*
X836400Y1678600D03*
X831400D03*
X836400Y1683600D03*
X831400D03*
X836400Y1688600D03*
X831400D03*
X836400Y1693600D03*
X831400D03*
X836400Y1698600D03*
X831400D03*
G54D20*
X800000Y1672850D03*
X798032D03*
X796063D03*
X794094D03*
X792126D03*
Y1697150D03*
X794094D03*
X796063D03*
X798032D03*
X800000D03*
X807874Y1672850D03*
X805906D03*
X803937D03*
X801968D03*
Y1697150D03*
X803937D03*
X805906D03*
X807874D03*
G54D11*
X760200Y1704050D03*
Y1708250D03*
X768300Y1658100D03*
Y1662300D03*
X773400Y1693800D03*
Y1698000D03*
X783900Y1662300D03*
Y1658100D03*
X777900Y1693800D03*
Y1698000D03*
X806600Y1664700D03*
Y1660500D03*
G54D12*
X773350Y1656800D03*
Y1663600D03*
X778550D03*
Y1656800D03*
G54D21*
X813250Y1660250D03*
X810650D03*
Y1665450D03*
X813250D03*
X815850Y1660250D03*
Y1665450D03*
G54D22*
X815275Y1700821D03*
X816968D03*
X818661D03*
X820354D03*
X822046D03*
X823739D03*
X825432D03*
X827125D03*
Y1710979D03*
X825432D03*
X823739D03*
X822046D03*
X820354D03*
X818661D03*
X816968D03*
X815275D03*
G54D13*
X771900Y1677400D03*
X767700D03*
X771900Y1681600D03*
X767700D03*
X797000Y1703800D03*
X792800D03*
Y1709100D03*
X797000D03*
X813250Y1669550D03*
X825900Y1671700D03*
X821700D03*
X817450Y1669550D03*
X825900Y1678900D03*
X821700D03*
X825900Y1675300D03*
X821700D03*
X825900Y1682500D03*
X821700D03*
X825900Y1686100D03*
X821700D03*
G54D23*
X827125Y1703361D03*
Y1705054D03*
Y1706746D03*
X815275D03*
Y1705054D03*
Y1703361D03*
X827125Y1708439D03*
X815275D03*
G54D14*
X768096Y1693494D03*
X764160D03*
X766128Y1698612D03*
G54D15*
X773300Y1708800D03*
Y1702800D03*
X765500Y1708800D03*
Y1702800D03*
G54D16*
X787850Y1677126D03*
Y1679094D03*
Y1681063D03*
Y1683032D03*
Y1685000D03*
Y1686968D03*
Y1688937D03*
Y1690906D03*
Y1692874D03*
X812150Y1679094D03*
Y1677126D03*
Y1692874D03*
Y1690906D03*
Y1688937D03*
Y1686968D03*
Y1685000D03*
Y1683032D03*
Y1681063D03*
G54D17*
X783080Y1702114D03*
X779340Y1709988D03*
X786820D03*
G54D18*
X791926Y1658000D03*
X799800D03*
G54D19*
X800000Y1685000D03*
M02*
