M48
INCH
T01C.1378
T02C.11811
T03C.042
T04C.036
T05C.03
T06C.013
;LEADER: 12 
;HEADER: 
;CODE  : ASCII 
;FILE  : BBB_CAPE_PCB_AN_V_1_1-1-4.drl for  ... layers TOP and BOTTOM
;DESIGN: BBB_CAPE_PCB_AN_V_1_1.brd
;T01 Holesize 1. = 137.800000 Tolerance = +0.000000/-0.000000 PLATED MILS Quantity = 2
;T02 Holesize 2. = 118.110000 Tolerance = +0.000000/-0.000000 PLATED MILS Quantity = 1
;T03 Holesize 3. = 42.000000 Tolerance = +0.000000/-0.000000 PLATED MILS Quantity = 112
;T04 Holesize 4. = 36.000000 Tolerance = +0.000000/-0.000000 PLATED MILS Quantity = 10
;T05 Holesize 5. = 30.000000 Tolerance = +0.000000/-0.000000 PLATED MILS Quantity = 15
;T06 Holesize 6. = 13.000000 Tolerance = +0.000000/-0.000000 PLATED MILS Quantity = 292
%
G90
T01
X066851Y175910
X065670Y174060
T02
X064489Y175910
T03
X061770Y166690
X061770Y167690
X067700Y162640
R04X-001000
X067760Y170630
X067760Y169630
X068550Y172910
X069550Y172910
X069550Y173930
X068550Y173930
X076450Y164760
R10Y001000
X061630Y160060
X061630Y161060
X062630Y160060
X062630Y161060
X063630Y160060
X063630Y161060
X064630Y160060
X064630Y161060
X065630Y160060
X065630Y161060
X066630Y160060
X066630Y161060
X067630Y160060
X067630Y161060
X068630Y160060
X068630Y161060
X069630Y160060
X069630Y161060
X070630Y160060
X070630Y161060
X071630Y160060
X071630Y161060
X072630Y160060
X072630Y161060
X073630Y160060
X073630Y161060
X074630Y160060
X074630Y161060
X075630Y160060
X075630Y161060
X076630Y160060
X076630Y161060
X077630Y160060
X077630Y161060
X078630Y160060
X078630Y161060
X079630Y160060
X079630Y161060
X080630Y160060
X080630Y161060
X081630Y160060
X081630Y161060
X082630Y160060
X082630Y161060
X061640Y179050
X061640Y180050
X062640Y179050
X062640Y180050
X063640Y179050
X063640Y180050
X064640Y179050
X064640Y180050
X065640Y179050
X065640Y180050
X066640Y179050
X066640Y180050
X067640Y179050
X067640Y180050
X068640Y179050
X068640Y180050
X069640Y179050
X069640Y180050
X070640Y179050
X070640Y180050
X071640Y179050
X071640Y180050
X072640Y179050
X072640Y180050
X073640Y179050
X073640Y180050
X074640Y179050
X074640Y180050
X075640Y179050
X075640Y180050
X076640Y179050
X076640Y180050
X077640Y179050
X077640Y180050
X078640Y179050
X078640Y180050
X079640Y179050
X079640Y180050
X080640Y179050
X080640Y180050
X081640Y179050
X081640Y180050
X082640Y179050
X082640Y180050
T04
X068600Y177890
R04X001000
X072600Y174890
R04X-001000
T05
X078670Y164260
X079170Y164260
X078670Y163760
X079170Y163760
X078670Y163260
X079170Y163260
X078670Y162760
X079170Y162760
X078670Y162260
X079170Y162260
X079256Y166866
R04X000500
T06
X077730Y167810
X081166Y162000
X078400Y168210
X080780Y162120
X077500Y167650
X077980Y169048
X073060Y168280
X071260Y168310
X072540Y164580
X073750Y163670
X072310Y164390
X073500Y163440
X072120Y164770
X072680Y163420
X071980Y163420
X071790Y164820
X071260Y168720
X072296Y165374
X073832Y167598
X080923Y169953
X078491Y170741
X062480Y171230
X078923Y168935
X080497Y171365
X080925Y170741
X080925Y169363
X068600Y177020
X062040Y171073
X062480Y171030
X061271Y161601
X063180Y161800
X063980Y161840
X066060Y161760
X070271Y161601
X076170Y161980
X077250Y161990
X078060Y161890
X079271Y161601
X082220Y162030
X061271Y162601
X072271Y162601
X080271Y162601
X082271Y162601
X061271Y163601
X063271Y163601
X064271Y163601
R04X001000
X080271Y163601
X082271Y163601
X061271Y164601
X068271Y164601
X069271Y164601
X078271Y164601
X079271Y164601
R03X001000
X061271Y165601
X067271Y165601
X069271Y165601
X070271Y165601
X078271Y165601
R04X001000
X061271Y166601
X067271Y166601
X068271Y166601
R02X001000
X079271Y166601
X082271Y166601
X061271Y167601
X062271Y167601
X067271Y167601
R03X001000
X078271Y167601
X080271Y167601
X081271Y167601
X082271Y167601
X061271Y168601
X069271Y168601
X072271Y168601
X074271Y168601
X078271Y168601
X061271Y169601
X062271Y169601
X067010Y169650
X070271Y169601
R03X001000
X079271Y169601
X080271Y169601
X061271Y170601
X065271Y170601
X067030Y170490
X068271Y170601
R02X002000
X073271Y170601
X079271Y170601
X080271Y170601
X061271Y171601
X065271Y171601
X066271Y171601
R03X001000
X071271Y171601
X078271Y171601
X081271Y171601
X082271Y171601
X061271Y172601
R06X001000
X071271Y172601
R02X001000
X080271Y172601
R02X001000
X061271Y173601
R03X001000
X070271Y173601
R05X001000
X079271Y173601
R03X001000
X061271Y174601
R03X001000
X068170Y174460
X069050Y174460
X071000Y174340
X072150Y174310
X073271Y174601
R02X001000
X078271Y174601
R04X001000
X061271Y175601
R02X001000
X068271Y175601
X069271Y175601
X077271Y175601
R05X001000
X061271Y176601
X063271Y176601
X068271Y176601
R02X002000
X073271Y176601
R03X001000
X078271Y176601
R04X001000
X061271Y177601
X063271Y177601
X066271Y177601
X067271Y177601
X068290Y177420
X069250Y177350
X070210Y177340
X071230Y177290
X072140Y177200
X073271Y177601
R09X001000
X066400Y162030
X072950Y163450
X072280Y163460
X069670Y170730
X069980Y163550
X068380Y162030
X075580Y165500
X070830Y167410
X070810Y165820
X072440Y164860
X073550Y164480
X078310Y163650
X076930Y174000
X076900Y174450
X077740Y169370
X082190Y170040
X071260Y166040
X082450Y170040
X064840Y166470
X063093Y164652
R06X000500
X063093Y165152
R06X000500
X063093Y165652
R06X000500
X063093Y166152
R06X000500
X063093Y166652
R06X000500
X063093Y167152
R06X000500
X063093Y167652
R06X000500
X066587Y164695
R05Y000500
X070840Y163450
X070840Y164620
X072670Y171450
X079900Y171890
X080690Y168300
X071660Y163430
X073320Y167610
X073832Y165362
X072808Y164740
X073930Y164240
X069655Y164005
X070540Y164060
M30
