G04 ================== begin FILE IDENTIFICATION RECORD ==================*
G04 Layout Name:  BBB_CAPE_PCB_AN_V_1_1.brd*
G04 Film Name:    BOTTOM*
G04 File Format:  Gerber RS274X*
G04 File Origin:  Cadence Allegro 16.6-2015-S056*
G04 Origin Date:  Tue May 17 20:29:37 2016*
G04 *
G04 Layer:  VIA CLASS/BOTTOM*
G04 Layer:  PIN/BOTTOM*
G04 Layer:  ETCH/BOTTOM*
G04 *
G04 Offset:    (0.00 0.00)*
G04 Mirror:    No*
G04 Mode:      Positive*
G04 Rotation:  0*
G04 FullContactRelief:  No*
G04 UndefLineWidth:     5.00*
G04 ================== end FILE IDENTIFICATION RECORD ====================*
%FSLAX25Y25*MOIN*%
%IR0*IPPOS*OFA0.00000B0.00000*MIA0B0*SFA1.00000B1.00000*%
%ADD18C,.04*%
%ADD11C,.015*%
%ADD17C,.054*%
%ADD10C,.065*%
%ADD13R,.036X.016*%
%ADD16R,.019X.019*%
%ADD12R,.019X.019*%
%ADD14C,.1378*%
%ADD15C,.15748*%
%ADD19C,.01*%
%ADD20C,.006*%
%ADD26C,.02504*%
%ADD25C,.06404*%
%ADD21C,.07504*%
%ADD24C,.16752*%
%ADD22R,.02904X.02904*%
%ADD23C,.14784*%
G75*
%LPD*%
G75*
G36*
G01X611300Y1592400D02*
Y1808700D01*
X831000D01*
Y1592400D01*
X611300D01*
G37*
%LPC*%
G75*
G36*
G01X659717Y1788741D02*
X665056Y1783402D01*
X669757D01*
X679602Y1773557D01*
Y1736556D01*
X683743Y1732415D01*
G02X682121Y1730731I1757J-3315D01*
G01X682183Y1730859D01*
X677398Y1735644D01*
Y1772645D01*
X668845Y1781198D01*
X664144D01*
X658159Y1787183D01*
X658031Y1787121D01*
G02X659779Y1788869I-1631J3379D01*
G01X659717Y1788741D01*
G37*
G36*
G01X727954Y1714521D02*
X728453Y1714022D01*
X739647D01*
X761285Y1735660D01*
X761213Y1735792D01*
G02X762692Y1734313I3287J1808D01*
G01X762560Y1734385D01*
X740393Y1712218D01*
X727707D01*
X726679Y1713246D01*
X726605Y1713252D01*
G02X727948Y1714595I95J1248D01*
G01X727954Y1714521D01*
G37*
G36*
G01X622256Y1711026D02*
X621601Y1710370D01*
X621586Y1710326D01*
G02X619999Y1711913I-1186J401D01*
G01X620043Y1711928D01*
X621544Y1713428D01*
X622498D01*
Y1713628D01*
X623348D01*
Y1716852D01*
X626252D01*
Y1713628D01*
X627102D01*
Y1711026D01*
X626420D01*
G03X626027Y1710547I-1J-400D01*
G02X623573I-1227J-247D01*
G03X623180Y1711026I-392J79D01*
G01X622256D01*
G37*
G36*
G01X626152Y1705352D02*
Y1702448D01*
X623248D01*
Y1705352D01*
X623598D01*
Y1705908D01*
X622498D01*
Y1708510D01*
X627102D01*
Y1705908D01*
X625802D01*
Y1705352D01*
X626152D01*
G37*
G36*
G01X769615Y1788560D02*
X780702Y1777473D01*
Y1691345D01*
G02X778898I-902J-869D01*
G01Y1776727D01*
X768338Y1787287D01*
G02X769687Y1788692I-1939J3212D01*
G01X769615Y1788560D01*
G37*
G36*
G01X684902Y1683690D02*
X682965D01*
X682940Y1683683D01*
G02X682260I-340J1308D01*
G01X682235Y1683690D01*
X680298D01*
Y1686292D01*
X681148D01*
Y1689352D01*
X684052D01*
Y1686292D01*
X684902D01*
Y1683690D01*
G37*
G36*
G01X717102Y1686044D02*
X713801Y1682743D01*
X713786Y1682699D01*
G02X712199Y1684286I-1186J401D01*
G01X712243Y1684301D01*
X714898Y1686956D01*
Y1745893D01*
G02X717102I1102J3007D01*
G01Y1686044D01*
G37*
G36*
G01X805646Y1682979D02*
X798098Y1690527D01*
Y1718031D01*
G02X799902I902J869D01*
G01Y1691273D01*
X806921Y1684254D01*
X806995Y1684248D01*
G02X805652Y1682905I-95J-1248D01*
G01X805646Y1682979D01*
G37*
G36*
G01X688552Y1678448D02*
Y1678348D01*
X685648D01*
Y1678522D01*
X682600D01*
G02X682260Y1678565I-2J1351D01*
G01X682235Y1678572D01*
X680298D01*
Y1681174D01*
X682235D01*
X682260Y1681181D01*
G02X682600Y1681224I338J-1308D01*
G01X685648D01*
Y1681252D01*
X688552D01*
Y1681152D01*
X727040D01*
X729644Y1683756D01*
G02X731556Y1681844I956J-956D01*
G01X728160Y1678448D01*
X688552D01*
G37*
G36*
G01X795406Y1667391D02*
G03X794716I-345J-204D01*
G02Y1669931I-2155J1270D01*
G03X795406I345J204D01*
G02X799716I2155J-1270D01*
G03X800406I345J204D01*
G02X804716I2155J-1270D01*
G03X805406I345J204D01*
G02X809716I2155J-1270D01*
G03X810406I345J204D01*
G02Y1667391I2155J-1270D01*
G03X809716I-345J-204D01*
G02X805406I-2155J1270D01*
G03X804716I-345J-204D01*
G02X800406I-2155J1270D01*
G03X799716I-345J-204D01*
G02X795406I-2155J1270D01*
G37*
G36*
G01X696455Y1641298D02*
X696529Y1641304D01*
X698107Y1642882D01*
X704393D01*
X705421Y1641854D01*
X705495Y1641848D01*
G02X704152Y1640505I-95J-1248D01*
G01X704146Y1640579D01*
X703647Y1641078D01*
X698853D01*
X697804Y1640029D01*
X697798Y1639955D01*
G02X696455Y1641298I-1248J95D01*
G37*
G36*
G01X812562Y1620869D02*
G02X810760I-901J-869D01*
G01Y1643366D01*
X777279Y1676846D01*
X777205Y1676852D01*
G02X776496Y1677140I94J1248D01*
G03X776180Y1676920I-128J-154D01*
G02X776248Y1676595I-1181J-417D01*
G01X776254Y1676521D01*
X808702Y1644073D01*
Y1622069D01*
G02X806898I-902J-869D01*
G01Y1643327D01*
X774979Y1675246D01*
X774905Y1675252D01*
G02X774092Y1675638I95J1248D01*
G03X773402Y1675363I-290J-275D01*
G01Y1637456D01*
X783515Y1627342D01*
G03X784198Y1627622I283J283D01*
G02X785430Y1629755I2502J-23D01*
G03Y1630445I-204J345D01*
G02Y1634755I1270J2155D01*
G03Y1635445I-204J345D01*
G02Y1639755I1270J2155D01*
G03Y1640445I-204J345D01*
G02X788855Y1643870I1270J2155D01*
G03X789545I345J204D01*
G02X792970Y1640445I2155J-1270D01*
G03Y1639755I204J-345D01*
G02Y1635445I-1270J-2155D01*
G03Y1634755I204J-345D01*
G02Y1630445I-1270J-2155D01*
G03Y1629755I204J-345D01*
G02Y1625445I-1270J-2155D01*
G03Y1624755I204J-345D01*
G02X789545Y1621330I-1270J-2155D01*
G03X788855I-345J-204D01*
G02X784297Y1623298I-2155J1271D01*
G01X784330Y1623412D01*
X771198Y1636544D01*
Y1749244D01*
X765844Y1754598D01*
X713256D01*
X708907Y1750249D01*
X708958Y1750126D01*
G02X707102Y1745893I-2958J-1226D01*
G01Y1694256D01*
X712957Y1688401D01*
X713001Y1688386D01*
G02X711414Y1686799I-401J-1186D01*
G01X711399Y1686843D01*
X704898Y1693344D01*
Y1745893D01*
G02X707226Y1751858I1102J3007D01*
G01X707349Y1751807D01*
X712344Y1756802D01*
X766756D01*
X773402Y1750156D01*
Y1677637D01*
G03X774092Y1677362I400J0D01*
G02X775493Y1677651I908J-862D01*
G03X776050Y1678038I157J368D01*
G02X778548Y1678195I1250J62D01*
G01X778554Y1678121D01*
X812562Y1644112D01*
Y1620869D01*
G37*
G36*
G01X621131Y1678419D02*
G02X616348Y1680400I-3431J-1519D01*
G01Y1685560D01*
X632048Y1701260D01*
Y1705907D01*
X631098D01*
Y1706356D01*
X629398Y1708056D01*
Y1711480D01*
X631098Y1713180D01*
Y1713628D01*
X632298D01*
Y1714148D01*
X631948D01*
Y1717052D01*
X634852D01*
Y1714148D01*
X634502D01*
Y1713628D01*
X635702D01*
Y1711070D01*
Y1705907D01*
X634752D01*
Y1700140D01*
X619052Y1684440D01*
Y1681128D01*
G03X619734Y1680846I400J1D01*
G01X625231Y1686342D01*
X676511D01*
X676607Y1686246D01*
G03X676948Y1686388I141J142D01*
G01Y1689352D01*
X679852D01*
Y1686448D01*
X677370D01*
G03X677088Y1685766I1J-400D01*
G01X678800Y1684053D01*
Y1680811D01*
X676511Y1678522D01*
X674000D01*
G02X673749Y1678545I-3J1351D01*
G01X673731Y1678548D01*
X671252D01*
Y1678448D01*
X668348D01*
Y1681352D01*
X671252D01*
Y1681252D01*
X671698D01*
Y1683640D01*
X626351D01*
X621131Y1678419D01*
G37*
G36*
G01X785254Y1682079D02*
X785248Y1682005D01*
G02X783905Y1683348I-1248J95D01*
G01X783979Y1683354D01*
X786298Y1685673D01*
Y1706085D01*
G03X785658Y1706405I-400J0D01*
G02Y1708407I-752J1001D01*
G03X786298Y1708727I240J320D01*
G01Y1779327D01*
X778338Y1787287D01*
G02X779687Y1788692I-1939J3212D01*
G01X779615Y1788560D01*
X788102Y1780073D01*
Y1690835D01*
G03X788677Y1690475I400J-1D01*
G02Y1688225I549J-1125D01*
G03X788102Y1687865I-175J-359D01*
G01Y1684927D01*
X785254Y1682079D01*
G37*
G36*
G01X694492Y1603887D02*
G02X693013Y1602408I1808J-3287D01*
G01X693085Y1602540D01*
X690827Y1604798D01*
X683827D01*
X680298Y1608327D01*
Y1608529D01*
G03X679552Y1608728I-400J-1D01*
G02X674428Y1613852I-3252J1872D01*
G03X674229Y1614598I-200J346D01*
G01X668371D01*
G03X668172Y1613852I1J-400D01*
G02X665275Y1614209I-1871J-3252D01*
G03X665448Y1614877I-109J385D01*
G01X657626Y1622699D01*
X657527Y1622685D01*
G02X654845Y1629471I-527J3715D01*
G03X654615Y1630198I-230J327D01*
G01X652073D01*
X650215Y1628340D01*
X650287Y1628208D01*
G02X646509Y1622680I-3287J-1808D01*
G03X646174Y1622001I-52J-396D01*
G01X654360Y1613815D01*
X654492Y1613887D01*
G02X653013Y1612408I1808J-3287D01*
G01X653085Y1612540D01*
X640998Y1624627D01*
Y1625509D01*
X640648D01*
X640606Y1625365D01*
G02X640252Y1628272I-3606J1036D01*
G03X640998Y1628471I346J200D01*
G01Y1629873D01*
X644527Y1633402D01*
X706903D01*
G03X707265Y1633971I0J400D01*
G02X707498Y1635369I1135J529D01*
G01Y1645331D01*
G02X709302I902J869D01*
G01Y1635369D01*
G02X709535Y1633971I-902J-869D01*
G03X709897Y1633402I362J-169D01*
G01X715025D01*
G03X715406Y1633922I0J400D01*
G02X715352Y1634205I1195J375D01*
G01X715346Y1634279D01*
X713598Y1636027D01*
Y1657773D01*
X731946Y1676121D01*
X731952Y1676195D01*
G02X733295Y1674852I1248J-95D01*
G01X733221Y1674846D01*
X715402Y1657027D01*
Y1636773D01*
X716621Y1635554D01*
X716695Y1635548D01*
G02X717794Y1633922I-95J-1248D01*
G03X718175Y1633402I381J-120D01*
G01X718197D01*
G03X718585Y1633898I0J400D01*
G02X718898Y1635069I1215J303D01*
G01Y1645927D01*
X717879Y1646946D01*
X717805Y1646952D01*
G02X719148Y1648295I95J1248D01*
G01X719154Y1648221D01*
X719372Y1648003D01*
G03X720029Y1648144I283J282D01*
G02X722101Y1646831I1171J-444D01*
G01Y1645440D01*
G03X722646Y1645067I400J0D01*
G02X724348Y1643995I454J-1167D01*
G01X724354Y1643921D01*
X732973Y1635302D01*
X734131D01*
G02X734293Y1635433I866J-905D01*
G01X734380Y1635493D01*
Y1635798D01*
X734127D01*
X725379Y1644546D01*
X725305Y1644552D01*
G02X726648Y1645895I95J1248D01*
G01X726654Y1645821D01*
X734873Y1637602D01*
X736631D01*
G02X738749Y1636616I869J-902D01*
G03X739431Y1636306I399J-27D01*
G01X740598Y1637473D01*
Y1641014D01*
G03X739981Y1641349I-400J0D01*
G02X739395Y1641152I-680J1051D01*
G01X739321Y1641146D01*
X738293Y1640118D01*
X734087D01*
X728059Y1646146D01*
X727985Y1646152D01*
G02X729328Y1647495I95J1248D01*
G01X729334Y1647421D01*
X734833Y1641922D01*
X737547D01*
X738046Y1642421D01*
X738052Y1642495D01*
G02X739981Y1643451I1248J-95D01*
G03X740598Y1643786I217J335D01*
G01Y1650059D01*
X738295Y1652362D01*
X738221Y1652368D01*
G02X739564Y1653711I95J1248D01*
G01X739570Y1653637D01*
X742402Y1650805D01*
Y1636727D01*
X737273Y1631598D01*
X707542D01*
G03X707259Y1630916I0J-400D01*
G01X724360Y1613815D01*
X724492Y1613887D01*
G02X729642Y1612305I1808J-3287D01*
G03X730398Y1612487I356J182D01*
G01Y1615973D01*
X744298Y1629873D01*
Y1708673D01*
X761285Y1725660D01*
X761213Y1725792D01*
G02X762692Y1724313I3287J1808D01*
G01X762560Y1724385D01*
X746102Y1707927D01*
Y1629127D01*
X732202Y1615227D01*
Y1612487D01*
G03X732958Y1612305I400J0D01*
G02X739642I3342J-1705D01*
G03X740398Y1612487I356J182D01*
G01Y1612873D01*
X747498Y1619973D01*
Y1701873D01*
X761285Y1715660D01*
X761213Y1715792D01*
G02X762692Y1714313I3287J1808D01*
G01X762560Y1714385D01*
X749302Y1701127D01*
Y1619227D01*
X744977Y1614902D01*
G03X745360Y1614232I283J-283D01*
G02X749642Y1612305I940J-3632D01*
G03X750398Y1612487I356J182D01*
G01Y1694773D01*
X761285Y1705660D01*
X761213Y1705792D01*
G02X762692Y1704313I3287J1808D01*
G01X762560Y1704385D01*
X752202Y1694027D01*
Y1612487D01*
G03X752958Y1612305I400J0D01*
G02Y1608895I3342J-1705D01*
G03X752202Y1608713I-356J-182D01*
G01Y1607927D01*
X748973Y1604698D01*
X748187D01*
G03X748005Y1603942I0J-400D01*
G02X744595I-1705J-3342D01*
G03X744413Y1604698I-182J356D01*
G01X741673D01*
X739515Y1602540D01*
X739587Y1602408D01*
G02X734428Y1603852I-3288J-1808D01*
G03X734229Y1604598I-200J346D01*
G01X731573D01*
X729515Y1602540D01*
X729587Y1602408D01*
G02X724595Y1603942I-3287J-1808D01*
G03X724413Y1604698I-182J356D01*
G01X723123D01*
X722823Y1604398D01*
X721373D01*
X719515Y1602540D01*
X719587Y1602408D01*
G02X718108Y1603887I-3287J-1808D01*
G01X718240Y1603815D01*
X720627Y1606202D01*
X722077D01*
X722377Y1606502D01*
X724413D01*
G03X724595Y1607258I0J400D01*
G02X723013Y1612408I1705J3342D01*
G01X723085Y1612540D01*
X705227Y1630398D01*
X679071D01*
G03X678872Y1629652I1J-400D01*
G02X680603Y1627446I-1872J-3251D01*
G01X680645Y1627302D01*
X700873D01*
X714360Y1613815D01*
X714492Y1613887D01*
G02X713013Y1612408I1808J-3287D01*
G01X713085Y1612540D01*
X700127Y1625498D01*
X680645D01*
X680603Y1625354D01*
G02X675128Y1629652I-3603J1046D01*
G03X674929Y1630398I-200J346D01*
G01X672273D01*
X670215Y1628340D01*
X670287Y1628208D01*
G02X666509Y1622680I-3287J-1808D01*
G03X666174Y1622001I-52J-396D01*
G01X669173Y1619002D01*
X689173D01*
X694360Y1613815D01*
X694492Y1613887D01*
G02X693013Y1612408I1808J-3287D01*
G01X693085Y1612540D01*
X688427Y1617198D01*
X668427D01*
X660998Y1624627D01*
Y1625509D01*
X660648D01*
X660606Y1625365D01*
G02X659671Y1623765I-3606J1034D01*
G03X659673Y1623202I285J-280D01*
G01X666473Y1616402D01*
X678873D01*
X682102Y1613173D01*
Y1609073D01*
X682943Y1608232D01*
X683196Y1608486D01*
X683113Y1608620D01*
G02X688172Y1607348I3187J1980D01*
G03X688371Y1606602I200J-346D01*
G01X691573D01*
X694360Y1603815D01*
X694492Y1603887D01*
G37*
G54D26*
X686000Y1770200D03*
X722961Y1653739D03*
X738316Y1675984D03*
X809250Y1693626D03*
Y1707406D03*
X804974Y1713650D03*
X809232Y1699532D03*
G54D25*
X686000Y1748900D03*
Y1778900D03*
X696000Y1748900D03*
X716000Y1778900D03*
X706000D03*
X696000D03*
X726000Y1748900D03*
Y1778900D03*
G54D21*
X616300Y1610600D03*
Y1600600D03*
X617700Y1666900D03*
X616400Y1790500D03*
Y1800500D03*
X636300Y1610600D03*
X626300D03*
X636300Y1600600D03*
X626300D03*
X636400Y1790500D03*
X626400D03*
X636400Y1800500D03*
X626400D03*
X646300Y1610600D03*
X666300Y1600600D03*
X656300D03*
X646300D03*
X666400Y1790500D03*
X646400D03*
X666400Y1800500D03*
X656400D03*
X646400D03*
X686300Y1600600D03*
X676300D03*
X677600Y1696300D03*
Y1706300D03*
X685500Y1739300D03*
X686400Y1790500D03*
X676400D03*
X686400Y1800500D03*
X676400D03*
X706300Y1610600D03*
Y1600600D03*
X695500Y1729100D03*
Y1739300D03*
X716400Y1790500D03*
X706400D03*
X696400D03*
X716400Y1800500D03*
X706400D03*
X696400D03*
X746400Y1790500D03*
X736400D03*
X726400D03*
X746400Y1800500D03*
X736400D03*
X726400D03*
X766300Y1610600D03*
Y1600600D03*
X756300D03*
X764500Y1667600D03*
Y1657600D03*
Y1647600D03*
Y1687600D03*
Y1677600D03*
Y1697600D03*
Y1747600D03*
X756400Y1790500D03*
X766400Y1800500D03*
X756400D03*
X796300Y1610600D03*
X786300D03*
X776300D03*
X796300Y1600600D03*
X786300D03*
X776300D03*
X796400Y1790500D03*
X786400D03*
X796400Y1800500D03*
X786400D03*
X776400D03*
X816300Y1610600D03*
X806300D03*
X816300Y1600600D03*
X806300D03*
X816400Y1790500D03*
X806400D03*
X816400Y1800500D03*
X806400D03*
X826300Y1610600D03*
Y1600600D03*
X826400Y1790500D03*
Y1800500D03*
G54D24*
X656700Y1740600D03*
X668511Y1759104D03*
G54D22*
X620600Y1715400D03*
X628900Y1703900D03*
X629200Y1715600D03*
X665600Y1679900D03*
X687100Y1675600D03*
G54D23*
X644889Y1759104D03*
%LPD*%
G75*
G36*
G01X728015Y1633898D02*
G03X726895Y1635448I-1215J302D01*
G01X726821Y1635454D01*
X722102Y1640173D01*
Y1642360D01*
G02X722646Y1642733I400J0D01*
G03X723005Y1642652I452J1167D01*
G01X723079Y1642646D01*
X731641Y1634084D01*
G02X731358Y1633402I-283J-282D01*
G01X728403D01*
G02X728015Y1633898I0J400D01*
G37*
G36*
G01X720702Y1635069D02*
Y1638058D01*
G02X721384Y1638341I400J0D01*
G01X725546Y1634179D01*
X725552Y1634105D01*
G03X725585Y1633898I1248J93D01*
G02X725197Y1633402I-388J-96D01*
G01X721403D01*
G02X721015Y1633898I0J400D01*
G03X720702Y1635069I-1215J303D01*
G37*
G54D10*
X616300Y1610600D03*
Y1600600D03*
X617700Y1666900D03*
Y1676900D03*
X616400Y1790500D03*
Y1800500D03*
X636300Y1610600D03*
X626300D03*
X636300Y1600600D03*
X626300D03*
X637000Y1626400D03*
X636400Y1790500D03*
X626400D03*
X636400Y1800500D03*
X626400D03*
X666300Y1610600D03*
X656300D03*
X646300D03*
X666300Y1600600D03*
X656300D03*
X646300D03*
X647000Y1626400D03*
X657000D03*
X667000D03*
X666400Y1790500D03*
X656400D03*
X646400D03*
X666400Y1800500D03*
X656400D03*
X646400D03*
X686300Y1610600D03*
X676300D03*
X686300Y1600600D03*
X676300D03*
X677000Y1626400D03*
X677600Y1696300D03*
Y1706300D03*
X685500Y1729100D03*
Y1739300D03*
X686400Y1790500D03*
X676400D03*
X686400Y1800500D03*
X676400D03*
X716300Y1610600D03*
X706300D03*
X696300D03*
X716300Y1600600D03*
X706300D03*
X696300D03*
X695500Y1729100D03*
Y1739300D03*
X716400Y1790500D03*
X706400D03*
X696400D03*
X716400Y1800500D03*
X706400D03*
X696400D03*
X746300Y1610600D03*
X736300D03*
X726300D03*
X746300Y1600600D03*
X736300D03*
X726300D03*
X746400Y1790500D03*
X736400D03*
X726400D03*
X746400Y1800500D03*
X736400D03*
X726400D03*
X766300Y1610600D03*
X756300D03*
X766300Y1600600D03*
X756300D03*
X764500Y1667600D03*
Y1657600D03*
Y1647600D03*
Y1687600D03*
Y1677600D03*
Y1717600D03*
Y1707600D03*
Y1697600D03*
Y1737600D03*
Y1727600D03*
Y1747600D03*
X766400Y1790500D03*
X756400D03*
X766400Y1800500D03*
X756400D03*
X796300Y1610600D03*
X786300D03*
X776300D03*
X796300Y1600600D03*
X786300D03*
X776300D03*
X796400Y1790500D03*
X786400D03*
X776400D03*
X796400Y1800500D03*
X786400D03*
X776400D03*
X816300Y1610600D03*
X806300D03*
X816300Y1600600D03*
X806300D03*
X816400Y1790500D03*
X806400D03*
X816400Y1800500D03*
X806400D03*
X826300Y1610600D03*
Y1600600D03*
X826400Y1790500D03*
Y1800500D03*
G54D20*
G01X613748Y1666900D02*
X617700D01*
G01Y1662948D02*
Y1666900D01*
G01D02*
Y1670852D01*
G01Y1666900D02*
X621652D01*
G01X638000Y1712800D02*
X634968Y1709768D01*
X633400D01*
G01X629200Y1713948D02*
Y1715600D01*
G01X628900Y1702248D02*
Y1703900D01*
G01D02*
Y1705552D01*
G01X627248Y1703900D02*
X628900D01*
G01D02*
X630552D01*
G01X620600Y1713748D02*
Y1715400D01*
G01X629200Y1715600D02*
Y1717252D01*
G01X627548Y1715600D02*
X629200D01*
G01D02*
X630852D01*
G01X620600Y1715400D02*
Y1717052D01*
G01X618948Y1715400D02*
X620600D01*
G01D02*
X622252D01*
G01X637297Y1759104D02*
X644889D01*
G01X738316Y1653616D02*
X741500Y1650432D01*
Y1637100D01*
X736900Y1632500D01*
X644900D01*
X641900Y1629500D01*
Y1625000D01*
X656300Y1610600D01*
G01X657000Y1626400D02*
Y1624600D01*
X666100Y1615500D01*
X678500D01*
X681200Y1612800D01*
Y1608700D01*
X684200Y1605700D01*
X691200D01*
X696300Y1600600D01*
G01X647000Y1626400D02*
X651700Y1631100D01*
X659700D01*
X661900Y1628900D01*
Y1625000D01*
X668800Y1618100D01*
X688800D01*
X696300Y1610600D01*
G01X663948Y1679900D02*
X665600D01*
G01X656700Y1732024D02*
Y1740600D01*
G01D02*
Y1749176D01*
G01X648124Y1740600D02*
X656700D01*
G01D02*
X665276D01*
G01X644889Y1751512D02*
Y1759104D01*
G01D02*
Y1766696D01*
G01Y1759104D02*
X652481D01*
G01X677000Y1626400D02*
X700500D01*
X716300Y1610600D01*
G01X667000Y1626400D02*
X671900Y1631300D01*
X705600D01*
X726300Y1610600D01*
G01X678400Y1686248D02*
Y1687900D01*
G01D02*
Y1689552D01*
G01X676748Y1687900D02*
X678400D01*
G01D02*
X680052D01*
G01X687100Y1673948D02*
Y1675600D01*
G01D02*
Y1677252D01*
G01X685448Y1675600D02*
X687100D01*
G01D02*
X688752D01*
G01X665600Y1678248D02*
Y1679900D01*
G01D02*
Y1681552D01*
G01Y1679900D02*
X667252D01*
G01X677600Y1692348D02*
Y1696300D01*
G01D02*
Y1700252D01*
G01X673648Y1696300D02*
X677600D01*
G01D02*
X681552D01*
G01X764500Y1727600D02*
X745200Y1708300D01*
Y1629500D01*
X731300Y1615600D01*
Y1608000D01*
X728900Y1605600D01*
X722750D01*
X722450Y1605300D01*
X721000D01*
X716300Y1600600D01*
G01X733200Y1676100D02*
X714500Y1657400D01*
Y1636400D01*
X716600Y1634300D01*
G01X708400Y1634500D02*
Y1646200D01*
G01X705400Y1640600D02*
X704020Y1641980D01*
X698480D01*
X696550Y1640050D01*
G01X764500Y1707600D02*
X751300Y1694400D01*
Y1608300D01*
X748600Y1605600D01*
X741300D01*
X736300Y1600600D01*
G01X764500Y1717600D02*
X748400Y1701500D01*
Y1619600D01*
X741300Y1612500D01*
Y1608900D01*
X737900Y1605500D01*
X731200D01*
X726300Y1600600D01*
G01X717900Y1648200D02*
X719800Y1646300D01*
Y1634200D01*
G01X726800D02*
X721200Y1639800D01*
Y1647700D01*
G01X735000Y1634400D02*
X732600D01*
X723100Y1643900D01*
G01X737500Y1636700D02*
X734500D01*
X725400Y1645800D01*
G01X739300Y1642400D02*
X737920Y1641020D01*
X734460D01*
X728080Y1647400D01*
G01X726700Y1714500D02*
X728080Y1713120D01*
X740020D01*
X764500Y1737600D01*
G01Y1643648D02*
Y1647600D01*
G01D02*
Y1651552D01*
G01X760548Y1647600D02*
X764500D01*
G01D02*
X768452D01*
G01X779800Y1690476D02*
Y1777100D01*
X766400Y1790500D01*
G01X791700Y1619898D02*
Y1622600D01*
G01D02*
X794402D01*
G01X775000Y1676500D02*
X807800Y1643700D01*
Y1621200D01*
G01X811661Y1620000D02*
Y1643739D01*
X777300Y1678100D01*
G01X792561Y1665959D02*
Y1668661D01*
G01D02*
Y1671363D01*
G01X789859Y1668661D02*
X792561D01*
G01X784000Y1682100D02*
X787200Y1685300D01*
Y1779700D01*
X776400Y1790500D01*
G01X806900Y1683000D02*
X799000Y1690900D01*
Y1718900D01*
G01X826300Y1596648D02*
Y1600600D01*
G01D02*
Y1604552D01*
G01X822348Y1600600D02*
X826300D01*
G01D02*
X830252D01*
G01X826300Y1606648D02*
Y1610600D01*
G01D02*
Y1614552D01*
G01X822348Y1610600D02*
X826300D01*
G01D02*
X830252D01*
G54D11*
G01X617700Y1676900D02*
X625791Y1684991D01*
X674000D01*
G01X633400Y1707209D02*
Y1700700D01*
X617700Y1685000D01*
Y1676900D01*
G01X674000Y1682432D02*
X668432D01*
G01X674000Y1684991D02*
X675951D01*
X677449Y1683493D01*
Y1681371D01*
X675951Y1679873D01*
X674000D01*
G01D02*
X673973Y1679900D01*
X669800D01*
G01X682600Y1684991D02*
Y1687900D01*
G01Y1679873D02*
X687027D01*
X687100Y1679800D01*
G01X730600Y1682800D02*
X727600Y1679800D01*
X687100D01*
X612710Y1636008D03*
Y1626008D03*
Y1616008D03*
Y1656008D03*
Y1646008D03*
Y1686008D03*
Y1676008D03*
Y1666008D03*
Y1706008D03*
Y1696008D03*
Y1736008D03*
Y1726008D03*
Y1716008D03*
Y1766008D03*
Y1756008D03*
Y1746008D03*
Y1776008D03*
X632710Y1636008D03*
X639800Y1618400D03*
X631800Y1618000D03*
X635931Y1661523D03*
X630931D03*
X635931Y1656523D03*
X630931D03*
X635931Y1651523D03*
X630931D03*
X635931Y1646523D03*
X630931D03*
X635931Y1676523D03*
X630931D03*
X635931Y1671523D03*
X630931D03*
X635931Y1666523D03*
X630931D03*
X622710Y1676008D03*
Y1696008D03*
X624800Y1710300D03*
X620400Y1710727D03*
X624800Y1712300D03*
X632710Y1736008D03*
X622710D03*
X632710Y1726008D03*
X622710D03*
X632710Y1766008D03*
Y1756008D03*
X622710D03*
X632710Y1746008D03*
X622710D03*
X632710Y1776008D03*
X664000Y1620300D03*
X662710Y1636008D03*
X652710D03*
X642710D03*
X660600Y1617600D03*
X665874Y1661947D03*
Y1656947D03*
Y1651947D03*
Y1646947D03*
X660931Y1661523D03*
X655931D03*
X650931D03*
X645931D03*
X640931D03*
X660931Y1656523D03*
X655931D03*
X650931D03*
X645931D03*
X640931D03*
X660931Y1651523D03*
X655931D03*
X650931D03*
X645931D03*
X640931D03*
X660931Y1646523D03*
X655931D03*
X650931D03*
X645931D03*
X640931D03*
X665874Y1671947D03*
Y1666947D03*
X660931Y1676523D03*
X655931D03*
X650931D03*
X645931D03*
X640931D03*
X660931Y1671523D03*
X655931D03*
X650931D03*
X645931D03*
X640931D03*
X660931Y1666523D03*
X655931D03*
X650931D03*
X645931D03*
X640931D03*
X648400Y1664700D03*
X652710Y1706008D03*
X642710Y1736008D03*
X662710Y1726008D03*
X652710D03*
X642710D03*
X662710Y1716008D03*
X652710D03*
X642710Y1746008D03*
X662710Y1776008D03*
X683800Y1620300D03*
X682710Y1636008D03*
X672710D03*
Y1656008D03*
X682710Y1646008D03*
Y1676008D03*
X672710D03*
X682710Y1666008D03*
X672710D03*
X682710Y1706008D03*
X670300Y1704900D03*
X670100Y1696500D03*
X672710Y1726008D03*
X682710Y1716008D03*
X672710D03*
X682710Y1766008D03*
Y1756008D03*
X690500Y1744600D03*
X681700D03*
X682900Y1774200D03*
X672710Y1776008D03*
X686000Y1770200D03*
X716600Y1634300D03*
X708400Y1634500D03*
X699800Y1635500D03*
X702710Y1616008D03*
X705400Y1640600D03*
X696550Y1640050D03*
X708400Y1646200D03*
X712600Y1660400D03*
X708100Y1658200D03*
X702710Y1656008D03*
X692710D03*
Y1646008D03*
X708300Y1674100D03*
X692710Y1686008D03*
X702710Y1676008D03*
X692710D03*
X702710Y1666008D03*
X692710D03*
X712600Y1687200D03*
Y1683100D03*
X696700Y1707300D03*
X702710Y1706008D03*
X712710Y1696008D03*
X702710D03*
X712710Y1736008D03*
X702710D03*
X712710Y1726008D03*
Y1716008D03*
X692710D03*
X702710Y1766008D03*
X692710Y1756008D03*
X710000Y1743400D03*
X712300Y1772900D03*
X702100Y1773400D03*
X692500Y1773500D03*
X722800Y1634600D03*
X729500Y1634500D03*
X722710Y1626008D03*
X719800Y1634200D03*
X726800D03*
X735000Y1634400D03*
X737500Y1636700D03*
X739300Y1642400D03*
X728080Y1647400D03*
X738316Y1653616D03*
X735500Y1644800D03*
X724400Y1648600D03*
X722961Y1653739D03*
X717900Y1648200D03*
X721200Y1647700D03*
X723100Y1643900D03*
X725400Y1645800D03*
X733200Y1676100D03*
X742710Y1686008D03*
X722710D03*
X738316Y1675984D03*
X730600Y1682800D03*
X726700Y1714500D03*
X732710Y1706008D03*
X722710D03*
X732710Y1696008D03*
X722710D03*
X742710Y1736008D03*
X732710D03*
X722710D03*
X732710Y1726008D03*
X722710D03*
X742710Y1766008D03*
X732710D03*
X722710D03*
X742710Y1746008D03*
X732710D03*
X721500Y1743100D03*
X742710Y1776008D03*
X732710D03*
X721400Y1772000D03*
X761700Y1619800D03*
X755800Y1655000D03*
X752710Y1736008D03*
X762710Y1766008D03*
X752710D03*
Y1746008D03*
X762710Y1776008D03*
X752710D03*
X783100Y1636500D03*
X792710Y1616008D03*
X780600Y1618900D03*
X772500Y1619900D03*
X792710Y1656008D03*
X782710D03*
X792710Y1646008D03*
X782710D03*
Y1686008D03*
Y1676008D03*
X792710Y1666008D03*
X789226Y1689350D03*
X775000Y1676500D03*
X784000Y1682100D03*
X777300Y1678100D03*
X777400Y1693700D03*
X792710Y1706008D03*
Y1696008D03*
X784906Y1707406D03*
X779800Y1690476D03*
X769300Y1740000D03*
X792710Y1736008D03*
X782710Y1716008D03*
X769000Y1744500D03*
X792710Y1766008D03*
X782710D03*
X792710Y1756008D03*
X782710D03*
X772710D03*
X792710Y1746008D03*
X782710D03*
X792710Y1776008D03*
X782710D03*
X772710D03*
X802710Y1636008D03*
Y1626008D03*
X807800Y1621200D03*
X811661Y1620000D03*
X812710Y1656008D03*
X802710D03*
X812710Y1646008D03*
X802710D03*
X806900Y1683000D03*
X812710Y1676008D03*
X802710D03*
Y1706008D03*
Y1696008D03*
X809250Y1693626D03*
Y1707406D03*
X804974Y1713650D03*
X809232Y1699532D03*
X799000Y1718900D03*
X812710Y1736008D03*
X802710D03*
X812710Y1726008D03*
X802710D03*
X812710Y1716008D03*
Y1766008D03*
X802710D03*
X812710Y1756008D03*
X802710D03*
X812710Y1746008D03*
X802710D03*
X812710Y1776008D03*
X802710D03*
X822710Y1636008D03*
Y1626008D03*
X822200Y1620300D03*
X822710Y1656008D03*
Y1646008D03*
Y1676008D03*
Y1666008D03*
X824500Y1700400D03*
X821900D03*
X822710Y1736008D03*
Y1726008D03*
Y1716008D03*
Y1766008D03*
Y1756008D03*
Y1746008D03*
Y1776008D03*
G54D12*
X620600Y1715400D03*
X624800D03*
X628900Y1703900D03*
X624700D03*
X629200Y1715600D03*
X633400D03*
X665600Y1679900D03*
X669800D03*
X678400Y1687900D03*
X682600D03*
G54D13*
X624800Y1712327D03*
Y1707209D03*
X633400D03*
Y1709768D03*
Y1712327D03*
X682600Y1679873D03*
Y1684991D03*
X674000D03*
Y1682432D03*
Y1679873D03*
G54D14*
X644889Y1759104D03*
G54D15*
X656700Y1740600D03*
X668511Y1759104D03*
G54D16*
X687100Y1675600D03*
Y1679800D03*
G54D17*
X686000Y1748900D03*
Y1778900D03*
X696000Y1748900D03*
X706000D03*
X716000D03*
Y1778900D03*
X706000D03*
X696000D03*
X726000Y1748900D03*
Y1778900D03*
G54D18*
X791700Y1622600D03*
X786700D03*
X791700Y1627600D03*
X786700D03*
X791700Y1632600D03*
X786700D03*
X791700Y1637600D03*
X786700D03*
X791700Y1642600D03*
X786700D03*
X792561Y1668661D03*
X812561D03*
X807561D03*
X802561D03*
X797561D03*
G54D19*
G01X633400Y1715600D02*
Y1712327D01*
G01D02*
X631803D01*
X630500Y1711024D01*
Y1708512D01*
X631803Y1707209D01*
X633400D01*
G01X624800Y1712327D02*
Y1715400D01*
G01X620400Y1710727D02*
X622000Y1712327D01*
X624800D01*
G01Y1712300D02*
Y1712327D01*
G01Y1710300D02*
Y1712300D01*
G01Y1707209D02*
X624700Y1707109D01*
Y1703900D01*
G01X656400Y1790500D02*
X664600Y1782300D01*
X669301D01*
X678500Y1773101D01*
Y1736100D01*
X685500Y1729100D01*
G01X712600Y1687200D02*
X706000Y1693800D01*
Y1748900D01*
G01X712600Y1683100D02*
X716000Y1686500D01*
Y1748900D01*
G01X786700Y1622600D02*
X772300Y1637000D01*
Y1749700D01*
X766300Y1755700D01*
X712800D01*
X706000Y1748900D01*
M02*
