G04 ================== begin FILE IDENTIFICATION RECORD ==================*
G04 Layout Name:  BBB_CAPE_PCB_AN_V_1_1.brd*
G04 Film Name:    SILKSCREEN_BOTTOM*
G04 File Format:  Gerber RS274X*
G04 File Origin:  Cadence Allegro 16.6-2015-S056*
G04 Origin Date:  Tue May 17 20:29:37 2016*
G04 *
G04 Layer:  REF DES/SILKSCREEN_BOTTOM*
G04 Layer:  PACKAGE GEOMETRY/SILKSCREEN_BOTTOM*
G04 Layer:  BOARD GEOMETRY/SILKSCREEN_BOTTOM*
G04 *
G04 Offset:    (0.00 0.00)*
G04 Mirror:    No*
G04 Mode:      Positive*
G04 Rotation:  0*
G04 FullContactRelief:  No*
G04 UndefLineWidth:     5.00*
G04 ================== end FILE IDENTIFICATION RECORD ====================*
%FSLAX25Y25*MOIN*%
%IR0*IPPOS*OFA0.00000B0.00000*MIA0B0*SFA1.00000B1.00000*%
%ADD10C,.005*%
G75*
%LPD*%
G75*
G36*
G01X611300Y1618100D02*
X831300D01*
Y1593100D01*
X611300D01*
Y1618100D01*
G37*
G36*
G01X611400Y1808000D02*
X831400D01*
Y1783000D01*
X611400D01*
Y1808000D01*
G37*
G36*
G01X625700Y1702900D02*
Y1704900D01*
X627900D01*
Y1702900D01*
X625700D01*
G37*
G36*
G01X626600Y1713200D02*
X631400D01*
Y1706300D01*
X626600D01*
Y1713200D01*
G37*
G36*
G01X623800Y1716400D02*
Y1714400D01*
X621600D01*
Y1716400D01*
X623800D01*
G37*
G36*
G01X632400Y1716600D02*
Y1714600D01*
X630200D01*
Y1716600D01*
X632400D01*
G37*
G36*
G01X668800Y1680900D02*
Y1678900D01*
X666600D01*
Y1680900D01*
X668800D01*
G37*
G36*
G01X686100Y1678800D02*
X688100D01*
Y1676600D01*
X686100D01*
Y1678800D01*
G37*
G36*
G01X681600Y1688900D02*
Y1686900D01*
X679400D01*
Y1688900D01*
X681600D01*
G37*
G36*
G01X680800Y1679000D02*
X676000D01*
Y1685900D01*
X680800D01*
Y1679000D01*
G37*
G54D10*
G01X616813Y1716592D02*
X616973Y1716717D01*
X617160Y1716800D01*
X617373D01*
X617613Y1716675D01*
X617800Y1716467D01*
X617933Y1716217D01*
X618040Y1715800D01*
X618067Y1715425D01*
X618013Y1715050D01*
X617933Y1714800D01*
X617773Y1714550D01*
X617587Y1714383D01*
X617400Y1714300D01*
X617213D01*
X617027Y1714383D01*
X616867Y1714508D01*
X616733Y1714675D01*
G01X614880Y1714300D02*
Y1716800D01*
X615867Y1715008D01*
X614533D01*
G01X613453Y1714592D02*
X613267Y1714383D01*
X613053Y1714300D01*
X612840Y1714383D01*
X612653Y1714633D01*
X612520Y1715008D01*
X612467Y1715383D01*
Y1715842D01*
X612520Y1716217D01*
X612653Y1716550D01*
X612813Y1716717D01*
X613000Y1716800D01*
X613213Y1716717D01*
X613373Y1716550D01*
X613480Y1716300D01*
X613533Y1715967D01*
X613480Y1715675D01*
X613347Y1715383D01*
X613187Y1715217D01*
X613000Y1715175D01*
X612787Y1715258D01*
X612627Y1715467D01*
X612467Y1715842D01*
G01X617987Y1702708D02*
X617827Y1702583D01*
X617640Y1702500D01*
X617427D01*
X617187Y1702625D01*
X617000Y1702833D01*
X616867Y1703083D01*
X616760Y1703500D01*
X616733Y1703875D01*
X616787Y1704250D01*
X616867Y1704500D01*
X617027Y1704750D01*
X617213Y1704917D01*
X617400Y1705000D01*
X617587D01*
X617773Y1704917D01*
X617933Y1704792D01*
X618067Y1704625D01*
G01X619013D02*
X619173Y1704833D01*
X619360Y1704958D01*
X619600Y1705000D01*
X619840Y1704917D01*
X620027Y1704750D01*
X620160Y1704458D01*
X620187Y1704125D01*
X620133Y1703792D01*
X620000Y1703583D01*
X619813Y1703417D01*
X619627Y1703375D01*
X619440Y1703417D01*
X619200Y1703583D01*
X619280Y1702500D01*
X620000D01*
G01X621800D02*
X621587Y1702583D01*
X621427Y1702792D01*
X621320Y1703042D01*
X621240Y1703375D01*
X621213Y1703750D01*
X621240Y1704125D01*
X621320Y1704458D01*
X621427Y1704708D01*
X621587Y1704917D01*
X621800Y1705000D01*
X622013Y1704917D01*
X622173Y1704708D01*
X622280Y1704458D01*
X622360Y1704125D01*
X622387Y1703750D01*
X622360Y1703375D01*
X622280Y1703042D01*
X622173Y1702792D01*
X622013Y1702583D01*
X621800Y1702500D01*
G01X640213Y1716892D02*
X640373Y1717017D01*
X640560Y1717100D01*
X640773D01*
X641013Y1716975D01*
X641200Y1716767D01*
X641333Y1716517D01*
X641440Y1716100D01*
X641467Y1715725D01*
X641413Y1715350D01*
X641333Y1715100D01*
X641173Y1714850D01*
X640987Y1714683D01*
X640800Y1714600D01*
X640613D01*
X640427Y1714683D01*
X640267Y1714808D01*
X640133Y1714975D01*
G01X639187D02*
X639027Y1714767D01*
X638840Y1714642D01*
X638600Y1714600D01*
X638360Y1714683D01*
X638173Y1714850D01*
X638040Y1715142D01*
X638013Y1715475D01*
X638067Y1715808D01*
X638200Y1716017D01*
X638387Y1716183D01*
X638573Y1716225D01*
X638760Y1716183D01*
X639000Y1716017D01*
X638920Y1717100D01*
X638200D01*
G01X636400Y1714600D02*
Y1717100D01*
X636720Y1716600D01*
G01Y1714600D02*
X636080D01*
G01X637000Y1712287D02*
X638792D01*
X639167Y1712180D01*
X639417Y1711967D01*
X639500Y1711700D01*
X639417Y1711433D01*
X639167Y1711220D01*
X638792Y1711113D01*
X637000D01*
G01X639500Y1709500D02*
X637000D01*
X637500Y1709820D01*
G01X639500D02*
Y1709180D01*
G01X638458Y1707807D02*
X638167Y1707620D01*
X638000Y1707460D01*
X637917Y1707247D01*
X638000Y1707060D01*
X638167Y1706927D01*
X638417Y1706820D01*
X638708Y1706793D01*
X638958Y1706820D01*
X639208Y1706927D01*
X639417Y1707087D01*
X639500Y1707273D01*
X639417Y1707487D01*
X639167Y1707673D01*
X638792Y1707780D01*
X638375Y1707807D01*
X637833Y1707753D01*
X637542Y1707673D01*
X637250Y1707540D01*
X637042Y1707353D01*
X637000Y1707167D01*
X637083Y1706980D01*
X637292Y1706847D01*
G01X662113Y1680792D02*
X662273Y1680917D01*
X662460Y1681000D01*
X662673D01*
X662913Y1680875D01*
X663100Y1680667D01*
X663233Y1680417D01*
X663340Y1680000D01*
X663367Y1679625D01*
X663313Y1679250D01*
X663233Y1679000D01*
X663073Y1678750D01*
X662887Y1678583D01*
X662700Y1678500D01*
X662513D01*
X662327Y1678583D01*
X662167Y1678708D01*
X662033Y1678875D01*
G01X660500Y1678500D02*
Y1681000D01*
X660820Y1680500D01*
G01Y1678500D02*
X660180D01*
G01X658887Y1678875D02*
X658727Y1678667D01*
X658540Y1678542D01*
X658300Y1678500D01*
X658060Y1678583D01*
X657873Y1678750D01*
X657740Y1679042D01*
X657713Y1679375D01*
X657767Y1679708D01*
X657900Y1679917D01*
X658087Y1680083D01*
X658273Y1680125D01*
X658460Y1680083D01*
X658700Y1679917D01*
X658620Y1681000D01*
X657900D01*
G01X685708Y1672113D02*
X685583Y1672273D01*
X685500Y1672460D01*
Y1672673D01*
X685625Y1672913D01*
X685833Y1673100D01*
X686083Y1673233D01*
X686500Y1673340D01*
X686875Y1673367D01*
X687250Y1673313D01*
X687500Y1673233D01*
X687750Y1673073D01*
X687917Y1672887D01*
X688000Y1672700D01*
Y1672513D01*
X687917Y1672327D01*
X687792Y1672167D01*
X687625Y1672033D01*
G01X688000Y1670180D02*
X685500D01*
X687292Y1671167D01*
Y1669833D01*
G01X688000Y1668353D02*
X687458Y1668300D01*
X687000Y1668220D01*
X686583Y1668113D01*
X686125Y1667980D01*
X685500Y1667767D01*
Y1668833D01*
G01X674813Y1689092D02*
X674973Y1689217D01*
X675160Y1689300D01*
X675373D01*
X675613Y1689175D01*
X675800Y1688967D01*
X675933Y1688717D01*
X676040Y1688300D01*
X676067Y1687925D01*
X676013Y1687550D01*
X675933Y1687300D01*
X675773Y1687050D01*
X675587Y1686883D01*
X675400Y1686800D01*
X675213D01*
X675027Y1686883D01*
X674867Y1687008D01*
X674733Y1687175D01*
G01X672880Y1686800D02*
Y1689300D01*
X673867Y1687508D01*
X672533D01*
G01X671000Y1686800D02*
X670813Y1686842D01*
X670600Y1686967D01*
X670467Y1687175D01*
X670413Y1687467D01*
X670467Y1687758D01*
X670627Y1688008D01*
X670867Y1688133D01*
X671133D01*
X671293Y1688217D01*
X671427Y1688425D01*
X671480Y1688717D01*
X671400Y1689008D01*
X671213Y1689217D01*
X671000Y1689300D01*
X670787Y1689217D01*
X670600Y1689008D01*
X670520Y1688717D01*
X670573Y1688425D01*
X670707Y1688217D01*
X670867Y1688133D01*
X671133D01*
X671373Y1688008D01*
X671533Y1687758D01*
X671587Y1687467D01*
X671533Y1687175D01*
X671400Y1686967D01*
X671187Y1686842D01*
X671000Y1686800D01*
G01X688400Y1682713D02*
X686608D01*
X686233Y1682820D01*
X685983Y1683033D01*
X685900Y1683300D01*
X685983Y1683567D01*
X686233Y1683780D01*
X686608Y1683887D01*
X688400D01*
G01X687983Y1684993D02*
X688233Y1685153D01*
X688358Y1685340D01*
X688400Y1685553D01*
X688317Y1685820D01*
X688108Y1686007D01*
X687858Y1686060D01*
X687608Y1686033D01*
X687400Y1685927D01*
X686983Y1685393D01*
X686692Y1685153D01*
X686275Y1684993D01*
X685900Y1684940D01*
Y1686060D01*
G01X681000Y1743900D02*
Y1783900D01*
X731000D01*
Y1743900D01*
X681000D01*
G01X711213Y1738900D02*
Y1740692D01*
X711320Y1741067D01*
X711533Y1741317D01*
X711800Y1741400D01*
X712067Y1741317D01*
X712280Y1741067D01*
X712387Y1740692D01*
Y1738900D01*
G01X714000Y1741400D02*
Y1738900D01*
X713680Y1739400D01*
G01Y1741400D02*
X714320D01*
G01X716520D02*
Y1738900D01*
X715533Y1740692D01*
X716867D01*
G01X836500Y1605487D02*
X838292D01*
X838667Y1605380D01*
X838917Y1605167D01*
X839000Y1604900D01*
X838917Y1604633D01*
X838667Y1604420D01*
X838292Y1604313D01*
X836500D01*
G01X839000Y1602700D02*
X836500D01*
X837000Y1603020D01*
G01X839000D02*
Y1602380D01*
G01X836500Y1600500D02*
X836583Y1600713D01*
X836792Y1600873D01*
X837042Y1600980D01*
X837375Y1601060D01*
X837750Y1601087D01*
X838125Y1601060D01*
X838458Y1600980D01*
X838708Y1600873D01*
X838917Y1600713D01*
X839000Y1600500D01*
X838917Y1600287D01*
X838708Y1600127D01*
X838458Y1600020D01*
X838125Y1599940D01*
X837750Y1599913D01*
X837375Y1599940D01*
X837042Y1600020D01*
X836792Y1600127D01*
X836583Y1600287D01*
X836500Y1600500D01*
G01X837100Y1796487D02*
X838892D01*
X839267Y1796380D01*
X839517Y1796167D01*
X839600Y1795900D01*
X839517Y1795633D01*
X839267Y1795420D01*
X838892Y1795313D01*
X837100D01*
G01X839308Y1794153D02*
X839517Y1793967D01*
X839600Y1793753D01*
X839517Y1793540D01*
X839267Y1793353D01*
X838892Y1793220D01*
X838517Y1793167D01*
X838058D01*
X837683Y1793220D01*
X837350Y1793353D01*
X837183Y1793513D01*
X837100Y1793700D01*
X837183Y1793913D01*
X837350Y1794073D01*
X837600Y1794180D01*
X837933Y1794233D01*
X838225Y1794180D01*
X838517Y1794047D01*
X838683Y1793887D01*
X838725Y1793700D01*
X838642Y1793487D01*
X838433Y1793327D01*
X838058Y1793167D01*
M02*
