G04 ================== begin FILE IDENTIFICATION RECORD ==================*
G04 Layout Name:  TESTPCB.brd*
G04 Film Name:    GND*
G04 File Format:  Gerber RS274X*
G04 File Origin:  Cadence Allegro 16.6-P004*
G04 Origin Date:  Sun Jul 06 16:17:52 2014*
G04 *
G04 Layer:  ETCH/GND*
G04 Layer:  PIN/GND*
G04 Layer:  VIA CLASS/GND*
G04 *
G04 Offset:    (0.00 0.00)*
G04 Mirror:    No*
G04 Mode:      Positive*
G04 Rotation:  0*
G04 FullContactRelief:  No*
G04 UndefLineWidth:     5.00*
G04 ================== end FILE IDENTIFICATION RECORD ====================*
%FSLAX55Y55*MOIN*%
%IR0*IPPOS*OFA0.00000B0.00000*MIA0B0*SFA1.00000B1.00000*%
%ADD10C,.015*%
%ADD11C,.005*%
%ADD12C,.02504*%
G75*
%LPD*%
G75*
G36*
G01X751501Y1656901D02*
Y1703599D01*
X819825D01*
G02X820206Y1703078I0J-400D01*
G03X822594I1194J-378D01*
G02X822975Y1703599I381J121D01*
G01X832403D01*
G02X832766Y1703030I0J-400D01*
G03X835034I1134J-530D01*
G02X835397Y1703599I363J169D01*
G01X859699D01*
Y1656901D01*
X841504D01*
G02X841230Y1657592I0J400D01*
G03X839510I-860J910D01*
G02X839236Y1656901I-274J-291D01*
G01X751501D01*
G37*
%LPC*%
G75*
G36*
G01X797351Y1700329D02*
G03X797076Y1700260I-103J-171D01*
G02X796649Y1701972I-1076J641D01*
G03X796924Y1702041I103J171D01*
G02X797351Y1700329I1076J-641D01*
G37*
G36*
G01X766516Y1692773D02*
G02X765271Y1691761I-16J-1252D01*
G03X764884Y1692238I-392J77D01*
G02X766129Y1693250I16J1252D01*
G03X766516Y1692773I392J-77D01*
G37*
G36*
G01X806840Y1691083D02*
G02X805876Y1692128I-1240J-176D01*
G03X806360Y1692574I88J390D01*
G02X807324Y1691529I1240J176D01*
G03X806840Y1691083I-88J-390D01*
G37*
G54D12*
X756000Y1701366D03*
X757300Y1670100D03*
X768300Y1669700D03*
X764900Y1701200D03*
X773300Y1696000D03*
X784500Y1697626D03*
X780600Y1689500D03*
X783300Y1687500D03*
X787000Y1699300D03*
X773700Y1701500D03*
X795250Y1687500D03*
X796100Y1690800D03*
X799500Y1691500D03*
X818500Y1666400D03*
X806700Y1683100D03*
X816300Y1696600D03*
X824400Y1666400D03*
X819500Y1689100D03*
X822500D03*
X840900Y1667400D03*
X839600Y1664600D03*
%LPD*%
G75*
G54D10*
X753200Y1669000D03*
X753300Y1665700D03*
X753200Y1662400D03*
Y1658700D03*
X752900Y1698000D03*
X756000Y1701366D03*
X753000Y1701200D03*
X769500Y1658100D03*
X765400Y1658300D03*
X761300Y1658400D03*
X757300Y1658300D03*
Y1670100D03*
X768300Y1669700D03*
X764900Y1693490D03*
X766500Y1691521D03*
X764900Y1701200D03*
X787500Y1667000D03*
X772300Y1658000D03*
X775100D03*
X773300Y1696000D03*
X784500Y1697626D03*
X780600Y1689500D03*
X783300Y1687500D03*
X787000Y1699300D03*
X773700Y1701500D03*
X800000Y1685000D03*
X795250Y1687500D03*
X796100Y1690800D03*
X799500Y1691500D03*
X796000Y1700901D03*
X801500Y1702100D03*
X798000Y1701400D03*
X806000Y1660100D03*
X818500Y1666400D03*
X806700Y1683100D03*
X816300Y1696600D03*
X805600Y1690907D03*
X807600Y1692750D03*
X824400Y1666400D03*
X829800Y1695000D03*
X819500Y1689100D03*
X822500D03*
X821400Y1702700D03*
X833900Y1702500D03*
X840900Y1667400D03*
X846700Y1658100D03*
X850700Y1658202D03*
X840370Y1658502D03*
X839600Y1664600D03*
X842500Y1702500D03*
X857900Y1658700D03*
X854100Y1658600D03*
X857700Y1661000D03*
X857500Y1664100D03*
Y1667500D03*
X857700Y1672700D03*
X857500Y1670500D03*
X857600Y1674500D03*
G54D11*
G01X753300Y1669100D02*
X753200Y1669000D01*
M02*
