G04 ================== begin FILE IDENTIFICATION RECORD ==================*
G04 Layout Name:  TESTPCB.brd*
G04 Film Name:    SILKSCREEN_TOP*
G04 File Format:  Gerber RS274X*
G04 File Origin:  Cadence Allegro 16.6-P004*
G04 Origin Date:  Wed Jul 02 14:20:53 2014*
G04 *
G04 Layer:  REF DES/SILKSCREEN_TOP*
G04 Layer:  PACKAGE GEOMETRY/SILKSCREEN_TOP*
G04 Layer:  BOARD GEOMETRY/SILKSCREEN_TOP*
G04 *
G04 Offset:    (0.00 0.00)*
G04 Mirror:    No*
G04 Mode:      Positive*
G04 Rotation:  0*
G04 FullContactRelief:  No*
G04 UndefLineWidth:     5.00*
G04 ================== end FILE IDENTIFICATION RECORD ====================*
%FSLAX55Y55*MOIN*%
%IR0*IPPOS*OFA0.00000B0.00000*MIA0B0*SFA1.00000B1.00000*%
%ADD10C,.005*%
G75*
%LPD*%
G75*
G36*
G01X759441Y1697800D02*
G03I-2341J0D01*
G37*
G36*
G01X769300Y1665500D02*
X767300D01*
Y1663300D01*
X769300D01*
Y1665500D01*
G37*
G36*
G01X761600Y1663200D02*
X763600D01*
Y1665400D01*
X761600D01*
Y1663200D01*
G37*
G36*
G01X779700Y1657300D02*
X790400D01*
Y1669900D01*
X779700D01*
Y1657300D01*
G37*
G36*
G01X774800Y1665300D02*
X772800D01*
Y1663100D01*
X774800D01*
Y1665300D01*
G37*
G36*
G01X776200Y1698300D02*
X778200D01*
Y1700500D01*
X776200D01*
Y1698300D01*
G37*
G36*
G01X783300Y1700500D02*
X781300D01*
Y1698300D01*
X783300D01*
Y1700500D01*
G37*
G36*
G01X797000Y1663400D02*
X795000D01*
Y1661200D01*
X797000D01*
Y1663400D01*
G37*
G36*
G01X801000Y1661300D02*
X803000D01*
Y1663500D01*
X801000D01*
Y1661300D01*
G37*
G36*
G01X809200Y1663300D02*
X807200D01*
Y1661100D01*
X809200D01*
Y1663300D01*
G37*
G36*
G01X808706Y1700900D02*
G03I-806J0D01*
G37*
G36*
G01X829900Y1660700D02*
Y1662700D01*
X827700D01*
Y1660700D01*
X829900D01*
G37*
G36*
G01X830000Y1666400D02*
Y1668400D01*
X827800D01*
Y1666400D01*
X830000D01*
G37*
G36*
G01X827700Y1673700D02*
Y1671700D01*
X829900D01*
Y1673700D01*
X827700D01*
G37*
G36*
G01Y1678700D02*
Y1676700D01*
X829900D01*
Y1678700D01*
X827700D01*
G37*
G36*
G01Y1683700D02*
Y1681700D01*
X829900D01*
Y1683700D01*
X827700D01*
G37*
G36*
G01X826361Y1688400D02*
G03I-361J0D01*
G37*
G54D10*
G01X779300Y1670300D02*
Y1695200D01*
Y1695300D01*
X779200D01*
X751400D01*
Y1670300D01*
X779300D01*
G01X772192Y1665013D02*
X772317Y1665173D01*
X772400Y1665360D01*
Y1665573D01*
X772275Y1665813D01*
X772067Y1666000D01*
X771817Y1666133D01*
X771400Y1666240D01*
X771025Y1666267D01*
X770650Y1666213D01*
X770400Y1666133D01*
X770150Y1665973D01*
X769983Y1665787D01*
X769900Y1665600D01*
Y1665413D01*
X769983Y1665227D01*
X770108Y1665067D01*
X770275Y1664933D01*
G01Y1663987D02*
X770067Y1663827D01*
X769942Y1663640D01*
X769900Y1663400D01*
X769983Y1663160D01*
X770150Y1662973D01*
X770442Y1662840D01*
X770775Y1662813D01*
X771108Y1662867D01*
X771317Y1663000D01*
X771483Y1663187D01*
X771525Y1663373D01*
X771483Y1663560D01*
X771317Y1663800D01*
X772400Y1663720D01*
Y1663000D01*
G01X766692Y1665713D02*
X766817Y1665873D01*
X766900Y1666060D01*
Y1666273D01*
X766775Y1666513D01*
X766567Y1666700D01*
X766317Y1666833D01*
X765900Y1666940D01*
X765525Y1666967D01*
X765150Y1666913D01*
X764900Y1666833D01*
X764650Y1666673D01*
X764483Y1666487D01*
X764400Y1666300D01*
Y1666113D01*
X764483Y1665927D01*
X764608Y1665767D01*
X764775Y1665633D01*
G01X764400Y1663780D02*
X766900D01*
X765108Y1664767D01*
Y1663433D01*
G01X766900Y1661900D02*
X766817Y1662113D01*
X766608Y1662273D01*
X766358Y1662380D01*
X766025Y1662460D01*
X765650Y1662487D01*
X765275Y1662460D01*
X764942Y1662380D01*
X764692Y1662273D01*
X764483Y1662113D01*
X764400Y1661900D01*
X764483Y1661687D01*
X764692Y1661527D01*
X764942Y1661420D01*
X765275Y1661340D01*
X765650Y1661313D01*
X766025Y1661340D01*
X766358Y1661420D01*
X766608Y1661527D01*
X766817Y1661687D01*
X766900Y1661900D01*
G01X760000Y1661767D02*
X757500D01*
Y1662433D01*
X757625Y1662647D01*
X757792Y1662780D01*
X758125Y1662833D01*
X758458Y1662780D01*
X758667Y1662620D01*
X758792Y1662433D01*
Y1661767D01*
G01Y1662433D02*
X760000Y1662833D01*
G01Y1664820D02*
X757500D01*
X759292Y1663833D01*
Y1665167D01*
G01X760000Y1667020D02*
X757500D01*
X759292Y1666033D01*
Y1667367D01*
G01X756167Y1696400D02*
X756300Y1696150D01*
X756460Y1695983D01*
X756647Y1695900D01*
X756860Y1695983D01*
X757020Y1696150D01*
X757180Y1696400D01*
X757233Y1696733D01*
Y1698400D01*
G01X758393Y1697983D02*
X758553Y1698233D01*
X758740Y1698358D01*
X758953Y1698400D01*
X759220Y1698317D01*
X759407Y1698108D01*
X759460Y1697858D01*
X759433Y1697608D01*
X759327Y1697400D01*
X758793Y1696983D01*
X758553Y1696692D01*
X758393Y1696275D01*
X758340Y1695900D01*
X759460D01*
G01X779000Y1662500D02*
X777875D01*
X776500Y1661967D01*
G01Y1663033D02*
X777875Y1662500D01*
G01X779000Y1664700D02*
X776500D01*
X777000Y1664380D01*
G01X779000D02*
Y1665020D01*
G01X775300Y1696867D02*
X772800D01*
Y1697533D01*
X772925Y1697747D01*
X773092Y1697880D01*
X773425Y1697933D01*
X773758Y1697880D01*
X773967Y1697720D01*
X774092Y1697533D01*
Y1696867D01*
G01Y1697533D02*
X775300Y1697933D01*
G01Y1699920D02*
X772800D01*
X774592Y1698933D01*
Y1700267D01*
G01X775300Y1701800D02*
X772800D01*
X773300Y1701480D01*
G01X775300D02*
Y1702120D01*
G01X784300Y1701633D02*
X786800D01*
Y1700967D01*
X786675Y1700753D01*
X786508Y1700620D01*
X786175Y1700567D01*
X785842Y1700620D01*
X785633Y1700780D01*
X785508Y1700967D01*
Y1701633D01*
G01Y1700967D02*
X784300Y1700567D01*
G01Y1698580D02*
X786800D01*
X785008Y1699567D01*
Y1698233D01*
G01X786383Y1697207D02*
X786633Y1697047D01*
X786758Y1696860D01*
X786800Y1696647D01*
X786717Y1696380D01*
X786508Y1696193D01*
X786258Y1696140D01*
X786008Y1696167D01*
X785800Y1696273D01*
X785383Y1696807D01*
X785092Y1697047D01*
X784675Y1697207D01*
X784300Y1697260D01*
Y1696140D01*
G01X793892Y1661513D02*
X794017Y1661673D01*
X794100Y1661860D01*
Y1662073D01*
X793975Y1662313D01*
X793767Y1662500D01*
X793517Y1662633D01*
X793100Y1662740D01*
X792725Y1662767D01*
X792350Y1662713D01*
X792100Y1662633D01*
X791850Y1662473D01*
X791683Y1662287D01*
X791600Y1662100D01*
Y1661913D01*
X791683Y1661727D01*
X791808Y1661567D01*
X791975Y1661433D01*
G01X791600Y1659580D02*
X794100D01*
X792308Y1660567D01*
Y1659233D01*
G01X797700Y1660267D02*
X800200D01*
Y1661333D01*
G01Y1663000D02*
X797700D01*
X798200Y1662680D01*
G01X800200D02*
Y1663320D01*
G01X790350Y1694650D02*
Y1675350D01*
X809650D01*
Y1694650D01*
X790350D01*
G01X803900Y1663533D02*
X806400D01*
Y1662867D01*
X806275Y1662653D01*
X806108Y1662520D01*
X805775Y1662467D01*
X805442Y1662520D01*
X805233Y1662680D01*
X805108Y1662867D01*
Y1663533D01*
G01Y1662867D02*
X803900Y1662467D01*
G01Y1660480D02*
X806400D01*
X804608Y1661467D01*
Y1660133D01*
G01X820700Y1685793D02*
X817117D01*
X816367Y1685540D01*
X815867Y1685033D01*
X815700Y1684400D01*
X815867Y1683767D01*
X816367Y1683260D01*
X817117Y1683007D01*
X820700D01*
G01X815700Y1679427D02*
X816783Y1679300D01*
X817700Y1679110D01*
X818533Y1678857D01*
X819450Y1678540D01*
X820700Y1678033D01*
Y1680567D01*
G01X817900Y1691507D02*
X821483D01*
X822233Y1691760D01*
X822733Y1692267D01*
X822900Y1692900D01*
X822733Y1693533D01*
X822233Y1694040D01*
X821483Y1694293D01*
X817900D01*
G01X822900Y1698000D02*
X822817Y1698443D01*
X822567Y1698950D01*
X822150Y1699267D01*
X821567Y1699393D01*
X820983Y1699267D01*
X820483Y1698887D01*
X820233Y1698317D01*
Y1697683D01*
X820067Y1697303D01*
X819650Y1696987D01*
X819067Y1696860D01*
X818483Y1697050D01*
X818067Y1697493D01*
X817900Y1698000D01*
X818067Y1698507D01*
X818483Y1698950D01*
X819067Y1699140D01*
X819650Y1699013D01*
X820067Y1698697D01*
X820233Y1698317D01*
Y1697683D01*
X820483Y1697113D01*
X820983Y1696733D01*
X821567Y1696607D01*
X822150Y1696733D01*
X822567Y1697050D01*
X822817Y1697557D01*
X822900Y1698000D01*
G01X837413Y1660708D02*
X837573Y1660583D01*
X837760Y1660500D01*
X837973D01*
X838213Y1660625D01*
X838400Y1660833D01*
X838533Y1661083D01*
X838640Y1661500D01*
X838667Y1661875D01*
X838613Y1662250D01*
X838533Y1662500D01*
X838373Y1662750D01*
X838187Y1662917D01*
X838000Y1663000D01*
X837813D01*
X837627Y1662917D01*
X837467Y1662792D01*
X837333Y1662625D01*
G01X836387Y1662500D02*
X836227Y1662792D01*
X836013Y1662958D01*
X835773Y1663000D01*
X835560Y1662958D01*
X835347Y1662750D01*
X835213Y1662500D01*
X835187Y1662250D01*
X835240Y1661958D01*
X835427Y1661750D01*
X835613Y1661667D01*
X835853D01*
G01X835613D02*
X835453Y1661542D01*
X835320Y1661333D01*
X835267Y1661083D01*
X835320Y1660833D01*
X835453Y1660625D01*
X835693Y1660500D01*
X835933Y1660542D01*
X836173Y1660708D01*
G01X833600Y1663000D02*
X833413Y1662958D01*
X833200Y1662833D01*
X833067Y1662625D01*
X833013Y1662333D01*
X833067Y1662042D01*
X833227Y1661792D01*
X833467Y1661667D01*
X833733D01*
X833893Y1661583D01*
X834027Y1661375D01*
X834080Y1661083D01*
X834000Y1660792D01*
X833813Y1660583D01*
X833600Y1660500D01*
X833387Y1660583D01*
X833200Y1660792D01*
X833120Y1661083D01*
X833173Y1661375D01*
X833307Y1661583D01*
X833467Y1661667D01*
X833733D01*
X833973Y1661792D01*
X834133Y1662042D01*
X834187Y1662333D01*
X834133Y1662625D01*
X834000Y1662833D01*
X833787Y1662958D01*
X833600Y1663000D01*
G01X837433Y1666300D02*
Y1668800D01*
X836367D01*
G01X835207Y1666717D02*
X835047Y1666467D01*
X834860Y1666342D01*
X834647Y1666300D01*
X834380Y1666383D01*
X834193Y1666592D01*
X834140Y1666842D01*
X834167Y1667092D01*
X834273Y1667300D01*
X834807Y1667717D01*
X835047Y1668008D01*
X835207Y1668425D01*
X835260Y1668800D01*
X834140D01*
G01X834787Y1673992D02*
X834627Y1674117D01*
X834440Y1674200D01*
X834227D01*
X833987Y1674075D01*
X833800Y1673867D01*
X833667Y1673617D01*
X833560Y1673200D01*
X833533Y1672825D01*
X833587Y1672450D01*
X833667Y1672200D01*
X833827Y1671950D01*
X834013Y1671783D01*
X834200Y1671700D01*
X834387D01*
X834573Y1671783D01*
X834733Y1671908D01*
X834867Y1672075D01*
G01X836400Y1671700D02*
X836587Y1671742D01*
X836800Y1671867D01*
X836933Y1672075D01*
X836987Y1672367D01*
X836933Y1672658D01*
X836773Y1672908D01*
X836533Y1673033D01*
X836267D01*
X836107Y1673117D01*
X835973Y1673325D01*
X835920Y1673617D01*
X836000Y1673908D01*
X836187Y1674117D01*
X836400Y1674200D01*
X836613Y1674117D01*
X836800Y1673908D01*
X836880Y1673617D01*
X836827Y1673325D01*
X836693Y1673117D01*
X836533Y1673033D01*
X836267D01*
X836027Y1672908D01*
X835867Y1672658D01*
X835813Y1672367D01*
X835867Y1672075D01*
X836000Y1671867D01*
X836213Y1671742D01*
X836400Y1671700D01*
G01X834587Y1678992D02*
X834427Y1679117D01*
X834240Y1679200D01*
X834027D01*
X833787Y1679075D01*
X833600Y1678867D01*
X833467Y1678617D01*
X833360Y1678200D01*
X833333Y1677825D01*
X833387Y1677450D01*
X833467Y1677200D01*
X833627Y1676950D01*
X833813Y1676783D01*
X834000Y1676700D01*
X834187D01*
X834373Y1676783D01*
X834533Y1676908D01*
X834667Y1677075D01*
G01X836147Y1676700D02*
X836200Y1677242D01*
X836280Y1677700D01*
X836387Y1678117D01*
X836520Y1678575D01*
X836733Y1679200D01*
X835667D01*
G01X834087Y1683792D02*
X833927Y1683917D01*
X833740Y1684000D01*
X833527D01*
X833287Y1683875D01*
X833100Y1683667D01*
X832967Y1683417D01*
X832860Y1683000D01*
X832833Y1682625D01*
X832887Y1682250D01*
X832967Y1682000D01*
X833127Y1681750D01*
X833313Y1681583D01*
X833500Y1681500D01*
X833687D01*
X833873Y1681583D01*
X834033Y1681708D01*
X834167Y1681875D01*
G01X836020Y1681500D02*
Y1684000D01*
X835033Y1682208D01*
X836367D01*
G01X837393Y1683583D02*
X837553Y1683833D01*
X837740Y1683958D01*
X837953Y1684000D01*
X838220Y1683917D01*
X838407Y1683708D01*
X838460Y1683458D01*
X838433Y1683208D01*
X838327Y1683000D01*
X837793Y1682583D01*
X837553Y1682292D01*
X837393Y1681875D01*
X837340Y1681500D01*
X838460D01*
G01X832900Y1692000D02*
Y1698000D01*
X826900D01*
Y1692000D01*
X832900D01*
G01X847000Y1689700D02*
Y1677300D01*
X859400D01*
Y1689700D01*
X847000D01*
G01X850713Y1668100D02*
Y1666308D01*
X850820Y1665933D01*
X851033Y1665683D01*
X851300Y1665600D01*
X851567Y1665683D01*
X851780Y1665933D01*
X851887Y1666308D01*
Y1668100D01*
G01X852913Y1665975D02*
X853073Y1665767D01*
X853260Y1665642D01*
X853500Y1665600D01*
X853740Y1665683D01*
X853927Y1665850D01*
X854060Y1666142D01*
X854087Y1666475D01*
X854033Y1666808D01*
X853900Y1667017D01*
X853713Y1667183D01*
X853527Y1667225D01*
X853340Y1667183D01*
X853100Y1667017D01*
X853180Y1668100D01*
X853900D01*
G01X850500Y1664600D02*
Y1660700D01*
X854500D01*
Y1664600D01*
X850500D01*
G01X851940Y1690800D02*
Y1693300D01*
G01X853060D02*
Y1690800D01*
G01Y1692050D02*
X851940D01*
G01X854700Y1690800D02*
Y1693300D01*
X854380Y1692800D01*
G01Y1690800D02*
X855020D01*
M02*
