G04 ================== begin FILE IDENTIFICATION RECORD ==================*
G04 Layout Name:  TESTPCB.brd*
G04 Film Name:    SOLDEMASK_TOP*
G04 File Format:  Gerber RS274X*
G04 File Origin:  Cadence Allegro 16.6-P004*
G04 Origin Date:  Wed Jul 02 14:20:53 2014*
G04 *
G04 Layer:  VIA CLASS/SOLDERMASK_TOP*
G04 Layer:  PIN/SOLDERMASK_TOP*
G04 Layer:  PACKAGE GEOMETRY/SOLDERMASK_TOP*
G04 Layer:  BOARD GEOMETRY/SOLDERMASK_TOP*
G04 *
G04 Offset:    (0.00 0.00)*
G04 Mirror:    No*
G04 Mode:      Positive*
G04 Rotation:  0*
G04 FullContactRelief:  No*
G04 UndefLineWidth:     5.00*
G04 ================== end FILE IDENTIFICATION RECORD ====================*
%FSLAX55Y55*MOIN*%
%IR0*IPPOS*OFA0.00000B0.00000*MIA0B0*SFA1.00000B1.00000*%
%ADD10R,.105X.037*%
%ADD20R,.105X.105*%
%ADD19R,.012X.017*%
%ADD18R,.017X.012*%
%ADD11R,.024X.024*%
%ADD16R,.024X.024*%
%ADD17R,.035X.035*%
%ADD15R,.015X.055*%
%ADD21R,.017X.017*%
%ADD13R,.055X.015*%
%ADD12R,.045X.045*%
%ADD14R,.075X.075*%
%LPD*%
G75*
G54D10*
X757400Y1672800D03*
Y1677800D03*
Y1682800D03*
Y1687800D03*
Y1692800D03*
X773400Y1672800D03*
Y1677800D03*
Y1682800D03*
Y1687800D03*
Y1692800D03*
G54D11*
X768300Y1662300D03*
Y1666500D03*
X762600Y1666400D03*
Y1662200D03*
X773800Y1662100D03*
Y1666300D03*
X777200Y1697300D03*
X782300D03*
X777200Y1701500D03*
X782300D03*
X796000Y1660200D03*
Y1664400D03*
X802000Y1664500D03*
Y1660300D03*
X808200Y1660100D03*
Y1664300D03*
G54D20*
X853200Y1683300D03*
G54D12*
X782300Y1660200D03*
X787500Y1667000D03*
X782300D03*
X787500Y1660200D03*
G54D21*
X851500Y1661600D03*
X853500D03*
Y1663600D03*
X851500D03*
G54D13*
X787850Y1677126D03*
Y1679094D03*
Y1681063D03*
Y1683032D03*
Y1685000D03*
Y1686968D03*
Y1688937D03*
Y1690906D03*
Y1692874D03*
X812150Y1683032D03*
Y1681063D03*
Y1679094D03*
Y1677126D03*
Y1692874D03*
Y1690906D03*
Y1688937D03*
Y1686968D03*
Y1685000D03*
G54D14*
X800000D03*
G54D15*
X801968Y1672850D03*
X800000D03*
X798032D03*
X796063D03*
X794094D03*
X792126D03*
Y1697150D03*
X794094D03*
X796063D03*
X798032D03*
X800000D03*
X801968D03*
X807874Y1672850D03*
X805906D03*
X803937D03*
Y1697150D03*
X805906D03*
X807874D03*
G54D16*
X826700Y1661700D03*
X830900D03*
X826800Y1667400D03*
X831000D03*
X830900Y1672700D03*
X826700D03*
X830900Y1677700D03*
X826700D03*
X830900Y1682700D03*
X826700D03*
G54D17*
X829800Y1695000D03*
G54D18*
X824650Y1691063D03*
Y1692638D03*
Y1694213D03*
Y1695787D03*
Y1697362D03*
Y1698937D03*
X835150D03*
Y1697362D03*
Y1695787D03*
Y1694213D03*
Y1692638D03*
Y1691063D03*
G54D19*
X825963Y1700250D03*
X827538D03*
X829113D03*
X830687D03*
X832262D03*
X833837D03*
Y1689750D03*
X832262D03*
X830687D03*
X829113D03*
X827538D03*
X825963D03*
M02*
