G04 ================== begin FILE IDENTIFICATION RECORD ==================*
G04 Layout Name:  TESTPCB.brd*
G04 Film Name:    VCC3V*
G04 File Format:  Gerber RS274X*
G04 File Origin:  Cadence Allegro 16.6-P004*
G04 Origin Date:  Wed Jul 02 14:20:52 2014*
G04 *
G04 Layer:  VIA CLASS/VCC3V*
G04 Layer:  PIN/VCC3V*
G04 Layer:  ETCH/VCC3V*
G04 *
G04 Offset:    (0.00 0.00)*
G04 Mirror:    No*
G04 Mode:      Negative*
G04 Rotation:  0*
G04 FullContactRelief:  No*
G04 UndefLineWidth:     5.00*
G04 ================== end FILE IDENTIFICATION RECORD ====================*
%FSLAX55Y55*MOIN*%
%IR0*IPPOS*OFA0.00000B0.00000*MIA0B0*SFA1.00000B1.00000*%
%ADD10C,.02*%
%AMMACRO11*
4,1,36,0.0,-.0025,
.000434,-.002462,
.000855,-.002349,
.00125,-.002165,
.001607,-.001915,
.001915,-.001607,
.002165,-.00125,
.002349,-.000855,
.002462,-.000434,
.0025,0.0,
.002462,.000434,
.002349,.000855,
.002165,.00125,
.001915,.001607,
.001607,.001915,
.00125,.002165,
.000855,.002349,
.000434,.002462,
0.0,.0025,
-.000434,.002462,
-.000855,.002349,
-.00125,.002165,
-.001607,.001915,
-.001915,.001607,
-.002165,.00125,
-.002349,.000855,
-.002462,.000434,
-.0025,0.0,
-.002462,-.000434,
-.002349,-.000855,
-.002165,-.00125,
-.001915,-.001607,
-.001607,-.001915,
-.00125,-.002165,
-.000855,-.002349,
-.000434,-.002462,
0.0,-.0025,
0.0*
%
%ADD11MACRO11*%
G75*
%LPD*%
G75*
G36*
G01X739900Y1645900D02*
X870700D01*
Y1714600D01*
X739900D01*
Y1645900D01*
G37*
%LPC*%
G75*
G36*
G01X859699Y1656901D02*
X751501D01*
Y1703599D01*
X859699D01*
Y1656901D01*
G37*
%LPD*%
G75*
G54D10*
X753200Y1669000D03*
X753300Y1665700D03*
X753200Y1662400D03*
Y1658700D03*
X752900Y1698000D03*
X753000Y1701200D03*
X769500Y1658100D03*
X765400Y1658300D03*
X761300Y1658400D03*
X757300Y1658300D03*
X768300Y1669700D03*
X764900Y1693490D03*
X766500Y1691521D03*
X764900Y1701200D03*
X787500Y1667000D03*
X772300Y1658000D03*
X775100D03*
X780600Y1689500D03*
X783300Y1687500D03*
X787000Y1699300D03*
X800000Y1685000D03*
X795250Y1687500D03*
X796100Y1690800D03*
X799500Y1691500D03*
X796000Y1700901D03*
X801500Y1702100D03*
X798000Y1701400D03*
X806000Y1660100D03*
X818500Y1666400D03*
X806700Y1683100D03*
X805600Y1690907D03*
X807600Y1692750D03*
X824400Y1666400D03*
X829800Y1695000D03*
X819500Y1689100D03*
X822500D03*
X846700Y1658100D03*
X850700Y1658202D03*
X840370Y1658502D03*
X839600Y1664600D03*
X842500Y1702500D03*
X857900Y1658700D03*
X854100Y1658600D03*
X857700Y1661000D03*
X857500Y1664100D03*
Y1667500D03*
X857700Y1672700D03*
X857500Y1670500D03*
X857600Y1674500D03*
G54D11*
X756000Y1701366D03*
X757300Y1670100D03*
X773300Y1696000D03*
X784500Y1697626D03*
X773700Y1701500D03*
X816300Y1696600D03*
X821400Y1702700D03*
X833900Y1702500D03*
X840900Y1667400D03*
M02*
