M48
INCH,LZ
T01C.013
;LEADER: 12 
;HEADER: 
;CODE  : ASCII 
;FILE  : ETDS_PCB_ANTENNA-1-4.drl for  ... layers TOP and BOTTOM
;T01 Holesize 1. = 13.000000 Tolerance = +0.000000/-0.000000 PLATED MILS Quantity = 42
%
G90
T01
X07683Y16697
X08067Y16831
X07665Y1691521
X0787Y16993
X0796Y1700901
X07833Y16875
X08195Y16891
X07995Y16915
X08268Y16919
X07806Y16895
X08076Y169275
X07649Y169349
X07649Y17012
X0798Y17014
X07939Y16874
X08056Y1690907
X08339Y167955
X07889Y16657
X08Y1685
X0834Y1672
X0832Y1662
X080155Y17024
X07823Y17015
X081645Y167545
X08274Y169495
X075275Y166695
X07526Y165955
X075265Y166355
X076655Y16572
X076195Y16572
X075705Y16573
X07763Y16571
X077155Y165735
X07529Y16978
X075305Y170195
X081905Y16974
X076575Y168715
X077235Y1701302
X082635Y167605
X07608Y1701366
X083385Y17028
X07574Y16728
M30
