M48
INCH,LZ
T01C.013
;LEADER: 12 
;HEADER: 
;CODE  : ASCII 
;FILE  : TESTPCB-1-4.drl for  ... layers TOP and BOTTOM
;T01 Holesize 1. = 13.000000 Tolerance = +0.000000/-0.000000 PLATED MILS Quantity = 58
%
G90
T01
X07683Y16697
X08067Y16831
X08396Y16646
X084037Y1658502
X08185Y16664
X08244Y16664
X07665Y1691521
X0787Y16993
X0796Y1700901
X07833Y16875
X08225Y16891
X08195Y16891
X07995Y16915
X07806Y16895
X08076Y169275
X07649Y169349
X07649Y17012
X0798Y17014
X07961Y16908
X079525Y16875
X08056Y1690907
X07532Y16587
X07532Y16624
X07533Y16657
X07532Y1669
X07573Y16583
X07613Y16584
X07654Y16583
X07695Y16581
X07751Y1658
X08015Y17021
X08576Y16745
X08575Y16705
X08575Y16675
X08575Y16641
X08577Y1661
X08541Y16586
X08507Y1658202
X08467Y16581
X07529Y1698
X0753Y17012
X07723Y1658
X08579Y16587
X08577Y16727
X08425Y17025
X08Y1685
X07875Y1667
X0806Y16601
X08298Y1695
X08339Y17025
X08409Y16674
X0756Y1701366
X07845Y1697626
X08163Y16966
X08214Y17027
X07733Y1696
X07737Y17015
X07573Y16701
M30
